<svg width="150" height="150" viewBox="0 0 150 150" fill="none" xmlns="http://www.w3.org/2000/svg">
<path fill-rule="evenodd" clip-rule="evenodd" d="M74.9306 42.1527C80.0021 42.0917 84.5854 43.5501 88.6806 46.5277C93.7054 47.8472 98.1267 50.2315 101.944 53.6805C103.731 55.5438 105.352 57.5345 106.806 59.6527C107.002 59.9513 107.117 60.2755 107.153 60.6249C106.671 60.6324 106.301 60.4241 106.042 59.9999C104.962 59.3384 103.804 59.1301 102.569 59.3749C104.196 61.8858 105.608 64.5247 106.806 67.2916C107.093 68.0629 107.325 68.8499 107.5 69.6527C107.823 73.2088 108.378 76.7273 109.167 80.2083C109.491 81.8342 110.186 83.2694 111.25 84.5138C111.318 84.6934 111.341 84.8787 111.319 85.0694C109.497 84.9799 107.992 84.2391 106.806 82.8472C105.678 85.9813 104.289 88.9906 102.639 91.8749C101.77 95.2438 99.6638 97.443 96.3195 98.4722C95.5561 99.016 94.769 99.5252 93.9584 99.9999C93.449 100.694 92.8472 101.296 92.1528 101.805C87.5411 104.732 82.5411 106.676 77.1528 107.639C73.6527 107.906 70.2731 107.397 67.0139 106.111C63.0182 104.623 59.3145 102.632 55.9028 100.139C55.2129 99.588 54.5647 98.9862 53.9584 98.3333C50.6378 97.4663 48.5775 95.3598 47.7778 92.0138C47.6974 90.7565 47.6974 89.5065 47.7778 88.2638C46.7618 89.1373 45.5813 89.5309 44.2361 89.4444C44.1636 89.3665 44.1174 89.2738 44.0972 89.1666C45.8796 87.8015 46.5046 86.019 45.9722 83.8194C43.944 79.5031 42.9254 74.9662 42.9167 70.2083C43.7157 66.6892 45.0352 63.3791 46.875 60.2777C45.3745 60.2747 43.9392 59.9737 42.5695 59.3749C42.4147 59.2051 42.3915 59.0199 42.5 58.8194C44.0602 58.438 45.5185 57.813 46.875 56.9444C49.0754 55.4044 51.2514 53.8302 53.4028 52.2222C55.101 51.0952 56.9529 50.3545 58.9584 49.9999C59.8452 49.9256 60.7249 49.9256 61.5972 49.9999C65.0271 45.6687 69.4715 43.053 74.9306 42.1527Z" fill="#39221B"/>
<path fill-rule="evenodd" clip-rule="evenodd" d="M87.1528 46.3194C84.1871 46.1276 81.224 46.1508 78.2639 46.3889C76.8286 46.5896 75.4397 46.96 74.0972 47.5C73.981 47.6404 73.9347 47.8025 73.9583 47.9861C75.7225 47.4297 77.528 47.0361 79.375 46.8056C82.3424 46.7029 85.3053 46.7724 88.2639 47.0139C92.0354 48.0624 95.5539 49.6596 98.8194 51.8056C101.394 53.8946 103.663 56.2788 105.625 58.9583C105.579 59.0046 105.532 59.051 105.486 59.0972C104.28 58.6075 103.03 58.4456 101.736 58.6111C101.664 58.689 101.617 58.7817 101.597 58.8889C103.716 62.1308 105.452 65.5799 106.806 69.2361C107.147 73.5229 107.887 77.7358 109.028 81.875C109.342 82.7585 109.782 83.5686 110.347 84.3056C108.962 83.9579 107.804 83.2171 106.875 82.0833C106.736 81.9907 106.597 81.9907 106.458 82.0833C105.478 84.9465 104.251 87.7013 102.778 90.3472C102.812 89.1853 102.603 88.0742 102.153 87.0139C103.74 83.5899 104.527 79.9788 104.514 76.1806C104.329 76.1806 104.143 76.1806 103.958 76.1806C103.978 79.3968 103.399 82.4986 102.222 85.4861C102.109 85.8579 101.901 86.1357 101.597 86.3195C100.933 85.5463 100.1 85.0138 99.0972 84.7222C98.929 84.5676 98.929 84.4056 99.0972 84.2361C99.0435 84.0667 98.9278 83.974 98.75 83.9583C98.1912 84.5639 97.6819 85.2121 97.2222 85.9028C96.9132 86.242 96.5428 86.4735 96.1111 86.5972C95.9269 86.5618 95.788 86.4692 95.6944 86.3195C95.5515 85.5385 95.4821 84.7514 95.4861 83.9583C96.1814 84.1285 96.8758 84.3138 97.5694 84.5139C97.4921 80.3603 98.5105 76.4714 100.625 72.8472C100.571 72.6778 100.456 72.5851 100.278 72.5695C98.0057 75.9624 97.0103 79.7124 97.2917 83.8195C95.488 83.3806 93.8676 82.5704 92.4305 81.3889C89.0224 78.3482 86.6843 74.6213 85.4167 70.2083C85.3367 69.8439 85.1514 69.7513 84.8611 69.9306C84.7272 73.9089 85.63 77.6357 87.5694 81.1111C85.5557 80.7775 83.6575 80.0831 81.875 79.0278C79.6062 77.6379 77.5461 75.9943 75.6944 74.0972C75.5872 74.1174 75.4946 74.1636 75.4167 74.2361C74.8471 77.3876 75.2405 80.42 76.5972 83.3333C75.9685 83.4353 75.3665 83.3426 74.7917 83.0556C67.5711 80.001 63.0572 74.6538 61.25 67.0139C60.9922 65.5857 61.2468 64.2663 62.0139 63.0556C61.9958 62.9085 61.9264 62.7928 61.8055 62.7083C61.2205 63.2296 60.8503 63.8778 60.6944 64.6528C60.5283 66.6111 60.7829 68.5092 61.4583 70.3472C60.9111 74.125 60.0547 77.8288 58.8889 81.4583C58.363 82.7879 57.7611 84.0843 57.0833 85.3472C56.0747 81.6735 55.01 78.016 53.8889 74.375C53.8317 74.0282 53.6697 73.7504 53.4028 73.5417C53.2639 73.5879 53.1712 73.6806 53.125 73.8195C54.2128 77.751 54.4674 81.7325 53.8889 85.7639C53.1078 84.1532 51.9735 82.8569 50.4861 81.875C50.2637 81.9493 50.1943 82.0882 50.2778 82.2917C50.9676 82.8425 51.6158 83.4443 52.2222 84.0972C52.3149 84.1899 52.3149 84.2824 52.2222 84.375C50.424 84.7521 49.0583 85.7243 48.125 87.2917C47.35 87.9801 46.4704 88.4895 45.4861 88.8195C45.4399 88.7963 45.3935 88.7732 45.3472 88.75C46.6046 87.4317 47.0443 85.8807 46.6667 84.0972C45.1293 80.6331 44.1108 77.0219 43.6111 73.2639C43.5185 72.1065 43.5185 70.949 43.6111 69.7917C44.4671 66.3897 45.8097 63.1953 47.6389 60.2083C47.7069 60.0288 47.7301 59.8435 47.7083 59.6528C46.3328 59.7476 44.9901 59.5856 43.6805 59.1667C44.7979 58.7636 45.8628 58.2543 46.875 57.6389C48.8903 56.2378 50.881 54.8025 52.8472 53.3333C54.3719 52.3164 55.9922 51.4831 57.7083 50.8333C59.1411 50.6983 60.5764 50.5826 62.0139 50.4861C68.581 42.5199 76.4976 40.83 85.7639 45.4167C86.2596 45.6864 86.7225 45.9872 87.1528 46.3194Z" fill="#67503D"/>
<path fill-rule="evenodd" clip-rule="evenodd" d="M87.1528 46.3195C87.571 46.4819 87.9414 46.7134 88.2639 47.014C85.3053 46.7724 82.3423 46.703 79.375 46.8056C77.528 47.0362 75.7225 47.4298 73.9583 47.9862C73.9347 47.8026 73.981 47.6405 74.0972 47.5001C75.4397 46.9601 76.8286 46.5896 78.2639 46.389C81.224 46.1509 84.1871 46.1277 87.1528 46.3195Z" fill="#4D382E"/>
<path fill-rule="evenodd" clip-rule="evenodd" d="M88.8195 58.8193C89.1071 61.5402 89.57 64.2485 90.2083 66.9443C87.9099 66.7557 85.896 65.8992 84.1667 64.3749C83.5649 65.2545 82.9629 66.1342 82.3611 67.0138C82.1313 64.2893 82.3396 61.6042 82.9861 58.9582C84.1046 61.1189 85.6092 62.9707 87.5 64.5138C87.5254 62.5142 87.9653 60.616 88.8195 58.8193Z" fill="#94745D"/>
<path fill-rule="evenodd" clip-rule="evenodd" d="M70.9028 59.6528C70.9894 59.7107 71.0357 59.8034 71.0417 59.9306C70.69 61.4407 70.5743 62.9685 70.6944 64.5139C70.8967 66.1274 71.2208 67.7016 71.6667 69.2362C69.8858 68.1499 68.5432 66.6684 67.6389 64.7917C67.5339 66.1856 67.5801 67.5745 67.7778 68.9584C68.1165 70.2981 68.5332 71.5944 69.0278 72.8473C65.6301 70.8669 64.1486 67.9039 64.5833 63.9584C64.8768 62.3991 65.5713 61.0564 66.6667 59.9306C66.9353 61.9969 67.8844 63.6635 69.5139 64.9306C69.5731 63.0594 70.036 61.3002 70.9028 59.6528Z" fill="#94755D"/>
<path fill-rule="evenodd" clip-rule="evenodd" d="M73.125 61.0417C73.9008 63.9474 75.2433 66.5633 77.1528 68.889C76.6986 68.8247 76.282 68.6395 75.9028 68.3334C73.8158 66.3561 72.8899 63.9255 73.125 61.0417Z" fill="#93745C"/>
<path fill-rule="evenodd" clip-rule="evenodd" d="M57.5694 61.3193C57.5696 63.8902 57.9862 66.4134 58.8194 68.8888C58.7962 68.9582 58.7732 69.0277 58.75 69.0971C58.071 68.3709 57.5618 67.5375 57.2222 66.5971C56.3669 69.0217 55.904 71.5217 55.8333 74.0971C55.4485 73.4993 55.1707 72.8511 55 72.1527C54.6161 69.9279 54.8014 67.752 55.5555 65.6249C56.1617 64.1511 56.8329 62.716 57.5694 61.3193Z" fill="#94745C"/>
<path fill-rule="evenodd" clip-rule="evenodd" d="M61.875 71.1807C62.825 72.9887 63.8667 74.748 65 76.4584C67.8428 79.9077 71.3845 82.3846 75.625 83.889C76.18 84.0016 76.7356 84.0479 77.2917 84.0279C77.3642 83.95 77.4104 83.8573 77.4306 83.7501C75.9692 80.98 75.4367 78.0401 75.8333 74.9307C78.6306 77.9391 81.9871 80.0919 85.9028 81.389C83.9195 81.8802 81.9288 82.3433 79.9306 82.7779C79.52 83.3302 79.4275 83.9321 79.6528 84.5834C83.265 83.9444 86.8761 83.25 90.4861 82.5001C91.3657 82.4075 92.2454 82.4075 93.125 82.5001C93.6104 82.9516 94.166 83.2989 94.7917 83.5418C95.0092 84.5494 95.1713 85.568 95.2778 86.5973C95.4203 87.0408 95.7211 87.2259 96.1806 87.1529C95.6036 90.8476 94.8397 94.505 93.8889 98.1251C93.6535 98.8816 93.3757 99.6223 93.0556 100.347C90.305 102.476 87.2727 104.119 83.9583 105.278C81.0979 106.433 78.135 107.058 75.0695 107.153C73.0779 107.167 71.1335 106.866 69.2361 106.25C65.4325 105.066 61.8677 103.399 58.5417 101.25C57.851 100.838 57.3649 100.259 57.0833 99.514C55.9804 95.6277 55.1008 91.6926 54.4445 87.7084C54.5421 85.8366 54.6579 83.9616 54.7917 82.0834C54.741 81.0858 54.7178 80.0904 54.7222 79.0973C55.4847 81.4769 56.1329 83.8843 56.6667 86.3196C56.7446 86.3921 56.8372 86.4383 56.9445 86.4584C57.7804 85.25 58.4749 83.9537 59.0278 82.5696C59.1285 82.4919 59.2442 82.4457 59.375 82.4307C63.0257 83.2071 66.6832 83.9479 70.3472 84.6529C70.676 84.6511 70.8611 84.489 70.9028 84.1668C70.8663 83.6611 70.7274 83.1982 70.4861 82.7779C66.999 82.0758 63.5268 81.3119 60.0695 80.4862C60.0232 80.3705 59.9768 80.2547 59.9306 80.139C60.7296 77.1857 61.3777 74.1996 61.875 71.1807Z" fill="#FADAD2"/>
<path fill-rule="evenodd" clip-rule="evenodd" d="M85.4861 72.4307C86.6918 75.4214 88.4049 78.0833 90.625 80.4168C89.8801 80.564 89.1394 80.7261 88.4028 80.9029C88.2639 80.8566 88.125 80.8102 87.9861 80.764C86.5631 78.1615 85.7297 75.3837 85.4861 72.4307Z" fill="#F6D6CE"/>
<path fill-rule="evenodd" clip-rule="evenodd" d="M102.153 87.014C101.972 86.7859 101.787 86.5544 101.597 86.3196C101.901 86.1358 102.109 85.858 102.222 85.4862C103.399 82.4987 103.978 79.3969 103.958 76.1807C104.143 76.1807 104.329 76.1807 104.514 76.1807C104.527 79.9789 103.74 83.59 102.153 87.014Z" fill="#4D382D"/>
<path fill-rule="evenodd" clip-rule="evenodd" d="M53.6806 87.014C51.9537 86.8573 50.8426 87.598 50.3472 89.2362C50.5525 89.2726 50.7376 89.2264 50.9028 89.0973C51.5147 87.8421 52.4869 87.379 53.8194 87.7084C54.1165 88.689 54.3018 89.7075 54.375 90.764C54.375 90.9029 54.375 91.0418 54.375 91.1807C53.4872 91.1214 52.8622 91.4916 52.5 92.2918C52.1461 93.7362 52.6322 94.7779 53.9583 95.4168C54.4658 95.5937 54.975 95.7557 55.4861 95.9029C55.7219 96.6151 55.9071 97.3558 56.0417 98.1251C52.0953 97.8119 49.5258 95.7748 48.3333 92.014C47.915 90.2747 48.1003 88.608 48.8889 87.014C49.4982 86.2179 50.2621 85.6393 51.1806 85.2779C51.6612 85.1398 52.1474 85.0241 52.6389 84.9307C53.2021 85.5015 53.5493 86.1959 53.6806 87.014Z" fill="#E7B5AA"/>
<path fill-rule="evenodd" clip-rule="evenodd" d="M95.0694 95.7638C97.3267 95.4348 98.2294 94.1848 97.7778 92.0138C97.334 91.4569 96.7553 91.1791 96.0417 91.1805C96.184 89.9555 96.4154 88.7517 96.7361 87.5694C97.9901 87.4806 98.9161 87.9898 99.5139 89.0971C99.679 89.2262 99.8642 89.2724 100.069 89.236C99.5174 87.7584 98.4525 86.9713 96.875 86.8749C97.4851 86.3105 98.0869 85.7549 98.6805 85.2083C100.601 85.6701 101.735 86.8738 102.083 88.8194C102.619 93.1913 100.837 96.131 96.7361 97.6388C96.0449 97.8233 95.3504 97.9852 94.6528 98.1249C94.6626 97.3331 94.8015 96.546 95.0694 95.7638Z" fill="#E8B6AB"/>
<path fill-rule="evenodd" clip-rule="evenodd" d="M63.2639 85.7639C65.8104 85.7778 68.3104 86.125 70.7639 86.8056C70.9685 86.9042 71.0611 87.0661 71.0417 87.2917C69.6042 87.0675 68.1689 86.8129 66.7361 86.5278C65.6282 86.3984 64.5171 86.3059 63.4028 86.25C63.2865 86.1096 63.2403 85.9475 63.2639 85.7639Z" fill="#EBA697"/>
<path fill-rule="evenodd" clip-rule="evenodd" d="M84.5139 85.7639C85.3472 85.7639 86.1806 85.7639 87.0139 85.7639C87.0375 85.9475 86.9913 86.1096 86.875 86.25C84.3417 86.3875 81.8417 86.7347 79.375 87.2917C79.3514 87.1081 79.3976 86.946 79.5139 86.8056C81.1772 86.3517 82.8439 86.0045 84.5139 85.7639Z" fill="#EBA696"/>
<path fill-rule="evenodd" clip-rule="evenodd" d="M70.3472 88.9584C70.1501 88.8263 69.9188 88.78 69.6528 88.8195C69.6156 89.0416 69.662 89.2267 69.7917 89.375C70.3028 92.0338 69.5158 94.1866 67.4306 95.8334C65.4685 96.6916 63.524 96.6453 61.5972 95.6945C60.4378 94.6479 59.8128 93.3285 59.7222 91.7361C59.6235 90.5286 59.6467 89.3249 59.7917 88.125C59.0972 88.125 58.4028 88.125 57.7083 88.125C57.4306 88.125 57.1528 88.125 56.875 88.125C56.8365 87.7156 56.8828 87.3221 57.0139 86.9445C61.6021 86.6864 66.1392 87.0567 70.625 88.0556C71 88.1874 71.1157 88.4421 70.9722 88.8195C70.7839 88.9417 70.5756 88.9881 70.3472 88.9584Z" fill="#362019"/>
<path fill-rule="evenodd" clip-rule="evenodd" d="M92.4306 88.1251C91.8287 88.1251 91.2268 88.1251 90.625 88.1251C90.9454 90.2637 90.7371 92.347 90 94.3751C89.2562 95.5925 88.1683 96.2637 86.7361 96.389C83.2729 96.7991 81.2128 95.2944 80.5556 91.8751C80.4832 90.8545 80.5062 89.8361 80.625 88.8195C80.4224 88.8102 80.2372 88.8565 80.0694 88.9584C79.3989 88.9744 79.2137 88.6734 79.5139 88.0557C84.0861 87.0175 88.7157 86.6472 93.4028 86.9445C93.8183 87.9386 93.4943 88.332 92.4306 88.1251Z" fill="#362019"/>
<path fill-rule="evenodd" clip-rule="evenodd" d="M53.6806 87.0139C53.7918 87.2281 53.8381 87.4595 53.8195 87.7084C52.487 87.3789 51.5147 87.842 50.9028 89.0973C50.7376 89.2263 50.5525 89.2725 50.3472 89.2361C50.8426 87.5979 51.9538 86.8573 53.6806 87.0139Z" fill="#D28484"/>
<path fill-rule="evenodd" clip-rule="evenodd" d="M96.875 86.875C98.4525 86.9714 99.5174 87.7585 100.069 89.2361C99.8642 89.2725 99.679 89.2263 99.5139 89.0972C98.9161 87.9899 97.9901 87.4807 96.7361 87.5694C96.6967 87.3035 96.7429 87.0721 96.875 86.875Z" fill="#D18483"/>
<path fill-rule="evenodd" clip-rule="evenodd" d="M57.7083 88.125C58.4028 88.125 59.0972 88.125 59.7917 88.125C59.6467 89.3249 59.6235 90.5286 59.7222 91.7361C59.8128 93.3285 60.4378 94.6479 61.5972 95.6944C63.524 96.6453 65.4685 96.6915 67.4305 95.8333C69.5158 94.1865 70.3028 92.0337 69.7917 89.375C69.7917 89.2361 69.7917 89.0972 69.7917 88.9583C69.9768 88.9583 70.1621 88.9583 70.3472 88.9583C70.4728 91.7431 69.7553 94.2894 68.1944 96.5972C68.0136 96.6785 67.8515 96.771 67.7083 96.875C64.7075 97.3039 61.7446 97.1187 58.8194 96.3194C57.9136 93.7136 57.4043 91.0285 57.2917 88.2639C57.471 88.2968 57.6099 88.2506 57.7083 88.125Z" fill="#FCFCFB"/>
<path fill-rule="evenodd" clip-rule="evenodd" d="M92.4305 88.125C92.6276 88.2571 92.859 88.3033 93.125 88.2639C93.0043 91.0254 92.495 93.7107 91.5972 96.3194C89.0405 96.94 86.4479 97.1946 83.8194 97.0833C83.401 97.0136 82.9843 96.9442 82.5694 96.875C80.6901 94.5956 79.8568 91.9567 80.0694 88.9583C80.2372 88.8564 80.4224 88.8101 80.625 88.8194C80.5062 89.836 80.4832 90.8544 80.5555 91.875C81.2128 95.2943 83.2729 96.799 86.7361 96.3889C88.1683 96.2636 89.2562 95.5924 90 94.375C90.7371 92.3469 90.9454 90.2636 90.625 88.125C91.2268 88.125 91.8287 88.125 92.4305 88.125Z" fill="#FDFCFC"/>
<path fill-rule="evenodd" clip-rule="evenodd" d="M62.1528 88.4028C63.6358 88.4887 65.1174 88.6045 66.5972 88.7501C67.2467 89.7088 67.0615 90.4959 66.0417 91.1112C64.7711 91.9598 63.3822 92.2376 61.875 91.9445C60.7732 91.4462 60.4722 90.6359 60.9722 89.5139C61.3304 89.0944 61.724 88.7239 62.1528 88.4028Z" fill="#FBF7F1"/>
<path fill-rule="evenodd" clip-rule="evenodd" d="M84.5139 88.5416C85.4872 88.5185 86.4594 88.5416 87.4305 88.611C88.0826 89.2151 88.1521 89.8863 87.6389 90.6249C86.058 92.0434 84.2757 92.3906 82.2917 91.6666C81.4812 90.6495 81.5739 89.7235 82.5694 88.8888C83.2411 88.7944 83.8893 88.6785 84.5139 88.5416Z" fill="#FBF7F1"/>
<path fill-rule="evenodd" clip-rule="evenodd" d="M70.3472 88.9584C70.1621 88.9584 69.9768 88.9584 69.7917 88.9584C69.7917 89.0973 69.7917 89.2362 69.7917 89.3751C69.6619 89.2267 69.6156 89.0416 69.6528 88.8195C69.9188 88.7801 70.1501 88.8263 70.3472 88.9584Z" fill="#9B908C"/>
<path fill-rule="evenodd" clip-rule="evenodd" d="M54.375 90.7639C54.501 91.0635 54.5935 91.3875 54.6528 91.7361C53.259 91.7402 52.7265 92.4346 53.0556 93.8195C53.6106 94.6182 54.3744 95.0811 55.3472 95.2084C55.4219 95.4329 55.4682 95.6645 55.4861 95.9028C54.975 95.7556 54.4658 95.5936 53.9583 95.4167C52.6322 94.7778 52.1461 93.7361 52.5 92.2917C52.8622 91.4916 53.4872 91.1213 54.375 91.1806C54.375 91.0417 54.375 90.9028 54.375 90.7639Z" fill="#D08483"/>
<path fill-rule="evenodd" clip-rule="evenodd" d="M96.0417 91.1807C96.7553 91.1793 97.334 91.4571 97.7778 92.014C98.2294 94.185 97.3267 95.435 95.0694 95.764C95.0322 95.5419 95.0786 95.3568 95.2083 95.2084C96.179 95.0469 96.8965 94.5376 97.3611 93.6807C97.6351 92.4511 97.149 91.8029 95.9028 91.7362C95.949 91.5511 95.9954 91.3658 96.0417 91.1807Z" fill="#D08383"/>
<path fill-rule="evenodd" clip-rule="evenodd" d="M54.6528 91.7361C54.8396 92.9037 55.0711 94.0611 55.3472 95.2083C54.3744 95.0811 53.6106 94.6182 53.0556 93.8194C52.7265 92.4346 53.259 91.7401 54.6528 91.7361Z" fill="#E6B4A9"/>
<path fill-rule="evenodd" clip-rule="evenodd" d="M95.9028 91.7361C97.149 91.8028 97.6351 92.4509 97.3611 93.6805C96.8965 94.5375 96.179 95.0468 95.2083 95.2083C95.4573 94.0557 95.6889 92.8983 95.9028 91.7361Z" fill="#E7B5AA"/>
<path fill-rule="evenodd" clip-rule="evenodd" d="M61.7361 92.4305C61.9268 92.4087 62.1121 92.4319 62.2917 92.5C63.1039 93.8511 64.2614 94.2678 65.7639 93.75C66.2732 93.426 66.6899 93.0093 67.0139 92.5C67.7368 92.4568 68.3386 92.7114 68.8194 93.2639C67.756 95.3697 66.0429 96.2262 63.6806 95.8333C62.1547 95.6025 61.1362 94.7691 60.625 93.3333C60.9411 92.946 61.3115 92.645 61.7361 92.4305Z" fill="#614236"/>
<path fill-rule="evenodd" clip-rule="evenodd" d="M82.7083 92.4305C82.899 92.4087 83.0843 92.4319 83.2639 92.5C84.3072 94.0432 85.6497 94.3672 87.2917 93.4722C87.554 93.0012 87.9243 92.654 88.4028 92.4305C88.9576 92.5685 89.4206 92.8462 89.7917 93.2639C89.3096 94.7401 88.2911 95.5966 86.7361 95.8333C84.635 96.2448 82.9914 95.5736 81.8056 93.8194C81.6692 93.6446 81.6229 93.4594 81.6667 93.2639C82.0108 92.9668 82.3581 92.689 82.7083 92.4305Z" fill="#614236"/>
<path fill-rule="evenodd" clip-rule="evenodd" d="M58.8194 96.3193C61.7446 97.1186 64.7075 97.3038 67.7083 96.8749C67.8935 96.8749 68.0787 96.8749 68.2639 96.8749C68.2639 97.0138 68.2639 97.1527 68.2639 97.2916C65.143 97.8748 62.0412 97.7591 58.9583 96.9443C58.5029 96.7682 58.4567 96.5599 58.8194 96.3193Z" fill="#E9B1A9"/>
<path fill-rule="evenodd" clip-rule="evenodd" d="M91.5972 96.3193C91.8961 96.3995 91.9424 96.5616 91.7361 96.8054C88.6242 97.7071 85.476 97.8923 82.2917 97.361C82.1754 97.2206 82.1292 97.0585 82.1528 96.8749C82.2917 96.8749 82.4306 96.8749 82.5694 96.8749C82.9843 96.9441 83.401 97.0135 83.8194 97.0832C86.4479 97.1945 89.0406 96.9399 91.5972 96.3193Z" fill="#E9B1A9"/>
<path fill-rule="evenodd" clip-rule="evenodd" d="M74.9305 98.4027C75.6011 98.3867 75.7862 98.6877 75.4861 99.3055C74.6858 99.3635 74.5005 99.0626 74.9305 98.4027Z" fill="#E998A1"/>
<path fill-rule="evenodd" clip-rule="evenodd" d="M55.2083 98.8194C56.0246 98.4923 56.4875 98.7701 56.5972 99.6528C56.5275 99.7946 56.435 99.8178 56.3195 99.7222C55.9703 99.3868 55.5999 99.0859 55.2083 98.8194Z" fill="#634C3A"/>
<path fill-rule="evenodd" clip-rule="evenodd" d="M73.4028 102.292C74.6074 102.269 75.8111 102.292 77.0139 102.361C77.199 102.5 77.199 102.639 77.0139 102.778C75.8101 102.87 74.6065 102.87 73.4028 102.778C73.2383 102.619 73.2383 102.457 73.4028 102.292Z" fill="#BB6262"/>
</svg>
