<?xml version="1.0" encoding="UTF-8"?>
<!DOCTYPE svg PUBLIC "-//W3C//DTD SVG 1.1//EN" "http://www.w3.org/Graphics/SVG/1.1/DTD/svg11.dtd">
<svg xmlns="http://www.w3.org/2000/svg" version="1.1" width="1080px" height="1080px" style="shape-rendering:geometricPrecision; text-rendering:geometricPrecision; image-rendering:optimizeQuality; fill-rule:evenodd; clip-rule:evenodd" xmlns:xlink="http://www.w3.org/1999/xlink">
<g><path style="opacity:1" fill="#fefefe" d="M -0.5,-0.5 C 359.5,-0.5 719.5,-0.5 1079.5,-0.5C 1079.5,359.5 1079.5,719.5 1079.5,1079.5C 719.5,1079.5 359.5,1079.5 -0.5,1079.5C -0.5,719.5 -0.5,359.5 -0.5,-0.5 Z"/></g>
<g><path style="opacity:1" fill="#38221b" d="M 534.5,297.5 C 573.765,294.976 609.098,305.476 640.5,329C 673.335,337.585 703.001,352.251 729.5,373C 747.355,390.259 763.188,409.093 777,429.5C 777.783,431.319 777.283,432.652 775.5,433.5C 766.386,425.221 755.719,421.888 743.5,423.5C 756.148,443.125 766.981,463.792 776,485.5C 777.741,490.054 779.074,494.721 780,499.5C 782.505,527.865 787.172,555.865 794,583.5C 796.121,593.599 800.787,602.266 808,609.5C 808.49,610.793 808.657,612.127 808.5,613.5C 794.961,613.147 783.794,607.814 775,597.5C 767.153,619.859 757.153,641.193 745,661.5C 739.593,686.569 724.759,703.069 700.5,711C 694.103,715.727 687.436,720.06 680.5,724C 676.124,730.044 670.79,735.044 664.5,739C 635.516,756.655 604.516,769.655 571.5,778C 551.799,782.172 532.132,782.172 512.5,778C 470.374,767.767 432.04,749.767 397.5,724C 393.5,720 389.5,716 385.5,712C 349.56,699.958 334.06,675.125 339,637.5C 331.134,644.214 322.134,646.881 312,645.5C 311.333,644.833 311.333,644.167 312,643.5C 323.838,634.818 328.838,623.151 327,608.5C 316.08,583.824 308.414,558.157 304,531.5C 303.333,520.833 303.333,510.167 304,499.5C 310.185,475.277 319.685,452.443 332.5,431C 321.342,430.808 310.675,428.475 300.5,424C 299.62,422.644 299.286,421.144 299.5,419.5C 311.171,416.665 322.171,412.165 332.5,406C 347.521,395.823 362.188,385.156 376.5,374C 389.483,364.676 403.816,358.343 419.5,355C 426.833,354.667 434.167,354.333 441.5,354C 465.853,324.131 496.853,305.298 534.5,297.5 Z"/></g>
<g><path style="opacity:1" fill="#67503d" d="M 629.5,326.5 C 607.987,326.027 586.321,326.527 564.5,328C 553.946,329.888 543.613,332.555 533.5,336C 532.62,337.356 532.286,338.856 532.5,340.5C 546.398,335.61 560.731,332.444 575.5,331C 596.206,330.201 616.873,330.701 637.5,332.5C 666.071,340.621 692.738,352.788 717.5,369C 726.6,376.097 735.1,383.931 743,392.5C 751.544,402.042 759.71,411.875 767.5,422C 757.845,418.792 747.845,417.792 737.5,419C 737.043,419.414 736.709,419.914 736.5,420.5C 752.222,444.276 765.055,469.609 775,496.5C 777.338,529.863 783.338,562.53 793,594.5C 795.12,599.242 797.62,603.742 800.5,608C 795.945,607.235 791.612,605.568 787.5,603C 782.684,599.019 778.018,594.852 773.5,590.5C 765.61,611.306 756.444,631.639 746,651.5C 745.284,643.528 743.45,635.861 740.5,628.5C 752.316,602.886 757.983,575.886 757.5,547.5C 756.178,547.33 755.011,547.663 754,548.5C 754.087,572.309 749.754,595.309 741,617.5C 740.186,620.177 738.686,622.177 736.5,623.5C 731.656,617.171 725.323,613.004 717.5,611C 717.146,609.374 717.146,607.541 717.5,605.5C 716.448,605.351 715.448,605.517 714.5,606C 710.036,614.13 703.87,620.63 696,625.5C 694.118,624.907 693.118,623.573 693,621.5C 691.392,616.205 691.225,610.871 692.5,605.5C 697.499,608.049 702.666,609.049 708,608.5C 706.252,577.823 713.419,549.489 729.5,523.5C 728.38,521.404 726.88,521.07 725,522.5C 710.021,547.749 702.854,575.082 703.5,604.5C 691.126,601.646 680.126,596.146 670.5,588C 644.486,565.168 626.653,537.001 617,503.5C 615.921,501.606 614.587,501.273 613,502.5C 611.805,531.384 618.305,558.384 632.5,583.5C 632,583.833 631.5,584.167 631,584.5C 597.664,575.983 569.497,558.983 546.5,533.5C 545.675,532.614 544.675,532.281 543.5,532.5C 538.937,555.913 541.604,578.579 551.5,600.5C 548.19,601.349 544.856,601.182 541.5,600C 513.434,588.565 489.601,571.398 470,548.5C 456.216,529.265 445.883,508.265 439,485.5C 438.333,477.5 438.333,469.5 439,461.5C 441.11,457.578 442.943,453.578 444.5,449.5C 441.491,449.423 439.324,450.756 438,453.5C 433.265,464.113 432.265,475.113 435,486.5C 436.727,492.515 438.56,498.515 440.5,504.5C 436.35,532.741 429.85,560.408 421,587.5C 417.535,597.091 413.035,606.091 407.5,614.5C 399.979,587.75 392.145,561.083 384,534.5C 383.288,532.153 382.121,530.153 380.5,528.5C 379.119,529 378.453,530 378.5,531.5C 386.304,560.096 388.138,589.096 384,618.5C 378.001,606.338 369.167,597.004 357.5,590.5C 358.444,594.295 360.777,597.129 364.5,599C 367.731,601.727 370.397,604.894 372.5,608.5C 358.776,611.184 348.443,618.517 341.5,630.5C 338.736,631.761 336.403,633.595 334.5,636C 330.807,638.526 326.807,639.86 322.5,640C 330.248,630.511 333.081,619.677 331,607.5C 319.269,580.971 311.602,553.304 308,524.5C 307.021,513.721 307.688,503.055 310,492.5C 317.199,469.94 326.699,448.44 338.5,428C 338.355,427.228 338.022,426.561 337.5,426C 331.833,425.667 326.167,425.333 320.5,425C 316.281,424.827 312.281,423.827 308.5,422C 318.839,418.663 328.506,413.997 337.5,408C 351.344,398.244 365.011,388.244 378.5,378C 391.975,368.097 406.975,361.763 423.5,359C 430.189,358.622 436.856,358.622 443.5,359C 470.489,323.421 506.322,304.254 551,301.5C 579.383,302.906 605.55,311.239 629.5,326.5 Z"/></g>
<g><path style="opacity:1" fill="#4d382d" d="M 629.5,326.5 C 632.473,328.147 635.14,330.147 637.5,332.5C 616.873,330.701 596.206,330.201 575.5,331C 560.731,332.444 546.398,335.61 532.5,340.5C 532.286,338.856 532.62,337.356 533.5,336C 543.613,332.555 553.946,329.888 564.5,328C 586.321,326.527 607.987,326.027 629.5,326.5 Z"/></g>
<g><path style="opacity:1" fill="#94745c" d="M 598.5,420.5 C 606.836,436.35 618.002,450.016 632,461.5C 632.664,447.177 635.998,433.51 642,420.5C 644.208,440.417 647.708,460.084 652.5,479.5C 635.281,478.922 620.448,472.588 608,460.5C 603.667,466.833 599.333,473.167 595,479.5C 592.903,459.656 594.07,439.989 598.5,420.5 Z"/></g>
<g><path style="opacity:1" fill="#94755d" d="M 510.5,424.5 C 511.097,424.735 511.43,425.235 511.5,426C 509.979,430.7 509.146,435.534 509,440.5C 506.758,459.064 508.925,477.064 515.5,494.5C 514.635,495.583 513.635,495.749 512.5,495C 500.498,487.161 491.665,476.661 486,463.5C 485.667,463.833 485.333,464.167 485,464.5C 484.184,476.641 485.184,488.641 488,500.5C 490.508,508.364 493.175,516.03 496,523.5C 470.959,509.085 459.959,487.419 463,458.5C 465.52,446.793 470.687,436.459 478.5,427.5C 480.777,443.067 487.944,455.733 500,465.5C 499.742,450.792 503.242,437.125 510.5,424.5 Z"/></g>
<g><path style="opacity:1" fill="#93735c" d="M 525.5,434.5 C 531.718,456.769 542.051,476.936 556.5,495C 547.303,491.49 540.137,485.323 535,476.5C 528.201,463.343 525.035,449.343 525.5,434.5 Z"/></g>
<g><path style="opacity:1" fill="#94755d" d="M 410.5,440.5 C 411.667,458.61 415.001,476.444 420.5,494C 420.333,494.5 420.167,495 420,495.5C 414.801,490.436 411.135,484.436 409,477.5C 402.782,495.256 399.115,513.59 398,532.5C 388.354,511.388 388.021,490.055 397,468.5C 401.241,459.018 405.741,449.685 410.5,440.5 Z"/></g>
<g><path style="opacity:1" fill="#f8d9d1" d="M 504.5,584.5 C 492.167,585.167 479.833,585.833 467.5,586.5C 452.215,585.99 437.549,588.657 423.5,594.5C 423.167,594.167 422.833,593.833 422.5,593.5C 427.569,580.794 431.735,567.794 435,554.5C 437.759,540.035 440.759,525.702 444,511.5C 453.924,533.527 467.424,553.027 484.5,570C 490.765,575.439 497.432,580.272 504.5,584.5 Z"/></g>
<g><path style="opacity:1" fill="#f5d5cd" d="M 616.5,516.5 C 626.956,544.561 643.29,568.727 665.5,589C 672.235,594.452 679.402,599.286 687,603.5C 687.667,605.167 687.667,606.833 687,608.5C 672.556,598.695 656.723,592.362 639.5,589.5C 626.836,566.836 619.169,542.502 616.5,516.5 Z"/></g>
<g><path style="opacity:1" fill="#fadad2" d="M 554.5,776.5 C 580.421,770.06 592.921,753.393 592,726.5C 590.829,725.107 589.329,724.273 587.5,724C 572.804,723.503 558.137,724.003 543.5,725.5C 529.828,724.933 516.162,724.266 502.5,723.5C 491.422,721.941 487.589,726.607 491,737.5C 493.728,754.901 503.228,767.067 519.5,774C 518.906,774.464 518.239,774.631 517.5,774.5C 484.786,767.539 454.119,755.372 425.5,738C 420.044,734.213 414.877,730.046 410,725.5C 399.012,692.848 391.512,659.348 387.5,625C 390.639,605.168 391.139,585.335 389,565.5C 392.912,578.315 396.745,591.149 400.5,604C 398.329,606.66 395.663,608.827 392.5,610.5C 391.38,614.188 391.547,617.854 393,621.5C 393.414,621.957 393.914,622.291 394.5,622.5C 397.64,620.594 400.973,619.26 404.5,618.5C 404.051,620.977 404.717,622.977 406.5,624.5C 408.944,621.123 411.278,617.623 413.5,614C 446.39,599.925 480.724,594.425 516.5,597.5C 516.822,595.278 516.155,593.444 514.5,592C 522.753,596.453 531.42,600.453 540.5,604C 546.341,605.951 552.341,606.784 558.5,606.5C 549.845,588.742 545.178,569.908 544.5,550C 544.515,546.097 545.015,542.264 546,538.5C 566.633,560.238 591.133,576.072 619.5,586C 603.156,586.167 586.823,586.667 570.5,587.5C 568.049,590.4 566.715,593.734 566.5,597.5C 590.427,596.395 614.093,598.228 637.5,603C 655.558,608.463 673.058,615.296 690,623.5C 690.297,627.628 692.464,629.795 696.5,630C 691.868,659.161 685.701,687.994 678,716.5C 676.472,719.417 675.139,722.417 674,725.5C 668.407,731.096 662.24,735.93 655.5,740C 624.059,758.39 590.392,770.557 554.5,776.5 Z"/></g>
<g><path style="opacity:1" fill="#4d382d" d="M 740.5,628.5 C 739.197,626.858 737.864,625.191 736.5,623.5C 738.686,622.177 740.186,620.177 741,617.5C 749.754,595.309 754.087,572.309 754,548.5C 755.011,547.663 756.178,547.33 757.5,547.5C 757.983,575.886 752.316,602.886 740.5,628.5 Z"/></g>
<g><path style="opacity:1" fill="#a1857e" d="M 504.5,584.5 C 505.289,584.783 505.956,585.283 506.5,586C 493.504,586.5 480.504,586.667 467.5,586.5C 479.833,585.833 492.167,585.167 504.5,584.5 Z"/></g>
<g><path style="opacity:1" fill="#e7b5aa" d="M 382.5,627.5 C 370.08,626.92 362.08,632.586 358.5,644.5C 361.713,643.836 363.879,641.836 365,638.5C 370.052,632.711 376.218,631.045 383.5,633.5C 386.118,641.515 387.784,649.848 388.5,658.5C 377.053,659.112 371.887,665.112 373,676.5C 373.848,679.698 375.348,682.531 377.5,685C 383.302,689.234 389.636,692.401 396.5,694.5C 398.142,699.733 399.475,705.067 400.5,710.5C 360,705.836 340.5,683.17 342,642.5C 343.968,630.878 350.135,622.378 360.5,617C 364.863,615.101 369.363,613.601 374,612.5C 378.876,616.242 381.709,621.242 382.5,627.5 Z"/></g>
<g><path style="opacity:1" fill="#e7b5aa" d="M 687.5,694.5 C 693.884,692.14 699.884,688.974 705.5,685C 711.386,678.153 711.886,670.986 707,663.5C 703.819,660.328 699.986,658.994 695.5,659.5C 696.418,650.32 698.085,641.32 700.5,632.5C 710.413,631.121 717.413,634.955 721.5,644C 722.448,644.483 723.448,644.649 724.5,644.5C 721.118,632.478 713.118,627.144 700.5,628.5C 705.503,623.997 710.337,619.33 715,614.5C 729.576,618.301 738.243,627.635 741,642.5C 742.774,682.314 723.941,704.647 684.5,709.5C 685.025,704.4 686.025,699.4 687.5,694.5 Z"/></g>
<g><path style="opacity:1" fill="#d18483" d="M 382.5,627.5 C 383.461,629.265 383.795,631.265 383.5,633.5C 376.218,631.045 370.052,632.711 365,638.5C 363.879,641.836 361.713,643.836 358.5,644.5C 362.08,632.586 370.08,626.92 382.5,627.5 Z"/></g>
<g><path style="opacity:1" fill="#d28484" d="M 700.5,628.5 C 713.118,627.144 721.118,632.478 724.5,644.5C 723.448,644.649 722.448,644.483 721.5,644C 717.413,634.955 710.413,631.121 700.5,632.5C 700.5,631.167 700.5,629.833 700.5,628.5 Z"/></g>
<g><path style="opacity:1" fill="#eba596" d="M 475.5,646.5 C 484.903,646.266 493.903,648.1 502.5,652C 505.87,653.346 508.87,655.179 511.5,657.5C 511.113,658.72 510.28,659.387 509,659.5C 498.75,654.305 487.917,651.138 476.5,650C 475.663,648.989 475.33,647.822 475.5,646.5 Z"/></g>
<g><path style="opacity:1" fill="#eba595" d="M 596.5,646.5 C 600.167,646.5 603.833,646.5 607.5,646.5C 607.67,647.822 607.337,648.989 606.5,650C 594.993,650.77 584.159,653.937 574,659.5C 571.659,658.993 571.159,657.826 572.5,656C 580.191,651.721 588.191,648.554 596.5,646.5 Z"/></g>
<g><path style="opacity:1" fill="#d18584" d="M 388.5,658.5 C 389.234,659.708 389.567,661.041 389.5,662.5C 379.114,662.903 375.28,668.236 378,678.5C 382.109,683.892 387.442,687.559 394,689.5C 394.483,688.552 394.649,687.552 394.5,686.5C 395.371,689.003 396.037,691.67 396.5,694.5C 389.636,692.401 383.302,689.234 377.5,685C 375.348,682.531 373.848,679.698 373,676.5C 371.887,665.112 377.053,659.112 388.5,658.5 Z"/></g>
<g><path style="opacity:1" fill="#d08483" d="M 695.5,659.5 C 699.986,658.994 703.819,660.328 707,663.5C 711.886,670.986 711.386,678.153 705.5,685C 699.884,688.974 693.884,692.14 687.5,694.5C 687.927,691.99 688.593,689.657 689.5,687.5C 696.972,687.315 702.472,683.648 706,676.5C 707.098,667.766 703.264,663.099 694.5,662.5C 695.11,661.609 695.443,660.609 695.5,659.5 Z"/></g>
<g><path style="opacity:1" fill="#e6a293" d="M 480.5,663.5 C 472.895,662.248 465.228,661.581 457.5,661.5C 473.878,657.754 489.878,659.254 505.5,666C 507.107,667.049 507.773,668.549 507.5,670.5C 503.089,669.307 498.756,667.807 494.5,666C 489.904,664.714 485.237,663.881 480.5,663.5 Z"/></g>
<g><path style="opacity:1" fill="#e7a495" d="M 623.5,661.5 C 614.5,661.071 605.833,662.404 597.5,665.5C 597.083,664.876 596.416,664.543 595.5,664.5C 592.855,665.108 590.188,665.608 587.5,666C 583.578,667.798 579.578,669.298 575.5,670.5C 575.238,669.022 575.571,667.689 576.5,666.5C 591.704,659.324 607.371,657.658 623.5,661.5 Z"/></g>
<g><path style="opacity:1" fill="#351f18" d="M 457.5,661.5 C 465.228,661.581 472.895,662.248 480.5,663.5C 489.488,666.242 497.988,670.242 506,675.5C 506.953,678.432 507.453,681.432 507.5,684.5C 492.644,680.051 477.477,677.051 462,675.5C 443.434,678.299 425.6,683.632 408.5,691.5C 407.522,691.023 406.689,690.357 406,689.5C 405.682,685.805 405.182,682.138 404.5,678.5C 404.529,676.971 405.196,675.804 406.5,675C 422.716,667.529 439.716,663.029 457.5,661.5 Z"/></g>
<g><path style="opacity:1" fill="#351f18" d="M 623.5,661.5 C 642.301,663.201 660.301,668.034 677.5,676C 678.059,676.725 678.392,677.558 678.5,678.5C 677.818,682.138 677.318,685.805 677,689.5C 676.311,690.357 675.478,691.023 674.5,691.5C 658.92,685.029 642.92,679.862 626.5,676C 621.5,675.333 616.5,675.333 611.5,676C 599.315,678.213 587.315,681.047 575.5,684.5C 575.071,680.541 576.071,677.041 578.5,674C 584.531,670.49 590.864,667.656 597.5,665.5C 605.833,662.404 614.5,661.071 623.5,661.5 Z"/></g>
<g><path style="opacity:1" fill="#e6b4a9" d="M 389.5,662.5 C 391.379,670.436 393.046,678.436 394.5,686.5C 394.649,687.552 394.483,688.552 394,689.5C 387.442,687.559 382.109,683.892 378,678.5C 375.28,668.236 379.114,662.903 389.5,662.5 Z"/></g>
<g><path style="opacity:1" fill="#e6b4a9" d="M 694.5,662.5 C 703.264,663.099 707.098,667.766 706,676.5C 702.472,683.648 696.972,687.315 689.5,687.5C 691.444,679.224 693.111,670.891 694.5,662.5 Z"/></g>
<g><path style="opacity:1" fill="#fccecb" d="M 466.5,695.5 C 464.5,698.833 462.5,702.167 460.5,705.5C 457.32,703.745 454.32,701.745 451.5,699.5C 451.384,695.437 450.051,694.77 447.5,697.5C 443.434,697.307 439.434,697.64 435.5,698.5C 435.25,697.078 434.417,696.078 433,695.5C 428.999,700.832 425.499,706.498 422.5,712.5C 422.833,713.5 423.5,714.167 424.5,714.5C 426.652,712.838 428.318,710.838 429.5,708.5C 430.52,713.359 433.52,716.525 438.5,718C 446.098,719.471 453.098,718.305 459.5,714.5C 463.581,709.004 466.581,703.004 468.5,696.5C 478.922,708.971 476.255,718.805 460.5,726C 445.125,731.277 431.291,728.777 419,718.5C 413.434,709.747 414.934,702.414 423.5,696.5C 437.62,688.955 451.953,688.621 466.5,695.5 Z"/></g>
<g><path style="opacity:1" fill="#fccecb" d="M 658.5,695.5 C 656.167,699.5 653.833,703.5 651.5,707.5C 649.001,704.774 646.001,702.774 642.5,701.5C 644.072,699.133 643.739,697.133 641.5,695.5C 640.818,696.243 640.151,696.909 639.5,697.5C 635.289,697.676 631.289,697.676 627.5,697.5C 626.745,695.534 625.579,695.2 624,696.5C 621,701.5 618,706.5 615,711.5C 614.383,712.449 614.549,713.282 615.5,714C 616.749,714.74 617.749,714.573 618.5,713.5C 627.05,721.45 637.05,723.616 648.5,720C 654.857,716.892 657.857,712.059 657.5,705.5C 658.58,703.004 659.914,700.67 661.5,698.5C 663.504,699.673 665.004,701.34 666,703.5C 668.707,714.159 664.207,721.659 652.5,726C 638.528,730.583 625.528,728.75 613.5,720.5C 609.913,717.152 607.913,713.319 607.5,709C 609.232,702.26 613.232,697.26 619.5,694C 632.798,688.962 645.798,689.462 658.5,695.5 Z"/></g>
<g><path style="opacity:1" fill="#fe91aa" d="M 435.5,698.5 C 433.102,701.571 431.102,704.905 429.5,708.5C 428.318,710.838 426.652,712.838 424.5,714.5C 423.5,714.167 422.833,713.5 422.5,712.5C 425.499,706.498 428.999,700.832 433,695.5C 434.417,696.078 435.25,697.078 435.5,698.5 Z"/></g>
<g><path style="opacity:1" fill="#fe90a9" d="M 451.5,699.5 C 448.524,704.102 445.524,708.769 442.5,713.5C 440.796,714.823 439.463,714.49 438.5,712.5C 441.763,707.638 444.763,702.638 447.5,697.5C 450.051,694.77 451.384,695.437 451.5,699.5 Z"/></g>
<g><path style="opacity:1" fill="#fe90a9" d="M 466.5,695.5 C 467.167,695.833 467.833,696.167 468.5,696.5C 466.581,703.004 463.581,709.004 459.5,714.5C 457.748,714.582 456.748,713.749 456.5,712C 457.713,709.738 459.046,707.571 460.5,705.5C 462.5,702.167 464.5,698.833 466.5,695.5 Z"/></g>
<g><path style="opacity:1" fill="#fe91aa" d="M 627.5,697.5 C 625.019,703.13 622.019,708.463 618.5,713.5C 617.749,714.573 616.749,714.74 615.5,714C 614.549,713.282 614.383,712.449 615,711.5C 618,706.5 621,701.5 624,696.5C 625.579,695.2 626.745,695.534 627.5,697.5 Z"/></g>
<g><path style="opacity:1" fill="#fe90a9" d="M 642.5,701.5 C 639.775,705.268 637.275,709.268 635,713.5C 633.989,714.337 632.822,714.67 631.5,714.5C 631.343,713.127 631.51,711.793 632,710.5C 634.523,706.112 637.023,701.778 639.5,697.5C 640.151,696.909 640.818,696.243 641.5,695.5C 643.739,697.133 644.072,699.133 642.5,701.5 Z"/></g>
<g><path style="opacity:1" fill="#fe91aa" d="M 658.5,695.5 C 660.5,695.5 661.5,696.5 661.5,698.5C 659.914,700.67 658.58,703.004 657.5,705.5C 655.558,708.617 653.391,711.617 651,714.5C 649.72,714.387 648.887,713.72 648.5,712.5C 649.26,710.64 650.26,708.973 651.5,707.5C 653.833,703.5 656.167,699.5 658.5,695.5 Z"/></g>
<g><path style="opacity:1" fill="#fdbabf" d="M 447.5,697.5 C 444.763,702.638 441.763,707.638 438.5,712.5C 439.463,714.49 440.796,714.823 442.5,713.5C 445.524,708.769 448.524,704.102 451.5,699.5C 454.32,701.745 457.32,703.745 460.5,705.5C 459.046,707.571 457.713,709.738 456.5,712C 456.748,713.749 457.748,714.582 459.5,714.5C 453.098,718.305 446.098,719.471 438.5,718C 433.52,716.525 430.52,713.359 429.5,708.5C 431.102,704.905 433.102,701.571 435.5,698.5C 439.434,697.64 443.434,697.307 447.5,697.5 Z"/></g>
<g><path style="opacity:1" fill="#fcbfc2" d="M 627.5,697.5 C 631.289,697.676 635.289,697.676 639.5,697.5C 637.023,701.778 634.523,706.112 632,710.5C 631.51,711.793 631.343,713.127 631.5,714.5C 632.822,714.67 633.989,714.337 635,713.5C 637.275,709.268 639.775,705.268 642.5,701.5C 646.001,702.774 649.001,704.774 651.5,707.5C 650.26,708.973 649.26,710.64 648.5,712.5C 648.887,713.72 649.72,714.387 651,714.5C 653.391,711.617 655.558,708.617 657.5,705.5C 657.857,712.059 654.857,716.892 648.5,720C 637.05,723.616 627.05,721.45 618.5,713.5C 622.019,708.463 625.019,703.13 627.5,697.5 Z"/></g>
<g><path style="opacity:1" fill="#e997a0" d="M 539.5,712.5 C 545.016,712.473 546.349,714.64 543.5,719C 538.57,719.427 537.237,717.26 539.5,712.5 Z"/></g>
<g><path style="opacity:1" fill="#624b39" d="M 393.5,714.5 C 396.304,713.888 399.304,713.888 402.5,714.5C 403.342,717.498 403.842,720.498 404,723.5C 400.333,720.664 396.833,717.664 393.5,714.5 Z"/></g>
<g><path style="opacity:1" fill="#bd6665" d="M 554.5,776.5 C 541.928,778.157 529.595,777.49 517.5,774.5C 518.239,774.631 518.906,774.464 519.5,774C 503.228,767.067 493.728,754.901 491,737.5C 487.589,726.607 491.422,721.941 502.5,723.5C 516.162,724.266 529.828,724.933 543.5,725.5C 558.137,724.003 572.804,723.503 587.5,724C 589.329,724.273 590.829,725.107 592,726.5C 592.921,753.393 580.421,770.06 554.5,776.5 Z"/></g>
<g><path style="opacity:1" fill="#e18e80" d="M 494.5,727.5 C 509.844,727.856 525.178,728.523 540.5,729.5C 556.482,728.358 572.482,727.692 588.5,727.5C 588.844,748.329 579.511,762.829 560.5,771C 547.782,773.897 535.116,773.897 522.5,771C 503.456,762.745 494.123,748.245 494.5,727.5 Z"/></g>
</svg>
