<?xml version="1.0" encoding="UTF-8"?>
<!DOCTYPE svg PUBLIC "-//W3C//DTD SVG 1.1//EN" "http://www.w3.org/Graphics/SVG/1.1/DTD/svg11.dtd">
<svg xmlns="http://www.w3.org/2000/svg" version="1.1" width="1080px" height="1080px" style="shape-rendering:geometricPrecision; text-rendering:geometricPrecision; image-rendering:optimizeQuality; fill-rule:evenodd; clip-rule:evenodd" xmlns:xlink="http://www.w3.org/1999/xlink">
<g><path style="opacity:1" fill="#fefefe" d="M -0.5,-0.5 C 359.5,-0.5 719.5,-0.5 1079.5,-0.5C 1079.5,359.5 1079.5,719.5 1079.5,1079.5C 719.5,1079.5 359.5,1079.5 -0.5,1079.5C -0.5,719.5 -0.5,359.5 -0.5,-0.5 Z"/></g>
<g><path style="opacity:1" fill="#39221b" d="M 539.5,303.5 C 576.015,303.061 609.015,313.561 638.5,335C 674.679,344.5 706.512,361.667 734,386.5C 746.864,399.916 758.531,414.249 769,429.5C 770.411,431.65 771.245,433.984 771.5,436.5C 768.033,436.554 765.366,435.054 763.5,432C 755.723,427.237 747.39,425.737 738.5,427.5C 750.208,445.578 760.375,464.578 769,484.5C 771.073,490.053 772.74,495.72 774,501.5C 776.324,527.104 780.324,552.437 786,577.5C 788.337,589.207 793.337,599.54 801,608.5C 801.49,609.793 801.657,611.127 801.5,612.5C 788.378,611.856 777.544,606.522 769,596.5C 760.882,619.066 750.882,640.733 739,661.5C 732.746,685.756 717.579,701.59 693.5,709C 688.004,712.916 682.337,716.582 676.5,720C 672.833,725 668.5,729.333 663.5,733C 630.296,754.07 594.296,768.07 555.5,775C 530.299,776.924 505.966,773.257 482.5,764C 453.731,753.286 427.064,738.953 402.5,721C 397.533,717.034 392.866,712.701 388.5,708C 364.592,701.758 349.758,686.591 344,662.5C 343.421,653.447 343.421,644.447 344,635.5C 336.685,641.789 328.185,644.623 318.5,644C 317.978,643.439 317.645,642.772 317.5,642C 330.333,632.171 334.833,619.337 331,603.5C 316.397,572.423 309.063,539.757 309,505.5C 314.753,480.163 324.253,456.33 337.5,434C 326.696,433.978 316.362,431.811 306.5,427.5C 305.386,426.277 305.219,424.944 306,423.5C 317.233,420.754 327.733,416.254 337.5,410C 353.343,398.912 369.01,387.578 384.5,376C 396.727,367.886 410.061,362.553 424.5,360C 430.885,359.465 437.219,359.465 443.5,360C 468.195,328.815 500.195,309.982 539.5,303.5 Z"/></g>
<g><path style="opacity:1" fill="#67503d" d="M 627.5,333.5 C 606.147,332.119 584.813,332.286 563.5,334C 553.166,335.445 543.166,338.112 533.5,342C 532.663,343.011 532.33,344.178 532.5,345.5C 545.202,341.494 558.202,338.66 571.5,337C 592.865,336.261 614.198,336.761 635.5,338.5C 662.655,346.049 687.988,357.549 711.5,373C 730.04,388.041 746.373,405.207 760.5,424.5C 760.167,424.833 759.833,425.167 759.5,425.5C 750.817,421.974 741.817,420.808 732.5,422C 731.978,422.561 731.645,423.228 731.5,424C 746.755,447.342 759.255,472.175 769,498.5C 771.456,529.365 776.789,559.698 785,589.5C 787.263,595.861 790.429,601.694 794.5,607C 784.525,604.497 776.192,599.163 769.5,591C 768.5,590.333 767.5,590.333 766.5,591C 759.443,611.615 750.609,631.449 740,650.5C 740.245,642.134 738.745,634.134 735.5,626.5C 746.93,601.847 752.597,575.847 752.5,548.5C 751.167,548.5 749.833,548.5 748.5,548.5C 748.641,571.657 744.474,593.99 736,615.5C 735.186,618.177 733.686,620.177 731.5,621.5C 726.72,615.933 720.72,612.099 713.5,610C 712.289,608.887 712.289,607.72 713.5,606.5C 713.113,605.28 712.28,604.613 711,604.5C 706.977,608.86 703.31,613.527 700,618.5C 697.775,620.942 695.108,622.609 692,623.5C 690.674,623.245 689.674,622.578 689,621.5C 687.971,615.877 687.471,610.21 687.5,604.5C 692.506,605.725 697.506,607.059 702.5,608.5C 701.943,578.594 709.276,550.594 724.5,524.5C 724.113,523.28 723.28,522.613 722,522.5C 705.641,546.929 698.474,573.929 700.5,603.5C 687.514,600.34 675.847,594.507 665.5,586C 640.961,564.107 624.127,537.273 615,505.5C 614.424,502.876 613.09,502.209 611,503.5C 610.036,532.144 616.536,558.977 630.5,584C 616.001,581.598 602.334,576.598 589.5,569C 573.165,558.993 558.332,547.159 545,533.5C 544.228,533.645 543.561,533.978 543,534.5C 538.899,557.191 541.732,579.024 551.5,600C 546.973,600.734 542.639,600.067 538.5,598C 486.512,576.007 454.012,537.507 441,482.5C 439.144,472.217 440.977,462.717 446.5,454C 446.37,452.941 445.87,452.108 445,451.5C 440.788,455.253 438.122,459.92 437,465.5C 435.804,479.6 437.637,493.266 442.5,506.5C 438.56,533.7 432.394,560.367 424,586.5C 420.214,596.073 415.88,605.407 411,614.5C 403.738,588.049 396.072,561.715 388,535.5C 387.588,533.003 386.422,531.003 384.5,529.5C 383.5,529.833 382.833,530.5 382.5,531.5C 390.332,559.807 392.165,588.474 388,617.5C 382.376,605.903 374.209,596.57 363.5,589.5C 361.899,590.035 361.399,591.035 362,592.5C 366.967,596.466 371.634,600.799 376,605.5C 376.667,606.167 376.667,606.833 376,607.5C 363.053,610.215 353.22,617.215 346.5,628.5C 340.92,633.457 334.587,637.124 327.5,639.5C 327.167,639.333 326.833,639.167 326.5,639C 335.553,629.508 338.719,618.341 336,605.5C 324.931,580.558 317.598,554.558 314,527.5C 313.333,519.167 313.333,510.833 314,502.5C 320.163,478.006 329.83,455.006 343,433.5C 343.49,432.207 343.657,430.873 343.5,429.5C 333.596,430.183 323.929,429.016 314.5,426C 322.545,423.098 330.212,419.431 337.5,415C 352.01,404.912 366.343,394.578 380.5,384C 391.478,376.678 403.144,370.678 415.5,366C 425.816,365.028 436.15,364.195 446.5,363.5C 493.783,306.143 550.783,293.976 617.5,327C 621.069,328.942 624.402,331.108 627.5,333.5 Z"/></g>
<g><path style="opacity:1" fill="#4d382e" d="M 627.5,333.5 C 630.511,334.669 633.178,336.336 635.5,338.5C 614.198,336.761 592.865,336.261 571.5,337C 558.202,338.66 545.202,341.494 532.5,345.5C 532.33,344.178 532.663,343.011 533.5,342C 543.166,338.112 553.166,335.445 563.5,334C 584.813,332.286 606.147,332.119 627.5,333.5 Z"/></g>
<g><path style="opacity:1" fill="#94745d" d="M 639.5,423.5 C 641.571,443.09 644.904,462.59 649.5,482C 632.951,480.642 618.451,474.475 606,463.5C 601.667,469.833 597.333,476.167 593,482.5C 591.345,462.884 592.845,443.551 597.5,424.5C 605.553,440.057 616.386,453.39 630,464.5C 630.183,450.103 633.35,436.436 639.5,423.5 Z"/></g>
<g><path style="opacity:1" fill="#94755d" d="M 510.5,429.5 C 511.124,429.917 511.457,430.584 511.5,431.5C 508.968,442.373 508.135,453.373 509,464.5C 510.456,476.117 512.79,487.451 516,498.5C 503.178,490.679 493.511,480.012 487,466.5C 486.244,476.536 486.577,486.536 488,496.5C 490.439,506.146 493.439,515.479 497,524.5C 472.537,510.241 461.87,488.908 465,460.5C 467.113,449.273 472.113,439.606 480,431.5C 481.934,446.377 488.768,458.377 500.5,467.5C 500.926,454.027 504.259,441.361 510.5,429.5 Z"/></g>
<g><path style="opacity:1" fill="#93745c" d="M 526.5,439.5 C 532.086,460.421 541.752,479.255 555.5,496C 552.23,495.537 549.23,494.204 546.5,492C 531.474,477.763 524.807,460.263 526.5,439.5 Z"/></g>
<g><path style="opacity:1" fill="#94745c" d="M 414.5,441.5 C 414.501,460.01 417.501,478.177 423.5,496C 423.333,496.5 423.167,497 423,497.5C 418.111,492.271 414.445,486.271 412,479.5C 405.842,496.957 402.509,514.957 402,533.5C 399.229,529.196 397.229,524.529 396,519.5C 393.236,503.482 394.57,487.815 400,472.5C 404.364,461.889 409.197,451.556 414.5,441.5 Z"/></g>
<g><path style="opacity:1" fill="#fadad2" d="M 445.5,512.5 C 452.34,525.518 459.84,538.185 468,550.5C 488.468,575.335 513.968,593.168 544.5,604C 548.496,604.811 552.496,605.144 556.5,605C 557.022,604.439 557.355,603.772 557.5,603C 546.978,583.055 543.144,561.888 546,539.5C 566.14,561.161 590.307,576.661 618.5,586C 604.22,589.537 589.887,592.871 575.5,596C 572.544,599.977 571.878,604.31 573.5,609C 599.508,604.399 625.508,599.399 651.5,594C 657.833,593.333 664.167,593.333 670.5,594C 673.995,597.251 677.995,599.751 682.5,601.5C 684.066,608.755 685.233,616.089 686,623.5C 687.026,626.693 689.192,628.026 692.5,627.5C 688.346,654.102 682.846,680.435 676,706.5C 674.305,711.947 672.305,717.28 670,722.5C 650.196,737.823 628.363,749.656 604.5,758C 583.905,766.318 562.572,770.818 540.5,771.5C 526.161,771.599 512.161,769.433 498.5,765C 471.114,756.471 445.447,744.471 421.5,729C 416.527,726.031 413.027,721.864 411,716.5C 403.059,688.519 396.726,660.186 392,631.5C 392.703,618.023 393.537,604.523 394.5,591C 394.135,583.817 393.968,576.65 394,569.5C 399.49,586.633 404.157,603.966 408,621.5C 408.561,622.022 409.228,622.355 410,622.5C 416.019,613.799 421.019,604.466 425,594.5C 425.725,593.941 426.558,593.608 427.5,593.5C 453.785,599.09 480.119,604.424 506.5,609.5C 508.867,609.487 510.2,608.32 510.5,606C 510.237,602.359 509.237,599.026 507.5,596C 482.393,590.945 457.393,585.445 432.5,579.5C 432.167,578.667 431.833,577.833 431.5,577C 437.253,555.736 441.919,534.236 445.5,512.5 Z"/></g>
<g><path style="opacity:1" fill="#f6d6ce" d="M 615.5,521.5 C 624.181,543.033 636.515,562.199 652.5,579C 647.137,580.06 641.804,581.227 636.5,582.5C 635.5,582.167 634.5,581.833 633.5,581.5C 623.254,562.762 617.254,542.762 615.5,521.5 Z"/></g>
<g><path style="opacity:1" fill="#4d382d" d="M 735.5,626.5 C 734.197,624.858 732.864,623.191 731.5,621.5C 733.686,620.177 735.186,618.177 736,615.5C 744.474,593.99 748.641,571.657 748.5,548.5C 749.833,548.5 751.167,548.5 752.5,548.5C 752.597,575.847 746.93,601.847 735.5,626.5 Z"/></g>
<g><path style="opacity:1" fill="#e7b5aa" d="M 386.5,626.5 C 374.067,625.372 366.067,630.705 362.5,642.5C 363.978,642.762 365.311,642.429 366.5,641.5C 370.906,632.462 377.906,629.128 387.5,631.5C 389.639,638.56 390.973,645.893 391.5,653.5C 391.5,654.5 391.5,655.5 391.5,656.5C 385.108,656.073 380.608,658.739 378,664.5C 375.452,674.9 378.952,682.4 388.5,687C 392.154,688.274 395.82,689.44 399.5,690.5C 401.198,695.628 402.531,700.961 403.5,706.5C 375.086,704.245 356.586,689.578 348,662.5C 344.988,649.977 346.322,637.977 352,626.5C 356.387,620.768 361.887,616.602 368.5,614C 371.961,613.006 375.461,612.173 379,611.5C 383.055,615.61 385.555,620.61 386.5,626.5 Z"/></g>
<g><path style="opacity:1" fill="#e8b6ab" d="M 684.5,689.5 C 700.752,687.131 707.252,678.131 704,662.5C 700.805,658.49 696.638,656.49 691.5,656.5C 692.525,647.68 694.191,639.013 696.5,630.5C 705.529,629.861 712.196,633.527 716.5,641.5C 717.689,642.429 719.022,642.762 720.5,642.5C 716.525,631.861 708.858,626.194 697.5,625.5C 701.893,621.436 706.226,617.436 710.5,613.5C 724.325,616.825 732.492,625.492 735,639.5C 738.856,670.978 726.023,692.144 696.5,703C 691.523,704.328 686.523,705.494 681.5,706.5C 681.571,700.799 682.571,695.132 684.5,689.5 Z"/></g>
<g><path style="opacity:1" fill="#eba697" d="M 455.5,617.5 C 473.835,617.6 491.835,620.1 509.5,625C 510.973,625.71 511.64,626.876 511.5,628.5C 501.15,626.886 490.816,625.053 480.5,623C 472.523,622.068 464.523,621.402 456.5,621C 455.663,619.989 455.33,618.822 455.5,617.5 Z"/></g>
<g><path style="opacity:1" fill="#eba696" d="M 608.5,617.5 C 614.5,617.5 620.5,617.5 626.5,617.5C 626.67,618.822 626.337,619.989 625.5,621C 607.26,621.99 589.26,624.49 571.5,628.5C 571.33,627.178 571.663,626.011 572.5,625C 584.476,621.732 596.476,619.232 608.5,617.5 Z"/></g>
<g><path style="opacity:1" fill="#362019" d="M 506.5,640.5 C 505.081,639.549 503.415,639.216 501.5,639.5C 501.232,641.099 501.566,642.432 502.5,643.5C 506.18,662.643 500.514,678.143 485.5,690C 471.373,696.179 457.373,695.846 443.5,689C 435.152,681.465 430.652,671.965 430,660.5C 429.289,651.806 429.456,643.139 430.5,634.5C 425.5,634.5 420.5,634.5 415.5,634.5C 413.5,634.5 411.5,634.5 409.5,634.5C 409.223,631.552 409.556,628.719 410.5,626C 443.535,624.142 476.202,626.808 508.5,634C 511.2,634.949 512.033,636.783 511,639.5C 509.644,640.38 508.144,640.714 506.5,640.5 Z"/></g>
<g><path style="opacity:1" fill="#362019" d="M 665.5,634.5 C 661.167,634.5 656.833,634.5 652.5,634.5C 654.807,649.898 653.307,664.898 648,679.5C 642.645,688.265 634.812,693.098 624.5,694C 599.565,696.953 584.732,686.119 580,661.5C 579.479,654.152 579.645,646.819 580.5,639.5C 579.041,639.433 577.708,639.766 576.5,640.5C 571.672,640.615 570.339,638.448 572.5,634C 605.42,626.525 638.753,623.859 672.5,626C 675.492,633.157 673.159,635.99 665.5,634.5 Z"/></g>
<g><path style="opacity:1" fill="#d28484" d="M 386.5,626.5 C 387.301,628.042 387.634,629.708 387.5,631.5C 377.906,629.128 370.906,632.462 366.5,641.5C 365.311,642.429 363.978,642.762 362.5,642.5C 366.067,630.705 374.067,625.372 386.5,626.5 Z"/></g>
<g><path style="opacity:1" fill="#d18483" d="M 697.5,625.5 C 708.858,626.194 716.525,631.861 720.5,642.5C 719.022,642.762 717.689,642.429 716.5,641.5C 712.196,633.527 705.529,629.861 696.5,630.5C 696.216,628.585 696.549,626.919 697.5,625.5 Z"/></g>
<g><path style="opacity:1" fill="#fcfcfb" d="M 415.5,634.5 C 420.5,634.5 425.5,634.5 430.5,634.5C 429.456,643.139 429.289,651.806 430,660.5C 430.652,671.965 435.152,681.465 443.5,689C 457.373,695.846 471.373,696.179 485.5,690C 500.514,678.143 506.18,662.643 502.5,643.5C 502.5,642.5 502.5,641.5 502.5,640.5C 503.833,640.5 505.167,640.5 506.5,640.5C 507.404,660.55 502.238,678.884 491,695.5C 489.698,696.085 488.531,696.751 487.5,697.5C 465.894,700.588 444.561,699.255 423.5,693.5C 416.978,674.738 413.311,655.405 412.5,635.5C 413.791,635.737 414.791,635.404 415.5,634.5 Z"/></g>
<g><path style="opacity:1" fill="#fdfcfc" d="M 665.5,634.5 C 666.919,635.451 668.585,635.784 670.5,635.5C 669.631,655.383 665.964,674.717 659.5,693.5C 641.092,697.968 622.425,699.801 603.5,699C 600.487,698.498 597.487,697.998 594.5,697.5C 580.969,681.088 574.969,662.088 576.5,640.5C 577.708,639.766 579.041,639.433 580.5,639.5C 579.645,646.819 579.479,654.152 580,661.5C 584.732,686.119 599.565,696.953 624.5,694C 634.812,693.098 642.645,688.265 648,679.5C 653.307,664.898 654.807,649.898 652.5,634.5C 656.833,634.5 661.167,634.5 665.5,634.5 Z"/></g>
<g><path style="opacity:1" fill="#fbf7f1" d="M 447.5,636.5 C 458.178,637.118 468.845,637.952 479.5,639C 484.176,645.903 482.843,651.57 475.5,656C 466.352,662.11 456.352,664.11 445.5,662C 437.567,658.412 435.4,652.578 439,644.5C 441.579,641.479 444.413,638.812 447.5,636.5 Z"/></g>
<g><path style="opacity:1" fill="#fbf7f1" d="M 608.5,637.5 C 615.508,637.334 622.508,637.5 629.5,638C 634.195,642.349 634.695,647.182 631,652.5C 619.618,662.713 606.785,665.213 592.5,660C 586.665,652.677 587.332,646.01 594.5,640C 599.336,639.32 604.003,638.486 608.5,637.5 Z"/></g>
<g><path style="opacity:1" fill="#9b908c" d="M 506.5,640.5 C 505.167,640.5 503.833,640.5 502.5,640.5C 502.5,641.5 502.5,642.5 502.5,643.5C 501.566,642.432 501.232,641.099 501.5,639.5C 503.415,639.216 505.081,639.549 506.5,640.5 Z"/></g>
<g><path style="opacity:1" fill="#d08483" d="M 391.5,653.5 C 392.407,655.657 393.073,657.99 393.5,660.5C 383.465,660.529 379.631,665.529 382,675.5C 385.996,681.251 391.496,684.584 398.5,685.5C 399.038,687.117 399.371,688.784 399.5,690.5C 395.82,689.44 392.154,688.274 388.5,687C 378.952,682.4 375.452,674.9 378,664.5C 380.608,658.739 385.108,656.073 391.5,656.5C 391.5,655.5 391.5,654.5 391.5,653.5 Z"/></g>
<g><path style="opacity:1" fill="#d08383" d="M 691.5,656.5 C 696.638,656.49 700.805,658.49 704,662.5C 707.252,678.131 700.752,687.131 684.5,689.5C 684.232,687.901 684.566,686.568 685.5,685.5C 692.489,684.337 697.655,680.67 701,674.5C 702.973,665.647 699.473,660.98 690.5,660.5C 690.833,659.167 691.167,657.833 691.5,656.5 Z"/></g>
<g><path style="opacity:1" fill="#e6b4a9" d="M 393.5,660.5 C 394.845,668.907 396.512,677.24 398.5,685.5C 391.496,684.584 385.996,681.251 382,675.5C 379.631,665.529 383.465,660.529 393.5,660.5 Z"/></g>
<g><path style="opacity:1" fill="#e7b5aa" d="M 690.5,660.5 C 699.473,660.98 702.973,665.647 701,674.5C 697.655,680.67 692.489,684.337 685.5,685.5C 687.293,677.201 688.96,668.868 690.5,660.5 Z"/></g>
<g><path style="opacity:1" fill="#614236" d="M 444.5,665.5 C 445.873,665.343 447.207,665.51 448.5,666C 454.348,675.728 462.682,678.728 473.5,675C 477.167,672.667 480.167,669.667 482.5,666C 487.705,665.689 492.038,667.522 495.5,671.5C 487.843,686.662 475.509,692.829 458.5,690C 447.514,688.338 440.181,682.338 436.5,672C 438.776,669.211 441.443,667.044 444.5,665.5 Z"/></g>
<g><path style="opacity:1" fill="#614236" d="M 595.5,665.5 C 596.873,665.343 598.207,665.51 599.5,666C 607.012,677.111 616.678,679.444 628.5,673C 630.389,669.609 633.055,667.109 636.5,665.5C 640.495,666.493 643.828,668.493 646.5,671.5C 643.029,682.129 635.696,688.296 624.5,690C 609.372,692.963 597.538,688.13 589,675.5C 588.018,674.241 587.685,672.908 588,671.5C 590.478,669.361 592.978,667.361 595.5,665.5 Z"/></g>
<g><path style="opacity:1" fill="#e9b1a9" d="M 423.5,693.5 C 444.561,699.255 465.894,700.588 487.5,697.5C 488.833,697.5 490.167,697.5 491.5,697.5C 491.5,698.5 491.5,699.5 491.5,700.5C 469.03,704.699 446.697,703.866 424.5,698C 421.221,696.732 420.888,695.232 423.5,693.5 Z"/></g>
<g><path style="opacity:1" fill="#e9b1a9" d="M 659.5,693.5 C 661.652,694.077 661.985,695.244 660.5,697C 638.094,703.492 615.427,704.825 592.5,701C 591.663,699.989 591.33,698.822 591.5,697.5C 592.5,697.5 593.5,697.5 594.5,697.5C 597.487,697.998 600.487,698.498 603.5,699C 622.425,699.801 641.092,697.968 659.5,693.5 Z"/></g>
<g><path style="opacity:1" fill="#e998a1" d="M 539.5,708.5 C 544.328,708.385 545.661,710.552 543.5,715C 537.738,715.418 536.404,713.251 539.5,708.5 Z"/></g>
<g><path style="opacity:1" fill="#634c3a" d="M 397.5,711.5 C 403.377,709.145 406.71,711.145 407.5,717.5C 406.998,718.521 406.332,718.688 405.5,718C 402.986,715.585 400.319,713.419 397.5,711.5 Z"/></g>
<g><path style="opacity:1" fill="#bb6262" d="M 528.5,736.5 C 537.173,736.334 545.84,736.5 554.5,737C 555.833,738 555.833,739 554.5,740C 545.833,740.667 537.167,740.667 528.5,740C 527.316,738.855 527.316,737.688 528.5,736.5 Z"/></g>
</svg>
