<?xml version="1.0" encoding="UTF-8"?>
<!DOCTYPE svg PUBLIC "-//W3C//DTD SVG 1.1//EN" "http://www.w3.org/Graphics/SVG/1.1/DTD/svg11.dtd">
<svg xmlns="http://www.w3.org/2000/svg" version="1.1" width="1080px" height="1080px" style="shape-rendering:geometricPrecision; text-rendering:geometricPrecision; image-rendering:optimizeQuality; fill-rule:evenodd; clip-rule:evenodd" xmlns:xlink="http://www.w3.org/1999/xlink">
<g><path style="opacity:1" fill="#fefefe" d="M -0.5,-0.5 C 359.5,-0.5 719.5,-0.5 1079.5,-0.5C 1079.5,359.5 1079.5,719.5 1079.5,1079.5C 719.5,1079.5 359.5,1079.5 -0.5,1079.5C -0.5,719.5 -0.5,359.5 -0.5,-0.5 Z"/></g>
<g><path style="opacity:1" fill="#38221b" d="M 549.5,809.5 C 549.5,806.833 549.5,804.167 549.5,801.5C 544.5,801.5 539.5,801.5 534.5,801.5C 534.5,806.833 534.5,812.167 534.5,817.5C 533.867,865.502 533.033,913.502 532,961.5C 530.644,962.38 529.144,962.714 527.5,962.5C 527.335,965.518 527.502,968.518 528,971.5C 529.011,970.663 530.178,970.33 531.5,970.5C 531.667,984.504 531.5,998.504 531,1012.5C 496.349,1028.34 460.515,1031.84 423.5,1023C 417.934,1013.57 415.767,1003.4 417,992.5C 425.596,976.283 438.43,964.783 455.5,958C 452.316,956.496 449.149,954.996 446,953.5C 445.544,903.155 444.544,852.822 443,802.5C 430.165,810.386 416.331,812.553 401.5,809C 378.117,800.737 365.45,784.237 363.5,759.5C 364.611,736.091 375.611,719.258 396.5,709C 399.04,697.302 401.706,685.635 404.5,674C 404.167,673.167 403.833,672.333 403.5,671.5C 396.391,668.78 389.725,665.28 383.5,661C 381.552,659.561 380.219,657.728 379.5,655.5C 381.42,645.906 384.253,636.572 388,627.5C 389.796,626.233 391.629,626.233 393.5,627.5C 399.227,609.151 405.061,590.817 411,572.5C 415.253,563.414 421.753,556.414 430.5,551.5C 432.275,544.231 436.941,540.398 444.5,540C 455.404,539.286 466.07,537.286 476.5,534C 484.454,526.721 493.454,521.054 503.5,517C 505.167,516.333 506.833,516.333 508.5,517C 511,519.5 513.5,522 516,524.5C 516.957,521.621 516.457,519.121 514.5,517C 470.824,506.576 431.491,487.576 396.5,460C 394.126,457.961 392.126,455.628 390.5,453C 364.003,445.837 348.836,428.67 345,401.5C 344.604,394.994 344.437,388.66 344.5,382.5C 336.716,387.868 328.216,389.868 319,388.5C 318.333,387.833 318.333,387.167 319,386.5C 330.772,378.62 335.772,367.62 334,353.5C 321.965,326.694 314.299,298.694 311,269.5C 309.692,252.393 312.692,236.06 320,220.5C 325.572,206.856 332.072,193.689 339.5,181C 331.694,180.969 324.027,179.969 316.5,178C 312.681,176.926 309.348,175.093 306.5,172.5C 317.799,168.22 328.799,163.054 339.5,157C 355.112,146.388 370.445,135.388 385.5,124C 403.103,111.348 422.77,105.681 444.5,107C 501.966,42.3169 566.632,34.3169 638.5,83C 671.231,91.6974 700.565,106.697 726.5,128C 741.838,143.33 755.672,159.83 768,177.5C 769.582,179.624 769.749,181.79 768.5,184C 759.591,176.088 748.924,172.755 736.5,174C 749.88,194.258 761.047,215.758 770,238.5C 773.549,266.675 778.216,294.675 784,322.5C 786.514,334.857 791.681,345.857 799.5,355.5C 799.426,357.739 798.259,358.739 796,358.5C 784.57,356.287 774.904,350.953 767,342.5C 759.254,364.415 749.587,385.415 738,405.5C 732.875,429.29 718.709,444.79 695.5,452C 691.102,455.394 686.435,458.394 681.5,461C 675.551,466.276 669.551,471.609 663.5,477C 634.422,495.641 603.088,509.141 569.5,517.5C 568.369,519.074 568.202,520.741 569,522.5C 570.833,520.667 572.667,518.833 574.5,517C 586.087,519.13 596.087,524.463 604.5,533C 617.78,537.789 631.447,540.789 645.5,542C 649.352,543.52 651.185,546.353 651,550.5C 662.171,556.507 669.838,565.507 674,577.5C 678.729,594.322 683.896,610.989 689.5,627.5C 691.371,626.233 693.204,626.233 695,627.5C 698.747,636.572 701.58,645.906 703.5,655.5C 702.058,658.777 699.725,661.277 696.5,663C 690.712,665.977 684.879,668.811 679,671.5C 680.744,684.588 683.244,697.588 686.5,710.5C 707.092,719.326 718.092,734.993 719.5,757.5C 719.103,776.128 711.437,790.961 696.5,802C 678.186,812.609 659.686,813.109 641,803.5C 639.442,853.488 638.442,903.488 638,953.5C 634.573,955.129 631.073,956.629 627.5,958C 643.625,964.456 656.458,974.956 666,989.5C 668.678,1001.13 667.012,1012.13 661,1022.5C 624.62,1031.39 589.12,1028.56 554.5,1014C 554,1013.5 553.5,1013 553,1012.5C 552.5,998.504 552.333,984.504 552.5,970.5C 553.822,970.33 554.989,970.663 556,971.5C 556.498,968.518 556.665,965.518 556.5,962.5C 554.856,962.714 553.356,962.38 552,961.5C 551.283,910.83 550.45,860.163 549.5,809.5 Z"/></g>
<g><path style="opacity:1" fill="#67503d" d="M 626.5,80.5 C 605.327,80.0428 583.994,80.5428 562.5,82C 552.254,83.5186 542.421,86.3519 533,90.5C 532.517,91.448 532.351,92.448 532.5,93.5C 540.002,90.8734 547.669,88.7067 555.5,87C 581.831,83.9695 608.165,83.8028 634.5,86.5C 670.768,95.5457 702.601,112.546 730,137.5C 740.064,148.394 749.564,159.728 758.5,171.5C 758.333,171.833 758.167,172.167 758,172.5C 749.519,168.952 740.685,167.785 731.5,169C 730.978,169.561 730.645,170.228 730.5,171C 742.559,190.759 753.392,211.259 763,232.5C 765.073,238.053 766.74,243.72 768,249.5C 770.101,279.443 775.435,308.776 784,337.5C 785.722,342.612 788.222,347.279 791.5,351.5C 791.167,351.833 790.833,352.167 790.5,352.5C 780.818,348.819 772.485,343.152 765.5,335.5C 758.057,356.057 749.224,376.057 739,395.5C 739.077,387.812 737.577,380.479 734.5,373.5C 736.966,364.604 740.133,355.937 744,347.5C 748.344,330.1 750.511,312.434 750.5,294.5C 749.178,294.33 748.011,294.663 747,295.5C 746.731,312.779 744.398,329.779 740,346.5C 737.481,353.93 734.315,360.93 730.5,367.5C 725.881,361.569 719.881,357.569 712.5,355.5C 711.548,353.955 711.215,352.288 711.5,350.5C 710.448,350.351 709.448,350.517 708.5,351C 704.361,358.787 698.527,364.954 691,369.5C 689.118,368.907 688.118,367.573 688,365.5C 687.001,360.187 686.668,354.854 687,349.5C 692.07,352.425 697.403,353.425 703,352.5C 701.356,323.074 708.19,295.741 723.5,270.5C 723.113,269.28 722.28,268.613 721,268.5C 704.906,292.632 697.406,319.299 698.5,348.5C 689.786,347.205 681.786,344.038 674.5,339C 644.321,316.517 624.155,287.017 614,250.5C 612.989,249.663 611.822,249.33 610.5,249.5C 609.528,277.776 615.861,304.276 629.5,329C 622.916,329.106 616.583,327.773 610.5,325C 585.32,314.46 563.487,299.293 545,279.5C 544.228,279.645 543.561,279.978 543,280.5C 538.675,303.059 541.508,324.726 551.5,345.5C 548.549,346.224 545.549,346.057 542.5,345C 492.143,325.302 458.977,289.469 443,237.5C 441.495,228.887 441.161,220.22 442,211.5C 443.413,207.761 445.247,204.261 447.5,201C 447.387,199.72 446.72,198.887 445.5,198.5C 441.473,201.88 438.973,206.214 438,211.5C 437.333,218.833 437.333,226.167 438,233.5C 439.74,240.216 441.573,246.883 443.5,253.5C 439.687,280.403 433.52,306.737 425,332.5C 421.43,341.88 417.097,350.88 412,359.5C 404.744,333.064 397.078,306.731 389,280.5C 388.735,278.349 387.735,276.682 386,275.5C 384.5,275.667 383.667,276.5 383.5,278C 391.765,305.765 393.598,333.932 389,362.5C 383.335,350.672 374.835,341.672 363.5,335.5C 363.238,336.978 363.571,338.311 364.5,339.5C 369.979,343.145 374.646,347.645 378.5,353C 365.195,355.141 355.195,361.975 348.5,373.5C 343.01,379.41 336.344,382.91 328.5,384C 336.998,375.189 340.164,364.689 338,352.5C 327.221,327.829 319.888,302.162 316,275.5C 315.333,266.167 315.333,256.833 316,247.5C 322.824,223.189 332.657,200.189 345.5,178.5C 345.291,177.914 344.957,177.414 344.5,177C 335.026,176.54 325.693,175.207 316.5,173C 326.264,169.246 335.598,164.579 344.5,159C 358.344,149.244 372.011,139.244 385.5,129C 403.712,115.594 424.045,109.928 446.5,112C 475.936,73.4497 514.936,55.1164 563.5,57C 586.301,60.2088 607.301,68.0421 626.5,80.5 Z"/></g>
<g><path style="opacity:1" fill="#4d382d" d="M 626.5,80.5 C 629.473,82.1468 632.14,84.1468 634.5,86.5C 608.165,83.8028 581.831,83.9695 555.5,87C 547.669,88.7067 540.002,90.8734 532.5,93.5C 532.351,92.448 532.517,91.448 533,90.5C 542.421,86.3519 552.254,83.5186 562.5,82C 583.994,80.5428 605.327,80.0428 626.5,80.5 Z"/></g>
<g><path style="opacity:1" fill="#94745d" d="M 638.5,170.5 C 640.797,189.887 644.13,209.22 648.5,228.5C 631.989,227.556 617.655,221.556 605.5,210.5C 601.138,216.362 596.972,222.362 593,228.5C 591.527,209.276 592.86,190.276 597,171.5C 605.065,186.406 615.565,199.406 628.5,210.5C 629.68,196.591 633.013,183.258 638.5,170.5 Z"/></g>
<g><path style="opacity:1" fill="#95755d" d="M 511.5,175.5 C 512.043,175.56 512.376,175.893 512.5,176.5C 507.792,199.529 508.959,222.196 516,244.5C 510.805,241.903 506.138,238.57 502,234.5C 496.506,227.513 491.506,220.18 487,212.5C 485.195,232.809 489.029,251.976 498.5,270C 484.419,264.248 474.585,254.081 469,239.5C 461.107,216.816 464.94,196.483 480.5,178.5C 483.058,193.63 490.225,205.963 502,215.5C 500.773,201.078 503.939,187.744 511.5,175.5 Z"/></g>
<g><path style="opacity:1" fill="#93735c" d="M 526.5,185.5 C 532.009,206.185 541.509,224.852 555,241.5C 555.688,242.332 555.521,242.998 554.5,243.5C 533.548,230.069 524.215,210.735 526.5,185.5 Z"/></g>
<g><path style="opacity:1" fill="#94745c" d="M 415.5,189.5 C 415.775,207.479 418.775,225.146 424.5,242.5C 424.333,242.833 424.167,243.167 424,243.5C 419.088,238.685 415.421,233.018 413,226.5C 406.977,243.633 403.644,261.3 403,279.5C 394.286,260.976 393.286,241.976 400,222.5C 404.634,211.232 409.801,200.232 415.5,189.5 Z"/></g>
<g><path style="opacity:1" fill="#fadad2" d="M 395.5,320.5 C 395.5,319.833 395.833,319.5 396.5,319.5C 401.334,335.842 406,352.176 410.5,368.5C 417.331,359.84 422.331,350.173 425.5,339.5C 453.814,344.63 482.147,349.63 510.5,354.5C 510.665,351.482 510.498,348.482 510,345.5C 509.682,343.939 508.849,342.772 507.5,342C 482.56,336.186 457.56,330.686 432.5,325.5C 437.651,303.58 442.484,281.58 447,259.5C 453.911,272.994 461.577,285.994 470,298.5C 490.686,322.764 516.186,339.93 546.5,350C 550.152,350.499 553.818,350.665 557.5,350.5C 553.81,342.439 550.644,334.106 548,325.5C 546.506,316.876 545.339,308.209 544.5,299.5C 544.97,295.136 545.636,290.802 546.5,286.5C 566.711,307.451 590.711,322.618 618.5,332C 603.888,335.547 589.221,338.88 574.5,342C 572.51,346.24 572.177,350.574 573.5,355C 603.147,348.872 632.98,343.372 663,338.5C 665.3,338.494 667.466,338.994 669.5,340C 673.332,342.75 677.332,345.25 681.5,347.5C 682.738,355.218 684.238,362.884 686,370.5C 687.362,372.436 689.195,373.769 691.5,374.5C 686.833,400.334 681.333,426.001 675,451.5C 673.475,456.656 671.642,461.656 669.5,466.5C 659.025,475.242 647.691,482.742 635.5,489C 618.373,496.596 601.04,503.596 583.5,510C 569.842,513.304 556.009,515.471 542,516.5C 522.562,515.598 503.729,511.765 485.5,505C 466.498,497.67 448.165,489.004 430.5,479C 424.985,475.075 419.652,470.908 414.5,466.5C 404.669,436.546 397.502,405.88 393,374.5C 394.923,356.583 395.756,338.583 395.5,320.5 Z"/></g>
<g><path style="opacity:1" fill="#f5d5ce" d="M 614.5,265.5 C 622.974,287.147 634.974,306.647 650.5,324C 644.93,326.953 639.096,328.12 633,327.5C 622.282,308.18 616.115,287.514 614.5,265.5 Z"/></g>
<g><path style="opacity:1" fill="#4d382e" d="M 734.5,373.5 C 733.18,371.537 731.846,369.537 730.5,367.5C 734.315,360.93 737.481,353.93 740,346.5C 744.398,329.779 746.731,312.779 747,295.5C 748.011,294.663 749.178,294.33 750.5,294.5C 750.511,312.434 748.344,330.1 744,347.5C 740.133,355.937 736.966,364.604 734.5,373.5 Z"/></g>
<g><path style="opacity:1" fill="#9c8079" d="M 396.5,319.5 C 395.833,319.5 395.5,319.833 395.5,320.5C 394.378,318.712 394.211,316.712 395,314.5C 395.608,316.154 396.108,317.821 396.5,319.5 Z"/></g>
<g><path style="opacity:1" fill="#e7b5aa" d="M 387.5,371.5 C 376.369,370.763 368.369,375.763 363.5,386.5C 363.887,387.72 364.72,388.387 366,388.5C 369.525,383.31 374.025,379.143 379.5,376C 382.531,375.505 385.531,375.671 388.5,376.5C 390.785,383.189 392.118,390.189 392.5,397.5C 392.5,398.833 392.5,400.167 392.5,401.5C 381.163,402.812 376.663,409.145 379,420.5C 383.802,428.789 390.968,433.789 400.5,435.5C 402.749,440.497 404.083,445.83 404.5,451.5C 375.685,449.182 357.185,434.182 349,406.5C 348.161,397.78 348.495,389.113 350,380.5C 355.236,366.962 365.07,359.296 379.5,357.5C 384.168,360.814 386.834,365.48 387.5,371.5 Z"/></g>
<g><path style="opacity:1" fill="#e7b5ab" d="M 683.5,434.5 C 697.85,432.665 704.683,424.665 704,410.5C 701.322,404.902 696.822,401.902 690.5,401.5C 691.726,393.147 693.059,384.814 694.5,376.5C 699.064,374.89 703.398,375.39 707.5,378C 710.731,380.727 713.397,383.894 715.5,387.5C 716.325,388.386 717.325,388.719 718.5,388.5C 715.923,376.944 708.589,371.278 696.5,371.5C 700.531,366.97 704.698,362.637 709,358.5C 726.554,363.556 735.054,375.223 734.5,393.5C 733.738,420.428 720.738,438.594 695.5,448C 690.318,449.803 684.984,450.636 679.5,450.5C 680.226,444.993 681.56,439.659 683.5,434.5 Z"/></g>
<g><path style="opacity:1" fill="#eba696" d="M 456.5,363.5 C 474.459,363.302 492.126,365.469 509.5,370C 512.193,372.095 511.86,373.595 508.5,374.5C 492.104,370.379 475.437,367.879 458.5,367C 457.177,366.184 456.511,365.017 456.5,363.5 Z"/></g>
<g><path style="opacity:1" fill="#eba697" d="M 618.5,362.5 C 620.857,362.337 623.19,362.503 625.5,363C 626.727,364.587 626.394,365.921 624.5,367C 607.203,367.662 590.203,370.162 573.5,374.5C 571.889,373.68 571.222,372.346 571.5,370.5C 587.108,366.809 602.775,364.143 618.5,362.5 Z"/></g>
<g><path style="opacity:1" fill="#362019" d="M 507.5,385.5 C 505.833,385.5 504.167,385.5 502.5,385.5C 507.369,404.923 502.369,421.09 487.5,434C 473.196,441.258 458.862,441.258 444.5,434C 435.629,426.751 431.129,417.251 431,405.5C 430.227,397.118 430.394,388.785 431.5,380.5C 424.687,379.509 417.687,379.175 410.5,379.5C 410.223,376.552 410.556,373.719 411.5,371C 444.915,369.734 477.915,372.734 510.5,380C 512.35,383.466 511.35,385.299 507.5,385.5 Z"/></g>
<g><path style="opacity:1" fill="#362019" d="M 651.5,380.5 C 653.283,393.981 652.45,407.314 649,420.5C 644.326,431.161 636.159,437.328 624.5,439C 595.431,441.602 580.431,428.268 579.5,399C 579.641,394.474 579.975,389.974 580.5,385.5C 579.5,385.5 578.5,385.5 577.5,385.5C 572.5,386.5 570.5,384.5 571.5,379.5C 604.444,372.551 637.777,369.718 671.5,371C 672.444,373.719 672.777,376.552 672.5,379.5C 665.313,379.175 658.313,379.509 651.5,380.5 Z"/></g>
<g><path style="opacity:1" fill="#d28685" d="M 387.5,371.5 C 388.451,372.919 388.784,374.585 388.5,376.5C 385.531,375.671 382.531,375.505 379.5,376C 374.025,379.143 369.525,383.31 366,388.5C 364.72,388.387 363.887,387.72 363.5,386.5C 368.369,375.763 376.369,370.763 387.5,371.5 Z"/></g>
<g><path style="opacity:1" fill="#d18584" d="M 696.5,371.5 C 708.589,371.278 715.923,376.944 718.5,388.5C 717.325,388.719 716.325,388.386 715.5,387.5C 713.397,383.894 710.731,380.727 707.5,378C 703.398,375.39 699.064,374.89 694.5,376.5C 694.796,374.597 695.463,372.93 696.5,371.5 Z"/></g>
<g><path style="opacity:1" fill="#fdfcfb" d="M 431.5,380.5 C 430.394,388.785 430.227,397.118 431,405.5C 431.129,417.251 435.629,426.751 444.5,434C 458.862,441.258 473.196,441.258 487.5,434C 502.369,421.09 507.369,404.923 502.5,385.5C 504.167,385.5 505.833,385.5 507.5,385.5C 506.992,395.243 505.826,404.909 504,414.5C 500.352,423.792 496.186,432.792 491.5,441.5C 468.971,445.666 446.638,444.666 424.5,438.5C 417.87,419.774 414.204,400.44 413.5,380.5C 419.5,380.5 425.5,380.5 431.5,380.5 Z"/></g>
<g><path style="opacity:1" fill="#fdfcfc" d="M 651.5,380.5 C 657.5,380.5 663.5,380.5 669.5,380.5C 668.425,400.376 664.758,419.709 658.5,438.5C 643.536,441.933 628.369,443.933 613,444.5C 605.643,444.728 598.477,443.728 591.5,441.5C 588.947,436.062 586.113,430.729 583,425.5C 576.885,412.501 575.052,399.168 577.5,385.5C 578.5,385.5 579.5,385.5 580.5,385.5C 579.975,389.974 579.641,394.474 579.5,399C 580.431,428.268 595.431,441.602 624.5,439C 636.159,437.328 644.326,431.161 649,420.5C 652.45,407.314 653.283,393.981 651.5,380.5 Z"/></g>
<g><path style="opacity:1" fill="#fcf7f1" d="M 447.5,382.5 C 458.197,382.351 468.863,382.851 479.5,384C 484.087,390.54 483.087,396.207 476.5,401C 467.232,407.214 457.232,409.214 446.5,407C 438.567,403.412 436.4,397.578 440,389.5C 442.396,386.933 444.896,384.6 447.5,382.5 Z"/></g>
<g><path style="opacity:1" fill="#fbf6f0" d="M 610.5,382.5 C 616.509,382.334 622.509,382.501 628.5,383C 634.226,389.602 633.559,395.602 626.5,401C 618.188,406.219 609.188,408.552 599.5,408C 589.3,405.433 586.133,399.267 590,389.5C 591.5,388 593,386.5 594.5,385C 599.988,384.226 605.321,383.393 610.5,382.5 Z"/></g>
<g><path style="opacity:1" fill="#d08383" d="M 392.5,397.5 C 393.531,399.961 394.198,402.627 394.5,405.5C 385.243,405.671 381.41,410.337 383,419.5C 386.611,425.984 392.111,429.65 399.5,430.5C 400.451,431.919 400.784,433.585 400.5,435.5C 390.968,433.789 383.802,428.789 379,420.5C 376.663,409.145 381.163,402.812 392.5,401.5C 392.5,400.167 392.5,398.833 392.5,397.5 Z"/></g>
<g><path style="opacity:1" fill="#d08382" d="M 690.5,401.5 C 696.822,401.902 701.322,404.902 704,410.5C 704.683,424.665 697.85,432.665 683.5,434.5C 683.232,432.901 683.566,431.568 684.5,430.5C 691.178,428.915 696.345,425.249 700,419.5C 701.566,410.947 698.066,406.28 689.5,405.5C 689.433,404.041 689.766,402.708 690.5,401.5 Z"/></g>
<g><path style="opacity:1" fill="#e7b5aa" d="M 394.5,405.5 C 396.04,413.868 397.707,422.201 399.5,430.5C 392.111,429.65 386.611,425.984 383,419.5C 381.41,410.337 385.243,405.671 394.5,405.5 Z"/></g>
<g><path style="opacity:1" fill="#e7b5aa" d="M 689.5,405.5 C 698.066,406.28 701.566,410.947 700,419.5C 696.345,425.249 691.178,428.915 684.5,430.5C 686.293,422.201 687.96,413.868 689.5,405.5 Z"/></g>
<g><path style="opacity:1" fill="#614236" d="M 443.5,411.5 C 445.924,411.192 448.257,411.526 450.5,412.5C 456.39,421.401 464.39,423.901 474.5,420C 477.833,418 480.5,415.333 482.5,412C 488.348,410.598 492.682,412.431 495.5,417.5C 491.477,427.361 484.144,433.195 473.5,435C 462.263,436.583 452.096,434.083 443,427.5C 440.769,424.205 438.936,420.705 437.5,417C 439.396,414.932 441.396,413.099 443.5,411.5 Z"/></g>
<g><path style="opacity:1" fill="#614236" d="M 593.5,411.5 C 595.924,411.192 598.257,411.526 600.5,412.5C 606.39,421.401 614.39,423.901 624.5,420C 627.833,418 630.5,415.333 632.5,412C 637.788,410.797 642.121,412.297 645.5,416.5C 642.054,427.1 634.721,433.267 623.5,435C 611.323,437.065 600.823,433.898 592,425.5C 590.368,423.067 588.868,420.567 587.5,418C 589.014,415.322 591.014,413.155 593.5,411.5 Z"/></g>
<g><path style="opacity:1" fill="#e9b2aa" d="M 424.5,438.5 C 446.638,444.666 468.971,445.666 491.5,441.5C 492.684,442.688 492.684,443.855 491.5,445C 468.577,450.054 445.91,449.054 423.5,442C 422.015,440.244 422.348,439.077 424.5,438.5 Z"/></g>
<g><path style="opacity:1" fill="#e9b2aa" d="M 658.5,438.5 C 660.652,439.077 660.985,440.244 659.5,442C 637.77,448.469 615.77,449.802 593.5,446C 590.715,445.274 590.048,443.774 591.5,441.5C 598.477,443.728 605.643,444.728 613,444.5C 628.369,443.933 643.536,441.933 658.5,438.5 Z"/></g>
<g><path style="opacity:1" fill="#e997a0" d="M 539.5,453.5 C 544.328,453.385 545.661,455.552 543.5,460C 538.57,460.427 537.237,458.26 539.5,453.5 Z"/></g>
<g><path style="opacity:1" fill="#624b39" d="M 397.5,455.5 C 400.428,454.601 403.428,454.934 406.5,456.5C 407.752,458.735 408.252,461.069 408,463.5C 404.624,460.617 401.124,457.951 397.5,455.5 Z"/></g>
<g><path style="opacity:1" fill="#c16d6c" d="M 527.5,481.5 C 536.833,481.5 546.167,481.5 555.5,481.5C 555.67,482.822 555.337,483.989 554.5,485C 545.833,485.667 537.167,485.667 528.5,485C 527.663,483.989 527.33,482.822 527.5,481.5 Z"/></g>
<g><path style="opacity:1" fill="#f6d7cf" d="M 520.5,518.5 C 535.162,519.792 549.828,519.792 564.5,518.5C 564.665,521.518 564.498,524.518 564,527.5C 556.649,534.352 549.149,541.019 541.5,547.5C 534.518,541.686 527.685,535.686 521,529.5C 520.501,525.848 520.335,522.182 520.5,518.5 Z"/></g>
<g><path style="opacity:1" fill="#fcfcfc" d="M 504.5,520.5 C 516.241,530.067 527.574,540.233 538.5,551C 526.309,560.691 513.976,570.191 501.5,579.5C 494.372,565.41 487.372,551.244 480.5,537C 487.384,529.737 495.384,524.237 504.5,520.5 Z"/></g>
<g><path style="opacity:1" fill="#fcfcfc" d="M 576.5,520.5 C 585.83,523.583 593.997,528.583 601,535.5C 601.167,536.167 601.333,536.833 601.5,537.5C 595.365,551.768 588.699,565.768 581.5,579.5C 569.024,570.191 556.691,560.691 544.5,551C 555.365,540.967 566.032,530.8 576.5,520.5 Z"/></g>
<g><path style="opacity:1" fill="#fde1aa" d="M 471.5,538.5 C 473.604,538.201 475.604,538.534 477.5,539.5C 484.667,554.5 491.833,569.5 499,584.5C 499.414,584.957 499.914,585.291 500.5,585.5C 503.5,583 506.5,580.5 509.5,578C 510.332,577.312 510.998,577.479 511.5,578.5C 521.426,596.026 531.593,613.36 542,630.5C 543.767,629.66 545.101,628.327 546,626.5C 554.41,610.008 563.576,594.008 573.5,578.5C 576.022,580.856 578.688,583.023 581.5,585C 582.449,585.617 583.282,585.451 584,584.5C 591.167,569.5 598.333,554.5 605.5,539.5C 606.5,539.167 607.5,538.833 608.5,538.5C 614.06,540.307 619.727,541.64 625.5,542.5C 636.179,602.239 645.012,662.239 652,722.5C 652.667,729.5 652.667,736.5 652,743.5C 648.94,748.788 644.44,752.288 638.5,754C 580.555,768.7 522.222,770.367 463.5,759C 454.453,757.54 445.787,754.873 437.5,751C 434.616,749.116 432.449,746.616 431,743.5C 430.333,736.167 430.333,728.833 431,721.5C 438.096,661.587 446.93,601.921 457.5,542.5C 462.411,541.748 467.078,540.415 471.5,538.5 Z"/></g>
<g><path style="opacity:1" fill="#f4a96b" d="M 450.5,560.5 C 445.833,560.5 441.167,560.5 436.5,560.5C 436.5,556.5 436.5,552.5 436.5,548.5C 437.749,546.864 439.416,545.697 441.5,545C 445.541,544.173 449.541,544.34 453.5,545.5C 452.392,550.485 451.392,555.485 450.5,560.5 Z"/></g>
<g><path style="opacity:1" fill="#f2a76a" d="M 646.5,548.5 C 646.5,552.5 646.5,556.5 646.5,560.5C 641.833,560.5 637.167,560.5 632.5,560.5C 631.393,554.86 630.393,549.193 629.5,543.5C 634.33,543.387 638.997,544.22 643.5,546C 644.942,546.377 645.942,547.21 646.5,548.5 Z"/></g>
<g><path style="opacity:1" fill="#efe7e0" d="M 540.5,553.5 C 543.1,554.919 545.6,556.585 548,558.5C 548.667,577.167 548.667,595.833 548,614.5C 546.248,617.672 544.248,620.672 542,623.5C 540.333,620.833 538.667,618.167 537,615.5C 536.167,595.825 536.334,576.158 537.5,556.5C 538.855,555.812 539.855,554.812 540.5,553.5 Z"/></g>
<g><path style="opacity:1" fill="#fbfbfb" d="M 430.5,555.5 C 432.904,585.33 434.738,615.33 436,645.5C 422.113,642.105 409.28,636.605 397.5,629C 403.006,611.151 408.506,593.318 414,575.5C 417.884,567.454 423.384,560.787 430.5,555.5 Z"/></g>
<g><path style="opacity:1" fill="#fbfbfb" d="M 651.5,555.5 C 659.273,560.442 665.106,567.108 669,575.5C 674.494,593.318 679.994,611.151 685.5,629C 673.585,636.538 660.752,642.038 647,645.5C 648.587,615.522 650.087,585.522 651.5,555.5 Z"/></g>
<g><path style="opacity:1" fill="#c17339" d="M 436.5,548.5 C 436.5,552.5 436.5,556.5 436.5,560.5C 441.167,560.5 445.833,560.5 450.5,560.5C 450.768,562.099 450.434,563.432 449.5,564.5C 444.968,564.182 440.634,564.515 436.5,565.5C 435.167,559.833 435.167,554.167 436.5,548.5 Z"/></g>
<g><path style="opacity:1" fill="#c17339" d="M 646.5,548.5 C 647.833,554.167 647.833,559.833 646.5,565.5C 642.366,564.515 638.032,564.182 633.5,564.5C 632.566,563.432 632.232,562.099 632.5,560.5C 637.167,560.5 641.833,560.5 646.5,560.5C 646.5,556.5 646.5,552.5 646.5,548.5 Z"/></g>
<g><path style="opacity:1" fill="#cac4c2" d="M 530.5,603.5 C 531.833,589.833 531.833,576.167 530.5,562.5C 530.783,561.711 531.283,561.044 532,560.5C 532.667,575.833 532.667,591.167 532,606.5C 531.487,605.473 530.987,604.473 530.5,603.5 Z"/></g>
<g><path style="opacity:1" fill="#fbfafa" d="M 530.5,562.5 C 531.833,576.167 531.833,589.833 530.5,603.5C 524.795,594.441 519.461,585.108 514.5,575.5C 519.248,570.416 524.581,566.083 530.5,562.5 Z"/></g>
<g><path style="opacity:1" fill="#65554f" d="M 552.5,562.5 C 552.171,577.01 552.504,591.343 553.5,605.5C 553.217,606.289 552.717,606.956 552,607.5C 551.175,591.758 551.342,576.758 552.5,562.5 Z"/></g>
<g><path style="opacity:1" fill="#fbfafa" d="M 552.5,562.5 C 558.599,566.43 564.266,570.93 569.5,576C 564.022,585.792 558.689,595.625 553.5,605.5C 552.504,591.343 552.171,577.01 552.5,562.5 Z"/></g>
<g><path style="opacity:1" fill="#f4a96b" d="M 449.5,564.5 C 448.939,571.03 447.939,577.363 446.5,583.5C 443.455,583.492 440.455,583.159 437.5,582.5C 437.768,580.901 437.434,579.568 436.5,578.5C 436.5,574.167 436.5,569.833 436.5,565.5C 440.634,564.515 444.968,564.182 449.5,564.5 Z"/></g>
<g><path style="opacity:1" fill="#f4a96b" d="M 633.5,564.5 C 638.032,564.182 642.366,564.515 646.5,565.5C 646.5,569.833 646.5,574.167 646.5,578.5C 645.566,579.568 645.232,580.901 645.5,582.5C 642.482,582.704 639.482,583.037 636.5,583.5C 635.061,577.363 634.061,571.03 633.5,564.5 Z"/></g>
<g><path style="opacity:1" fill="#c47337" d="M 436.5,578.5 C 437.434,579.568 437.768,580.901 437.5,582.5C 440.455,583.159 443.455,583.492 446.5,583.5C 446.768,585.099 446.434,586.432 445.5,587.5C 442.794,587.425 440.127,587.092 437.5,586.5C 436.527,584.052 436.194,581.385 436.5,578.5 Z"/></g>
<g><path style="opacity:1" fill="#c47337" d="M 646.5,578.5 C 646.806,581.385 646.473,584.052 645.5,586.5C 642.763,586.401 640.096,586.735 637.5,587.5C 636.566,586.432 636.232,585.099 636.5,583.5C 639.482,583.037 642.482,582.704 645.5,582.5C 645.232,580.901 645.566,579.568 646.5,578.5 Z"/></g>
<g><path style="opacity:1" fill="#f2a668" d="M 437.5,586.5 C 440.127,587.092 442.794,587.425 445.5,587.5C 444.24,599.909 442.407,612.243 440,624.5C 438.982,611.841 438.149,599.174 437.5,586.5 Z"/></g>
<g><path style="opacity:1" fill="#f2a567" d="M 645.5,586.5 C 644.851,599.174 644.018,611.841 643,624.5C 640.593,612.243 638.76,599.909 637.5,587.5C 640.096,586.735 642.763,586.401 645.5,586.5 Z"/></g>
<g><path style="opacity:1" fill="#fbfafa" d="M 390.5,630.5 C 404.848,639.173 420.182,645.506 436.5,649.5C 435.384,658.213 434.051,666.88 432.5,675.5C 414.938,673.05 398.938,666.717 384.5,656.5C 384.167,656 383.833,655.5 383.5,655C 385.333,646.67 387.667,638.503 390.5,630.5 Z"/></g>
<g><path style="opacity:1" fill="#fbfafa" d="M 691.5,630.5 C 694.535,638.445 697.202,646.611 699.5,655C 693.825,660.51 687.158,664.51 679.5,667C 669.722,670.761 659.722,673.595 649.5,675.5C 648.938,666.775 647.938,658.109 646.5,649.5C 662.616,645.603 677.616,639.27 691.5,630.5 Z"/></g>
<g><path style="opacity:1" fill="#f9dad2" d="M 408.5,673.5 C 415.972,675.998 423.639,677.998 431.5,679.5C 430.664,692.189 429.498,704.855 428,717.5C 427.333,726.833 427.333,736.167 428,745.5C 428.26,747.618 429.26,749.284 431,750.5C 431.206,756.884 431.706,763.217 432.5,769.5C 436.039,771.235 439.706,772.568 443.5,773.5C 443.666,781.84 443.5,790.173 443,798.5C 416.3,813.203 393.633,808.537 375,784.5C 364.048,764.153 365.548,744.819 379.5,726.5C 385.395,720.435 392.228,715.769 400,712.5C 402.737,699.461 405.571,686.461 408.5,673.5 Z"/></g>
<g><path style="opacity:1" fill="#f9dad2" d="M 671.5,673.5 C 672.5,673.5 673.5,673.5 674.5,673.5C 677.429,686.461 680.263,699.461 683,712.5C 709.622,725.077 719.622,745.744 713,774.5C 700.946,799.943 681.113,810.11 653.5,805C 649.381,803.441 645.381,801.607 641.5,799.5C 640.167,790.833 640.167,782.167 641.5,773.5C 644.944,772.301 648.111,770.634 651,768.5C 651.728,763.467 651.561,758.467 650.5,753.5C 652.195,750.965 653.695,748.298 655,745.5C 655.856,725.225 654.69,705.058 651.5,685C 651.833,683.167 652.167,681.333 652.5,679.5C 659.087,677.943 665.421,675.943 671.5,673.5 Z"/></g>
<g><path style="opacity:1" fill="#f3a86a" d="M 450.5,759.5 C 451.791,763.601 451.791,767.601 450.5,771.5C 446.089,770.307 441.756,768.807 437.5,767C 436.371,762.921 436.204,758.755 437,754.5C 441.326,756.664 445.826,758.331 450.5,759.5 Z"/></g>
<g><path style="opacity:1" fill="#f1a669" d="M 632.5,771.5 C 631.518,768.038 631.185,764.371 631.5,760.5C 635.984,758.33 640.65,756.33 645.5,754.5C 646.798,758.715 646.798,762.882 645.5,767C 641.256,768.803 636.922,770.303 632.5,771.5 Z"/></g>
<g><path style="opacity:1" fill="#c87639" d="M 450.5,759.5 C 452.698,759.875 454.698,760.542 456.5,761.5C 455.517,765.298 455.183,769.298 455.5,773.5C 453.694,772.976 452.028,772.309 450.5,771.5C 451.791,767.601 451.791,763.601 450.5,759.5 Z"/></g>
<g><path style="opacity:1" fill="#c87638" d="M 625.5,761.5 C 627.265,760.539 629.265,760.205 631.5,760.5C 631.185,764.371 631.518,768.038 632.5,771.5C 631.07,772.537 629.403,773.204 627.5,773.5C 628.089,769.029 627.423,765.029 625.5,761.5 Z"/></g>
<g><path style="opacity:1" fill="#f2a76a" d="M 456.5,761.5 C 462.333,762.596 468,763.93 473.5,765.5C 473.5,769.5 473.5,773.5 473.5,777.5C 467.354,776.784 461.354,775.45 455.5,773.5C 455.183,769.298 455.517,765.298 456.5,761.5 Z"/></g>
<g><path style="opacity:1" fill="#f3a86a" d="M 625.5,761.5 C 627.423,765.029 628.089,769.029 627.5,773.5C 621.496,774.834 615.496,776.168 609.5,777.5C 609.5,773.167 609.5,768.833 609.5,764.5C 614.8,763.314 620.133,762.314 625.5,761.5 Z"/></g>
<g><path style="opacity:1" fill="#ca7638" d="M 473.5,765.5 C 474.833,765.5 476.167,765.5 477.5,765.5C 477.5,769.833 477.5,774.167 477.5,778.5C 475.901,778.768 474.568,778.434 473.5,777.5C 473.5,773.5 473.5,769.5 473.5,765.5 Z"/></g>
<g><path style="opacity:1" fill="#f3a76a" d="M 477.5,765.5 C 483.489,766.226 489.489,766.893 495.5,767.5C 495.5,771.833 495.5,776.167 495.5,780.5C 489.41,780.487 483.41,779.82 477.5,778.5C 477.5,774.167 477.5,769.833 477.5,765.5 Z"/></g>
<g><path style="opacity:1" fill="#f3a86b" d="M 605.5,765.5 C 605.5,769.833 605.5,774.167 605.5,778.5C 599.559,779.634 593.559,780.301 587.5,780.5C 587.5,776.167 587.5,771.833 587.5,767.5C 593.489,766.774 599.489,766.107 605.5,765.5 Z"/></g>
<g><path style="opacity:1" fill="#c67437" d="M 609.5,764.5 C 609.5,768.833 609.5,773.167 609.5,777.5C 608.432,778.434 607.099,778.768 605.5,778.5C 605.5,774.167 605.5,769.833 605.5,765.5C 606.708,764.766 608.041,764.433 609.5,764.5 Z"/></g>
<g><path style="opacity:1" fill="#c57336" d="M 495.5,767.5 C 497.735,767.205 499.735,767.539 501.5,768.5C 499.57,772.373 498.903,776.706 499.5,781.5C 497.901,781.768 496.568,781.434 495.5,780.5C 495.5,776.167 495.5,771.833 495.5,767.5 Z"/></g>
<g><path style="opacity:1" fill="#f3a86a" d="M 501.5,768.5 C 506.833,768.833 512.167,769.167 517.5,769.5C 517.5,769.833 517.5,770.167 517.5,770.5C 517.817,774.702 517.483,778.702 516.5,782.5C 510.811,782.468 505.145,782.134 499.5,781.5C 498.903,776.706 499.57,772.373 501.5,768.5 Z"/></g>
<g><path style="opacity:1" fill="#f5a96c" d="M 581.5,768.5 C 583.43,772.373 584.097,776.706 583.5,781.5C 577.819,781.635 572.152,781.968 566.5,782.5C 566.414,778.143 566.08,773.81 565.5,769.5C 570.822,769.02 576.155,768.687 581.5,768.5 Z"/></g>
<g><path style="opacity:1" fill="#c57236" d="M 581.5,768.5 C 583.265,767.539 585.265,767.205 587.5,767.5C 587.5,771.833 587.5,776.167 587.5,780.5C 586.432,781.434 585.099,781.768 583.5,781.5C 584.097,776.706 583.43,772.373 581.5,768.5 Z"/></g>
<g><path style="opacity:1" fill="#cb793c" d="M 517.5,770.5 C 518.833,770.5 520.167,770.5 521.5,770.5C 521.5,774.5 521.5,778.5 521.5,782.5C 522.791,782.263 523.791,782.596 524.5,783.5C 521.615,783.806 518.948,783.473 516.5,782.5C 517.483,778.702 517.817,774.702 517.5,770.5 Z"/></g>
<g><path style="opacity:1" fill="#f6aa6c" d="M 521.5,770.5 C 527.5,770.5 533.5,770.5 539.5,770.5C 539.5,774.833 539.5,779.167 539.5,783.5C 534.5,783.5 529.5,783.5 524.5,783.5C 523.791,782.596 522.791,782.263 521.5,782.5C 521.5,778.5 521.5,774.5 521.5,770.5 Z"/></g>
<g><path style="opacity:1" fill="#cc7636" d="M 539.5,770.5 C 540.833,770.5 542.167,770.5 543.5,770.5C 543.5,774.833 543.5,779.167 543.5,783.5C 542.167,783.5 540.833,783.5 539.5,783.5C 539.5,779.167 539.5,774.833 539.5,770.5 Z"/></g>
<g><path style="opacity:1" fill="#f5a96b" d="M 543.5,770.5 C 549.833,770.5 556.167,770.5 562.5,770.5C 562.5,774.5 562.5,778.5 562.5,782.5C 560.585,782.216 558.919,782.549 557.5,783.5C 552.833,783.5 548.167,783.5 543.5,783.5C 543.5,779.167 543.5,774.833 543.5,770.5 Z"/></g>
<g><path style="opacity:1" fill="#b76f3b" d="M 517.5,770.5 C 517.5,770.167 517.5,769.833 517.5,769.5C 533.5,769.5 549.5,769.5 565.5,769.5C 566.08,773.81 566.414,778.143 566.5,782.5C 563.713,783.477 560.713,783.81 557.5,783.5C 558.919,782.549 560.585,782.216 562.5,782.5C 562.5,778.5 562.5,774.5 562.5,770.5C 556.167,770.5 549.833,770.5 543.5,770.5C 542.167,770.5 540.833,770.5 539.5,770.5C 533.5,770.5 527.5,770.5 521.5,770.5C 520.167,770.5 518.833,770.5 517.5,770.5 Z"/></g>
<g><path style="opacity:1" fill="#566c8b" d="M 447.5,775.5 C 478.744,784.906 510.744,788.906 543.5,787.5C 575.11,788.025 606.11,784.025 636.5,775.5C 636.004,834.169 635.338,892.836 634.5,951.5C 625.268,955.283 615.935,958.783 606.5,962C 589.469,961.998 572.469,961.164 555.5,959.5C 554.791,906.501 554.124,853.501 553.5,800.5C 561.325,800.418 568.992,799.251 576.5,797C 577.337,795.989 577.67,794.822 577.5,793.5C 554.129,798.711 530.796,798.711 507.5,793.5C 507.227,795.451 507.893,796.951 509.5,798C 516.435,799.6 523.435,800.767 530.5,801.5C 529.922,854.168 529.255,906.835 528.5,959.5C 518.466,959.907 508.466,960.741 498.5,962C 491.5,962.667 484.5,962.667 477.5,962C 468.157,959.386 459.157,955.886 450.5,951.5C 448.663,892.85 447.663,834.184 447.5,775.5 Z"/></g>
<g><path style="opacity:1" fill="#b7afad" d="M 549.5,809.5 C 548.532,807.393 548.198,805.059 548.5,802.5C 544.167,802.5 539.833,802.5 535.5,802.5C 535.821,807.695 535.487,812.695 534.5,817.5C 534.5,812.167 534.5,806.833 534.5,801.5C 539.5,801.5 544.5,801.5 549.5,801.5C 549.5,804.167 549.5,806.833 549.5,809.5 Z"/></g>
<g><path style="opacity:1" fill="#465e7c" d="M 472.5,808.5 C 473.822,808.33 474.989,808.663 476,809.5C 476.994,857.309 476.661,904.976 475,952.5C 474.333,951.833 473.667,951.167 473,950.5C 472.5,903.168 472.333,855.835 472.5,808.5 Z"/></g>
<g><path style="opacity:1" fill="#465e7c" d="M 608.5,808.5 C 609.5,808.5 610.5,808.5 611.5,808.5C 611.667,855.835 611.5,903.168 611,950.5C 609.989,951.337 608.822,951.67 607.5,951.5C 607.172,903.761 607.505,856.095 608.5,808.5 Z"/></g>
<g><path style="opacity:1" fill="#f7f6f6" d="M 514.5,963.5 C 517.5,963.5 520.5,963.5 523.5,963.5C 526.123,977.377 520.456,983.211 506.5,981C 500.98,975.979 495.314,971.146 489.5,966.5C 497.997,965.638 506.33,964.638 514.5,963.5 Z"/></g>
<g><path style="opacity:1" fill="#f9f9f8" d="M 560.5,963.5 C 571.539,964.281 582.539,965.448 593.5,967C 588.167,971.667 582.833,976.333 577.5,981C 563.577,983.243 557.91,977.41 560.5,963.5 Z"/></g>
</svg>
