<svg width="280" height="41" viewBox="0 0 280 41" fill="none" xmlns="http://www.w3.org/2000/svg">
<rect x="0.5" y="0.5" width="279" height="40" rx="20" fill="white" stroke="#999999"/>
<path fill-rule="evenodd" clip-rule="evenodd" d="M37.56 20.2498C37.56 19.4698 37.49 18.7198 37.36 17.9998H27V22.2548H32.92C32.665 23.6298 31.89 24.7948 30.725 25.5748V28.3348H34.28C36.36 26.4198 37.56 23.5998 37.56 20.2498Z" fill="#4285F4"/>
<path fill-rule="evenodd" clip-rule="evenodd" d="M26.9999 30.9998C29.9699 30.9998 32.4599 30.0148 34.2799 28.3348L30.7249 25.5748C29.7399 26.2348 28.4799 26.6248 26.9999 26.6248C24.1349 26.6248 21.7099 24.6898 20.8449 22.0898H17.1699V24.9398C18.9799 28.5348 22.6999 30.9998 26.9999 30.9998Z" fill="#34A853"/>
<path fill-rule="evenodd" clip-rule="evenodd" d="M20.845 22.0901C20.625 21.4301 20.5 20.7251 20.5 20.0001C20.5 19.2751 20.625 18.5701 20.845 17.9101V15.0601H17.17C16.425 16.5451 16 18.2251 16 20.0001C16 21.7751 16.425 23.4551 17.17 24.9401L20.845 22.0901Z" fill="#FBBC05"/>
<path fill-rule="evenodd" clip-rule="evenodd" d="M26.9999 13.375C28.6149 13.375 30.0649 13.93 31.2049 15.02L34.3599 11.865C32.4549 10.09 29.9649 9 26.9999 9C22.6999 9 18.9799 11.465 17.1699 15.06L20.8449 17.91C21.7099 15.31 24.1349 13.375 26.9999 13.375Z" fill="#EA4335"/>
<path d="M104.656 13.2031V14.4375C104.656 15.7656 104.656 17.2031 104.266 19.2031H106.281V20.4219H100.609V26.3438H99.1094V20.4219H93.5156V19.2031H102.766C103.188 17.2109 103.188 15.7422 103.188 14.4375V14.4219H95.0781V13.2031H104.656ZM118.467 12.9219V13.8438C118.467 14.7734 118.467 15.9453 118.17 17.4688H120.092V18.6562H107.28V17.4688H116.686C116.967 16.0469 116.998 14.9766 116.998 14.1094H108.889V12.9219H118.467ZM118.483 19.9062V23.5781H110.28V25H118.842V26.1875H108.795V22.4375H117.014V21.0938H108.78V19.9062H118.483ZM133.856 23.4062V24.6562H121.044V23.4062H126.684V20.9531H122.606V16.5H130.825V14.5312H122.575V13.3125H132.294V17.6875H124.075V19.7344H132.622V20.9531H128.153V23.4062H133.856ZM151.463 23.4062V24.6562H138.65V23.4062H144.291V20.9531H140.213V16.5H148.431V14.5312H140.181V13.3125H149.9V17.6875H141.681V19.7344H150.228V20.9531H145.76V23.4062H151.463ZM163.508 13.75V15.25C163.508 17.0625 163.508 19.0312 162.993 22.0156L161.477 21.875C162.039 19.0781 162.039 17.0156 162.039 15.25V14.9688H153.789V13.75H163.508ZM165.18 23.1094V24.3438H152.414V23.1094H165.18ZM177.788 12.3438V22.5156H176.303V12.3438H177.788ZM178.21 24.8281V26.0312H168.632V21.4844H170.132V24.8281H178.21ZM170.194 13.2812C172.303 13.2812 173.913 14.7188 173.913 16.75C173.913 18.8125 172.303 20.2344 170.194 20.2344C168.085 20.2344 166.46 18.8125 166.46 16.75C166.46 14.7188 168.085 13.2812 170.194 13.2812ZM170.194 14.5781C168.882 14.5781 167.913 15.4688 167.913 16.75C167.913 18.0625 168.882 18.9375 170.194 18.9375C171.475 18.9375 172.46 18.0625 172.46 16.75C172.46 15.4688 171.475 14.5781 170.194 14.5781Z" fill="#1A1A1A"/>
<rect width="280" height="41" fill="white"/>
<rect width="280" height="41" rx="20.5" fill="#F6F6F6"/>
<path fill-rule="evenodd" clip-rule="evenodd" d="M37.56 20.2498C37.56 19.4698 37.49 18.7198 37.36 17.9998H27V22.2548H32.92C32.665 23.6298 31.89 24.7948 30.725 25.5748V28.3348H34.28C36.36 26.4198 37.56 23.5998 37.56 20.2498Z" fill="#4285F4"/>
<path fill-rule="evenodd" clip-rule="evenodd" d="M27 30.9998C29.97 30.9998 32.46 30.0148 34.28 28.3348L30.725 25.5748C29.74 26.2348 28.48 26.6248 27 26.6248C24.135 26.6248 21.71 24.6898 20.845 22.0898H17.17V24.9398C18.98 28.5348 22.7 30.9998 27 30.9998Z" fill="#34A853"/>
<path fill-rule="evenodd" clip-rule="evenodd" d="M20.845 22.0901C20.625 21.4301 20.5 20.7251 20.5 20.0001C20.5 19.2751 20.625 18.5701 20.845 17.9101V15.0601H17.17C16.425 16.5451 16 18.2251 16 20.0001C16 21.7751 16.425 23.4551 17.17 24.9401L20.845 22.0901Z" fill="#FBBC05"/>
<path fill-rule="evenodd" clip-rule="evenodd" d="M27 13.375C28.615 13.375 30.065 13.93 31.205 15.02L34.36 11.865C32.455 10.09 29.965 9 27 9C22.7 9 18.98 11.465 17.17 15.06L20.845 17.91C21.71 15.31 24.135 13.375 27 13.375Z" fill="#EA4335"/>
<path d="M104.656 13.2031V14.4375C104.656 15.7656 104.656 17.2031 104.266 19.2031H106.281V20.4219H100.609V26.3438H99.1094V20.4219H93.5156V19.2031H102.766C103.188 17.2109 103.188 15.7422 103.188 14.4375V14.4219H95.0781V13.2031H104.656ZM118.467 12.9219V13.8438C118.467 14.7734 118.467 15.9453 118.17 17.4688H120.092V18.6562H107.28V17.4688H116.686C116.967 16.0469 116.998 14.9766 116.998 14.1094H108.889V12.9219H118.467ZM118.483 19.9062V23.5781H110.28V25H118.842V26.1875H108.795V22.4375H117.014V21.0938H108.78V19.9062H118.483ZM133.856 23.4062V24.6562H121.044V23.4062H126.684V20.9531H122.606V16.5H130.825V14.5312H122.575V13.3125H132.294V17.6875H124.075V19.7344H132.622V20.9531H128.153V23.4062H133.856ZM151.463 23.4062V24.6562H138.65V23.4062H144.291V20.9531H140.213V16.5H148.431V14.5312H140.181V13.3125H149.9V17.6875H141.681V19.7344H150.228V20.9531H145.76V23.4062H151.463ZM163.508 13.75V15.25C163.508 17.0625 163.508 19.0312 162.993 22.0156L161.477 21.875C162.039 19.0781 162.039 17.0156 162.039 15.25V14.9688H153.789V13.75H163.508ZM165.18 23.1094V24.3438H152.414V23.1094H165.18ZM177.788 12.3438V22.5156H176.303V12.3438H177.788ZM178.21 24.8281V26.0312H168.632V21.4844H170.132V24.8281H178.21ZM170.194 13.2812C172.303 13.2812 173.913 14.7188 173.913 16.75C173.913 18.8125 172.303 20.2344 170.194 20.2344C168.085 20.2344 166.46 18.8125 166.46 16.75C166.46 14.7188 168.085 13.2812 170.194 13.2812ZM170.194 14.5781C168.882 14.5781 167.913 15.4688 167.913 16.75C167.913 18.0625 168.882 18.9375 170.194 18.9375C171.475 18.9375 172.46 18.0625 172.46 16.75C172.46 15.4688 171.475 14.5781 170.194 14.5781Z" fill="#1A1A1A"/>
</svg>
