<svg width="22" height="22" viewBox="0 0 22 22" fill="none" xmlns="http://www.w3.org/2000/svg">
<path fill-rule="evenodd" clip-rule="evenodd" d="M21.56 11.2498C21.56 10.4698 21.49 9.71976 21.36 8.99976H11V13.2548H16.92C16.665 14.6298 15.89 15.7948 14.725 16.5748V19.3348H18.28C20.36 17.4198 21.56 14.5998 21.56 11.2498Z" fill="#4285F4"/>
<path fill-rule="evenodd" clip-rule="evenodd" d="M11 21.9998C13.97 21.9998 16.46 21.0148 18.28 19.3348L14.725 16.5748C13.74 17.2348 12.48 17.6248 11 17.6248C8.13504 17.6248 5.71004 15.6898 4.84504 13.0898H1.17004V15.9398C2.98004 19.5348 6.70004 21.9998 11 21.9998Z" fill="#34A853"/>
<path fill-rule="evenodd" clip-rule="evenodd" d="M4.845 13.0901C4.625 12.4301 4.5 11.7251 4.5 11.0001C4.5 10.2751 4.625 9.57006 4.845 8.91006V6.06006H1.17C0.425 7.54506 0 9.22506 0 11.0001C0 12.7751 0.425 14.4551 1.17 15.9401L4.845 13.0901Z" fill="#FBBC05"/>
<path fill-rule="evenodd" clip-rule="evenodd" d="M11 4.375C12.615 4.375 14.065 4.93 15.205 6.02L18.36 2.865C16.455 1.09 13.965 0 11 0C6.70004 0 2.98004 2.465 1.17004 6.06L4.84504 8.91C5.71004 6.31 8.13504 4.375 11 4.375Z" fill="#EA4335"/>
</svg>
