<svg width="45" height="45" viewBox="0 0 45 45" fill="none" xmlns="http://www.w3.org/2000/svg">
<g id="lyra-icon-u_camera">
<path id="Vector" d="M35.625 12.1875H33.225L32.625 10.3125C32.2361 9.21235 31.5144 8.26037 30.5604 7.58847C29.6064 6.91658 28.467 6.55804 27.3 6.56254H17.7C16.5217 6.56475 15.3737 6.93696 14.4183 7.62662C13.4629 8.31629 12.7481 9.28859 12.375 10.4063L11.775 12.2813H9.375C7.88316 12.2813 6.45242 12.8739 5.39753 13.9288C4.34263 14.9837 3.75 16.4144 3.75 17.9063V32.9063C3.75 34.3982 4.34263 35.8288 5.39753 36.8837C6.45242 37.9388 7.88316 38.5313 9.375 38.5313H35.625C37.1168 38.5313 38.5476 37.9388 39.6024 36.8837C40.6573 35.8288 41.25 34.3982 41.25 32.9063V17.9063C41.2624 17.1598 41.1261 16.4182 40.8491 15.7249C40.572 15.0316 40.1595 14.4004 39.636 13.8681C39.1125 13.3358 38.4881 12.913 37.7994 12.6245C37.1108 12.336 36.3716 12.1874 35.625 12.1875ZM37.5 32.8125C37.5 33.3098 37.3024 33.7868 36.9508 34.1383C36.5993 34.4901 36.1223 34.6875 35.625 34.6875H9.375C8.87771 34.6875 8.40081 34.4901 8.04917 34.1383C7.69755 33.7868 7.5 33.3098 7.5 32.8125V17.8125C7.5 17.3153 7.69755 16.8383 8.04917 16.4867C8.40081 16.1351 8.87771 15.9375 9.375 15.9375H13.125C13.5339 15.9589 13.9385 15.8458 14.2771 15.6156C14.6156 15.3854 14.8695 15.0506 15 14.6625L16.0125 11.5875C16.1383 11.2151 16.3779 10.8917 16.6976 10.6629C17.0172 10.4341 17.4007 10.3115 17.7938 10.3125H27.3938C27.7868 10.3115 28.1704 10.4341 28.4899 10.6629C28.8096 10.8917 29.0492 11.2151 29.175 11.5875L30.1875 14.6625C30.3079 15.0202 30.5333 15.3332 30.8344 15.5607C31.1353 15.7882 31.4981 15.9195 31.875 15.9375H35.625C36.1223 15.9375 36.5993 16.1351 36.9508 16.4867C37.3024 16.8383 37.5 17.3153 37.5 17.8125V32.8125ZM22.5 15.9375C21.0167 15.9375 19.5666 16.3774 18.3332 17.2015C17.0999 18.0256 16.1386 19.197 15.5709 20.5674C15.0032 21.9379 14.8547 23.4459 15.1441 24.9008C15.4335 26.3556 16.1478 27.6919 17.1967 28.7408C18.2456 29.7898 19.5819 30.504 21.0368 30.7935C22.4918 31.0828 23.9996 30.9343 25.3701 30.3666C26.7405 29.799 27.912 28.8377 28.7361 27.6043C29.5601 26.3709 30 24.9208 30 23.4375C30 21.4485 29.2099 19.5407 27.8033 18.1343C26.3968 16.7277 24.4892 15.9375 22.5 15.9375ZM22.5 27.1875C21.7583 27.1875 21.0334 26.9676 20.4167 26.5556C19.8 26.1435 19.3193 25.5578 19.0354 24.8726C18.7517 24.1873 18.6774 23.4334 18.822 22.7059C18.9668 21.9786 19.3239 21.3103 19.8484 20.7859C20.3728 20.2614 21.0411 19.9043 21.7684 19.7597C22.4959 19.6149 23.2498 19.6892 23.9351 19.9731C24.6203 20.2568 25.206 20.7375 25.6179 21.3542C26.0301 21.9709 26.25 22.6959 26.25 23.4375C26.25 24.4322 25.8549 25.386 25.1516 26.0891C24.4483 26.7924 23.4945 27.1875 22.5 27.1875Z" fill="#FEF8EC"/>
</g>
</svg>
