<svg width="40" height="40" viewBox="0 0 40 40" fill="none" xmlns="http://www.w3.org/2000/svg">
<g id="card-game 1">
<g id="Group">
<path id="Vector" d="M20.7116 2.41324L6.1604 27.6166C5.86268 28.1323 6.03936 28.7916 6.55502 29.0894L21.9567 37.9815C22.4724 38.2793 23.1318 38.1026 23.4295 37.5869L37.9807 12.3836C38.2784 11.8679 38.1017 11.2085 37.586 10.9108L22.1843 2.01862C21.6687 1.7209 21.0093 1.89758 20.7116 2.41324Z" fill="#F8D18F"/>
<path id="Vector_2" d="M23.75 1.875H3.125C2.43464 1.875 1.875 2.43464 1.875 3.125V36.875C1.875 37.5654 2.43464 38.125 3.125 38.125H23.75C24.4404 38.125 25 37.5654 25 36.875V3.125C25 2.43464 24.4404 1.875 23.75 1.875Z" fill="#F5B354"/>
<path id="Vector_3" d="M22.5 5.625V34.375C22.5 34.7065 22.3683 35.0245 22.1339 35.2589C21.8995 35.4933 21.5815 35.625 21.25 35.625H16.5625L17.1875 33.75L13.4375 31.25L9.6875 33.75L10.3125 35.625H5.625C5.29348 35.625 4.97554 35.4933 4.74112 35.2589C4.5067 35.0245 4.375 34.7065 4.375 34.375V5.625C4.375 5.29348 4.5067 4.97554 4.74112 4.74112C4.97554 4.5067 5.29348 4.375 5.625 4.375H10.3125L9.6875 6.25L13.4375 8.75L17.1875 6.25L16.5625 4.375H21.25C21.5815 4.375 21.8995 4.5067 22.1339 4.74112C22.3683 4.97554 22.5 5.29348 22.5 5.625Z" fill="#F8D18F"/>
<path id="Vector_4" d="M13.4375 28.75C18.27 28.75 22.1875 24.8325 22.1875 20C22.1875 15.1675 18.27 11.25 13.4375 11.25C8.60501 11.25 4.6875 15.1675 4.6875 20C4.6875 24.8325 8.60501 28.75 13.4375 28.75Z" fill="#FEF8EC"/>
<path id="Vector_5" d="M13.4375 26.25C16.8893 26.25 19.6875 23.4518 19.6875 20C19.6875 16.5482 16.8893 13.75 13.4375 13.75C9.98572 13.75 7.1875 16.5482 7.1875 20C7.1875 23.4518 9.98572 26.25 13.4375 26.25Z" fill="#F29627"/>
<g id="Group_2">
<path id="Vector_6" d="M36.875 34.375C37.5654 34.375 38.125 33.8154 38.125 33.125C38.125 32.4346 37.5654 31.875 36.875 31.875C36.1846 31.875 35.625 32.4346 35.625 33.125C35.625 33.8154 36.1846 34.375 36.875 34.375Z" fill="#F5B354"/>
<path id="Vector_7" d="M36.875 4.375C37.5654 4.375 38.125 3.81536 38.125 3.125C38.125 2.43464 37.5654 1.875 36.875 1.875C36.1846 1.875 35.625 2.43464 35.625 3.125C35.625 3.81536 36.1846 4.375 36.875 4.375Z" fill="#F5B354"/>
</g>
<g id="Group_3">
<path id="Vector_8" d="M38.5227 12.6961C38.9953 11.9148 38.6992 10.8094 37.8977 10.3695L25.625 3.28125V3.125C25.625 2.62772 25.4275 2.15081 25.0758 1.79917C24.7242 1.44754 24.2473 1.25 23.75 1.25H3.125C2.62772 1.25 2.15081 1.44754 1.79917 1.79917C1.44754 2.15081 1.25 2.62772 1.25 3.125V36.875C1.25 37.3723 1.44754 37.8492 1.79917 38.2008C2.15081 38.5525 2.62772 38.75 3.125 38.75H23.75C24.2473 38.75 24.7242 38.5525 25.0758 38.2008C25.4275 37.8492 25.625 37.3723 25.625 36.875V35.0359L38.5227 12.6961ZM24.375 36.875C24.375 37.0408 24.3092 37.1997 24.1919 37.3169C24.0747 37.4342 23.9158 37.5 23.75 37.5H3.125C2.95924 37.5 2.80027 37.4342 2.68306 37.3169C2.56585 37.1997 2.5 37.0408 2.5 36.875V3.125C2.5 2.95924 2.56585 2.80027 2.68306 2.68306C2.80027 2.56585 2.95924 2.5 3.125 2.5H23.75C23.9158 2.5 24.0747 2.56585 24.1919 2.68306C24.3092 2.80027 24.375 2.95924 24.375 3.125V8.75C24.375 8.91576 24.4408 9.07473 24.5581 9.19194C24.6753 9.30915 24.8342 9.375 25 9.375C25.1658 9.375 25.3247 9.30915 25.4419 9.19194C25.5592 9.07473 25.625 8.91576 25.625 8.75V4.72656L37.275 11.4523C37.3778 11.5136 37.4525 11.6126 37.4833 11.7282C37.5141 11.8438 37.4985 11.9668 37.4398 12.0711L25.625 32.5352V13.75C25.625 13.5842 25.5592 13.4253 25.4419 13.3081C25.3247 13.1908 25.1658 13.125 25 13.125C24.8342 13.125 24.6753 13.1908 24.5581 13.3081C24.4408 13.4253 24.375 13.5842 24.375 13.75V36.875Z" fill="#1E120B"/>
<path id="Vector_9" d="M21.25 3.75H16.5625C16.4638 3.751 16.3667 3.77519 16.2791 3.82061C16.1915 3.86602 16.1158 3.9314 16.0581 4.01146C16.0004 4.09152 15.9623 4.18402 15.9469 4.2815C15.9315 4.37898 15.9393 4.47872 15.9695 4.57266L16.4437 5.99453L13.4375 7.99844L10.4313 5.99453L10.9055 4.57266C10.9357 4.47872 10.9435 4.37898 10.9281 4.2815C10.9127 4.18402 10.8746 4.09152 10.8169 4.01146C10.7592 3.9314 10.6835 3.86602 10.5959 3.82061C10.5082 3.77519 10.4112 3.751 10.3125 3.75H5.625C5.12772 3.75 4.65081 3.94754 4.29917 4.29917C3.94754 4.65081 3.75 5.12772 3.75 5.625V34.375C3.75 34.8723 3.94754 35.3492 4.29917 35.7008C4.65081 36.0525 5.12772 36.25 5.625 36.25H10.3125C10.4112 36.249 10.5082 36.2248 10.5959 36.1794C10.6835 36.134 10.7592 36.0686 10.8169 35.9885C10.8746 35.9085 10.9127 35.816 10.9281 35.7185C10.9435 35.621 10.9357 35.5213 10.9055 35.4273L10.4313 34.0055L13.4375 32.0016L16.4437 34.0055L15.9695 35.4273C15.9393 35.5213 15.9315 35.621 15.9469 35.7185C15.9623 35.816 16.0004 35.9085 16.0581 35.9885C16.1158 36.0686 16.1915 36.134 16.2791 36.1794C16.3667 36.2248 16.4638 36.249 16.5625 36.25H21.25C21.7473 36.25 22.2242 36.0525 22.5758 35.7008C22.9275 35.3492 23.125 34.8723 23.125 34.375V5.625C23.125 5.12772 22.9275 4.65081 22.5758 4.29917C22.2242 3.94754 21.7473 3.75 21.25 3.75ZM5.625 5H9.44531L9.09453 6.05234C9.05109 6.18244 9.05165 6.32321 9.09612 6.45296C9.14059 6.58271 9.22651 6.69422 9.34062 6.77031L13.0906 9.27031C13.1933 9.33884 13.314 9.37541 13.4375 9.37541C13.561 9.37541 13.6817 9.33884 13.7844 9.27031L17.5344 6.77031C17.6485 6.69422 17.7344 6.58271 17.7789 6.45296C17.8234 6.32321 17.8239 6.18244 17.7805 6.05234L17.4297 5H21.25C21.4158 5 21.5747 5.06585 21.6919 5.18306C21.8092 5.30027 21.875 5.45924 21.875 5.625V15.9375C21.1133 14.3457 19.9168 13.0019 18.4238 12.0613C16.9308 11.1206 15.2021 10.6214 13.4375 10.6214C11.6729 10.6214 9.94423 11.1206 8.45122 12.0613C6.95821 13.0019 5.76175 14.3457 5 15.9375V5.625C5 5.45924 5.06585 5.30027 5.18306 5.18306C5.30027 5.06585 5.45924 5 5.625 5ZM21.5625 20C21.5625 21.607 21.086 23.1779 20.1932 24.514C19.3004 25.8502 18.0315 26.8916 16.5468 27.5065C15.0622 28.1215 13.4285 28.2824 11.8524 27.9689C10.2763 27.6554 8.82856 26.8815 7.69226 25.7452C6.55596 24.6089 5.78212 23.1612 5.46862 21.5851C5.15511 20.009 5.31602 18.3753 5.93098 16.8907C6.54594 15.406 7.58734 14.1371 8.92349 13.2443C10.2596 12.3515 11.8305 11.875 13.4375 11.875C15.5916 11.8775 17.6568 12.7343 19.18 14.2575C20.7032 15.7807 21.56 17.8459 21.5625 20ZM21.25 35H17.4297L17.7805 33.9477C17.8239 33.8176 17.8234 33.6768 17.7789 33.547C17.7344 33.4173 17.6485 33.3058 17.5344 33.2297L13.7844 30.7297C13.6817 30.6612 13.561 30.6246 13.4375 30.6246C13.314 30.6246 13.1933 30.6612 13.0906 30.7297L9.34062 33.2297C9.22651 33.3058 9.14059 33.4173 9.09612 33.547C9.05165 33.6768 9.05109 33.8176 9.09453 33.9477L9.44531 35H5.625C5.45924 35 5.30027 34.9342 5.18306 34.8169C5.06585 34.6997 5 34.5408 5 34.375V24.0625C5.76175 25.6543 6.95821 26.9981 8.45122 27.9387C9.94423 28.8794 11.6729 29.3786 13.4375 29.3786C15.2021 29.3786 16.9308 28.8794 18.4238 27.9387C19.9168 26.9981 21.1133 25.6543 21.875 24.0625V34.375C21.875 34.5408 21.8092 34.6997 21.6919 34.8169C21.5747 34.9342 21.4158 35 21.25 35Z" fill="#1E120B"/>
<path id="Vector_10" d="M13.4375 20.625C13.7827 20.625 14.0625 20.3452 14.0625 20C14.0625 19.6548 13.7827 19.375 13.4375 19.375C13.0923 19.375 12.8125 19.6548 12.8125 20C12.8125 20.3452 13.0923 20.625 13.4375 20.625Z" fill="#1E120B"/>
<path id="Vector_11" d="M13.4375 6.25C13.7827 6.25 14.0625 5.97018 14.0625 5.625C14.0625 5.27982 13.7827 5 13.4375 5C13.0923 5 12.8125 5.27982 12.8125 5.625C12.8125 5.97018 13.0923 6.25 13.4375 6.25Z" fill="#1E120B"/>
<path id="Vector_12" d="M13.4375 35C13.7827 35 14.0625 34.7202 14.0625 34.375C14.0625 34.0298 13.7827 33.75 13.4375 33.75C13.0923 33.75 12.8125 34.0298 12.8125 34.375C12.8125 34.7202 13.0923 35 13.4375 35Z" fill="#1E120B"/>
<path id="Vector_13" d="M35 26.25C35 26.4158 35.0658 26.5747 35.1831 26.6919C35.3003 26.8092 35.4592 26.875 35.625 26.875C35.7908 26.875 35.9497 26.8092 36.0669 26.6919C36.1842 26.5747 36.25 26.4158 36.25 26.25V25.625H36.875C37.0408 25.625 37.1997 25.5592 37.3169 25.4419C37.4342 25.3247 37.5 25.1658 37.5 25C37.5 24.8342 37.4342 24.6753 37.3169 24.5581C37.1997 24.4408 37.0408 24.375 36.875 24.375H36.25V23.75C36.25 23.5842 36.1842 23.4253 36.0669 23.3081C35.9497 23.1908 35.7908 23.125 35.625 23.125C35.4592 23.125 35.3003 23.1908 35.1831 23.3081C35.0658 23.4253 35 23.5842 35 23.75V24.375H34.375C34.2092 24.375 34.0503 24.4408 33.9331 24.5581C33.8158 24.6753 33.75 24.8342 33.75 25C33.75 25.1658 33.8158 25.3247 33.9331 25.4419C34.0503 25.5592 34.2092 25.625 34.375 25.625H35V26.25ZM30.625 36.25H30V35.625C30 35.4592 29.9342 35.3003 29.8169 35.1831C29.6997 35.0658 29.5408 35 29.375 35C29.2092 35 29.0503 35.0658 28.9331 35.1831C28.8158 35.3003 28.75 35.4592 28.75 35.625V36.25H28.125C27.9592 36.25 27.8003 36.3158 27.6831 36.4331C27.5658 36.5503 27.5 36.7092 27.5 36.875C27.5 37.0408 27.5658 37.1997 27.6831 37.3169C27.8003 37.4342 27.9592 37.5 28.125 37.5H28.75V38.125C28.75 38.2908 28.8158 38.4497 28.9331 38.5669C29.0503 38.6842 29.2092 38.75 29.375 38.75C29.5408 38.75 29.6997 38.6842 29.8169 38.5669C29.9342 38.4497 30 38.2908 30 38.125V37.5H30.625C30.7908 37.5 30.9497 37.4342 31.0669 37.3169C31.1842 37.1997 31.25 37.0408 31.25 36.875C31.25 36.7092 31.1842 36.5503 31.0669 36.4331C30.9497 36.3158 30.7908 36.25 30.625 36.25ZM36.875 31.25C36.5042 31.25 36.1416 31.36 35.8333 31.566C35.525 31.772 35.2846 32.0649 35.1427 32.4075C35.0008 32.7501 34.9637 33.1271 35.036 33.4908C35.1084 33.8545 35.287 34.1886 35.5492 34.4508C35.8114 34.713 36.1455 34.8916 36.5092 34.964C36.8729 35.0363 37.2499 34.9992 37.5925 34.8573C37.9351 34.7154 38.228 34.475 38.434 34.1667C38.64 33.8584 38.75 33.4958 38.75 33.125C38.75 32.6277 38.5525 32.1508 38.2008 31.7992C37.8492 31.4475 37.3723 31.25 36.875 31.25ZM36.875 33.75C36.7514 33.75 36.6306 33.7133 36.5278 33.6447C36.425 33.576 36.3449 33.4784 36.2976 33.3642C36.2503 33.25 36.2379 33.1243 36.262 33.0031C36.2861 32.8818 36.3456 32.7705 36.4331 32.6831C36.5205 32.5956 36.6318 32.5361 36.7531 32.512C36.8743 32.4879 37 32.5003 37.1142 32.5476C37.2284 32.5949 37.326 32.675 37.3947 32.7778C37.4633 32.8806 37.5 33.0014 37.5 33.125C37.5 33.2908 37.4342 33.4497 37.3169 33.5669C37.1997 33.6842 37.0408 33.75 36.875 33.75ZM36.875 1.25C36.5042 1.25 36.1416 1.35997 35.8333 1.56599C35.525 1.77202 35.2846 2.06486 35.1427 2.40747C35.0008 2.75008 34.9637 3.12708 35.036 3.49079C35.1084 3.85451 35.287 4.1886 35.5492 4.45083C35.8114 4.71305 36.1455 4.89162 36.5092 4.96397C36.8729 5.03632 37.2499 4.99919 37.5925 4.85727C37.9351 4.71536 38.228 4.47504 38.434 4.16669C38.64 3.85835 38.75 3.49584 38.75 3.125C38.75 2.62772 38.5525 2.15081 38.2008 1.79917C37.8492 1.44754 37.3723 1.25 36.875 1.25ZM36.875 3.75C36.7514 3.75 36.6306 3.71334 36.5278 3.64467C36.425 3.57599 36.3449 3.47838 36.2976 3.36418C36.2503 3.24997 36.2379 3.12431 36.262 3.00307C36.2861 2.88183 36.3456 2.77047 36.4331 2.68306C36.5205 2.59565 36.6318 2.53612 36.7531 2.51201C36.8743 2.48789 37 2.50027 37.1142 2.54758C37.2284 2.59488 37.326 2.67499 37.3947 2.77777C37.4633 2.88055 37.5 3.00139 37.5 3.125C37.5 3.29076 37.4342 3.44973 37.3169 3.56694C37.1997 3.68415 37.0408 3.75 36.875 3.75Z" fill="#1E120B"/>
<path id="Vector_14" d="M25 11.875C25.3452 11.875 25.625 11.5952 25.625 11.25C25.625 10.9048 25.3452 10.625 25 10.625C24.6548 10.625 24.375 10.9048 24.375 11.25C24.375 11.5952 24.6548 11.875 25 11.875Z" fill="#1E120B"/>
<path id="Vector_15" d="M13.4375 13.125C12.0778 13.125 10.7485 13.5282 9.61796 14.2836C8.48737 15.0391 7.60618 16.1128 7.08583 17.3691C6.56548 18.6253 6.42933 20.0076 6.6946 21.3412C6.95988 22.6749 7.61466 23.8999 8.57614 24.8614C9.53763 25.8228 10.7626 26.4776 12.0963 26.7429C13.4299 27.0082 14.8122 26.872 16.0685 26.3517C17.3247 25.8313 18.3984 24.9501 19.1539 23.8195C19.9093 22.689 20.3125 21.3597 20.3125 20C20.3104 18.1773 19.5854 16.4298 18.2966 15.1409C17.0077 13.8521 15.2602 13.1271 13.4375 13.125ZM19.0625 20C19.0618 20.5954 18.9664 21.1869 18.7797 21.7523L17.768 20L18.7797 18.2477C18.9664 18.8131 19.0618 19.4046 19.0625 20ZM12.7156 23.75H14.1594L13.4375 25L12.7156 23.75ZM11.9938 22.5L10.5508 20L11.9938 17.5H14.8844L16.3281 20L14.8852 22.5H11.9938ZM7.8125 20C7.81317 19.4046 7.90864 18.8131 8.09532 18.2477L9.10703 20L8.09532 21.7523C7.90864 21.1869 7.81317 20.5954 7.8125 20ZM9.10703 17.5H10.5508L9.82891 18.75L9.10703 17.5ZM9.82891 21.25L10.5508 22.5H9.10703L9.82891 21.25ZM14.1594 16.25H12.7156L13.4375 15L14.1594 16.25ZM17.0461 18.75L16.3281 17.5H17.7719L17.0461 18.75ZM17.0461 21.25L17.768 22.5H16.3281L17.0461 21.25ZM17.618 16.25H15.6023L14.5867 14.4945C15.7584 14.7416 16.8205 15.3567 17.618 16.25ZM12.2859 14.4945L11.2703 16.25H9.25469C10.0521 15.3567 11.1142 14.7416 12.2859 14.4945ZM9.25703 23.75H11.2727L12.2883 25.5055C11.1166 25.2584 10.0545 24.6433 9.25703 23.75ZM14.5891 25.5055L15.6047 23.75H17.6203C16.8229 24.6433 15.7608 25.2584 14.5891 25.5055Z" fill="#1E120B"/>
</g>
</g>
</g>
</svg>
