<svg width="20" height="20" viewBox="0 0 20 20" fill="none" xmlns="http://www.w3.org/2000/svg">
<path fill-rule="evenodd" clip-rule="evenodd" d="M17.955 4.25922C18.1893 4.49363 18.321 4.81152 18.321 5.14297C18.321 5.47443 18.1893 5.79231 17.955 6.02672L8.58583 15.3959C8.46202 15.5197 8.31502 15.618 8.15323 15.685C7.99145 15.752 7.81804 15.7865 7.64292 15.7865C7.4678 15.7865 7.29439 15.752 7.1326 15.685C6.97082 15.618 6.82382 15.5197 6.7 15.3959L2.045 10.7417C1.92561 10.6264 1.83039 10.4885 1.76487 10.336C1.69936 10.1835 1.66488 10.0194 1.66344 9.85347C1.662 9.6875 1.69362 9.5229 1.75647 9.36928C1.81933 9.21566 1.91214 9.07609 2.02951 8.95873C2.14687 8.84136 2.28644 8.74855 2.44006 8.6857C2.59368 8.62284 2.75828 8.59122 2.92425 8.59266C3.09023 8.5941 3.25425 8.62858 3.40676 8.6941C3.55926 8.75961 3.69719 8.85483 3.8125 8.97422L7.6425 12.8042L16.1867 4.25922C16.3028 4.14306 16.4406 4.05092 16.5923 3.98805C16.744 3.92518 16.9066 3.89282 17.0708 3.89282C17.2351 3.89282 17.3977 3.92518 17.5494 3.98805C17.7011 4.05092 17.8389 4.14306 17.955 4.25922Z" fill="white"/>
</svg>
