<svg width="35" height="35" viewBox="0 0 35 35" fill="none" xmlns="http://www.w3.org/2000/svg">
<g id="lyra-icon-home-5-line" clip-path="url(#clip0_283_1291)">
<g id="Clip path group">
<mask id="mask0_283_1291" style="mask-type:luminance" maskUnits="userSpaceOnUse" x="0" y="0" width="35" height="35">
<g id="clip0_31_7212">
<path id="Vector" d="M35 0H0V35H35V0Z" fill="white"/>
</g>
</mask>
<g mask="url(#mask0_283_1291)">
<g id="Group">
<path id="Vector_2" d="M18.9583 27.7088H27.7083V14.5516L17.5 6.61247L7.29167 14.5516V27.7088H16.0417V18.9588H18.9583V27.7088ZM30.625 29.1671C30.625 29.5539 30.4713 29.9247 30.1979 30.1983C29.9244 30.4717 29.5534 30.6254 29.1667 30.6254H5.83333C5.44655 30.6254 5.07563 30.4717 4.80213 30.1983C4.52865 29.9247 4.375 29.5539 4.375 29.1671V13.84C4.37484 13.6177 4.42549 13.3984 4.52305 13.1987C4.6206 12.9991 4.76251 12.8243 4.93792 12.6879L16.6046 3.61414C16.8605 3.41501 17.1757 3.30688 17.5 3.30688C17.8243 3.30688 18.1395 3.41501 18.3954 3.61414L30.0621 12.6879C30.2375 12.8243 30.3794 12.9991 30.477 13.1987C30.5745 13.3984 30.6251 13.6177 30.625 13.84V29.1671Z" fill="#F5B354"/>
</g>
</g>
</g>
</g>
<defs>
<clipPath id="clip0_283_1291">
<rect width="35" height="35" fill="white"/>
</clipPath>
</defs>
</svg>
