<svg width="35" height="35" viewBox="0 0 35 35" fill="none" xmlns="http://www.w3.org/2000/svg">
<g id="lyra-icon-u_bag">
<path id="Vector" d="M27.7083 8.75H23.3333V7.29167C23.3333 6.51812 23.026 5.77625 22.479 5.22928C21.932 4.68229 21.1901 4.375 20.4166 4.375H14.5833C13.8097 4.375 13.0679 4.68229 12.5209 5.22928C11.9739 5.77625 11.6666 6.51812 11.6666 7.29167V8.75H7.29163C6.1313 8.75 5.01851 9.21094 4.19803 10.0314C3.37756 10.8519 2.91663 11.9647 2.91663 13.125V26.25C2.91663 27.4102 3.37756 28.5231 4.19803 29.3436C5.01851 30.164 6.1313 30.625 7.29163 30.625H27.7083C28.8685 30.625 29.9814 30.164 30.8019 29.3436C31.6223 28.5231 32.0833 27.4102 32.0833 26.25V13.125C32.0833 11.9647 31.6223 10.8519 30.8019 10.0314C29.9814 9.21094 28.8685 8.75 27.7083 8.75ZM14.5833 7.29167H20.4166V8.75H14.5833V7.29167ZM29.1666 26.25C29.1666 26.6368 29.0129 27.0077 28.7395 27.2812C28.466 27.5546 28.095 27.7083 27.7083 27.7083H7.29163C6.90485 27.7083 6.53392 27.5546 6.26042 27.2812C5.98694 27.0077 5.83329 26.6368 5.83329 26.25V18.0688L12.6583 20.4167C12.8131 20.4377 12.9701 20.4377 13.125 20.4167H21.875C22.033 20.4137 22.1901 20.3892 22.3416 20.3438L29.1666 18.0688V26.25ZM29.1666 14.9917L21.6416 17.5H13.3583L5.83329 14.9917V13.125C5.83329 12.7382 5.98694 12.3673 6.26042 12.0938C6.53392 11.8203 6.90485 11.6667 7.29163 11.6667H27.7083C28.095 11.6667 28.466 11.8203 28.7395 12.0938C29.0129 12.3673 29.1666 12.7382 29.1666 13.125V14.9917Z" fill="#F5B354"/>
</g>
</svg>
