<svg width="48" height="48" viewBox="0 0 48 48" fill="none" xmlns="http://www.w3.org/2000/svg">
<g clip-path="url(#clip0_242_1583)">
<path d="M18.5374 12.3436C19.1342 13.7954 19.7803 15.2187 20.5061 16.6119C21.5622 18.639 22.7766 20.6795 24.1538 22.6822L25.1225 15.1475C25.2469 14.1767 26.0645 13.5534 27.002 13.5106C28.0158 13.5814 28.87 14.3385 28.8574 15.4054L27.3922 26.9412L27.446 27.0051C32.0337 32.4576 37.3395 37.2651 42.729 41.9077C43.5225 42.573 43.6265 43.7556 42.9612 44.5491C42.2958 45.3426 41.1132 45.4466 40.3198 44.7812C34.6938 39.9789 29.1911 34.9416 24.4401 29.2565L15.8334 27.9535C14.8095 27.7986 14.1052 26.8428 14.2602 25.819C14.4067 24.8513 15.2385 24.2469 16.1767 24.2257L21.1766 24.9704C19.6631 22.785 18.3336 20.5581 17.1803 18.3444C16.3806 16.8093 15.6739 15.2399 15.0184 13.6394C14.6606 12.6677 15.1582 11.5899 16.13 11.232C17.1017 10.8742 18.1795 11.3719 18.5374 12.3436ZM22.4288 3.57294C28.9894 4.67711 33.9721 6.32262 36.893 8.75348C39.8679 11.2294 41.5397 15.1231 42.2279 19.9946C42.7975 24.0281 42.75 28.3068 42.0696 32.3269C41.8966 33.3481 40.9289 34.0356 39.9079 33.8628C38.8869 33.6898 38.1992 32.7221 38.372 31.7011C38.8954 28.001 39.0386 24.2283 38.5147 20.519C37.9445 16.4827 36.6249 13.4092 34.4941 11.6358C32.2268 9.74879 27.7552 8.27215 21.8063 7.27093C17.1724 6.491 12.4769 6.08679 7.78287 5.91816C7.7167 10.6973 7.87581 15.5518 8.42628 20.0174C9.16986 26.0497 10.5237 30.6524 12.4775 33.1276C14.0658 35.1397 16.2222 36.6836 18.8313 37.8089C22.0554 39.1992 25.7184 39.8736 29.3508 39.9175C30.3861 39.8903 31.2472 40.7076 31.2744 41.7427C31.3013 42.7779 30.4842 43.639 29.449 43.6662C25.3156 43.6831 21.1467 42.8913 17.3463 41.2523C14.1992 39.8951 11.5378 37.9894 9.53409 35.4511C7.04207 32.2942 5.52577 27.1392 4.70445 20.4762C4.02543 14.9676 3.96842 9.43962 4.09642 3.90103C4.14726 2.89714 4.98068 2.11194 5.98581 2.12094C11.4891 2.2347 16.9976 2.65886 22.4288 3.57294Z" fill="#F8D18F"/>
</g>
<defs>
<clipPath id="clip0_242_1583">
<rect width="45" height="45" fill="white" transform="translate(2.41656) rotate(2.89907)"/>
</clipPath>
</defs>
</svg>
