<svg width="36" height="39" viewBox="0 0 36 39" fill="none" xmlns="http://www.w3.org/2000/svg">
<path d="M14.2926 29.1967C18.0146 33.0471 22.5742 35.6861 24.733 34.8424C28.6412 33.1552 29.2926 24.0267 29.2926 17.7104C29.2926 15.9582 29.2926 13.9684 29.0878 12" stroke="#F29627" stroke-width="3.6" stroke-linecap="round" stroke-linejoin="round"/>
<path d="M27.8146 7.30903C27.5639 6.547 27.16 5.84423 26.6278 5.24423C26.0957 4.64426 25.4464 4.15969 24.7201 3.82017C22.311 2.91857 17.199 5.78 12.9684 9.5236H9.83447C7.75663 9.5236 5.76389 10.3497 4.29465 11.82C2.82539 13.2903 1.99999 15.2843 1.99999 17.3637V21.2837C1.99936 22.795 2.43537 24.2746 3.25544 25.5437C4.07554 26.813 7.91496 26.8802 9.29256 27.5" stroke="#F29627" stroke-width="3.6" stroke-linecap="round" stroke-linejoin="round"/>
<path d="M36.2926 2L3.29256 37" stroke="#AD3910" stroke-width="3.6" stroke-linecap="round" stroke-linejoin="round"/>
</svg>
