<svg width="24" height="24" viewBox="0 0 24 24" fill="none" xmlns="http://www.w3.org/2000/svg">
<path d="M16.035 3.01493C16.5735 2.47632 17.2967 2.16268 18.0579 2.13761C18.8191 2.11254 19.5613 2.37792 20.1341 2.87993L20.278 3.01493L20.9851 3.72193C21.5234 4.26035 21.8368 4.98331 21.8619 5.74427C21.887 6.50522 21.6218 7.24724 21.1201 7.81993L20.9851 7.96393L9.77305 19.1769C9.61452 19.3354 9.42248 19.4564 9.21105 19.5309L9.04905 19.5779L4.59505 20.6059C4.43899 20.6422 4.27649 20.6405 4.12124 20.6009C3.96599 20.5612 3.82253 20.4849 3.70295 20.3782C3.58337 20.2716 3.49117 20.1378 3.4341 19.9881C3.37704 19.8384 3.35678 19.6771 3.37505 19.5179L3.39505 19.4049L4.42205 14.9499C4.47278 14.7314 4.57188 14.5271 4.71205 14.3519L4.82305 14.2269L16.035 3.01493ZM15.328 6.54993L6.33805 15.5399L5.70205 18.2979L8.46005 17.6609L17.45 8.67093L15.328 6.54993ZM18.864 4.42893C18.6919 4.25675 18.4628 4.15332 18.2197 4.13804C17.9767 4.12276 17.7365 4.19668 17.544 4.34593L17.45 4.42893L16.742 5.13593L18.864 7.25693L19.571 6.54993C19.7432 6.37773 19.8467 6.14863 19.8619 5.90561C19.8772 5.66258 19.8033 5.42233 19.654 5.22993L19.571 5.13593L18.864 4.42893Z" fill="white"/>
</svg>
