<svg width="20" height="20" viewBox="0 0 20 20" fill="none" xmlns="http://www.w3.org/2000/svg">
<path d="M10 9.99992C9.08337 9.99992 8.29865 9.67353 7.64587 9.02075C6.9931 8.36797 6.66671 7.58325 6.66671 6.66659C6.66671 5.74992 6.9931 4.9652 7.64587 4.31242C8.29865 3.65964 9.08337 3.33325 10 3.33325C10.9167 3.33325 11.7014 3.65964 12.3542 4.31242C13.007 4.9652 13.3334 5.74992 13.3334 6.66659C13.3334 7.58325 13.007 8.36797 12.3542 9.02075C11.7014 9.67353 10.9167 9.99992 10 9.99992ZM3.33337 16.6666V14.3333C3.33337 13.861 3.45504 13.4271 3.69837 13.0316C3.94171 12.636 4.26449 12.3338 4.66671 12.1249C5.52782 11.6944 6.40282 11.3716 7.29171 11.1566C8.1806 10.9416 9.08337 10.8338 10 10.8333C10.9167 10.8327 11.8195 10.9405 12.7084 11.1566C13.5973 11.3727 14.4723 11.6955 15.3334 12.1249C15.7362 12.3333 16.0592 12.6355 16.3025 13.0316C16.5459 13.4277 16.6673 13.8616 16.6667 14.3333V16.6666H3.33337Z" fill="white"/>
</svg>
