<svg width="62" height="71" viewBox="0 0 62 71" fill="none" xmlns="http://www.w3.org/2000/svg">
<path d="M59.7562 22.7278L43.6456 6.61712C42.8807 5.85417 41.8445 5.42571 40.7642 5.42571C39.6839 5.42571 38.6477 5.85417 37.8829 6.61712L2.20462 42.2954C1.44068 43.0604 1.01158 44.0973 1.01158 45.1784C1.01158 46.2595 1.44068 47.2964 2.20462 48.0613L18.3153 64.172C18.6939 64.5507 19.1433 64.851 19.638 65.056C20.1326 65.2609 20.6628 65.3664 21.1983 65.3664C21.7337 65.3664 22.2639 65.2609 22.7585 65.056C23.2532 64.851 23.7027 64.5507 24.0812 64.172L59.7595 28.4937C60.5234 27.7287 60.9525 26.6919 60.9525 25.6108C60.9525 24.5297 60.5202 23.4928 59.7562 22.7278ZM35.874 13.2408L53.1359 30.5027L27.7208 55.9177L10.4589 38.6558L35.874 13.2408ZM21.7755 61.8663C21.6998 61.9422 21.6098 62.0025 21.5107 62.0436C21.4117 62.0847 21.3055 62.1058 21.1983 62.1058C21.091 62.1058 20.9848 62.0847 20.8858 62.0436C20.7867 62.0025 20.6967 61.9422 20.621 61.8663L15.8269 57.0722L17.4576 55.4416L10.935 48.919L9.3044 50.5497L4.51034 45.7556C4.43441 45.6799 4.37417 45.5899 4.33307 45.4908C4.29196 45.3918 4.27081 45.2856 4.27081 45.1784C4.27081 45.0711 4.29196 44.9649 4.33307 44.8659C4.37417 44.7668 4.43441 44.6769 4.51034 44.6011L8.15317 40.9615L25.4151 58.2234L21.7755 61.8663ZM57.4538 26.188L55.4416 28.1969L38.1797 10.935L40.1886 8.9261C40.2644 8.85017 40.3543 8.78993 40.4534 8.74883C40.5524 8.70772 40.6586 8.68657 40.7659 8.68657C40.8731 8.68657 40.9793 8.70772 41.0784 8.74883C41.1774 8.78993 41.2674 8.85017 41.3431 8.9261L57.4538 25.0368C57.6061 25.1896 57.6917 25.3966 57.6917 25.6124C57.6917 25.8282 57.6061 26.0352 57.4538 26.188ZM62 46.6199V53.3315C61.9974 55.9256 60.9658 58.4126 59.1315 60.2469C57.2973 62.0811 54.8102 63.1128 52.2162 63.1154H41.4801L46.8123 68.4443L44.5065 70.75L35.2185 61.4651L44.5065 52.1771L46.8123 54.4828L41.441 59.8541H52.2162C53.9455 59.8524 55.6036 59.1646 56.8264 57.9418C58.0493 56.7189 58.737 55.0609 58.7387 53.3315V46.6199H62ZM3.26127 23.9801H0V17.4576C0.00259015 14.8635 1.03421 12.3765 2.86847 10.5422C4.70273 8.70798 7.18978 7.67636 9.78381 7.67377H20.5232L15.1519 2.30572L17.4576 0L26.7457 9.28483L17.4608 18.5664L15.1551 16.2607L20.4808 10.935H9.78381C8.05445 10.9368 6.39642 11.6245 5.17359 12.8474C3.95075 14.0702 3.263 15.7282 3.26127 17.4576V23.9801Z" fill="#AD3910"/>
<path d="M32.5603 44.9658L39.7477 37.7783C40.0654 37.4606 40.2459 37.0317 40.2493 36.5858C40.2528 36.14 40.079 35.7138 39.7661 35.4009L35.0482 30.683C34.7354 30.3702 34.3092 30.1964 33.8634 30.1999C33.4175 30.2033 32.9886 30.3838 32.6709 30.7015L25.4834 37.8889C25.1657 38.2066 24.9853 38.6356 24.9818 39.0814C24.9784 39.5272 25.1522 39.9535 25.465 40.2663L30.1829 44.9842C30.4957 45.297 30.9219 45.4708 31.3678 45.4673C31.8136 45.4639 32.2426 45.2835 32.5603 44.9658ZM24.3224 34.332L26.6813 36.691L31.473 31.8994L29.114 29.5404C28.4884 28.9148 27.6359 28.5672 26.7443 28.5741C25.8526 28.581 24.9947 28.9419 24.3592 29.5773C23.7238 30.2127 23.363 31.0706 23.3561 31.9623C23.3492 32.854 23.6967 33.7064 24.3224 34.332Z" stroke="#F29627" stroke-width="2" stroke-linecap="round" stroke-linejoin="round"/>
</svg>
