<svg width="40" height="40" viewBox="0 0 40 40" fill="none" xmlns="http://www.w3.org/2000/svg">
<g id="ranking 1">
<g id="Group">
<path id="Vector" d="M14.375 13.125H25.625C25.9565 13.125 26.2745 13.2567 26.5089 13.4911C26.7433 13.7255 26.875 14.0435 26.875 14.375V38.125H13.125V14.375C13.125 14.0435 13.2567 13.7255 13.4911 13.4911C13.7255 13.2567 14.0435 13.125 14.375 13.125Z" fill="#F29627"/>
<path id="Vector_2" d="M3.125 19.375H13.125V38.125H3.125C2.79348 38.125 2.47554 37.9933 2.24112 37.7589C2.0067 37.5245 1.875 37.2065 1.875 36.875V20.625C1.875 20.2935 2.0067 19.9755 2.24112 19.7411C2.47554 19.5067 2.79348 19.375 3.125 19.375ZM26.875 25H36.875C37.2065 25 37.5245 25.1317 37.7589 25.3661C37.9933 25.6005 38.125 25.9185 38.125 26.25V36.875C38.125 37.2065 37.9933 37.5245 37.7589 37.7589C37.5245 37.9933 37.2065 38.125 36.875 38.125H26.875V25Z" fill="#F5B354"/>
<g id="Group_2">
<path id="Vector_3" d="M20.6119 2.19761L21.73 3.82949C21.8264 3.97006 21.9684 4.07313 22.1319 4.12136L24.03 4.68074C24.1453 4.71521 24.2505 4.77722 24.3365 4.86141C24.4225 4.94559 24.4867 5.04944 24.5236 5.16398C24.5605 5.27852 24.569 5.40032 24.5483 5.51888C24.5277 5.63743 24.4785 5.74918 24.405 5.84449L23.2012 7.41261C23.0974 7.54785 23.0431 7.71465 23.0475 7.88511L23.1019 9.86261C23.1052 9.98299 23.0791 10.1024 23.0259 10.2104C22.9727 10.3184 22.894 10.4119 22.7966 10.4827C22.6991 10.5535 22.5859 10.5994 22.4667 10.6166C22.3475 10.6338 22.226 10.6217 22.1125 10.5814L20.25 9.91886C20.0896 9.86138 19.9142 9.86138 19.7537 9.91886L17.8875 10.5814C17.774 10.6217 17.6524 10.6338 17.5333 10.6166C17.4141 10.5994 17.3009 10.5535 17.2034 10.4827C17.106 10.4119 17.0273 10.3184 16.9741 10.2104C16.9209 10.1024 16.8948 9.98299 16.8981 9.86261L16.9525 7.88511C16.9569 7.71465 16.9026 7.54785 16.7987 7.41261L15.5919 5.84449C15.5184 5.74897 15.4694 5.63701 15.4489 5.51827C15.4284 5.39954 15.4372 5.27761 15.4744 5.16302C15.5117 5.04843 15.5762 4.94463 15.6626 4.8606C15.7489 4.77657 15.8544 4.71484 15.97 4.68074L17.8681 4.12136C18.0316 4.07313 18.1736 3.97006 18.27 3.82949L19.3881 2.19761C19.4563 2.09822 19.5476 2.01693 19.6542 1.96077C19.7608 1.9046 19.8795 1.87524 20 1.87524C20.1205 1.87524 20.2392 1.9046 20.3458 1.96077C20.4524 2.01693 20.5437 2.09822 20.6119 2.19761ZM20.625 26.2501C20.2935 26.2501 19.9755 26.1184 19.7411 25.884C19.5067 25.6496 19.375 25.3316 19.375 25.0001V21.1432L19.0087 21.5089C18.773 21.7366 18.4572 21.8626 18.1295 21.8597C17.8017 21.8569 17.4882 21.7254 17.2565 21.4936C17.0247 21.2619 16.8933 20.9484 16.8904 20.6206C16.8876 20.2929 17.0135 19.9771 17.2412 19.7414L19.7412 17.2414C19.9161 17.0666 20.1388 16.9476 20.3812 16.8994C20.6236 16.8512 20.8749 16.8759 21.1033 16.9705C21.3317 17.0651 21.5269 17.2253 21.6642 17.4308C21.8016 17.6363 21.8749 17.8779 21.875 18.1251V25.0001C21.875 25.3316 21.7433 25.6496 21.5089 25.884C21.2745 26.1184 20.9565 26.2501 20.625 26.2501Z" fill="#FFD525"/>
</g>
<g id="Group_3">
<path id="Vector_4" d="M36.875 24.3751H27.5V14.3751C27.5 13.8778 27.3025 13.4009 26.9508 13.0493C26.5992 12.6977 26.1223 12.5001 25.625 12.5001H14.375C13.8777 12.5001 13.4008 12.6977 13.0492 13.0493C12.6975 13.4009 12.5 13.8778 12.5 14.3751V18.7501H3.125C2.62772 18.7501 2.15081 18.9477 1.79917 19.2993C1.44754 19.6509 1.25 20.1278 1.25 20.6251V36.8751C1.25 37.3724 1.44754 37.8493 1.79917 38.2009C2.15081 38.5526 2.62772 38.7501 3.125 38.7501H36.875C37.3723 38.7501 37.8492 38.5526 38.2008 38.2009C38.5525 37.8493 38.75 37.3724 38.75 36.8751V26.2501C38.75 25.7528 38.5525 25.2759 38.2008 24.9243C37.8492 24.5727 37.3723 24.3751 36.875 24.3751ZM12.5 37.5001H3.125C2.95924 37.5001 2.80027 37.4343 2.68306 37.317C2.56585 37.1998 2.5 37.0409 2.5 36.8751V20.6251C2.5 20.4593 2.56585 20.3004 2.68306 20.1832C2.80027 20.066 2.95924 20.0001 3.125 20.0001H12.5V37.5001ZM26.25 37.5001H13.75V14.3751C13.75 14.2093 13.8158 14.0504 13.9331 13.9332C14.0503 13.816 14.2092 13.7501 14.375 13.7501H25.625C25.7908 13.7501 25.9497 13.816 26.0669 13.9332C26.1842 14.0504 26.25 14.2093 26.25 14.3751V37.5001ZM37.5 36.8751C37.5 37.0409 37.4342 37.1998 37.3169 37.317C37.1997 37.4343 37.0408 37.5001 36.875 37.5001H27.5V25.6251H36.875C37.0408 25.6251 37.1997 25.691 37.3169 25.8082C37.4342 25.9254 37.5 26.0843 37.5 26.2501V36.8751ZM24.9038 6.22511C25.0371 6.04846 25.1257 5.84225 25.1623 5.624C25.1989 5.40574 25.1822 5.18189 25.1137 4.97145C25.0452 4.76101 24.927 4.57021 24.769 4.41525C24.611 4.26029 24.418 4.14575 24.2062 4.08136L22.3088 3.51886C22.2833 3.51128 22.2612 3.49517 22.2463 3.47323L21.125 1.84386C20.9983 1.66232 20.8296 1.51406 20.6333 1.41169C20.437 1.30932 20.2189 1.25586 19.9975 1.25586C19.7761 1.25586 19.558 1.30932 19.3617 1.41169C19.1654 1.51406 18.9967 1.66232 18.87 1.84386L17.7544 3.47573C17.7394 3.4978 17.7174 3.51411 17.6919 3.52198L15.795 4.08448C15.5831 4.14876 15.3899 4.26326 15.2318 4.41823C15.0736 4.5732 14.9553 4.76407 14.8867 4.97461C14.8182 5.18515 14.8015 5.40912 14.8381 5.62749C14.8747 5.84586 14.9634 6.05216 15.0969 6.22886L16.3031 7.79573C16.3196 7.81722 16.3285 7.84364 16.3281 7.87073L16.2731 9.84886C16.269 10.0702 16.3184 10.2892 16.4171 10.4874C16.5157 10.6855 16.6608 10.8569 16.8399 10.987C17.019 11.1171 17.2268 11.202 17.4458 11.2345C17.6647 11.267 17.8883 11.2462 18.0975 11.1739L19.9625 10.5107C19.9873 10.5017 20.0146 10.5017 20.0394 10.5107L21.9038 11.1739C22.1129 11.2462 22.3365 11.267 22.5555 11.2345C22.7744 11.202 22.9823 11.1171 23.1614 10.987C23.3405 10.8569 23.4855 10.6855 23.5842 10.4874C23.6829 10.2892 23.7322 10.0702 23.7281 9.84886L23.6731 7.87198C23.6725 7.84494 23.6811 7.81848 23.6975 7.79698L24.9038 6.22511ZM22.705 7.03198C22.5147 7.28146 22.4151 7.58831 22.4225 7.90198L22.4775 9.88011C22.4788 9.89928 22.4752 9.91847 22.4671 9.93587C22.4589 9.95327 22.4465 9.9683 22.4309 9.97956C22.4153 9.99081 22.3972 9.99792 22.3781 10.0002C22.359 10.0025 22.3397 9.99987 22.3219 9.99261L20.4588 9.33073C20.1625 9.22512 19.8388 9.22512 19.5425 9.33073L17.6781 9.99323C17.6603 10.0007 17.6409 10.0034 17.6218 10.0012C17.6026 9.99903 17.5844 9.99194 17.5688 9.98064C17.5531 9.96935 17.5407 9.95423 17.5326 9.93673C17.5245 9.91924 17.521 9.89995 17.5225 9.88073L17.5775 7.90136C17.5847 7.58762 17.4848 7.2808 17.2944 7.03136L16.0875 5.46323C16.0752 5.44826 16.0669 5.43039 16.0634 5.41131C16.06 5.39224 16.0615 5.3726 16.0677 5.35425C16.074 5.33591 16.0848 5.31947 16.0992 5.30649C16.1136 5.29351 16.1311 5.28443 16.15 5.28011L18.0475 4.71761C18.3486 4.6281 18.61 4.43819 18.7881 4.17948L19.9069 2.54698C19.9171 2.53085 19.9312 2.51755 19.9479 2.50834C19.9646 2.49913 19.9834 2.4943 20.0025 2.4943C20.0216 2.4943 20.0404 2.49913 20.0571 2.50834C20.0738 2.51755 20.0879 2.53085 20.0981 2.54698L21.2175 4.17948C21.3956 4.43784 21.6567 4.62751 21.9575 4.71698L23.8556 5.27948C23.8742 5.28426 23.8912 5.29363 23.9051 5.30674C23.9191 5.31984 23.9295 5.33625 23.9354 5.35444C23.9413 5.37263 23.9426 5.39203 23.939 5.41083C23.9354 5.42963 23.9272 5.44722 23.915 5.46198L22.705 7.03198ZM31.4606 2.87511C31.4196 2.80398 31.365 2.74162 31.2999 2.6916C31.2349 2.64158 31.1605 2.60486 31.0813 2.58356C31.002 2.56226 30.9193 2.55679 30.8379 2.56746C30.7565 2.57813 30.678 2.60472 30.6069 2.64573L27.9006 4.20823C27.8295 4.24927 27.7672 4.30392 27.7172 4.36905C27.6672 4.43418 27.6305 4.50852 27.6092 4.58782C27.5879 4.66713 27.5825 4.74985 27.5932 4.83126C27.6039 4.91267 27.6305 4.99118 27.6716 5.0623C27.7126 5.13342 27.7672 5.19576 27.8324 5.24576C27.8975 5.29576 27.9718 5.33244 28.0512 5.35371C28.1305 5.37498 28.2132 5.38042 28.2946 5.36972C28.376 5.35903 28.4545 5.3324 28.5256 5.29136L31.2319 3.72886C31.3754 3.64598 31.4802 3.50947 31.5231 3.34936C31.566 3.18925 31.5435 3.01866 31.4606 2.87511ZM31.2319 9.20698L28.5256 7.64448C28.4545 7.60345 28.376 7.57682 28.2946 7.56612C28.2132 7.55542 28.1305 7.56086 28.0512 7.58213C27.9718 7.6034 27.8975 7.64009 27.8324 7.69009C27.7672 7.74009 27.7126 7.80243 27.6716 7.87355C27.6305 7.94466 27.6039 8.02317 27.5932 8.10458C27.5825 8.18599 27.5879 8.26871 27.6092 8.34802C27.6305 8.42732 27.6672 8.50167 27.7172 8.5668C27.7672 8.63193 27.8295 8.68657 27.9006 8.72761L30.6069 10.2901C30.7505 10.373 30.9212 10.3954 31.0813 10.3525C31.2415 10.3095 31.3781 10.2047 31.4609 10.061C31.5438 9.91741 31.5662 9.74674 31.5233 9.58657C31.4803 9.42641 31.3755 9.28986 31.2319 9.20698ZM12.0994 4.20698L9.39313 2.64448C9.24949 2.5616 9.07882 2.53918 8.91865 2.58213C8.75849 2.62509 8.62194 2.72992 8.53906 2.87355C8.45618 3.01718 8.43375 3.18785 8.47671 3.34802C8.51967 3.50819 8.62449 3.64473 8.76813 3.72761L11.4744 5.29011C11.5455 5.33115 11.624 5.35778 11.7054 5.36847C11.7868 5.37917 11.8695 5.37373 11.9488 5.35246C12.0282 5.33119 12.1025 5.29451 12.1676 5.24451C12.2328 5.1945 12.2874 5.13217 12.3284 5.06105C12.3695 4.98993 12.3961 4.91142 12.4068 4.83001C12.4175 4.7486 12.4121 4.66588 12.3908 4.58658C12.3695 4.50727 12.3328 4.43293 12.2828 4.3678C12.2328 4.30267 12.1705 4.24802 12.0994 4.20698ZM11.4744 7.64448L8.76813 9.20698C8.62449 9.28986 8.51967 9.42641 8.47671 9.58657C8.43375 9.74674 8.45618 9.91741 8.53906 10.061C8.62194 10.2047 8.75849 10.3095 8.91865 10.3525C9.07882 10.3954 9.24949 10.373 9.39313 10.2901L12.0994 8.72761C12.1705 8.68657 12.2328 8.63193 12.2828 8.5668C12.3328 8.50167 12.3695 8.42732 12.3908 8.34802C12.4121 8.26871 12.4175 8.18599 12.4068 8.10458C12.3961 8.02317 12.3695 7.94466 12.3284 7.87355C12.2874 7.80243 12.2328 7.74009 12.1676 7.69009C12.1025 7.64009 12.0282 7.6034 11.9488 7.58213C11.8695 7.56086 11.7868 7.55542 11.7054 7.56612C11.624 7.57682 11.5455 7.60345 11.4744 7.64448Z" fill="#1E120B"/>
<path id="Vector_5" d="M21.3418 16.3932C20.9995 16.2506 20.6225 16.2131 20.2587 16.2854C19.895 16.3578 19.561 16.5367 19.2993 16.7994L16.7993 19.2994C16.4989 19.6002 16.3096 19.9941 16.2625 20.4166C16.2154 20.8391 16.3133 21.265 16.54 21.6246C16.7668 21.9841 17.109 22.256 17.5105 22.3955C17.912 22.5351 18.3491 22.534 18.7499 22.3925V25C18.7499 25.4973 18.9475 25.9742 19.2991 26.3259C19.6508 26.6775 20.1277 26.875 20.6249 26.875C21.1222 26.875 21.5991 26.6775 21.9508 26.3259C22.3024 25.9742 22.4999 25.4973 22.4999 25V18.125C22.5008 17.754 22.3911 17.3911 22.1848 17.0826C21.9786 16.7741 21.6851 16.5341 21.3418 16.3932ZM21.2499 25C21.2499 25.1658 21.1841 25.3248 21.0669 25.442C20.9497 25.5592 20.7907 25.625 20.6249 25.625C20.4592 25.625 20.3002 25.5592 20.183 25.442C20.0658 25.3248 19.9999 25.1658 19.9999 25V21.1432C19.9982 21.0204 19.9605 20.9009 19.8917 20.7993C19.8228 20.6977 19.7256 20.6185 19.6123 20.5715C19.4989 20.5244 19.3742 20.5116 19.2536 20.5345C19.1331 20.5575 19.0218 20.6152 18.9337 20.7007L18.5668 21.0669C18.4489 21.1808 18.2911 21.2438 18.1272 21.2423C17.9633 21.2409 17.8066 21.1752 17.6907 21.0593C17.5748 20.9434 17.5091 20.7867 17.5077 20.6228C17.5062 20.4589 17.5692 20.301 17.6831 20.1832L20.1831 17.6832C20.2712 17.5976 20.3824 17.5397 20.503 17.5166C20.6236 17.4934 20.7484 17.5062 20.8619 17.5532C20.9753 17.6002 21.0726 17.6794 21.1415 17.781C21.2105 17.8826 21.2482 18.0022 21.2499 18.125V25Z" fill="#1E120B"/>
</g>
</g>
</g>
</svg>
