<svg class={$$props.class} width="30" height="30" viewBox="0 0 30 30" fill="none" xmlns="http://www.w3.org/2000/svg">
<g clip-path="url(#clip0_552_66)">
<path d="M10.0387 9.22695C10.5513 9.92137 11.0864 10.594 11.66 11.2399C12.4945 12.1798 13.4154 13.1055 14.4179 13.9893L13.9261 9.84104C13.8625 9.30659 14.2152 8.86472 14.7095 8.71644C15.2597 8.61852 15.8166 8.90798 15.9527 9.47867L16.7152 15.8274L16.7524 15.8543C19.9291 18.1484 23.4023 20.0023 26.8983 21.7571C27.4105 22.0058 27.6243 22.6226 27.3756 23.1349C27.127 23.6471 26.5101 23.8609 25.9979 23.6122C22.3545 21.8039 18.7454 19.8537 15.4505 17.4575L10.6857 17.9144C10.1189 17.9688 9.61535 17.5533 9.561 16.9866C9.50962 16.4508 9.87234 16.0171 10.3699 15.8802L13.1363 15.6082C12.0366 14.6452 11.0294 13.6354 10.118 12.6091C9.48603 11.8974 8.89905 11.1549 8.33523 10.3891C8.01432 9.91867 8.13549 9.2772 8.60589 8.95629C9.07628 8.63538 9.71775 8.75655 10.0387 9.22695ZM10.9403 4.02824C14.5872 3.73906 17.4649 3.94981 19.3481 4.85537C21.2662 5.77772 22.679 7.6307 23.6981 10.1368C24.5418 12.2119 25.0891 14.5002 25.2642 16.7355C25.3086 17.3033 24.8845 17.7995 24.3169 17.844C23.7491 17.8884 23.2528 17.4643 23.2084 16.8966C22.9923 14.8531 22.5637 12.8217 21.7878 10.9135C20.9435 8.83702 19.8283 7.37438 18.4545 6.71375C16.9926 6.01076 14.4101 5.82167 11.1032 6.08389C8.52729 6.28814 5.96888 6.701 3.44272 7.23933C4.04708 9.79717 4.78169 12.365 5.67296 14.673C6.87694 17.7909 8.21506 20.0646 9.58842 21.1232C10.7048 21.9838 12.0616 22.5186 13.6038 22.7696C15.5094 23.0796 17.5534 22.949 19.4966 22.4862C20.0451 22.3332 20.6138 22.6538 20.7668 23.2022C20.9198 23.7508 20.5992 24.3194 20.0507 24.4725C17.8484 25.0347 15.519 25.1704 13.2726 24.8049C11.4125 24.5022 9.73795 23.842 8.32951 22.7564C6.57785 21.4062 5.07918 18.8597 3.74932 15.4159C2.64988 12.5688 1.87959 9.62804 1.20656 6.65689C1.09931 6.11466 1.43872 5.58432 1.97602 5.45459C4.92646 4.77869 7.92117 4.26765 10.9403 4.02824Z"/>
</g>
<defs>
<clipPath id="clip0_552_66">
<rect width="24.745" height="24.745" fill="white" transform="translate(0.389221 4.80127) rotate(-11.1882)"/>
</clipPath>
</defs>
</svg>
