<svg width="47" height="36" viewBox="0 0 47 36" fill="none" xmlns="http://www.w3.org/2000/svg">
<path d="M24.7201 2.16734C22.311 1.26574 17.199 4.12717 12.9683 7.87077H9.83447C7.75663 7.87077 5.76389 8.69689 4.29465 10.1672C2.82539 11.6375 1.99998 13.6315 1.99998 15.7108V19.6308C1.99998 21.71 2.82539 23.7043 4.29465 25.1747C5.76389 26.6449 7.75663 27.4708 9.83447 27.4708H12.9683C17.101 31.2732 22.2131 34.076 24.7201 33.194C28.8332 31.6652 29.5186 23.394 29.5186 17.6708C29.5186 11.9476 28.8332 3.69614 24.7201 2.16734Z" stroke="#F29627" stroke-width="3.6" stroke-linecap="round" stroke-linejoin="round"/>
<path d="M40.6063 6.51855C43.5425 9.45883 45.192 13.4456 45.192 17.6024C45.192 21.7592 43.5425 25.746 40.6063 28.6862" stroke="#AD3910" stroke-width="3.6" stroke-linecap="round" stroke-linejoin="round"/>
<path d="M36.4519 24.6092C38.2877 22.7713 39.3191 20.2789 39.3191 17.6804C39.3191 15.0818 38.2877 12.5897 36.4519 10.752" stroke="#AD3910" stroke-width="3.6" stroke-linecap="round" stroke-linejoin="round"/>
</svg>
