<svg width="30" height="30" viewBox="0 0 30 30" fill="none" xmlns="http://www.w3.org/2000/svg">
<g clip-path="url(#clip0_236_764)">
<mask id="mask0_236_764" style="mask-type:luminance" maskUnits="userSpaceOnUse" x="0" y="0" width="30" height="30">
<path d="M30 0H0V30H30V0Z" fill="white"/>
</mask>
<g mask="url(#mask0_236_764)">
<path d="M21.8214 3.75L26.2501 3.75375L26.2526 8.1575L19.4189 14.99L22.9539 18.5262L24.7226 16.7587L26.4901 18.5262L23.3976 21.62L26.9326 25.1562L25.1651 26.9237L21.6289 23.3875L18.5351 26.4812L16.7676 24.7137L18.5351 22.945L14.9989 19.41L11.4639 22.945L13.2326 24.7137L11.4651 26.4812L8.37138 23.3875L4.83513 26.9237L3.06763 25.1562L6.60388 21.6187L3.51013 18.5262L5.27763 16.7587L7.04513 18.525L10.5789 14.99L3.75388 8.165L3.75013 3.75L8.18263 3.75375L14.9989 10.5712L21.8214 3.75ZM12.3464 16.7575L8.81263 20.2925L9.69763 21.1763L13.2314 17.6412L12.3476 16.7575H12.3464ZM23.7514 6.25125H22.8551L16.7676 12.3375L17.6501 13.2212L23.7514 7.1225V6.25125ZM6.25138 6.25125V7.12625L20.3026 21.1775L21.1864 20.2938L7.14513 6.2525L6.25138 6.25125Z" fill="white"/>
</g>
</g>
<defs>
<clipPath id="clip0_236_764">
<rect width="30" height="30" fill="white"/>
</clipPath>
</defs>
</svg>
