<svg width="280" height="41" viewBox="0 0 280 41" fill="none" xmlns="http://www.w3.org/2000/svg">
<rect width="280" height="41" rx="20.5" fill="#F29627"/>
<path d="M132.15 25.4062V26.6562H119.337V25.4062H124.978V22.9531H120.9V18.5H129.119V16.5312H120.869V15.3125H130.587V19.6875H122.369V21.7344H130.916V22.9531H126.447V25.4062H132.15ZM144.195 15.75V17.25C144.195 19.0625 144.195 21.0312 143.68 24.0156L142.164 23.875C142.727 21.0781 142.727 19.0156 142.727 17.25V16.9688H134.477V15.75H144.195ZM145.867 25.1094V26.3438H133.102V25.1094H145.867ZM158.475 14.3438V24.5156H156.991V14.3438H158.475ZM158.897 26.8281V28.0312H149.319V23.4844H150.819V26.8281H158.897ZM150.881 15.2812C152.991 15.2812 154.6 16.7188 154.6 18.75C154.6 20.8125 152.991 22.2344 150.881 22.2344C148.772 22.2344 147.147 20.8125 147.147 18.75C147.147 16.7188 148.772 15.2812 150.881 15.2812ZM150.881 16.5781C149.569 16.5781 148.6 17.4688 148.6 18.75C148.6 20.0625 149.569 20.9375 150.881 20.9375C152.163 20.9375 153.147 20.0625 153.147 18.75C153.147 17.4688 152.163 16.5781 150.881 16.5781Z" fill="white"/>
</svg>
