<svg width="280" height="45" viewBox="0 0 280 45" fill="none" xmlns="http://www.w3.org/2000/svg">
<rect width="280" height="45" rx="21" fill="#FEE500"/>
<g clip-path="url(#clip0_402_3375)">
<path opacity="0.902" fill-rule="evenodd" clip-rule="evenodd" d="M27 13.1013C21.2433 13.1013 16 17.5183 16 21.2552C16 24.0552 17.9042 26.525 20.8046 27.9927L19.5848 32.2697C19.476 32.6488 19.927 32.9498 20.2729 32.7317L25.6226 29.3425C26.0736 29.3845 26.5331 29.409 27 29.409C33.0744 29.409 38 25.7585 38 21.2552C38 17.5183 33.0744 13.1013 27 13.1013Z" fill="#1A1A1A"/>
</g>
<path d="M84.7969 16.75C84.7812 20.875 83.5156 24.5469 78.4062 27.0625L77.5938 25.9531C80.125 24.7109 81.6328 23.2031 82.4688 21.4219L77.8906 21.8594L77.6719 20.5781L82.9219 20.2188C83.1328 19.5078 83.2578 18.75 83.3125 17.9531H78.4062V16.75H84.7969ZM88.4219 15.3281V20.9219H90.5938V22.1406H88.4219V29.3125H86.9375V15.3281H88.4219ZM98.561 16.75C98.5454 20.875 97.2797 24.5469 92.1704 27.0625L91.3579 25.9531C93.8891 24.7109 95.3969 23.2031 96.2329 21.4219L91.6547 21.8594L91.436 20.5781L96.686 20.2188C96.8969 19.5078 97.0219 18.75 97.0766 17.9531H92.1704V16.75H98.561ZM102.186 15.3281V20.9219H104.358V22.1406H102.186V29.3125H100.702V15.3281H102.186ZM111.419 16.1719C114.419 16.1875 116.591 17.6562 116.591 19.8906C116.591 21.9922 114.77 23.375 112.153 23.5938V26.3438H117.856V27.5781H105.044V26.3438H110.684V23.5938C108.083 23.375 106.263 21.9922 106.263 19.8906C106.263 17.6562 108.434 16.1875 111.419 16.1719ZM111.419 17.3906C109.263 17.375 107.7 18.375 107.7 19.8906C107.7 21.4688 109.263 22.4375 111.419 22.4531C113.591 22.4375 115.153 21.4688 115.153 19.8906C115.153 18.375 113.591 17.375 111.419 17.3906ZM131.574 22.8281V24.0156H118.777V22.8281H124.433V21.5H120.449V15.6875H130.011V16.8594H121.949V18H129.652V19.125H121.949V20.3594H130.105V21.5H125.917V22.8281H131.574ZM129.949 25.1406V29.3281H128.433V26.3281H120.23V25.1406H129.949ZM138.947 16.1719C141.885 16.1719 144.119 17.7188 144.119 20.0781C144.119 22.4375 141.885 24 138.947 23.9844C136.01 24 133.791 22.4375 133.791 20.0781C133.791 17.7188 136.01 16.1719 138.947 16.1719ZM138.947 17.375C136.806 17.3594 135.197 18.4531 135.213 20.0781C135.197 21.7188 136.806 22.7656 138.947 22.7656C141.088 22.7656 142.681 21.7188 142.681 20.0781C142.681 18.4531 141.088 17.3594 138.947 17.375ZM145.385 26.2812V27.5156H132.572V26.2812H145.385ZM159.149 26.4062V27.6562H146.336V26.4062H151.977V23.9531H147.899V19.5H156.118V17.5312H147.868V16.3125H157.586V20.6875H149.368V22.7344H157.914V23.9531H153.446V26.4062H159.149ZM176.755 26.4062V27.6562H163.943V26.4062H169.583V23.9531H165.505V19.5H173.724V17.5312H165.474V16.3125H175.193V20.6875H166.974V22.7344H175.521V23.9531H171.052V26.4062H176.755ZM188.8 16.75V18.25C188.8 20.0625 188.8 22.0312 188.285 25.0156L186.769 24.875C187.332 22.0781 187.332 20.0156 187.332 18.25V17.9688H179.082V16.75H188.8ZM190.472 26.1094V27.3438H177.707V26.1094H190.472ZM203.08 15.3438V25.5156H201.596V15.3438H203.08ZM203.502 27.8281V29.0312H193.924V24.4844H195.424V27.8281H203.502ZM195.487 16.2812C197.596 16.2812 199.205 17.7188 199.205 19.75C199.205 21.8125 197.596 23.2344 195.487 23.2344C193.377 23.2344 191.752 21.8125 191.752 19.75C191.752 17.7188 193.377 16.2812 195.487 16.2812ZM195.487 17.5781C194.174 17.5781 193.205 18.4688 193.205 19.75C193.205 21.0625 194.174 21.9375 195.487 21.9375C196.768 21.9375 197.752 21.0625 197.752 19.75C197.752 18.4688 196.768 17.5781 195.487 17.5781Z" fill="#1A1A1A"/>
<defs>
<clipPath id="clip0_402_3375">
<rect width="22" height="21" fill="white" transform="translate(16 12)"/>
</clipPath>
</defs>
</svg>
