<svg width="140" height="140" viewBox="0 0 1080 1080" fill="none" xmlns="http://www.w3.org/2000/svg">
<path fill-rule="evenodd" clip-rule="evenodd" d="M549.5 809.5C549.5 806.833 549.5 804.167 549.5 801.5C544.5 801.5 539.5 801.5 534.5 801.5C534.5 806.833 534.5 812.167 534.5 817.5C533.867 865.502 533.033 913.502 532 961.5C530.644 962.38 529.144 962.714 527.5 962.5C527.335 965.518 527.502 968.518 528 971.5C529.011 970.663 530.178 970.33 531.5 970.5C531.667 984.504 531.5 998.504 531 1012.5C496.349 1028.34 460.515 1031.84 423.5 1023C417.934 1013.57 415.767 1003.4 417 992.5C425.596 976.283 438.43 964.783 455.5 958C452.316 956.496 449.149 954.996 446 953.5C445.544 903.155 444.544 852.822 443 802.5C430.165 810.386 416.331 812.553 401.5 809C378.117 800.737 365.45 784.237 363.5 759.5C364.611 736.091 375.611 719.258 396.5 709C399.04 697.302 401.706 685.635 404.5 674C404.167 673.167 403.833 672.333 403.5 671.5C396.391 668.78 389.725 665.28 383.5 661C381.552 659.561 380.219 657.728 379.5 655.5C381.42 645.906 384.253 636.572 388 627.5C389.796 626.233 391.629 626.233 393.5 627.5C399.227 609.151 405.061 590.817 411 572.5C415.253 563.414 421.753 556.414 430.5 551.5C432.275 544.231 436.941 540.398 444.5 540C455.404 539.286 466.07 537.286 476.5 534C484.454 526.721 493.454 521.054 503.5 517C505.167 516.333 506.833 516.333 508.5 517C511 519.5 513.5 522 516 524.5C516.957 521.621 516.457 519.121 514.5 517C470.824 506.576 431.491 487.576 396.5 460C394.126 457.961 392.126 455.628 390.5 453C364.003 445.837 348.836 428.67 345 401.5C344.604 394.994 344.437 388.66 344.5 382.5C336.716 387.868 328.216 389.868 319 388.5C318.333 387.833 318.333 387.167 319 386.5C330.772 378.62 335.772 367.62 334 353.5C321.965 326.694 314.299 298.694 311 269.5C309.692 252.393 312.692 236.06 320 220.5C325.572 206.856 332.072 193.689 339.5 181C331.694 180.969 324.027 179.969 316.5 178C312.681 176.926 309.348 175.093 306.5 172.5C317.799 168.22 328.799 163.054 339.5 157C355.112 146.388 370.445 135.388 385.5 124C403.103 111.348 422.77 105.681 444.5 107C501.966 42.3169 566.632 34.3169 638.5 83C671.231 91.6974 700.565 106.697 726.5 128C741.838 143.33 755.672 159.83 768 177.5C769.582 179.624 769.749 181.79 768.5 184C759.591 176.088 748.924 172.755 736.5 174C749.88 194.258 761.047 215.758 770 238.5C773.549 266.675 778.216 294.675 784 322.5C786.514 334.857 791.681 345.857 799.5 355.5C799.426 357.739 798.259 358.739 796 358.5C784.57 356.287 774.904 350.953 767 342.5C759.254 364.415 749.587 385.415 738 405.5C732.875 429.29 718.709 444.79 695.5 452C691.102 455.394 686.435 458.394 681.5 461C675.551 466.276 669.551 471.609 663.5 477C634.422 495.641 603.088 509.141 569.5 517.5C568.369 519.074 568.202 520.741 569 522.5C570.833 520.667 572.667 518.833 574.5 517C586.087 519.13 596.087 524.463 604.5 533C617.78 537.789 631.447 540.789 645.5 542C649.352 543.52 651.185 546.353 651 550.5C662.171 556.507 669.838 565.507 674 577.5C678.729 594.322 683.896 610.989 689.5 627.5C691.371 626.233 693.204 626.233 695 627.5C698.747 636.572 701.58 645.906 703.5 655.5C702.058 658.777 699.725 661.277 696.5 663C690.712 665.977 684.879 668.811 679 671.5C680.744 684.588 683.244 697.588 686.5 710.5C707.092 719.326 718.092 734.993 719.5 757.5C719.103 776.128 711.437 790.961 696.5 802C678.186 812.609 659.686 813.109 641 803.5C639.442 853.488 638.442 903.488 638 953.5C634.573 955.129 631.073 956.629 627.5 958C643.625 964.456 656.458 974.956 666 989.5C668.678 1001.13 667.012 1012.13 661 1022.5C624.62 1031.39 589.12 1028.56 554.5 1014C554 1013.5 553.5 1013 553 1012.5C552.5 998.504 552.333 984.504 552.5 970.5C553.822 970.33 554.989 970.663 556 971.5C556.498 968.518 556.665 965.518 556.5 962.5C554.856 962.714 553.356 962.38 552 961.5C551.283 910.83 550.45 860.163 549.5 809.5Z" fill="#38221B"/>
<path fill-rule="evenodd" clip-rule="evenodd" d="M626.5 80.5C605.327 80.0428 583.994 80.5428 562.5 82C552.254 83.5186 542.421 86.3519 533 90.5C532.517 91.448 532.351 92.448 532.5 93.5C540.002 90.8734 547.669 88.7067 555.5 87C581.831 83.9695 608.165 83.8028 634.5 86.5C670.768 95.5457 702.601 112.546 730 137.5C740.064 148.394 749.564 159.728 758.5 171.5C758.333 171.833 758.167 172.167 758 172.5C749.519 168.952 740.685 167.785 731.5 169C730.978 169.561 730.645 170.228 730.5 171C742.559 190.759 753.392 211.259 763 232.5C765.073 238.053 766.74 243.72 768 249.5C770.101 279.443 775.435 308.776 784 337.5C785.722 342.612 788.222 347.279 791.5 351.5C791.167 351.833 790.833 352.167 790.5 352.5C780.818 348.819 772.485 343.152 765.5 335.5C758.057 356.057 749.224 376.057 739 395.5C739.077 387.812 737.577 380.479 734.5 373.5C736.966 364.604 740.133 355.937 744 347.5C748.344 330.1 750.511 312.434 750.5 294.5C749.178 294.33 748.011 294.663 747 295.5C746.731 312.779 744.398 329.779 740 346.5C737.481 353.93 734.315 360.93 730.5 367.5C725.881 361.569 719.881 357.569 712.5 355.5C711.548 353.955 711.215 352.288 711.5 350.5C710.448 350.351 709.448 350.517 708.5 351C704.361 358.787 698.527 364.954 691 369.5C689.118 368.907 688.118 367.573 688 365.5C687.001 360.187 686.668 354.854 687 349.5C692.07 352.425 697.403 353.425 703 352.5C701.356 323.074 708.19 295.741 723.5 270.5C723.113 269.28 722.28 268.613 721 268.5C704.906 292.632 697.406 319.299 698.5 348.5C689.786 347.205 681.786 344.038 674.5 339C644.321 316.517 624.155 287.017 614 250.5C612.989 249.663 611.822 249.33 610.5 249.5C609.528 277.776 615.861 304.276 629.5 329C622.916 329.106 616.583 327.773 610.5 325C585.32 314.46 563.487 299.293 545 279.5C544.228 279.645 543.561 279.978 543 280.5C538.675 303.059 541.508 324.726 551.5 345.5C548.549 346.224 545.549 346.057 542.5 345C492.143 325.302 458.977 289.469 443 237.5C441.495 228.887 441.161 220.22 442 211.5C443.413 207.761 445.247 204.261 447.5 201C447.387 199.72 446.72 198.887 445.5 198.5C441.473 201.88 438.973 206.214 438 211.5C437.333 218.833 437.333 226.167 438 233.5C439.74 240.216 441.573 246.883 443.5 253.5C439.687 280.403 433.52 306.737 425 332.5C421.43 341.88 417.097 350.88 412 359.5C404.744 333.064 397.078 306.731 389 280.5C388.735 278.349 387.735 276.682 386 275.5C384.5 275.667 383.667 276.5 383.5 278C391.765 305.765 393.598 333.932 389 362.5C383.335 350.672 374.835 341.672 363.5 335.5C363.238 336.978 363.571 338.311 364.5 339.5C369.979 343.145 374.646 347.645 378.5 353C365.195 355.141 355.195 361.975 348.5 373.5C343.01 379.41 336.344 382.91 328.5 384C336.998 375.189 340.164 364.689 338 352.5C327.221 327.829 319.888 302.162 316 275.5C315.333 266.167 315.333 256.833 316 247.5C322.824 223.189 332.657 200.189 345.5 178.5C345.291 177.914 344.957 177.414 344.5 177C335.026 176.54 325.693 175.207 316.5 173C326.264 169.246 335.598 164.579 344.5 159C358.344 149.244 372.011 139.244 385.5 129C403.712 115.594 424.045 109.928 446.5 112C475.936 73.4497 514.936 55.1164 563.5 57C586.301 60.2088 607.301 68.0421 626.5 80.5Z" fill="#67503D"/>
<path fill-rule="evenodd" clip-rule="evenodd" d="M626.5 80.5C629.473 82.1468 632.14 84.1468 634.5 86.5C608.165 83.8028 581.831 83.9695 555.5 87C547.669 88.7067 540.002 90.8734 532.5 93.5C532.351 92.448 532.517 91.448 533 90.5C542.421 86.3519 552.254 83.5186 562.5 82C583.994 80.5428 605.327 80.0428 626.5 80.5Z" fill="#4D382D"/>
<path fill-rule="evenodd" clip-rule="evenodd" d="M638.5 170.5C640.797 189.887 644.13 209.22 648.5 228.5C631.989 227.556 617.655 221.556 605.5 210.5C601.138 216.362 596.972 222.362 593 228.5C591.527 209.276 592.86 190.276 597 171.5C605.065 186.406 615.565 199.406 628.5 210.5C629.68 196.591 633.013 183.258 638.5 170.5Z" fill="#94745D"/>
<path fill-rule="evenodd" clip-rule="evenodd" d="M511.5 175.5C512.043 175.56 512.376 175.893 512.5 176.5C507.792 199.529 508.959 222.196 516 244.5C510.805 241.903 506.138 238.57 502 234.5C496.506 227.513 491.506 220.18 487 212.5C485.195 232.809 489.029 251.976 498.5 270C484.419 264.248 474.585 254.081 469 239.5C461.107 216.816 464.94 196.483 480.5 178.5C483.058 193.63 490.225 205.963 502 215.5C500.773 201.078 503.939 187.744 511.5 175.5Z" fill="#95755D"/>
<path fill-rule="evenodd" clip-rule="evenodd" d="M526.5 185.5C532.009 206.185 541.509 224.852 555 241.5C555.688 242.332 555.521 242.998 554.5 243.5C533.548 230.069 524.215 210.735 526.5 185.5Z" fill="#93735C"/>
<path fill-rule="evenodd" clip-rule="evenodd" d="M415.5 189.5C415.775 207.479 418.775 225.146 424.5 242.5C424.333 242.833 424.167 243.167 424 243.5C419.088 238.685 415.421 233.018 413 226.5C406.977 243.633 403.644 261.3 403 279.5C394.286 260.976 393.286 241.976 400 222.5C404.634 211.232 409.801 200.232 415.5 189.5Z" fill="#94745C"/>
<path fill-rule="evenodd" clip-rule="evenodd" d="M395.5 320.5C395.5 319.833 395.833 319.5 396.5 319.5C401.334 335.842 406 352.176 410.5 368.5C417.331 359.84 422.331 350.173 425.5 339.5C453.814 344.63 482.147 349.63 510.5 354.5C510.665 351.482 510.498 348.482 510 345.5C509.682 343.939 508.849 342.772 507.5 342C482.56 336.186 457.56 330.686 432.5 325.5C437.651 303.58 442.484 281.58 447 259.5C453.911 272.994 461.577 285.994 470 298.5C490.686 322.764 516.186 339.93 546.5 350C550.152 350.499 553.818 350.665 557.5 350.5C553.81 342.439 550.644 334.106 548 325.5C546.506 316.876 545.339 308.209 544.5 299.5C544.97 295.136 545.636 290.802 546.5 286.5C566.711 307.451 590.711 322.618 618.5 332C603.888 335.547 589.221 338.88 574.5 342C572.51 346.24 572.177 350.574 573.5 355C603.147 348.872 632.98 343.372 663 338.5C665.3 338.494 667.466 338.994 669.5 340C673.332 342.75 677.332 345.25 681.5 347.5C682.738 355.218 684.238 362.884 686 370.5C687.362 372.436 689.195 373.769 691.5 374.5C686.833 400.334 681.333 426.001 675 451.5C673.475 456.656 671.642 461.656 669.5 466.5C659.025 475.242 647.691 482.742 635.5 489C618.373 496.596 601.04 503.596 583.5 510C569.842 513.304 556.009 515.471 542 516.5C522.562 515.598 503.729 511.765 485.5 505C466.498 497.67 448.165 489.004 430.5 479C424.985 475.075 419.652 470.908 414.5 466.5C404.669 436.546 397.502 405.88 393 374.5C394.923 356.583 395.756 338.583 395.5 320.5Z" fill="#FADAD2"/>
<path fill-rule="evenodd" clip-rule="evenodd" d="M614.5 265.5C622.974 287.147 634.974 306.647 650.5 324C644.93 326.953 639.096 328.12 633 327.5C622.282 308.18 616.115 287.514 614.5 265.5Z" fill="#F5D5CE"/>
<path fill-rule="evenodd" clip-rule="evenodd" d="M734.5 373.5C733.18 371.537 731.846 369.537 730.5 367.5C734.315 360.93 737.481 353.93 740 346.5C744.398 329.779 746.731 312.779 747 295.5C748.011 294.663 749.178 294.33 750.5 294.5C750.511 312.434 748.344 330.1 744 347.5C740.133 355.937 736.966 364.604 734.5 373.5Z" fill="#4D382E"/>
<path fill-rule="evenodd" clip-rule="evenodd" d="M396.5 319.5C395.833 319.5 395.5 319.833 395.5 320.5C394.378 318.712 394.211 316.712 395 314.5C395.608 316.154 396.108 317.821 396.5 319.5Z" fill="#9C8079"/>
<path fill-rule="evenodd" clip-rule="evenodd" d="M387.5 371.5C376.369 370.763 368.369 375.763 363.5 386.5C363.887 387.72 364.72 388.387 366 388.5C369.525 383.31 374.025 379.143 379.5 376C382.531 375.505 385.531 375.671 388.5 376.5C390.785 383.189 392.118 390.189 392.5 397.5C392.5 398.833 392.5 400.167 392.5 401.5C381.163 402.812 376.663 409.145 379 420.5C383.802 428.789 390.968 433.789 400.5 435.5C402.749 440.497 404.083 445.83 404.5 451.5C375.685 449.182 357.185 434.182 349 406.5C348.161 397.78 348.495 389.113 350 380.5C355.236 366.962 365.07 359.296 379.5 357.5C384.168 360.814 386.834 365.48 387.5 371.5Z" fill="#E7B5AA"/>
<path fill-rule="evenodd" clip-rule="evenodd" d="M683.5 434.5C697.85 432.665 704.683 424.665 704 410.5C701.322 404.902 696.822 401.902 690.5 401.5C691.726 393.147 693.059 384.814 694.5 376.5C699.064 374.89 703.398 375.39 707.5 378C710.731 380.727 713.397 383.894 715.5 387.5C716.325 388.386 717.325 388.719 718.5 388.5C715.923 376.944 708.589 371.278 696.5 371.5C700.531 366.97 704.698 362.637 709 358.5C726.554 363.556 735.054 375.223 734.5 393.5C733.738 420.428 720.738 438.594 695.5 448C690.318 449.803 684.984 450.636 679.5 450.5C680.226 444.993 681.56 439.659 683.5 434.5Z" fill="#E7B5AB"/>
<path fill-rule="evenodd" clip-rule="evenodd" d="M456.5 363.5C474.459 363.302 492.126 365.469 509.5 370C512.193 372.095 511.86 373.595 508.5 374.5C492.104 370.379 475.437 367.879 458.5 367C457.177 366.184 456.511 365.017 456.5 363.5Z" fill="#EBA696"/>
<path fill-rule="evenodd" clip-rule="evenodd" d="M618.5 362.5C620.857 362.337 623.19 362.503 625.5 363C626.727 364.587 626.394 365.921 624.5 367C607.203 367.662 590.203 370.162 573.5 374.5C571.889 373.68 571.222 372.346 571.5 370.5C587.108 366.809 602.775 364.143 618.5 362.5Z" fill="#EBA697"/>
<path fill-rule="evenodd" clip-rule="evenodd" d="M507.5 385.5C505.833 385.5 504.167 385.5 502.5 385.5C507.369 404.923 502.369 421.09 487.5 434C473.196 441.258 458.862 441.258 444.5 434C435.629 426.751 431.129 417.251 431 405.5C430.227 397.118 430.394 388.785 431.5 380.5C424.687 379.509 417.687 379.175 410.5 379.5C410.223 376.552 410.556 373.719 411.5 371C444.915 369.734 477.915 372.734 510.5 380C512.35 383.466 511.35 385.299 507.5 385.5Z" fill="#362019"/>
<path fill-rule="evenodd" clip-rule="evenodd" d="M651.5 380.5C653.283 393.981 652.45 407.314 649 420.5C644.326 431.161 636.159 437.328 624.5 439C595.431 441.602 580.431 428.268 579.5 399C579.641 394.474 579.975 389.974 580.5 385.5C579.5 385.5 578.5 385.5 577.5 385.5C572.5 386.5 570.5 384.5 571.5 379.5C604.444 372.551 637.777 369.718 671.5 371C672.444 373.719 672.777 376.552 672.5 379.5C665.313 379.175 658.313 379.509 651.5 380.5Z" fill="#362019"/>
<path fill-rule="evenodd" clip-rule="evenodd" d="M387.5 371.5C388.451 372.919 388.784 374.585 388.5 376.5C385.531 375.671 382.531 375.505 379.5 376C374.025 379.143 369.525 383.31 366 388.5C364.72 388.387 363.887 387.72 363.5 386.5C368.369 375.763 376.369 370.763 387.5 371.5Z" fill="#D28685"/>
<path fill-rule="evenodd" clip-rule="evenodd" d="M696.5 371.5C708.589 371.278 715.923 376.944 718.5 388.5C717.325 388.719 716.325 388.386 715.5 387.5C713.397 383.894 710.731 380.727 707.5 378C703.398 375.39 699.064 374.89 694.5 376.5C694.796 374.597 695.463 372.93 696.5 371.5Z" fill="#D18584"/>
<path fill-rule="evenodd" clip-rule="evenodd" d="M431.5 380.5C430.394 388.785 430.227 397.118 431 405.5C431.129 417.251 435.629 426.751 444.5 434C458.862 441.258 473.196 441.258 487.5 434C502.369 421.09 507.369 404.923 502.5 385.5C504.167 385.5 505.833 385.5 507.5 385.5C506.992 395.243 505.826 404.909 504 414.5C500.352 423.792 496.186 432.792 491.5 441.5C468.971 445.666 446.638 444.666 424.5 438.5C417.87 419.774 414.204 400.44 413.5 380.5C419.5 380.5 425.5 380.5 431.5 380.5Z" fill="#FDFCFB"/>
<path fill-rule="evenodd" clip-rule="evenodd" d="M651.5 380.5C657.5 380.5 663.5 380.5 669.5 380.5C668.425 400.376 664.758 419.709 658.5 438.5C643.536 441.933 628.369 443.933 613 444.5C605.643 444.728 598.477 443.728 591.5 441.5C588.947 436.062 586.113 430.729 583 425.5C576.885 412.501 575.052 399.168 577.5 385.5C578.5 385.5 579.5 385.5 580.5 385.5C579.975 389.974 579.641 394.474 579.5 399C580.431 428.268 595.431 441.602 624.5 439C636.159 437.328 644.326 431.161 649 420.5C652.45 407.314 653.283 393.981 651.5 380.5Z" fill="#FDFCFC"/>
<path fill-rule="evenodd" clip-rule="evenodd" d="M447.5 382.5C458.197 382.351 468.863 382.851 479.5 384C484.087 390.54 483.087 396.207 476.5 401C467.232 407.214 457.232 409.214 446.5 407C438.567 403.412 436.4 397.578 440 389.5C442.396 386.933 444.896 384.6 447.5 382.5Z" fill="#FCF7F1"/>
<path fill-rule="evenodd" clip-rule="evenodd" d="M610.5 382.5C616.509 382.334 622.509 382.501 628.5 383C634.226 389.602 633.559 395.602 626.5 401C618.188 406.219 609.188 408.552 599.5 408C589.3 405.433 586.133 399.267 590 389.5C591.5 388 593 386.5 594.5 385C599.988 384.226 605.321 383.393 610.5 382.5Z" fill="#FBF6F0"/>
<path fill-rule="evenodd" clip-rule="evenodd" d="M392.5 397.5C393.531 399.961 394.198 402.627 394.5 405.5C385.243 405.671 381.41 410.337 383 419.5C386.611 425.984 392.111 429.65 399.5 430.5C400.451 431.919 400.784 433.585 400.5 435.5C390.968 433.789 383.802 428.789 379 420.5C376.663 409.145 381.163 402.812 392.5 401.5C392.5 400.167 392.5 398.833 392.5 397.5Z" fill="#D08383"/>
<path fill-rule="evenodd" clip-rule="evenodd" d="M690.5 401.5C696.822 401.902 701.322 404.902 704 410.5C704.683 424.665 697.85 432.665 683.5 434.5C683.232 432.901 683.566 431.568 684.5 430.5C691.178 428.915 696.345 425.249 700 419.5C701.566 410.947 698.066 406.28 689.5 405.5C689.433 404.041 689.766 402.708 690.5 401.5Z" fill="#D08382"/>
<path fill-rule="evenodd" clip-rule="evenodd" d="M394.5 405.5C396.04 413.868 397.707 422.201 399.5 430.5C392.111 429.65 386.611 425.984 383 419.5C381.41 410.337 385.243 405.671 394.5 405.5Z" fill="#E7B5AA"/>
<path fill-rule="evenodd" clip-rule="evenodd" d="M689.5 405.5C698.066 406.28 701.566 410.947 700 419.5C696.345 425.249 691.178 428.915 684.5 430.5C686.293 422.201 687.96 413.868 689.5 405.5Z" fill="#E7B5AA"/>
<path fill-rule="evenodd" clip-rule="evenodd" d="M443.5 411.5C445.924 411.192 448.257 411.526 450.5 412.5C456.39 421.401 464.39 423.901 474.5 420C477.833 418 480.5 415.333 482.5 412C488.348 410.598 492.682 412.431 495.5 417.5C491.477 427.361 484.144 433.195 473.5 435C462.263 436.583 452.096 434.083 443 427.5C440.769 424.205 438.936 420.705 437.5 417C439.396 414.932 441.396 413.099 443.5 411.5Z" fill="#614236"/>
<path fill-rule="evenodd" clip-rule="evenodd" d="M593.5 411.5C595.924 411.192 598.257 411.526 600.5 412.5C606.39 421.401 614.39 423.901 624.5 420C627.833 418 630.5 415.333 632.5 412C637.788 410.797 642.121 412.297 645.5 416.5C642.054 427.1 634.721 433.267 623.5 435C611.323 437.065 600.823 433.898 592 425.5C590.368 423.067 588.868 420.567 587.5 418C589.014 415.322 591.014 413.155 593.5 411.5Z" fill="#614236"/>
<path fill-rule="evenodd" clip-rule="evenodd" d="M424.5 438.5C446.638 444.666 468.971 445.666 491.5 441.5C492.684 442.688 492.684 443.855 491.5 445C468.577 450.054 445.91 449.054 423.5 442C422.015 440.244 422.348 439.077 424.5 438.5Z" fill="#E9B2AA"/>
<path fill-rule="evenodd" clip-rule="evenodd" d="M658.5 438.5C660.652 439.077 660.985 440.244 659.5 442C637.77 448.469 615.77 449.802 593.5 446C590.715 445.274 590.048 443.774 591.5 441.5C598.477 443.728 605.643 444.728 613 444.5C628.369 443.933 643.536 441.933 658.5 438.5Z" fill="#E9B2AA"/>
<path fill-rule="evenodd" clip-rule="evenodd" d="M539.5 453.5C544.328 453.385 545.661 455.552 543.5 460C538.57 460.427 537.237 458.26 539.5 453.5Z" fill="#E997A0"/>
<path fill-rule="evenodd" clip-rule="evenodd" d="M397.5 455.5C400.428 454.601 403.428 454.934 406.5 456.5C407.752 458.735 408.252 461.069 408 463.5C404.624 460.617 401.124 457.951 397.5 455.5Z" fill="#624B39"/>
<path fill-rule="evenodd" clip-rule="evenodd" d="M527.5 481.5C536.833 481.5 546.167 481.5 555.5 481.5C555.67 482.822 555.337 483.989 554.5 485C545.833 485.667 537.167 485.667 528.5 485C527.663 483.989 527.33 482.822 527.5 481.5Z" fill="#C16D6C"/>
<path fill-rule="evenodd" clip-rule="evenodd" d="M520.5 518.5C535.162 519.792 549.828 519.792 564.5 518.5C564.665 521.518 564.498 524.518 564 527.5C556.649 534.352 549.149 541.019 541.5 547.5C534.518 541.686 527.685 535.686 521 529.5C520.501 525.848 520.335 522.182 520.5 518.5Z" fill="#F6D7CF"/>
<path fill-rule="evenodd" clip-rule="evenodd" d="M504.5 520.5C516.241 530.067 527.574 540.233 538.5 551C526.309 560.691 513.976 570.191 501.5 579.5C494.372 565.41 487.372 551.244 480.5 537C487.384 529.737 495.384 524.237 504.5 520.5Z" fill="#FCFCFC"/>
<path fill-rule="evenodd" clip-rule="evenodd" d="M576.5 520.5C585.83 523.583 593.997 528.583 601 535.5C601.167 536.167 601.333 536.833 601.5 537.5C595.365 551.768 588.699 565.768 581.5 579.5C569.024 570.191 556.691 560.691 544.5 551C555.365 540.967 566.032 530.8 576.5 520.5Z" fill="#FCFCFC"/>
<path fill-rule="evenodd" clip-rule="evenodd" d="M471.5 538.5C473.604 538.201 475.604 538.534 477.5 539.5C484.667 554.5 491.833 569.5 499 584.5C499.414 584.957 499.914 585.291 500.5 585.5C503.5 583 506.5 580.5 509.5 578C510.332 577.312 510.998 577.479 511.5 578.5C521.426 596.026 531.593 613.36 542 630.5C543.767 629.66 545.101 628.327 546 626.5C554.41 610.008 563.576 594.008 573.5 578.5C576.022 580.856 578.688 583.023 581.5 585C582.449 585.617 583.282 585.451 584 584.5C591.167 569.5 598.333 554.5 605.5 539.5C606.5 539.167 607.5 538.833 608.5 538.5C614.06 540.307 619.727 541.64 625.5 542.5C636.179 602.239 645.012 662.239 652 722.5C652.667 729.5 652.667 736.5 652 743.5C648.94 748.788 644.44 752.288 638.5 754C580.555 768.7 522.222 770.367 463.5 759C454.453 757.54 445.787 754.873 437.5 751C434.616 749.116 432.449 746.616 431 743.5C430.333 736.167 430.333 728.833 431 721.5C438.096 661.587 446.93 601.921 457.5 542.5C462.411 541.748 467.078 540.415 471.5 538.5Z" fill="#FDE1AA"/>
<path fill-rule="evenodd" clip-rule="evenodd" d="M450.5 560.5C445.833 560.5 441.167 560.5 436.5 560.5C436.5 556.5 436.5 552.5 436.5 548.5C437.749 546.864 439.416 545.697 441.5 545C445.541 544.173 449.541 544.34 453.5 545.5C452.392 550.485 451.392 555.485 450.5 560.5Z" fill="#F4A96B"/>
<path fill-rule="evenodd" clip-rule="evenodd" d="M646.5 548.5C646.5 552.5 646.5 556.5 646.5 560.5C641.833 560.5 637.167 560.5 632.5 560.5C631.393 554.86 630.393 549.193 629.5 543.5C634.33 543.387 638.997 544.22 643.5 546C644.942 546.377 645.942 547.21 646.5 548.5Z" fill="#F2A76A"/>
<path fill-rule="evenodd" clip-rule="evenodd" d="M540.5 553.5C543.1 554.919 545.6 556.585 548 558.5C548.667 577.167 548.667 595.833 548 614.5C546.248 617.672 544.248 620.672 542 623.5C540.333 620.833 538.667 618.167 537 615.5C536.167 595.825 536.334 576.158 537.5 556.5C538.855 555.812 539.855 554.812 540.5 553.5Z" fill="#EFE7E0"/>
<path fill-rule="evenodd" clip-rule="evenodd" d="M430.5 555.5C432.904 585.33 434.738 615.33 436 645.5C422.113 642.105 409.28 636.605 397.5 629C403.006 611.151 408.506 593.318 414 575.5C417.884 567.454 423.384 560.787 430.5 555.5Z" fill="#FBFBFB"/>
<path fill-rule="evenodd" clip-rule="evenodd" d="M651.5 555.5C659.273 560.442 665.106 567.108 669 575.5C674.494 593.318 679.994 611.151 685.5 629C673.585 636.538 660.752 642.038 647 645.5C648.587 615.522 650.087 585.522 651.5 555.5Z" fill="#FBFBFB"/>
<path fill-rule="evenodd" clip-rule="evenodd" d="M436.5 548.5C436.5 552.5 436.5 556.5 436.5 560.5C441.167 560.5 445.833 560.5 450.5 560.5C450.768 562.099 450.434 563.432 449.5 564.5C444.968 564.182 440.634 564.515 436.5 565.5C435.167 559.833 435.167 554.167 436.5 548.5Z" fill="#C17339"/>
<path fill-rule="evenodd" clip-rule="evenodd" d="M646.5 548.5C647.833 554.167 647.833 559.833 646.5 565.5C642.366 564.515 638.032 564.182 633.5 564.5C632.566 563.432 632.232 562.099 632.5 560.5C637.167 560.5 641.833 560.5 646.5 560.5C646.5 556.5 646.5 552.5 646.5 548.5Z" fill="#C17339"/>
<path fill-rule="evenodd" clip-rule="evenodd" d="M530.5 603.5C531.833 589.833 531.833 576.167 530.5 562.5C530.783 561.711 531.283 561.044 532 560.5C532.667 575.833 532.667 591.167 532 606.5C531.487 605.473 530.987 604.473 530.5 603.5Z" fill="#CAC4C2"/>
<path fill-rule="evenodd" clip-rule="evenodd" d="M530.5 562.5C531.833 576.167 531.833 589.833 530.5 603.5C524.795 594.441 519.461 585.108 514.5 575.5C519.248 570.416 524.581 566.083 530.5 562.5Z" fill="#FBFAFA"/>
<path fill-rule="evenodd" clip-rule="evenodd" d="M552.5 562.5C552.171 577.01 552.504 591.343 553.5 605.5C553.217 606.289 552.717 606.956 552 607.5C551.175 591.758 551.342 576.758 552.5 562.5Z" fill="#65554F"/>
<path fill-rule="evenodd" clip-rule="evenodd" d="M552.5 562.5C558.599 566.43 564.266 570.93 569.5 576C564.022 585.792 558.689 595.625 553.5 605.5C552.504 591.343 552.171 577.01 552.5 562.5Z" fill="#FBFAFA"/>
<path fill-rule="evenodd" clip-rule="evenodd" d="M449.5 564.5C448.939 571.03 447.939 577.363 446.5 583.5C443.455 583.492 440.455 583.159 437.5 582.5C437.768 580.901 437.434 579.568 436.5 578.5C436.5 574.167 436.5 569.833 436.5 565.5C440.634 564.515 444.968 564.182 449.5 564.5Z" fill="#F4A96B"/>
<path fill-rule="evenodd" clip-rule="evenodd" d="M633.5 564.5C638.032 564.182 642.366 564.515 646.5 565.5C646.5 569.833 646.5 574.167 646.5 578.5C645.566 579.568 645.232 580.901 645.5 582.5C642.482 582.704 639.482 583.037 636.5 583.5C635.061 577.363 634.061 571.03 633.5 564.5Z" fill="#F4A96B"/>
<path fill-rule="evenodd" clip-rule="evenodd" d="M436.5 578.5C437.434 579.568 437.768 580.901 437.5 582.5C440.455 583.159 443.455 583.492 446.5 583.5C446.768 585.099 446.434 586.432 445.5 587.5C442.794 587.425 440.127 587.092 437.5 586.5C436.527 584.052 436.194 581.385 436.5 578.5Z" fill="#C47337"/>
<path fill-rule="evenodd" clip-rule="evenodd" d="M646.5 578.5C646.806 581.385 646.473 584.052 645.5 586.5C642.763 586.401 640.096 586.735 637.5 587.5C636.566 586.432 636.232 585.099 636.5 583.5C639.482 583.037 642.482 582.704 645.5 582.5C645.232 580.901 645.566 579.568 646.5 578.5Z" fill="#C47337"/>
<path fill-rule="evenodd" clip-rule="evenodd" d="M437.5 586.5C440.127 587.092 442.794 587.425 445.5 587.5C444.24 599.909 442.407 612.243 440 624.5C438.982 611.841 438.149 599.174 437.5 586.5Z" fill="#F2A668"/>
<path fill-rule="evenodd" clip-rule="evenodd" d="M645.5 586.5C644.851 599.174 644.018 611.841 643 624.5C640.593 612.243 638.76 599.909 637.5 587.5C640.096 586.735 642.763 586.401 645.5 586.5Z" fill="#F2A567"/>
<path fill-rule="evenodd" clip-rule="evenodd" d="M390.5 630.5C404.848 639.173 420.182 645.506 436.5 649.5C435.384 658.213 434.051 666.88 432.5 675.5C414.938 673.05 398.938 666.717 384.5 656.5C384.167 656 383.833 655.5 383.5 655C385.333 646.67 387.667 638.503 390.5 630.5Z" fill="#FBFAFA"/>
<path fill-rule="evenodd" clip-rule="evenodd" d="M691.5 630.5C694.535 638.445 697.202 646.611 699.5 655C693.825 660.51 687.158 664.51 679.5 667C669.722 670.761 659.722 673.595 649.5 675.5C648.938 666.775 647.938 658.109 646.5 649.5C662.616 645.603 677.616 639.27 691.5 630.5Z" fill="#FBFAFA"/>
<path fill-rule="evenodd" clip-rule="evenodd" d="M408.5 673.5C415.972 675.998 423.639 677.998 431.5 679.5C430.664 692.189 429.498 704.855 428 717.5C427.333 726.833 427.333 736.167 428 745.5C428.26 747.618 429.26 749.284 431 750.5C431.206 756.884 431.706 763.217 432.5 769.5C436.039 771.235 439.706 772.568 443.5 773.5C443.666 781.84 443.5 790.173 443 798.5C416.3 813.203 393.633 808.537 375 784.5C364.048 764.153 365.548 744.819 379.5 726.5C385.395 720.435 392.228 715.769 400 712.5C402.737 699.461 405.571 686.461 408.5 673.5Z" fill="#F9DAD2"/>
<path fill-rule="evenodd" clip-rule="evenodd" d="M671.5 673.5C672.5 673.5 673.5 673.5 674.5 673.5C677.429 686.461 680.263 699.461 683 712.5C709.622 725.077 719.622 745.744 713 774.5C700.946 799.943 681.113 810.11 653.5 805C649.381 803.441 645.381 801.607 641.5 799.5C640.167 790.833 640.167 782.167 641.5 773.5C644.944 772.301 648.111 770.634 651 768.5C651.728 763.467 651.561 758.467 650.5 753.5C652.195 750.965 653.695 748.298 655 745.5C655.856 725.225 654.69 705.058 651.5 685C651.833 683.167 652.167 681.333 652.5 679.5C659.087 677.943 665.421 675.943 671.5 673.5Z" fill="#F9DAD2"/>
<path fill-rule="evenodd" clip-rule="evenodd" d="M450.5 759.5C451.791 763.601 451.791 767.601 450.5 771.5C446.089 770.307 441.756 768.807 437.5 767C436.371 762.921 436.204 758.755 437 754.5C441.326 756.664 445.826 758.331 450.5 759.5Z" fill="#F3A86A"/>
<path fill-rule="evenodd" clip-rule="evenodd" d="M632.5 771.5C631.518 768.038 631.185 764.371 631.5 760.5C635.984 758.33 640.65 756.33 645.5 754.5C646.798 758.715 646.798 762.882 645.5 767C641.256 768.803 636.922 770.303 632.5 771.5Z" fill="#F1A669"/>
<path fill-rule="evenodd" clip-rule="evenodd" d="M450.5 759.5C452.698 759.875 454.698 760.542 456.5 761.5C455.517 765.298 455.183 769.298 455.5 773.5C453.694 772.976 452.028 772.309 450.5 771.5C451.791 767.601 451.791 763.601 450.5 759.5Z" fill="#C87639"/>
<path fill-rule="evenodd" clip-rule="evenodd" d="M625.5 761.5C627.265 760.539 629.265 760.205 631.5 760.5C631.185 764.371 631.518 768.038 632.5 771.5C631.07 772.537 629.403 773.204 627.5 773.5C628.089 769.029 627.423 765.029 625.5 761.5Z" fill="#C87638"/>
<path fill-rule="evenodd" clip-rule="evenodd" d="M456.5 761.5C462.333 762.596 468 763.93 473.5 765.5C473.5 769.5 473.5 773.5 473.5 777.5C467.354 776.784 461.354 775.45 455.5 773.5C455.183 769.298 455.517 765.298 456.5 761.5Z" fill="#F2A76A"/>
<path fill-rule="evenodd" clip-rule="evenodd" d="M625.5 761.5C627.423 765.029 628.089 769.029 627.5 773.5C621.496 774.834 615.496 776.168 609.5 777.5C609.5 773.167 609.5 768.833 609.5 764.5C614.8 763.314 620.133 762.314 625.5 761.5Z" fill="#F3A86A"/>
<path fill-rule="evenodd" clip-rule="evenodd" d="M473.5 765.5C474.833 765.5 476.167 765.5 477.5 765.5C477.5 769.833 477.5 774.167 477.5 778.5C475.901 778.768 474.568 778.434 473.5 777.5C473.5 773.5 473.5 769.5 473.5 765.5Z" fill="#CA7638"/>
<path fill-rule="evenodd" clip-rule="evenodd" d="M477.5 765.5C483.489 766.226 489.489 766.893 495.5 767.5C495.5 771.833 495.5 776.167 495.5 780.5C489.41 780.487 483.41 779.82 477.5 778.5C477.5 774.167 477.5 769.833 477.5 765.5Z" fill="#F3A76A"/>
<path fill-rule="evenodd" clip-rule="evenodd" d="M605.5 765.5C605.5 769.833 605.5 774.167 605.5 778.5C599.559 779.634 593.559 780.301 587.5 780.5C587.5 776.167 587.5 771.833 587.5 767.5C593.489 766.774 599.489 766.107 605.5 765.5Z" fill="#F3A86B"/>
<path fill-rule="evenodd" clip-rule="evenodd" d="M609.5 764.5C609.5 768.833 609.5 773.167 609.5 777.5C608.432 778.434 607.099 778.768 605.5 778.5C605.5 774.167 605.5 769.833 605.5 765.5C606.708 764.766 608.041 764.433 609.5 764.5Z" fill="#C67437"/>
<path fill-rule="evenodd" clip-rule="evenodd" d="M495.5 767.5C497.735 767.205 499.735 767.539 501.5 768.5C499.57 772.373 498.903 776.706 499.5 781.5C497.901 781.768 496.568 781.434 495.5 780.5C495.5 776.167 495.5 771.833 495.5 767.5Z" fill="#C57336"/>
<path fill-rule="evenodd" clip-rule="evenodd" d="M501.5 768.5C506.833 768.833 512.167 769.167 517.5 769.5C517.5 769.833 517.5 770.167 517.5 770.5C517.817 774.702 517.483 778.702 516.5 782.5C510.811 782.468 505.145 782.134 499.5 781.5C498.903 776.706 499.57 772.373 501.5 768.5Z" fill="#F3A86A"/>
<path fill-rule="evenodd" clip-rule="evenodd" d="M581.5 768.5C583.43 772.373 584.097 776.706 583.5 781.5C577.819 781.635 572.152 781.968 566.5 782.5C566.414 778.143 566.08 773.81 565.5 769.5C570.822 769.02 576.155 768.687 581.5 768.5Z" fill="#F5A96C"/>
<path fill-rule="evenodd" clip-rule="evenodd" d="M581.5 768.5C583.265 767.539 585.265 767.205 587.5 767.5C587.5 771.833 587.5 776.167 587.5 780.5C586.432 781.434 585.099 781.768 583.5 781.5C584.097 776.706 583.43 772.373 581.5 768.5Z" fill="#C57236"/>
<path fill-rule="evenodd" clip-rule="evenodd" d="M517.5 770.5C518.833 770.5 520.167 770.5 521.5 770.5C521.5 774.5 521.5 778.5 521.5 782.5C522.791 782.263 523.791 782.596 524.5 783.5C521.615 783.806 518.948 783.473 516.5 782.5C517.483 778.702 517.817 774.702 517.5 770.5Z" fill="#CB793C"/>
<path fill-rule="evenodd" clip-rule="evenodd" d="M521.5 770.5C527.5 770.5 533.5 770.5 539.5 770.5C539.5 774.833 539.5 779.167 539.5 783.5C534.5 783.5 529.5 783.5 524.5 783.5C523.791 782.596 522.791 782.263 521.5 782.5C521.5 778.5 521.5 774.5 521.5 770.5Z" fill="#F6AA6C"/>
<path fill-rule="evenodd" clip-rule="evenodd" d="M539.5 770.5C540.833 770.5 542.167 770.5 543.5 770.5C543.5 774.833 543.5 779.167 543.5 783.5C542.167 783.5 540.833 783.5 539.5 783.5C539.5 779.167 539.5 774.833 539.5 770.5Z" fill="#CC7636"/>
<path fill-rule="evenodd" clip-rule="evenodd" d="M543.5 770.5C549.833 770.5 556.167 770.5 562.5 770.5C562.5 774.5 562.5 778.5 562.5 782.5C560.585 782.216 558.919 782.549 557.5 783.5C552.833 783.5 548.167 783.5 543.5 783.5C543.5 779.167 543.5 774.833 543.5 770.5Z" fill="#F5A96B"/>
<path fill-rule="evenodd" clip-rule="evenodd" d="M517.5 770.5C517.5 770.167 517.5 769.833 517.5 769.5C533.5 769.5 549.5 769.5 565.5 769.5C566.08 773.81 566.414 778.143 566.5 782.5C563.713 783.477 560.713 783.81 557.5 783.5C558.919 782.549 560.585 782.216 562.5 782.5C562.5 778.5 562.5 774.5 562.5 770.5C556.167 770.5 549.833 770.5 543.5 770.5C542.167 770.5 540.833 770.5 539.5 770.5C533.5 770.5 527.5 770.5 521.5 770.5C520.167 770.5 518.833 770.5 517.5 770.5Z" fill="#B76F3B"/>
<path fill-rule="evenodd" clip-rule="evenodd" d="M447.5 775.5C478.744 784.906 510.744 788.906 543.5 787.5C575.11 788.025 606.11 784.025 636.5 775.5C636.004 834.169 635.338 892.836 634.5 951.5C625.268 955.283 615.935 958.783 606.5 962C589.469 961.998 572.469 961.164 555.5 959.5C554.791 906.501 554.124 853.501 553.5 800.5C561.325 800.418 568.992 799.251 576.5 797C577.337 795.989 577.67 794.822 577.5 793.5C554.129 798.711 530.796 798.711 507.5 793.5C507.227 795.451 507.893 796.951 509.5 798C516.435 799.6 523.435 800.767 530.5 801.5C529.922 854.168 529.255 906.835 528.5 959.5C518.466 959.907 508.466 960.741 498.5 962C491.5 962.667 484.5 962.667 477.5 962C468.157 959.386 459.157 955.886 450.5 951.5C448.663 892.85 447.663 834.184 447.5 775.5Z" fill="#566C8B"/>
<path fill-rule="evenodd" clip-rule="evenodd" d="M549.5 809.5C548.532 807.393 548.198 805.059 548.5 802.5C544.167 802.5 539.833 802.5 535.5 802.5C535.821 807.695 535.487 812.695 534.5 817.5C534.5 812.167 534.5 806.833 534.5 801.5C539.5 801.5 544.5 801.5 549.5 801.5C549.5 804.167 549.5 806.833 549.5 809.5Z" fill="#B7AFAD"/>
<path fill-rule="evenodd" clip-rule="evenodd" d="M472.5 808.5C473.822 808.33 474.989 808.663 476 809.5C476.994 857.309 476.661 904.976 475 952.5C474.333 951.833 473.667 951.167 473 950.5C472.5 903.168 472.333 855.835 472.5 808.5Z" fill="#465E7C"/>
<path fill-rule="evenodd" clip-rule="evenodd" d="M608.5 808.5C609.5 808.5 610.5 808.5 611.5 808.5C611.667 855.835 611.5 903.168 611 950.5C609.989 951.337 608.822 951.67 607.5 951.5C607.172 903.761 607.505 856.095 608.5 808.5Z" fill="#465E7C"/>
<path fill-rule="evenodd" clip-rule="evenodd" d="M514.5 963.5C517.5 963.5 520.5 963.5 523.5 963.5C526.123 977.377 520.456 983.211 506.5 981C500.98 975.979 495.314 971.146 489.5 966.5C497.997 965.638 506.33 964.638 514.5 963.5Z" fill="#F7F6F6"/>
<path fill-rule="evenodd" clip-rule="evenodd" d="M560.5 963.5C571.539 964.281 582.539 965.448 593.5 967C588.167 971.667 582.833 976.333 577.5 981C563.577 983.243 557.91 977.41 560.5 963.5Z" fill="#F9F9F8"/>
</svg>
