<svg width="140" height="140" viewBox="0 0 1080 1080" fill="none" xmlns="http://www.w3.org/2000/svg">
<path fill-rule="evenodd" clip-rule="evenodd" d="M558.5 893.5C559.482 890.038 559.815 886.371 559.5 882.5C555.629 882.185 551.962 882.518 548.5 883.5C541.5 883.5 534.5 883.5 527.5 883.5C528.562 899.325 529.562 915.158 530.5 931C528.453 949.337 529.286 967.503 533 985.5C535.309 997.28 534.975 1008.95 532 1020.5C530.181 1025.34 526.681 1028.17 521.5 1029C508.218 1030.82 494.885 1031.49 481.5 1031C473.999 1031 467.832 1028.17 463 1022.5C460.931 1012.23 461.931 1002.23 466 992.5C470.199 981.769 475.199 971.436 481 961.5C481.5 933.835 481.667 906.169 481.5 878.5C472.222 877.315 463.055 875.648 454 873.5C453.571 825.01 456.071 776.677 461.5 728.5C457.248 728.725 454.581 726.892 453.5 723C456.682 703.224 459.349 683.391 461.5 663.5C460.5 663.5 459.5 663.5 458.5 663.5C452.702 689.183 449.868 715.183 450 741.5C451.494 750.127 452.661 758.794 453.5 767.5C453.31 772.93 452.476 778.263 451 783.5C448.928 788.143 445.428 789.643 440.5 788C438.263 785.97 436.763 783.47 436 780.5C432.626 802.218 423.96 804.885 410 788.5C409.333 787.167 408.667 785.833 408 784.5C405.192 769.112 406.526 754.112 412 739.5C413.76 709.313 416.26 679.313 419.5 649.5C416.528 647.694 413.695 645.694 411 643.5C415.692 620.103 424.692 598.436 438 578.5C441.833 573.333 446.333 568.833 451.5 565C472.65 554.338 494.983 547.838 518.5 545.5C518.5 543.5 518.5 541.5 518.5 539.5C480.725 530.867 448.559 512.533 422 484.5C407.878 467.86 398.378 448.86 393.5 427.5C378.892 432.794 366.725 429.461 357 417.5C346.359 399.94 345.692 381.94 355 363.5C359.797 356.018 366.63 352.018 375.5 351.5C371.513 342.276 369.013 332.61 368 322.5C365.197 289.657 369.864 257.99 382 227.5C392.132 203.035 409.299 185.535 433.5 175C436.623 174.794 439.623 174.127 442.5 173C448.318 166.846 454.985 161.846 462.5 158C471.443 154.189 480.443 150.689 489.5 147.5C478.673 128.919 477.839 109.919 487 90.5C505.88 57.3105 534.38 43.1438 572.5 48C600.049 50.5931 621.215 63.4264 636 86.5C645.147 111.135 642.314 134.302 627.5 156C636.047 152.681 645.047 151.681 654.5 153C655.833 154 655.833 155 654.5 156C648.833 156.333 643.167 156.667 637.5 157C634.215 157.759 631.215 159.092 628.5 161C640.261 166.714 651.927 172.714 663.5 179C689.425 196.266 705.925 220.1 713 250.5C721.223 283.854 720.057 316.854 709.5 349.5C729.078 351.245 739.911 361.911 742 381.5C744.071 393.261 742.071 404.261 736 414.5C726.597 427.808 714.097 432.141 698.5 427.5C683.289 477.216 651.289 511.383 602.5 530C593.09 533.874 583.423 536.874 573.5 539C572.577 541.041 572.244 543.208 572.5 545.5C596.828 548.496 619.494 556.329 640.5 569C659.243 590.812 670.909 615.812 675.5 644C671.251 645.919 668.251 648.919 666.5 653C670.633 681.355 673.466 709.855 675 738.5C679.476 751.83 681.143 765.497 680 779.5C679.75 782.754 678.75 785.754 677 788.5C673.5 790.667 670.667 793.5 668.5 797C664.051 800.402 659.884 800.235 656 796.5C653.584 791.754 651.917 786.754 651 781.5C649.623 783.754 648.123 785.92 646.5 788C640.531 789.71 636.697 787.543 635 781.5C632.929 770.444 633.262 759.444 636 748.5C637.525 719.798 635.025 691.465 628.5 663.5C627.167 663.5 625.833 663.5 624.5 663.5C626.955 682.277 628.955 701.111 630.5 720C630.333 722.833 630.167 725.667 630 728.5C628.301 729.406 626.467 729.739 624.5 729.5C630.205 776.988 633.038 824.654 633 872.5C624.281 874.872 615.447 876.872 606.5 878.5C604.882 905.815 604.382 933.148 605 960.5C614.412 975.327 621.078 991.327 625 1008.5C627.395 1019.55 623.228 1026.72 612.5 1030C596.465 1032.01 580.465 1031.68 564.5 1029C557.428 1026.4 553.594 1021.23 553 1013.5C551.856 1000.33 552.856 987.331 556 974.5C556.011 947.449 556.844 920.449 558.5 893.5Z" fill="#3C261F"/>
<path fill-rule="evenodd" clip-rule="evenodd" d="M611.5 156.5C611.196 155.85 610.863 155.183 610.5 154.5C619.31 143.358 622.476 130.691 620 116.5C611.994 81.7433 590.161 65.2433 554.5 67C508.843 75.1318 492.176 101.632 504.5 146.5C500.746 146.496 497.079 146.663 493.5 147C482.687 126.718 482.854 106.551 494 86.5C510.775 60.7789 534.608 48.9456 565.5 51C589.627 51.6987 609.794 60.8654 626 78.5C638.548 96.8483 640.881 116.515 633 137.5C630.28 144.609 626.78 151.275 622.5 157.5C618.74 158.598 615.073 158.265 611.5 156.5Z" fill="#654F47"/>
<path fill-rule="evenodd" clip-rule="evenodd" d="M611.5 156.5C609.421 156.029 607.421 155.363 605.5 154.5C615.046 143.995 618.546 131.662 616 117.5C606.589 80.024 582.755 65.1906 544.5 72.9999C513.988 80.8567 501.154 100.357 506 131.5C506.943 136.16 507.777 140.827 508.5 145.5C507.041 145.433 505.708 145.766 504.5 146.5C492.176 101.632 508.843 75.1317 554.5 66.9999C590.161 65.2432 611.994 81.7432 620 116.5C622.476 130.691 619.31 143.358 610.5 154.5C610.863 155.183 611.196 155.85 611.5 156.5Z" fill="#4E3831"/>
<path fill-rule="evenodd" clip-rule="evenodd" d="M605.5 154.5C600.879 153.285 596.213 152.285 591.5 151.5C591.196 150.85 590.863 150.183 590.5 149.5C598.827 138.528 601.993 126.195 600 112.5C597.55 107.716 594.05 103.883 589.5 101C576.1 95.0857 562.1 93.0857 547.5 95C535.409 98.4203 528.243 106.254 526 118.5C525.409 127.229 525.909 135.896 527.5 144.5C521.108 144.249 514.775 144.582 508.5 145.5C507.777 140.827 506.943 136.16 506 131.5C501.154 100.357 513.988 80.8568 544.5 73C582.755 65.1907 606.589 80.0241 616 117.5C618.546 131.662 615.046 143.995 605.5 154.5Z" fill="#654F47"/>
<path fill-rule="evenodd" clip-rule="evenodd" d="M591.5 151.5C588.345 151.01 585.345 150.344 582.5 149.5C584.39 149.703 585.89 149.037 587 147.5C594.995 137.522 597.995 126.188 596 113.5C589.267 104.138 580.1 99.3049 568.5 99C560.436 98.1367 552.436 98.47 544.5 100C534.521 105.125 529.521 113.292 529.5 124.5C530.094 131.182 530.761 137.849 531.5 144.5C530.167 144.5 528.833 144.5 527.5 144.5C525.909 135.896 525.409 127.229 526 118.5C528.243 106.254 535.409 98.4203 547.5 95C562.1 93.0857 576.1 95.0857 589.5 101C594.05 103.883 597.55 107.716 600 112.5C601.993 126.195 598.827 138.528 590.5 149.5C590.863 150.183 591.196 150.85 591.5 151.5Z" fill="#4D3831"/>
<path fill-rule="evenodd" clip-rule="evenodd" d="M582.5 149.5C565.587 146.975 548.587 145.309 531.5 144.5C530.761 137.849 530.094 131.182 529.5 124.5C529.521 113.292 534.521 105.125 544.5 100C552.436 98.47 560.436 98.1367 568.5 99C580.1 99.3049 589.267 104.138 596 113.5C597.995 126.188 594.995 137.522 587 147.5C585.89 149.037 584.39 149.703 582.5 149.5Z" fill="#654F47"/>
<path fill-rule="evenodd" clip-rule="evenodd" d="M521.5 148.5C566.051 147.082 608.384 155.915 648.5 175C667.11 184.944 682.61 198.444 695 215.5C713.11 250.5 718.777 287.5 712 326.5C709.656 337.197 706.323 347.531 702 357.5C698.115 352.52 695.781 346.853 695 340.5C692.331 333.498 687.831 327.998 681.5 324C666.307 319.331 653.807 310.831 644 298.5C643.333 297.5 643.333 296.5 644 295.5C647.746 292.71 651.579 290.043 655.5 287.5C656.62 288.833 657.953 289.333 659.5 289C660.833 286.667 662.167 284.333 663.5 282C666.432 281.047 669.432 280.547 672.5 280.5C672.643 278.738 672.309 277.071 671.5 275.5C672.981 274.52 674.315 273.353 675.5 272C677.464 271.376 679.131 271.876 680.5 273.5C682.526 271.295 684.192 268.795 685.5 266C688.432 265.047 691.432 264.547 694.5 264.5C694.554 261.033 693.054 258.366 690 256.5C690.262 252.925 690.095 249.425 689.5 246C686.388 246.543 683.388 247.71 680.5 249.5C672.279 243.201 669.446 245.201 672 255.5C668.858 260.123 664.691 263.457 659.5 265.5C656.612 263.71 653.612 262.543 650.5 262C649.778 265.102 649.611 268.268 650 271.5C644.619 278.603 638.119 284.436 630.5 289C594.884 290.916 560.217 286.25 526.5 275C496.65 263.134 472.817 243.967 455 217.5C451.024 234.762 445.357 251.762 438 268.5C428.966 285.54 416.966 300.207 402 312.5C398.294 316.58 395.627 321.246 394 326.5C394.438 336.58 392.771 346.246 389 355.5C387.806 357.525 386.306 357.859 384.5 356.5C377.895 347.191 373.728 336.857 372 325.5C369.045 292.804 373.378 261.138 385 230.5C392.463 213.05 403.63 198.55 418.5 187C426.503 181.837 435.169 178.504 444.5 177C455.4 165.213 468.733 157.547 484.5 154C496.84 151.158 509.173 149.324 521.5 148.5Z" fill="#654F47"/>
<path fill-rule="evenodd" clip-rule="evenodd" d="M473.5 178.5C479.842 178.334 486.175 178.5 492.5 179C493.337 180.011 493.67 181.178 493.5 182.5C479.151 180.118 466.151 183.118 454.5 191.5C453.28 191.113 452.613 190.28 452.5 189C458.475 183.346 465.475 179.846 473.5 178.5Z" fill="#4D3831"/>
<path fill-rule="evenodd" clip-rule="evenodd" d="M439.5 198.5C440.873 198.343 442.207 198.51 443.5 199C444.833 200 444.833 201 443.5 202C434.568 204.299 427.568 209.299 422.5 217C421.216 217.684 420.049 217.517 419 216.5C420.51 211.948 423.343 208.114 427.5 205C431.434 202.536 435.434 200.369 439.5 198.5Z" fill="#4E3931"/>
<path fill-rule="evenodd" clip-rule="evenodd" d="M455.5 229.5C464.949 253.211 480.616 271.711 502.5 285C516.279 292.278 530.946 295.778 546.5 295.5C546.5 294.5 546.5 293.5 546.5 292.5C507.121 290.105 479.621 271.105 464 235.5C485.613 260.236 512.446 276.736 544.5 285C572.108 291.54 600.108 294.54 628.5 294C630.167 296.333 631.833 298.667 633.5 301C635.585 301.529 637.418 301.029 639 299.5C643.478 305.311 648.645 310.478 654.5 315C662.658 320.28 671.325 324.613 680.5 328C688.886 334.77 693.719 343.603 695 354.5C696.822 357.974 698.989 361.14 701.5 364C703.005 458.001 658.005 515.667 566.5 537C509.364 541.174 461.53 522.007 423 479.5C406.991 458.808 396.991 435.475 393 409.5C391.999 394.15 390.832 378.817 389.5 363.5C392.527 358.264 394.694 352.598 396 346.5C396.417 338.74 397.417 331.073 399 323.5C400 321.833 401 320.167 402 318.5C430.051 295.08 447.884 265.413 455.5 229.5Z" fill="#FDD7C6"/>
<path fill-rule="evenodd" clip-rule="evenodd" d="M676.5 251.5C679.278 253.758 682.278 254.091 685.5 252.5C684.875 255.97 685.875 258.804 688.5 261C684.816 260.761 682.149 262.261 680.5 265.5C678.759 262.409 676.093 260.742 672.5 260.5C676.007 258.539 677.34 255.539 676.5 251.5Z" fill="#C4C3C3"/>
<path fill-rule="evenodd" clip-rule="evenodd" d="M669.5 264.5C671.5 264.5 673.5 264.5 675.5 264.5C674.655 268.353 672.321 271.019 668.5 272.5C667.102 269.565 667.435 266.898 669.5 264.5Z" fill="#807F7F"/>
<path fill-rule="evenodd" clip-rule="evenodd" d="M654.5 268.5C657.2 269.516 659.866 269.516 662.5 268.5C662.85 271.862 664.184 274.695 666.5 277C664.833 277.333 663.167 277.667 661.5 278C660.624 279.586 659.624 281.086 658.5 282.5C657.4 279.067 655.067 277.067 651.5 276.5C653.986 274.422 654.986 271.755 654.5 268.5Z" fill="#C5C4C3"/>
<path fill-rule="evenodd" clip-rule="evenodd" d="M647.5 280.5C649.5 280.833 651.5 281.167 653.5 281.5C653.719 282.675 653.386 283.675 652.5 284.5C647.071 288.628 641.571 292.628 636 296.5C634.606 295.387 633.439 294.053 632.5 292.5C637.752 288.721 642.752 284.721 647.5 280.5Z" fill="#838382"/>
<path fill-rule="evenodd" clip-rule="evenodd" d="M464.5 310.5C477.755 309.298 490.422 311.465 502.5 317C503.337 318.011 503.67 319.178 503.5 320.5C497.773 319.315 492.106 317.815 486.5 316C478.142 314.201 469.809 314.201 461.5 316C455.505 318.003 449.838 320.503 444.5 323.5C445.06 320.003 447.06 317.503 450.5 316C455.159 313.842 459.825 312.009 464.5 310.5Z" fill="#3E271F"/>
<path fill-rule="evenodd" clip-rule="evenodd" d="M603.5 314.5C611.174 314.334 618.841 314.5 626.5 315C633.835 316.5 640.168 319.833 645.5 325C644.892 325.87 644.059 326.37 643 326.5C625.062 316.587 606.728 315.92 588 324.5C584.88 323.407 584.713 321.907 587.5 320C592.851 317.846 598.184 316.013 603.5 314.5Z" fill="#3F2720"/>
<path fill-rule="evenodd" clip-rule="evenodd" d="M501.5 380.5C492.735 357.842 477.069 351.675 454.5 362C441.807 371.901 437.64 384.735 442 400.5C442.889 405.398 444.389 410.064 446.5 414.5C445.749 415.573 444.749 415.74 443.5 415C442.126 412.417 440.626 409.917 439 407.5C434.85 409.002 430.85 408.669 427 406.5C426.388 404.763 427.054 403.763 429 403.5C432.105 404.367 435.272 404.701 438.5 404.5C433.587 387.991 436.921 373.491 448.5 361C461.115 352.692 474.448 351.358 488.5 357C494.74 360.642 499.24 365.809 502 372.5C502.722 375.261 502.555 377.927 501.5 380.5Z" fill="#3C261E"/>
<path fill-rule="evenodd" clip-rule="evenodd" d="M642.5 414.5C647.101 404.326 648.934 393.659 648 382.5C645.176 369.009 637.009 360.842 623.5 358C605.458 354.917 594.124 362.084 589.5 379.5C588.5 379.5 587.5 379.5 586.5 379.5C587.967 365.527 595.634 357.027 609.5 354C635.437 351.278 649.77 362.778 652.5 388.5C652.221 393.891 651.554 399.225 650.5 404.5C653.728 404.701 656.895 404.367 660 403.5C661.946 403.763 662.612 404.763 662 406.5C657.679 408.007 653.179 409.007 648.5 409.5C647.627 411.413 646.627 413.247 645.5 415C644.251 415.74 643.251 415.573 642.5 414.5Z" fill="#3D261F"/>
<path fill-rule="evenodd" clip-rule="evenodd" d="M703.5 393.5C710.508 393.666 717.508 393.5 724.5 393C725.337 391.989 725.67 390.822 725.5 389.5C718.5 389.5 711.5 389.5 704.5 389.5C704.5 386.167 704.5 382.833 704.5 379.5C703.99 371.295 704.99 363.295 707.5 355.5C725.985 354.138 736.152 362.805 738 381.5C740.582 396.358 736.748 409.191 726.5 420C718.53 425.533 709.863 426.866 700.5 424C699.903 422.938 699.57 421.772 699.5 420.5C701.41 411.545 702.743 402.545 703.5 393.5Z" fill="#FBD4C4"/>
<path fill-rule="evenodd" clip-rule="evenodd" d="M387.5 389.5C380.167 389.5 372.833 389.5 365.5 389.5C365.33 390.822 365.663 391.989 366.5 393C373.492 393.5 380.492 393.666 387.5 393.5C388.668 403.509 389.835 413.509 391 423.5C371.948 428.472 359.615 421.472 354 402.5C351.164 389.704 352.497 377.37 358 365.5C362.707 359.396 368.874 355.729 376.5 354.5C379.444 357.264 382.61 359.931 386 362.5C386.559 371.501 387.059 380.501 387.5 389.5Z" fill="#FAD4C3"/>
<path fill-rule="evenodd" clip-rule="evenodd" d="M501.5 380.5C500.816 410 485.816 422.167 456.5 417C453.053 416.471 449.719 415.638 446.5 414.5C444.389 410.064 442.889 405.398 442 400.5C437.64 384.735 441.807 371.901 454.5 362C477.069 351.675 492.735 357.842 501.5 380.5Z" fill="#F8F7F6"/>
<path fill-rule="evenodd" clip-rule="evenodd" d="M642.5 414.5C631.686 417.326 620.686 418.159 609.5 417C594.684 411.908 587.351 401.408 587.5 385.5C587.676 383.215 588.343 381.215 589.5 379.5C594.124 362.084 605.458 354.917 623.5 358C637.009 360.842 645.176 369.009 648 382.5C648.934 393.659 647.101 404.326 642.5 414.5Z" fill="#F9F8F7"/>
<path fill-rule="evenodd" clip-rule="evenodd" d="M464.5 364.5C488.636 365.079 497.469 377.079 491 400.5C483.182 413.831 472.349 416.997 458.5 410C449.165 399.955 446.999 388.455 452 375.5C455.124 370.536 459.291 366.87 464.5 364.5Z" fill="#351F18"/>
<path fill-rule="evenodd" clip-rule="evenodd" d="M615.5 364.5C631.142 364.809 639.142 372.809 639.5 388.5C638.308 408.893 627.975 416.727 608.5 412C594.727 401.663 591.894 388.83 600 373.5C603.991 368.261 609.158 365.261 615.5 364.5Z" fill="#362019"/>
<path fill-rule="evenodd" clip-rule="evenodd" d="M460.5 372.5C467.214 372.05 470.38 375.05 470 381.5C465.585 386.726 461.251 386.726 457 381.5C455.98 377.553 457.147 374.553 460.5 372.5Z" fill="#F2F1F0"/>
<path fill-rule="evenodd" clip-rule="evenodd" d="M606.5 372.5C612.093 371.451 615.426 373.617 616.5 379C615.233 384.286 611.9 386.286 606.5 385C602.547 380.835 602.547 376.669 606.5 372.5Z" fill="#F3F2F2"/>
<path fill-rule="evenodd" clip-rule="evenodd" d="M387.5 389.5C387.5 390.833 387.5 392.167 387.5 393.5C380.492 393.666 373.492 393.5 366.5 393C365.663 391.989 365.33 390.822 365.5 389.5C372.833 389.5 380.167 389.5 387.5 389.5Z" fill="#D79A89"/>
<path fill-rule="evenodd" clip-rule="evenodd" d="M704.5 379.5C704.5 382.833 704.5 386.167 704.5 389.5C711.5 389.5 718.5 389.5 725.5 389.5C725.67 390.822 725.337 391.989 724.5 393C717.508 393.5 710.508 393.666 703.5 393.5C703.181 388.637 703.514 383.97 704.5 379.5Z" fill="#D69B8A"/>
<path fill-rule="evenodd" clip-rule="evenodd" d="M534.5 429.5C535.822 429.33 536.989 429.663 538 430.5C538.878 433.215 540.378 435.549 542.5 437.5C540.287 439.719 538.12 439.386 536 436.5C534.798 434.323 534.298 431.989 534.5 429.5Z" fill="#3E261F"/>
<path fill-rule="evenodd" clip-rule="evenodd" d="M448.5 433.5C457.77 432.89 465.936 435.556 473 441.5C480.58 451.381 480.08 460.881 471.5 470C457.374 479.541 444.208 478.375 432 466.5C425.19 449.45 430.69 438.45 448.5 433.5Z" fill="#FAC4B1"/>
<path fill-rule="evenodd" clip-rule="evenodd" d="M626.5 434.5C636.228 433.16 645.228 434.993 653.5 440C663.768 452.303 662.435 463.303 649.5 473C636.663 479.033 625.163 477.199 615 467.5C608.523 458.166 609.023 449.333 616.5 441C619.728 438.56 623.061 436.394 626.5 434.5Z" fill="#FAC4B1"/>
<path fill-rule="evenodd" clip-rule="evenodd" d="M515.5 468.5C519.788 472.319 524.788 475.152 530.5 477C541.754 479.577 552.754 478.91 563.5 475C566.896 473.677 569.563 471.511 571.5 468.5C572.72 468.887 573.387 469.72 573.5 471C570.342 476.263 565.675 479.596 559.5 481C547.632 483.47 535.966 482.804 524.5 479C520.726 477.698 517.559 475.531 515 472.5C514.421 471.072 514.588 469.738 515.5 468.5Z" fill="#3F2820"/>
<path fill-rule="evenodd" clip-rule="evenodd" d="M529.5 487.5C532.266 490.083 535.266 492.583 538.5 495C542.5 495.333 546.5 495.667 550.5 496C551.337 497.011 551.67 498.178 551.5 499.5C545.238 500.128 539.238 499.295 533.5 497C529.73 494.651 528.397 491.485 529.5 487.5Z" fill="#412A22"/>
<path fill-rule="evenodd" clip-rule="evenodd" d="M522.5 540.5C537.819 543.143 553.153 543.143 568.5 540.5C568.896 543.044 568.229 545.211 566.5 547C559.366 551.303 552.366 555.803 545.5 560.5C538.167 555.833 530.833 551.167 523.5 546.5C522.534 544.604 522.201 542.604 522.5 540.5Z" fill="#F7D1C0"/>
<path fill-rule="evenodd" clip-rule="evenodd" d="M509.5 549.5C513.514 549.334 517.514 549.501 521.5 550C528.599 553.946 535.266 558.446 541.5 563.5C540.833 564.833 539.833 565.833 538.5 566.5C533.609 560.89 527.609 557.057 520.5 555C516.219 553.542 513.053 554.708 511 558.5C509.833 556.167 508.667 553.833 507.5 551.5C508.243 550.818 508.909 550.151 509.5 549.5Z" fill="#DCE1E8"/>
<path fill-rule="evenodd" clip-rule="evenodd" d="M568.5 549.5C573.214 549.353 577.881 549.686 582.5 550.5C582.39 553.386 581.223 555.72 579 557.5C567.618 553.851 558.285 556.851 551 566.5C549.024 565.457 548.524 564.123 549.5 562.5C556.149 558.499 562.482 554.166 568.5 549.5Z" fill="#DCE1E8"/>
<path fill-rule="evenodd" clip-rule="evenodd" d="M546.5 590.5C547.167 592.5 547.833 594.5 548.5 596.5C549.017 604.577 550.184 612.577 552 620.5C555.591 620.528 558.591 618.861 561 615.5C563 612.833 565 610.167 567 607.5C567.407 603.871 566.907 600.371 565.5 597C579.573 599.265 584.906 593.599 581.5 580C583.843 575.971 585.177 571.637 585.5 567C584.365 561.839 584.365 556.672 585.5 551.5C600.793 554.765 615.46 559.932 629.5 567C630.022 567.561 630.355 568.228 630.5 569C625.922 587.479 621.422 605.979 617 624.5C616.667 621.167 616.333 617.833 616 614.5C615.5 614 615 613.5 614.5 613C600.301 610.595 585.967 609.928 571.5 611C569.899 611.273 568.399 611.773 567 612.5C565.921 615.712 565.421 619.045 565.5 622.5C566.037 633.571 567.203 644.571 569 655.5C583.328 659.777 597.828 660.444 612.5 657.5C613.981 651.574 615.148 645.574 616 639.5C621.52 667.928 625.02 696.595 626.5 725.5C603.706 730.112 580.706 731.779 557.5 730.5C554 722.167 550.5 713.833 547 705.5C545 701.5 543 701.5 541 705.5C537.833 713.833 534.667 722.167 531.5 730.5C510.314 732.462 489.314 731.295 468.5 727C464.989 726.33 461.656 725.163 458.5 723.5C461.409 692.961 465.409 662.461 470.5 632C466.053 612.148 461.553 592.315 457 572.5C456.192 570.421 456.359 568.421 457.5 566.5C471.885 560.705 486.552 555.705 501.5 551.5C507.049 556.36 509.049 562.36 507.5 569.5C507.889 573.334 508.889 577.001 510.5 580.5C507.326 590.406 510.659 596.406 520.5 598.5C520.103 610.444 525.77 617.778 537.5 620.5C538.175 616.643 539.342 612.977 541 609.5C542.444 611.155 544.278 611.822 546.5 611.5C546.66 609.801 546.494 608.134 546 606.5C544.667 605.167 543.333 605.167 542 606.5C542.096 601.191 542.262 595.858 542.5 590.5C543.833 590.5 545.167 590.5 546.5 590.5Z" fill="#E6EDF5"/>
<path fill-rule="evenodd" clip-rule="evenodd" d="M515.5 558.5C524.391 559.028 531.225 563.028 536 570.5C536.494 572.134 536.66 573.801 536.5 575.5C532.785 575.577 529.119 575.244 525.5 574.5C525.5 575.833 525.5 577.167 525.5 578.5C537.347 579.013 539.347 583.513 531.5 592C526.019 594.984 520.519 595.151 515 592.5C512.939 588.419 513.106 584.419 515.5 580.5C510.246 573.103 510.246 565.77 515.5 558.5Z" fill="#7FB4CB"/>
<path fill-rule="evenodd" clip-rule="evenodd" d="M567.5 559.5C572.606 558.925 577.106 560.259 581 563.5C581.707 569.055 580.541 574.221 577.5 579C581.269 591.231 576.936 595.565 564.5 592C559.581 591.067 555.748 588.567 553 584.5C552.34 578.981 554.674 577.315 560 579.5C562.965 578.278 563.132 576.778 560.5 575C557.901 574.231 555.401 574.398 553 575.5C552.682 571.295 554.182 567.795 557.5 565C560.767 562.87 564.1 561.037 567.5 559.5Z" fill="#7FB4CB"/>
<path fill-rule="evenodd" clip-rule="evenodd" d="M633.5 569.5C637.067 571.557 640.234 574.223 643 577.5C654.627 592.843 663.127 609.843 668.5 628.5C653.937 637.611 638.27 644.278 621.5 648.5C619.947 641.579 619.447 634.579 620 627.5C625.251 608.322 629.751 588.989 633.5 569.5Z" fill="#E5EBF3"/>
<path fill-rule="evenodd" clip-rule="evenodd" d="M451.5 569.5C456.86 589.947 461.86 610.613 466.5 631.5C465.102 637.083 464.435 642.75 464.5 648.5C448.848 644.01 433.848 637.843 419.5 630C424.189 606.794 434.855 586.628 451.5 569.5Z" fill="#E5ECF3"/>
<path fill-rule="evenodd" clip-rule="evenodd" d="M541.5 570.5C547.25 569.647 549.583 572.147 548.5 578C549.954 583.68 547.954 586.347 542.5 586C541.333 585.5 540.5 584.667 540 583.5C539.151 578.974 539.651 574.64 541.5 570.5Z" fill="#7FB3C9"/>
<path fill-rule="evenodd" clip-rule="evenodd" d="M551.5 589.5C565.55 596.473 566.717 605.139 555 615.5C553.131 606.92 551.965 598.253 551.5 589.5Z" fill="#7DAFC5"/>
<path fill-rule="evenodd" clip-rule="evenodd" d="M537.5 591.5C538.647 595.339 538.647 599.339 537.5 603.5C537.083 607.847 535.75 611.847 533.5 615.5C528.636 612.499 525.636 608.333 524.5 603C524.833 601.5 525.167 600 525.5 598.5C530.188 597.162 534.188 594.829 537.5 591.5Z" fill="#80B5CC"/>
<path fill-rule="evenodd" clip-rule="evenodd" d="M546.5 590.5C546.56 589.957 546.893 589.624 547.5 589.5C548.474 591.743 548.808 594.076 548.5 596.5C547.833 594.5 547.167 592.5 546.5 590.5Z" fill="#847B7B"/>
<path fill-rule="evenodd" clip-rule="evenodd" d="M573.5 614.5C586.581 614.098 599.581 614.764 612.5 616.5C612.5 618.167 612.5 619.833 612.5 621.5C598.536 620.552 584.536 620.219 570.5 620.5C570.5 618.833 570.5 617.167 570.5 615.5C571.791 615.737 572.791 615.404 573.5 614.5Z" fill="#7CADC3"/>
<path fill-rule="evenodd" clip-rule="evenodd" d="M574.5 624.5C587.181 624.405 599.848 624.739 612.5 625.5C612.99 635.019 611.99 644.353 609.5 653.5C597.208 655.817 584.874 655.817 572.5 653.5C571.311 645.886 570.645 638.219 570.5 630.5C570.5 628.833 570.5 627.167 570.5 625.5C572.099 625.768 573.432 625.434 574.5 624.5Z" fill="#E5EBF3"/>
<path fill-rule="evenodd" clip-rule="evenodd" d="M574.5 624.5C573.432 625.434 572.099 625.768 570.5 625.5C570.5 627.167 570.5 628.833 570.5 630.5C569.539 628.735 569.205 626.735 569.5 624.5C571.167 624.5 572.833 624.5 574.5 624.5Z" fill="#908989"/>
<path fill-rule="evenodd" clip-rule="evenodd" d="M416.5 633.5C431.396 641.783 447.063 648.116 463.5 652.5C464.487 656.886 462.821 659.22 458.5 659.5C442.528 656.927 428.028 650.927 415 641.5C414.955 638.78 415.455 636.114 416.5 633.5Z" fill="#7FB3CA"/>
<path fill-rule="evenodd" clip-rule="evenodd" d="M668.5 633.5C670.555 635.234 671.888 637.567 672.5 640.5C658.174 651.725 641.841 658.058 623.5 659.5C622.667 657.248 622.667 655.081 623.5 653C639.419 648.316 654.419 641.816 668.5 633.5Z" fill="#7FB4CB"/>
<path fill-rule="evenodd" clip-rule="evenodd" d="M542.5 645.5C543.833 645.5 545.167 645.5 546.5 645.5C546.66 647.199 546.494 648.866 546 650.5C541.633 651.575 540.466 649.908 542.5 645.5Z" fill="#3D2721"/>
<path fill-rule="evenodd" clip-rule="evenodd" d="M424.5 652.5C433.887 657.629 443.887 660.962 454.5 662.5C448.566 688.84 445.733 715.507 446 742.5C449.251 755.405 449.918 768.405 448 781.5C446.395 784.274 444.228 784.94 441.5 783.5C440.568 780.47 439.235 777.637 437.5 775C435.299 774.175 433.466 774.675 432 776.5C432.533 783.425 430.7 789.592 426.5 795C422.82 795.682 420.32 794.182 419 790.5C418.288 781.378 418.622 772.378 420 763.5C419.586 763.043 419.086 762.709 418.5 762.5C417.194 763.912 416.36 765.579 416 767.5C414.892 774.115 414.225 780.782 414 787.5C412.748 785.999 411.748 784.332 411 782.5C409.509 767.782 411.176 753.449 416 739.5C417.232 710.305 420.066 681.305 424.5 652.5Z" fill="#FBD5C4"/>
<path fill-rule="evenodd" clip-rule="evenodd" d="M660.5 652.5C661.931 652.881 662.764 653.881 663 655.5C667.099 683.348 669.765 711.348 671 739.5C675.742 752.799 677.409 766.465 676 780.5C675.751 783.177 674.751 785.51 673 787.5C672.775 780.782 672.108 774.115 671 767.5C670.888 764.553 669.388 763.22 666.5 763.5C668.306 772.043 668.806 780.71 668 789.5C664.946 797.016 661.279 797.349 657 790.5C655.874 786.251 655.208 781.918 655 777.5C653.815 775.156 651.982 774.323 649.5 775C647.818 777.69 646.318 780.523 645 783.5C642.956 784.772 641.122 784.439 639.5 782.5C638.846 780.885 638.346 779.218 638 777.5C639.807 756.586 640.474 735.586 640 714.5C638.972 697.61 636.472 680.943 632.5 664.5C632.818 663.353 633.484 662.519 634.5 662C643.88 660.488 652.546 657.321 660.5 652.5Z" fill="#FBD5C4"/>
<path fill-rule="evenodd" clip-rule="evenodd" d="M542.5 684.5C546.068 684.759 547.401 686.759 546.5 690.5C541.74 690.799 540.406 688.799 542.5 684.5Z" fill="#3D2822"/>
<path fill-rule="evenodd" clip-rule="evenodd" d="M543.5 708.5C547.596 717.199 551.596 726.032 555.5 735C577.329 735.729 598.995 734.229 620.5 730.5C625.491 777.022 628.491 823.688 629.5 870.5C572.46 882.22 515.46 882.22 458.5 870.5C457.394 847.164 457.561 823.83 459 800.5C460.931 777.122 463.098 753.789 465.5 730.5C487.915 735.195 510.582 736.695 533.5 735C537.33 726.342 540.663 717.509 543.5 708.5Z" fill="#81B8CF"/>
<path fill-rule="evenodd" clip-rule="evenodd" d="M525.5 917.5C525.5 923.833 525.5 930.167 525.5 936.5C523.833 936.5 522.167 936.5 520.5 936.5C508.833 936.5 497.167 936.5 485.5 936.5C485.5 917.5 485.5 898.5 485.5 879.5C498.089 881.271 510.755 882.271 523.5 882.5C524.868 894.119 525.534 905.785 525.5 917.5Z" fill="#FDD6C6"/>
<path fill-rule="evenodd" clip-rule="evenodd" d="M601.5 925.5C600.518 928.962 600.185 932.629 600.5 936.5C598.833 936.5 597.167 936.5 595.5 936.5C583.833 936.5 572.167 936.5 560.5 936.5C561.062 918.496 561.728 900.496 562.5 882.5C575.524 881.776 588.524 880.776 601.5 879.5C601.5 894.833 601.5 910.167 601.5 925.5Z" fill="#FCD6C5"/>
<path fill-rule="evenodd" clip-rule="evenodd" d="M548.5 883.5C551.962 882.518 555.629 882.185 559.5 882.5C559.815 886.371 559.482 890.038 558.5 893.5C558.5 890.167 558.5 886.833 558.5 883.5C555.167 883.5 551.833 883.5 548.5 883.5Z" fill="#837571"/>
<path fill-rule="evenodd" clip-rule="evenodd" d="M601.5 925.5C601.5 929.5 601.5 933.5 601.5 937.5C599.265 937.795 597.265 937.461 595.5 936.5C597.167 936.5 598.833 936.5 600.5 936.5C600.185 932.629 600.518 928.962 601.5 925.5Z" fill="#9C7D71"/>
<path fill-rule="evenodd" clip-rule="evenodd" d="M525.5 917.5C526.491 923.979 526.824 930.646 526.5 937.5C524.265 937.795 522.265 937.461 520.5 936.5C522.167 936.5 523.833 936.5 525.5 936.5C525.5 930.167 525.5 923.833 525.5 917.5Z" fill="#9F8074"/>
<path fill-rule="evenodd" clip-rule="evenodd" d="M497.5 940.5C506.854 940.39 516.188 940.723 525.5 941.5C525.5 950.5 525.5 959.5 525.5 968.5C521.272 968.987 517.105 969.653 513 970.5C506.862 960.348 498.028 956.681 486.5 959.5C485.504 953.537 485.171 947.537 485.5 941.5C489.702 941.817 493.702 941.483 497.5 940.5Z" fill="#FAFAFA"/>
<path fill-rule="evenodd" clip-rule="evenodd" d="M568.5 940.5C579.181 940.47 589.848 940.804 600.5 941.5C600.829 947.537 600.496 953.537 599.5 959.5C588.642 956.503 580.476 959.836 575 969.5C574.275 970.059 573.442 970.392 572.5 970.5C568.605 969.94 564.772 969.274 561 968.5C560.5 959.506 560.334 950.506 560.5 941.5C563.385 941.806 566.052 941.473 568.5 940.5Z" fill="#FBFAFA"/>
<path fill-rule="evenodd" clip-rule="evenodd" d="M491.5 969.5C488.5 968.833 485.5 968.167 482.5 967.5C483.023 965.292 484.356 963.792 486.5 963C494.611 961.371 501.444 963.538 507 969.5C509.052 971.52 508.885 973.187 506.5 974.5C501.817 971.828 496.817 970.161 491.5 969.5Z" fill="#F3F2F1"/>
<path fill-rule="evenodd" clip-rule="evenodd" d="M589.5 962.5C596.505 961.061 601.839 963.228 605.5 969C599.449 969.26 593.449 969.927 587.5 971C584.691 972.741 581.691 973.908 578.5 974.5C580.032 968.562 583.698 964.562 589.5 962.5Z" fill="#EEEDEC"/>
<path fill-rule="evenodd" clip-rule="evenodd" d="M482.5 967.5C485.5 968.167 488.5 968.833 491.5 969.5C488.102 969.82 484.768 969.487 481.5 968.5C481.624 967.893 481.957 967.56 482.5 967.5Z" fill="#ABA29F"/>
<path fill-rule="evenodd" clip-rule="evenodd" d="M479.5 973.5C488.358 972.402 496.692 973.902 504.5 978C505.464 980.647 504.964 983.147 503 985.5C498.361 982.173 493.195 980.006 487.5 979C483.833 978.667 480.167 978.333 476.5 978C477.386 976.385 478.386 974.885 479.5 973.5Z" fill="#F7F6F6"/>
<path fill-rule="evenodd" clip-rule="evenodd" d="M518.5 973.5C521.711 973.012 524.544 973.679 527 975.5C530.327 989.035 531.16 1002.7 529.5 1016.5C524.807 1016.54 520.141 1016.87 515.5 1017.5C514.119 1008.74 510.119 1001.4 503.5 995.5C504 994.5 504.5 993.5 505 992.5C506.878 994.043 508.378 995.876 509.5 998C510.448 998.483 511.448 998.649 512.5 998.5C512.17 994.979 510.67 991.979 508 989.5C507.262 986.788 507.929 984.455 510 982.5C511.512 985.857 514.012 987.857 517.5 988.5C516.192 984.344 514.192 980.511 511.5 977C511.645 976.228 511.978 975.561 512.5 975C514.708 974.809 516.708 974.309 518.5 973.5Z" fill="#FAF9F9"/>
<path fill-rule="evenodd" clip-rule="evenodd" d="M560.5 973.5C565.343 973.117 570.009 973.783 574.5 975.5C574.833 976.167 575.167 976.833 575.5 977.5C572.544 980.753 570.544 984.42 569.5 988.5C570.552 988.649 571.552 988.483 572.5 988C573.88 986.075 575.38 984.241 577 982.5C578.213 984.13 579.046 985.964 579.5 988C577.32 990.684 575.32 993.517 573.5 996.5C573.833 997.5 574.5 998.167 575.5 998.5C577.5 996.833 579.5 995.167 581.5 993.5C582.287 994.242 582.953 995.075 583.5 996C576.351 1001.34 572.351 1008.5 571.5 1017.5C566.819 1017.33 562.152 1017 557.5 1016.5C555.631 1001.94 556.631 987.604 560.5 973.5Z" fill="#F9F9F9"/>
<path fill-rule="evenodd" clip-rule="evenodd" d="M592.5 973.5C597.511 973.334 602.511 973.501 607.5 974C608.872 975.242 609.872 976.742 610.5 978.5C605.198 979.329 599.864 979.829 594.5 980C590.637 981.181 587.137 983.014 584 985.5C582.307 983.424 581.64 981.091 582 978.5C585.253 976.022 588.753 974.355 592.5 973.5Z" fill="#F5F4F3"/>
<path fill-rule="evenodd" clip-rule="evenodd" d="M475.5 982.5C485.156 981.413 493.823 983.746 501.5 989.5C500.754 990.736 500.421 992.07 500.5 993.5C490.972 991.31 481.305 989.977 471.5 989.5C472.1 986.651 473.433 984.318 475.5 982.5Z" fill="#F4F2F2"/>
<path fill-rule="evenodd" clip-rule="evenodd" d="M595.5 983.5C601.176 983.334 606.843 983.501 612.5 984C613.786 986.022 614.786 988.189 615.5 990.5C609.438 990.408 603.104 990.575 596.5 991C593.373 991.392 590.373 992.225 587.5 993.5C585.876 992.131 585.376 990.464 586 988.5C589.181 986.662 592.347 984.995 595.5 983.5Z" fill="#F8F7F7"/>
<path fill-rule="evenodd" clip-rule="evenodd" d="M472.5 994.5C482.138 994.292 491.471 995.792 500.5 999C506.376 1004.25 510.043 1010.75 511.5 1018.5C495.988 1021.07 480.988 1019.4 466.5 1013.5C465.855 1007.71 466.688 1002.04 469 996.5C470.302 995.915 471.469 995.249 472.5 994.5Z" fill="#FAF9F9"/>
<path fill-rule="evenodd" clip-rule="evenodd" d="M600.5 994.5C606.334 994.05 612.001 994.717 617.5 996.5C619.796 1001.94 621.129 1007.61 621.5 1013.5C616.559 1015.09 611.559 1016.59 606.5 1018C596.172 1018.5 585.839 1018.67 575.5 1018.5C577.638 1003.95 585.972 995.948 600.5 994.5Z" fill="#FBFBFB"/>
<path fill-rule="evenodd" clip-rule="evenodd" d="M465.5 1017.5C470.579 1019.94 475.913 1021.77 481.5 1023C496.522 1023.16 511.522 1022.83 526.5 1022C523.059 1024.79 519.059 1026.12 514.5 1026C503.183 1027.14 491.849 1027.47 480.5 1027C473.418 1026.81 468.418 1023.64 465.5 1017.5Z" fill="#F0EEEE"/>
<path fill-rule="evenodd" clip-rule="evenodd" d="M620.5 1017.5C621.525 1017.9 621.692 1018.56 621 1019.5C616.895 1024.1 611.728 1026.6 605.5 1027C592.086 1027.93 578.753 1027.26 565.5 1025C563.382 1024.74 561.716 1023.74 560.5 1022C574.129 1023.09 587.796 1023.42 601.5 1023C608.348 1022.54 614.682 1020.71 620.5 1017.5Z" fill="#F1EFEF"/>
</svg>
