<svg width="140" height="140" viewBox="0 0 1080 1080" fill="none" xmlns="http://www.w3.org/2000/svg">
<path fill-rule="evenodd" clip-rule="evenodd" d="M705.5 646.5C704.5 646.5 703.5 646.5 702.5 646.5C702.5 645.167 702.5 643.833 702.5 642.5C701.926 638.675 700.759 635.009 699 631.5C695.011 625.683 690.511 620.349 685.5 615.5C684.121 612.927 682.121 611.427 679.5 611C681.402 612.73 683.069 614.563 684.5 616.5C690.589 625.005 695.922 634.005 700.5 643.5C700.66 645.153 701.326 646.486 702.5 647.5C707.872 659.584 712.705 671.918 717 684.5C724.085 707.174 729.752 730.174 734 753.5C733.028 755.305 731.861 756.972 730.5 758.5C735.04 769.079 737.206 780.079 737 791.5C735.691 793.976 733.858 795.976 731.5 797.5C730.82 800.36 729.487 802.86 727.5 805C719.785 810.19 711.785 814.856 703.5 819C699.705 819.837 696.039 819.504 692.5 818C689.296 815.131 686.463 811.965 684 808.5C681.96 810.353 679.627 811.686 677 812.5C679.611 856.321 677.611 899.988 671 943.5C667.813 945.366 664.647 947.199 661.5 949C667.363 955.559 671.529 963.059 674 971.5C674.996 975.207 674.33 978.541 672 981.5C672.273 990.126 668.106 994.626 659.5 995C657.844 996.829 655.844 998.163 653.5 999C646.885 999.258 640.385 1000.09 634 1001.5C630.479 1001.92 627.479 1000.92 625 998.5C620.966 1000.97 616.799 1001.13 612.5 999C606.21 995.044 600.876 990.044 596.5 984C587.704 979.854 579.87 974.354 573 967.5C571.678 964.363 570.512 961.196 569.5 958C564.489 957.415 559.489 956.749 554.5 956C554 955.5 553.5 955 553 954.5C551.866 927.156 550.533 899.822 549 872.5C547.13 900.149 545.463 927.816 544 955.5C538.648 957.053 533.148 957.719 527.5 957.5C527.014 963.791 524.347 968.957 519.5 973C513.998 976.585 508.331 979.919 502.5 983C496.635 990.211 489.635 995.877 481.5 1000C478.208 1000.94 475.208 1000.44 472.5 998.5C467.862 1001.18 462.862 1002.02 457.5 1001C452.679 999.721 447.679 999.054 442.5 999C439.357 996.29 435.691 994.623 431.5 994C430 992.5 428.5 991 427 989.5C425.63 984.26 424.464 978.927 423.5 973.5C423.542 970.741 424.042 968.075 425 965.5C428.375 959.915 431.875 954.415 435.5 949C432.5 947.167 429.5 945.333 426.5 943.5C422.835 924.347 420.668 905.014 420 885.5C419.595 861.122 419.429 836.789 419.5 812.5C417.228 811.559 415.228 810.226 413.5 808.5C409.17 816.498 402.503 819.998 393.5 819C386.38 815.271 379.38 811.271 372.5 807C368.787 801.741 364.954 796.574 361 791.5C359.904 779.813 362.071 768.813 367.5 758.5C365.804 756.475 364.137 754.475 362.5 752.5C369.05 722.232 377.55 692.565 388 663.5C399.039 635.235 415.206 610.402 436.5 589C441.5 585.333 446.5 581.667 451.5 578C457.558 575.139 463.891 573.139 470.5 572C475.85 568.992 480.85 565.492 485.5 561.5C458.625 554.483 435.458 541.15 416 521.5C413.045 517.756 410.211 513.922 407.5 510C394.026 501.537 382.026 491.204 371.5 479C352.14 469.492 340.64 453.992 337 432.5C336.355 425.65 336.522 418.817 337.5 412C329.373 371.638 328.54 331.138 335 290.5C350.644 214.859 395.144 165.025 468.5 141C477.167 120.983 491.834 107.316 512.5 100C542.467 90.7419 571.467 93.0752 599.5 107C613.137 114.935 622.803 126.269 628.5 141C696.345 162.179 739.845 207.012 759 275.5C768.795 321.104 768.962 366.771 759.5 412.5C762.853 434.275 756.853 453.108 741.5 469C737.004 472.827 732.004 475.827 726.5 478C723.019 482.315 719.353 486.482 715.5 490.5C729.492 510.016 741.659 530.682 752 552.5C762.47 579.491 756.97 602.491 735.5 621.5C733.611 619.2 732.277 616.534 731.5 613.5C726.502 627.486 717.836 638.486 705.5 646.5Z" fill="#3B241D"/>
<path fill-rule="evenodd" clip-rule="evenodd" d="M532.5 98.5C561.157 94.7423 586.824 101.576 609.5 119C615.692 124.341 620.025 130.841 622.5 138.5C587.568 130.934 552.235 128.434 516.5 131C502.44 132.945 488.607 135.778 475 139.5C474.333 138.167 474.333 136.833 475 135.5C483.811 120.695 496.311 110.195 512.5 104C519.208 101.834 525.874 100.001 532.5 98.5Z" fill="#834C3D"/>
<path fill-rule="evenodd" clip-rule="evenodd" d="M520.5 134.5C560.389 131.684 599.389 136.184 637.5 148C704.839 174.012 745.339 222.512 759 293.5C762.883 322.407 763.55 351.407 761 380.5C759.958 388.549 758.624 396.549 757 404.5C753.721 398.953 749.721 393.953 745 389.5C751.14 347.562 746.473 306.895 731 267.5C706.271 217.835 666.938 187.168 613 175.5C612.517 176.448 612.351 177.448 612.5 178.5C685.638 196.805 728.471 243.138 741 317.5C744.58 341.235 744.247 364.901 740 388.5C729.833 403.834 721.499 420.167 715 437.5C714.667 426.167 714.333 414.833 714 403.5C713.571 393.213 710.904 383.546 706 374.5C703.833 371 701 368.167 697.5 366C691.995 363.276 686.328 360.943 680.5 359C642.485 349.534 603.819 344.701 564.5 344.5C561.862 321.477 557.362 298.81 551 276.5C548.216 273.716 546.549 274.383 546 278.5C539.937 300.188 535.437 322.188 532.5 344.5C494.203 344.66 456.536 349.16 419.5 358C400.371 361.454 388.871 372.62 385 391.5C382.97 406.417 381.97 421.417 382 436.5C374.959 419.417 366.626 403.084 357 387.5C349.134 340.405 356.134 295.738 378 253.5C402.864 214.335 438.031 189.502 483.5 179C484.38 177.644 484.714 176.144 484.5 174.5C417.263 190.571 374.429 231.905 356 298.5C353.688 308.393 352.021 318.393 351 328.5C350.238 348.883 350.572 369.216 352 389.5C347.952 393.88 344.285 398.546 341 403.5C339.169 397.686 337.836 391.686 337 385.5C329.945 338.087 334.945 292.087 352 247.5C376.926 193.581 418.093 158.748 475.5 143C490.44 139.086 505.44 136.253 520.5 134.5Z" fill="#834C3D"/>
<path fill-rule="evenodd" clip-rule="evenodd" d="M548.5 285.5C551.554 294.902 554.054 304.568 556 314.5C558.109 325.49 560.109 336.49 562 347.5C578.471 348.244 594.971 349.411 611.5 351C606.397 352.717 601.397 354.717 596.5 357C595.663 358.011 595.33 359.178 595.5 360.5C602.98 357.842 610.646 355.676 618.5 354C643.588 353.95 667.921 358.284 691.5 367C698.421 370.592 703.254 376.092 706 383.5C716.185 426.13 710.518 466.464 689 504.5C675.655 525.173 657.488 540.007 634.5 549C584.571 566.686 533.904 569.019 482.5 556C444.074 546.234 416.574 523.4 400 487.5C396.132 476.897 392.466 466.23 389 455.5C386.802 438.565 386.135 421.565 387 404.5C387.204 391.207 391.704 379.707 400.5 370C419.119 361.094 438.785 355.76 459.5 354C465.5 353.333 471.5 353.333 477.5 354C485.928 356.023 494.261 358.19 502.5 360.5C502.67 359.178 502.337 358.011 501.5 357C495.898 354.799 490.231 352.799 484.5 351C501.7 349.46 518.867 347.96 536 346.5C539.014 325.882 543.181 305.549 548.5 285.5Z" fill="#FED7C6"/>
<path fill-rule="evenodd" clip-rule="evenodd" d="M459.5 371.5C470.845 370.574 481.845 372.074 492.5 376C494.664 376.914 496.664 378.081 498.5 379.5C498.113 380.72 497.28 381.387 496 381.5C484.379 376.309 472.212 374.142 459.5 375C458.316 373.855 458.316 372.688 459.5 371.5Z" fill="#3C251E"/>
<path fill-rule="evenodd" clip-rule="evenodd" d="M621.5 371.5C626.844 371.334 632.177 371.501 637.5 372C638.337 373.011 638.67 374.178 638.5 375.5C625.023 374.808 612.023 376.808 599.5 381.5C599.626 378.405 601.293 376.572 604.5 376C610.087 373.688 615.754 372.188 621.5 371.5Z" fill="#3D261E"/>
<path fill-rule="evenodd" clip-rule="evenodd" d="M503.5 410.5C481.698 391.977 459.865 391.977 438 410.5C435.252 413.734 432.752 417.068 430.5 420.5C426.959 419.962 424.625 417.962 423.5 414.5C440.298 392.736 461.964 385.903 488.5 394C496.197 397.197 502.197 402.364 506.5 409.5C505.675 410.386 504.675 410.719 503.5 410.5Z" fill="#39231C"/>
<path fill-rule="evenodd" clip-rule="evenodd" d="M667.5 420.5C653.012 398.929 633.345 392.095 608.5 400C603.267 402.779 598.6 406.279 594.5 410.5C593.5 410.5 592.5 410.5 591.5 410.5C592.431 406.159 594.764 402.659 598.5 400C615.637 388.815 633.637 387.481 652.5 396C661.734 400.582 668.9 407.082 674 415.5C672.223 417.79 670.056 419.457 667.5 420.5Z" fill="#38221A"/>
<path fill-rule="evenodd" clip-rule="evenodd" d="M354.5 392.5C358.048 395.906 360.882 399.906 363 404.5C366.503 411.684 370.003 418.851 373.5 426C369.179 426.499 364.846 426.666 360.5 426.5C360.5 427.833 360.5 429.167 360.5 430.5C365.544 430.173 370.544 430.506 375.5 431.5C382.541 446.247 387.875 461.581 391.5 477.5C371.18 477.588 356.347 468.588 347 450.5C339.307 435.381 338.641 420.048 345 404.5C347.619 400.05 350.786 396.05 354.5 392.5Z" fill="#FBD5C4"/>
<path fill-rule="evenodd" clip-rule="evenodd" d="M741.5 392.5C754.573 403.55 759.407 417.55 756 434.5C751.419 456.744 738.253 470.911 716.5 477C712.789 477.825 709.122 477.659 705.5 476.5C709.865 461.1 715.365 446.1 722 431.5C726.749 430.695 731.582 430.195 736.5 430C737.337 428.989 737.67 427.822 737.5 426.5C733.116 426.826 728.783 426.492 724.5 425.5C729.399 414.034 735.065 403.034 741.5 392.5Z" fill="#FBD5C4"/>
<path fill-rule="evenodd" clip-rule="evenodd" d="M667.5 420.5C667.145 431.109 663.812 440.609 657.5 449C640.166 458.044 622.499 458.711 604.5 451C599.423 445.126 596.257 438.293 595 430.5C593.689 423.783 593.523 417.117 594.5 410.5C598.6 406.279 603.267 402.779 608.5 400C633.345 392.095 653.012 398.929 667.5 420.5Z" fill="#FAF9F9"/>
<path fill-rule="evenodd" clip-rule="evenodd" d="M503.5 410.5C504.282 423.421 501.782 435.754 496 447.5C494.062 450.106 491.562 451.939 488.5 453C472.877 458.217 457.544 457.55 442.5 451C435.023 443.44 430.689 434.273 429.5 423.5C429.685 422.416 430.018 421.416 430.5 420.5C432.752 417.068 435.252 413.734 438 410.5C459.865 391.977 481.698 391.977 503.5 410.5Z" fill="#F9F8F8"/>
<path fill-rule="evenodd" clip-rule="evenodd" d="M465.5 400.5C474.748 399.075 483.081 401.075 490.5 406.5C495.068 412.138 497.068 418.638 496.5 426C496.758 432.974 495.258 439.474 492 445.5C490.421 447.041 488.587 448.208 486.5 449C457.35 456.522 445.517 445.355 451 415.5C452.413 412.339 454.08 409.339 456 406.5C459.147 404.35 462.313 402.35 465.5 400.5Z" fill="#39231C"/>
<path fill-rule="evenodd" clip-rule="evenodd" d="M617.5 400.5C636.437 397.95 646.437 406.116 647.5 425C649.189 442.857 641.189 451.69 623.5 451.5C607.226 451.222 599.559 442.889 600.5 426.5C599.733 413.314 605.399 404.647 617.5 400.5Z" fill="#3B251E"/>
<path fill-rule="evenodd" clip-rule="evenodd" d="M467.5 404.5C473.971 403.345 479.471 405.011 484 409.5C485.291 414.562 483.458 418.062 478.5 420C474.044 420.867 469.711 420.534 465.5 419C459.947 413.366 460.613 408.533 467.5 404.5Z" fill="#F9F9F9"/>
<path fill-rule="evenodd" clip-rule="evenodd" d="M618.5 404.5C624.971 403.345 630.471 405.011 635 409.5C636.005 417.541 632.338 421.207 624 420.5C615.368 420.556 612.035 416.556 614 408.5C615.667 407.267 617.167 405.933 618.5 404.5Z" fill="#F8F8F8"/>
<path fill-rule="evenodd" clip-rule="evenodd" d="M488.5 410.5C491.729 414.702 493.062 419.536 492.5 425C493.548 444.267 484.548 451.6 465.5 447C460 445.5 456.5 442 455 436.5C454.333 429.833 454.333 423.167 455 416.5C455.667 415.167 456.333 413.833 457 412.5C459.109 420.469 464.276 424.469 472.5 424.5C482.561 425.1 487.894 420.434 488.5 410.5Z" fill="#583028"/>
<path fill-rule="evenodd" clip-rule="evenodd" d="M608.5 410.5C611.966 424.72 620.633 428.553 634.5 422C638.047 419.406 639.881 415.906 640 411.5C644.319 420.98 644.653 430.647 641 440.5C638.827 444.683 635.327 446.849 630.5 447C612.51 450.86 603.843 443.694 604.5 425.5C604.436 420.089 605.769 415.089 608.5 410.5Z" fill="#573028"/>
<path fill-rule="evenodd" clip-rule="evenodd" d="M546.5 450.5C547.833 450.5 549.167 450.5 550.5 450.5C550.292 452.92 550.626 455.253 551.5 457.5C549.981 460.064 548.481 460.064 547 457.5C546.503 455.19 546.337 452.857 546.5 450.5Z" fill="#D68684"/>
<path fill-rule="evenodd" clip-rule="evenodd" d="M435.5 461.5C446.671 461.167 457.337 463.334 467.5 468C476.039 472.567 478.873 479.401 476 488.5C472.323 492.423 467.823 494.923 462.5 496C455.167 496.667 447.833 496.667 440.5 496C433.885 495.449 429.052 492.282 426 486.5C424.544 480.903 424.211 475.237 425 469.5C427.263 465.054 430.763 462.388 435.5 461.5Z" fill="#FCACA7"/>
<path fill-rule="evenodd" clip-rule="evenodd" d="M651.5 461.5C672.258 461.101 678.425 470.435 670 489.5C663.081 495.224 655.081 497.558 646 496.5C637.786 497.326 630.286 495.493 623.5 491C619.709 485.288 619.542 479.455 623 473.5C631.213 466.306 640.713 462.306 651.5 461.5Z" fill="#FCACA7"/>
<path fill-rule="evenodd" clip-rule="evenodd" d="M378.5 481.5C378.56 480.957 378.893 480.624 379.5 480.5C384.113 481.279 388.78 481.779 393.5 482C395.747 487.997 398.414 493.83 401.5 499.5C401.167 499.833 400.833 500.167 400.5 500.5C392.557 494.892 385.224 488.558 378.5 481.5Z" fill="#7E493B"/>
<path fill-rule="evenodd" clip-rule="evenodd" d="M703.5 481.5C708.179 481.334 712.845 481.501 717.5 482C710.931 489.239 703.765 495.739 696 501.5C698.722 495.032 701.222 488.365 703.5 481.5Z" fill="#804A3C"/>
<path fill-rule="evenodd" clip-rule="evenodd" d="M711.5 493.5C724.952 510.357 736.452 528.69 746 548.5C755.897 569.726 754.563 590.06 742 609.5C740.333 611.167 738.667 612.833 737 614.5C735.289 612.044 733.956 609.377 733 606.5C731.951 605.483 730.784 605.316 729.5 606C726.016 619.978 718.683 631.478 707.5 640.5C699.318 622.287 686.651 608.12 669.5 598C659.184 585.846 646.517 577.18 631.5 572C626.659 567.99 621.992 563.823 617.5 559.5C640.84 552.587 661.34 540.92 679 524.5C682.807 519.059 686.973 513.892 691.5 509C698.638 504.352 705.305 499.185 711.5 493.5Z" fill="#834C3D"/>
<path fill-rule="evenodd" clip-rule="evenodd" d="M534.5 494.5C544.532 494.271 554.532 494.604 564.5 495.5C564.5 496.5 564.5 497.5 564.5 498.5C554.167 498.5 543.833 498.5 533.5 498.5C533.433 497.041 533.766 495.708 534.5 494.5Z" fill="#3A231C"/>
<path fill-rule="evenodd" clip-rule="evenodd" d="M490.5 562.5C494.188 562.781 497.855 563.281 501.5 564C515.401 582.292 529.901 600.125 545 617.5C545.667 618.5 545.667 619.5 545 620.5C539.04 628.128 532.707 635.462 526 642.5C505.825 622.003 488.325 599.503 473.5 575C479.59 571.301 485.257 567.134 490.5 562.5Z" fill="#302A37"/>
<path fill-rule="evenodd" clip-rule="evenodd" d="M602.5 562.5C604.199 562.34 605.866 562.506 607.5 563C612.833 567 618.167 571 623.5 575C609.377 600.123 591.877 622.623 571 642.5C558.242 641.677 545.409 641.177 532.5 641C554.21 615.625 575.544 589.959 596.5 564C598.708 563.809 600.708 563.309 602.5 562.5Z" fill="#302A37"/>
<path fill-rule="evenodd" clip-rule="evenodd" d="M508.5 565.5C519.103 567.15 529.77 568.15 540.5 568.5C556.894 568.028 573.227 567.194 589.5 566C576.369 582.962 562.703 599.462 548.5 615.5C534.669 599.137 521.336 582.471 508.5 565.5Z" fill="#FBD4C3"/>
<path fill-rule="evenodd" clip-rule="evenodd" d="M626.5 576.5C636.663 577.581 645.663 581.414 653.5 588C679.367 611.53 697.867 640.03 709 673.5C716.945 698.947 724.112 724.614 730.5 750.5C729.103 753.406 727.103 755.906 724.5 758C708.983 768.756 691.983 776.256 673.5 780.5C668.09 760.784 664.09 740.784 661.5 720.5C669.163 712.99 672.496 703.824 671.5 693C669.735 663.439 662.568 635.273 650 608.5C646.667 603.167 643.333 597.833 640 592.5C635.266 587.274 630.766 581.941 626.5 576.5Z" fill="#FCFCFC"/>
<path fill-rule="evenodd" clip-rule="evenodd" d="M465.5 576.5C467.288 576.215 468.955 576.548 470.5 577.5C456.915 591.267 446.748 607.267 440 625.5C430.915 650.403 426.249 676.07 426 702.5C427.486 709.331 430.653 715.165 435.5 720C433.127 740.357 429.794 760.524 425.5 780.5C403.7 776.963 384.534 767.963 368 753.5C373.4 720.243 382.4 687.909 395 656.5C406.504 630.335 422.67 607.502 443.5 588C450.316 582.98 457.649 579.146 465.5 576.5Z" fill="#FCFCFC"/>
<path fill-rule="evenodd" clip-rule="evenodd" d="M472.5 581.5C482.822 596.786 493.655 611.786 505 626.5C511.333 634.167 518.333 641.167 526 647.5C526.333 658.167 526.667 668.833 527 679.5C541.421 680.49 555.921 680.824 570.5 680.5C570.333 669.828 570.5 659.161 571 648.5C591.684 628.33 609.518 605.996 624.5 581.5C638.086 594.316 647.919 609.65 654 627.5C659.9 644.432 664.233 661.765 667 679.5C667.667 686.833 667.667 694.167 667 701.5C665.053 713.595 657.886 720.428 645.5 722C619.42 727.316 593.086 729.316 566.5 728C554.743 722.077 543.076 722.077 531.5 728C502.829 729.556 474.495 727.222 446.5 721C434.489 715.663 428.822 706.33 429.5 693C431.639 662.608 439.473 633.775 453 606.5C458.569 597.432 465.069 589.099 472.5 581.5Z" fill="#FDFDFD"/>
<path fill-rule="evenodd" clip-rule="evenodd" d="M685.5 615.5C684.833 615.5 684.5 615.833 684.5 616.5C683.069 614.563 681.402 612.73 679.5 611C682.121 611.427 684.121 612.927 685.5 615.5Z" fill="#9E9490"/>
<path fill-rule="evenodd" clip-rule="evenodd" d="M685.5 615.5C690.511 620.349 695.011 625.683 699 631.5C700.759 635.009 701.926 638.675 702.5 642.5C701.833 642.833 701.167 643.167 700.5 643.5C695.922 634.005 690.589 625.005 684.5 616.5C684.5 615.833 684.833 615.5 685.5 615.5Z" fill="#EBE9E8"/>
<path fill-rule="evenodd" clip-rule="evenodd" d="M530.5 645.5C542.5 645.5 554.5 645.5 566.5 645.5C566.5 655.833 566.5 666.167 566.5 676.5C554.5 676.5 542.5 676.5 530.5 676.5C530.5 666.167 530.5 655.833 530.5 645.5Z" fill="#302B37"/>
<path fill-rule="evenodd" clip-rule="evenodd" d="M702.5 642.5C702.5 643.833 702.5 645.167 702.5 646.5C703.5 646.5 704.5 646.5 705.5 646.5C704.791 647.404 703.791 647.737 702.5 647.5C701.326 646.486 700.66 645.153 700.5 643.5C701.167 643.167 701.833 642.833 702.5 642.5Z" fill="#998E8B"/>
<path fill-rule="evenodd" clip-rule="evenodd" d="M438.5 722.5C451.364 727.148 464.697 729.981 478.5 731C493.83 731.875 509.164 732.708 524.5 733.5C522.333 735.83 520.666 738.497 519.5 741.5C510.392 747.773 502.392 755.273 495.5 764C478.281 764.675 461.281 763.009 444.5 759C441.452 758.394 438.952 756.894 437 754.5C436.424 743.784 436.924 733.118 438.5 722.5Z" fill="#E75252"/>
<path fill-rule="evenodd" clip-rule="evenodd" d="M656.5 722.5C657.931 722.881 658.764 723.881 659 725.5C659.426 733.711 660.26 741.878 661.5 750C661.187 753.97 659.187 756.636 655.5 758C637.723 762.197 619.723 764.197 601.5 764C595.288 754.788 587.455 747.288 578 741.5C576.789 738.241 574.956 735.408 572.5 733C598.058 732.986 623.392 730.653 648.5 726C651.374 725.058 654.04 723.891 656.5 722.5Z" fill="#E75252"/>
<path fill-rule="evenodd" clip-rule="evenodd" d="M540.5 727.5C550.743 725.964 560.077 728.131 568.5 734C579.081 746.746 577.415 757.746 563.5 767C549.43 773.386 536.93 771.219 526 760.5C520.099 750.014 521.599 740.848 530.5 733C533.767 730.87 537.1 729.037 540.5 727.5Z" fill="#E75252"/>
<path fill-rule="evenodd" clip-rule="evenodd" d="M516.5 747.5C518.306 751.939 520.139 756.606 522 761.5C524.683 764.016 527.183 766.683 529.5 769.5C518.866 788.767 509.866 808.767 502.5 829.5C490.403 825.413 478.403 821.246 466.5 817C479.18 790.843 495.846 767.676 516.5 747.5Z" fill="#E75252"/>
<path fill-rule="evenodd" clip-rule="evenodd" d="M579.5 747.5C584.76 751.255 589.594 755.589 594 760.5C608.407 777.63 620.573 796.297 630.5 816.5C630.167 816.833 629.833 817.167 629.5 817.5C617.822 821.004 606.322 825.004 595 829.5C587.52 808.877 578.687 788.877 568.5 769.5C575.356 763.788 579.023 756.454 579.5 747.5Z" fill="#E75252"/>
<path fill-rule="evenodd" clip-rule="evenodd" d="M551.5 835.5C551.5 832.167 551.5 828.833 551.5 825.5C554.167 825.5 556.833 825.5 559.5 825.5C566.159 825.954 572.826 826.287 579.5 826.5C579.5 825.167 579.5 823.833 579.5 822.5C558.04 821.745 536.706 819.745 515.5 816.5C515.33 817.822 515.663 818.989 516.5 820C526.473 821.497 536.473 822.664 546.5 823.5C545.197 866.534 543.197 909.534 540.5 952.5C519.263 955.178 497.929 956.011 476.5 955C460.12 953.815 444.787 949.315 430.5 941.5C428.461 932.264 426.961 922.931 426 913.5C423.134 877.524 422.8 841.524 425 805.5C427.142 789.409 429.809 773.409 433 757.5C433.333 757.167 433.667 756.833 434 756.5C435.167 758.333 436.667 759.833 438.5 761C443.531 762.206 448.531 763.54 453.5 765C466.179 766.436 478.846 767.936 491.5 769.5C479.913 784.777 469.913 801.111 461.5 818.5C463.153 820.121 465.153 821.288 467.5 822C479.437 825.646 491.27 829.479 503 833.5C504.107 833.415 505.107 833.081 506 832.5C512.996 811.676 521.829 791.676 532.5 772.5C533 772.167 533.5 771.833 534 771.5C538.3 773.434 542.8 774.434 547.5 774.5C553.253 773.805 558.92 772.972 564.5 772C575.537 791.614 584.537 812.114 591.5 833.5C605.844 829.108 620.177 824.608 634.5 820C635.022 819.439 635.355 818.772 635.5 818C627.5 800.357 617.5 784.024 605.5 769C624.186 768.052 642.52 765.052 660.5 760C661.618 758.926 662.618 757.76 663.5 756.5C667.765 771.897 670.599 787.564 672 803.5C675.575 849.301 674.242 894.968 668 940.5C656.131 947.613 643.298 952.113 629.5 954C605.081 956.38 580.748 955.88 556.5 952.5C555.078 913.487 553.412 874.487 551.5 835.5Z" fill="#FDFDFD"/>
<path fill-rule="evenodd" clip-rule="evenodd" d="M388.5 794.5C388.141 799.749 387.141 804.749 385.5 809.5C383.248 809.084 381.748 807.751 381 805.5C380.501 799.843 380.334 794.176 380.5 788.5C379.178 788.33 378.011 788.663 377 789.5C376.828 794.202 376.328 798.868 375.5 803.5C373.528 802.695 372.028 801.361 371 799.5C370.594 793.472 370.594 787.472 371 781.5C370 780.167 369 780.167 368 781.5C367.055 785.114 366.388 788.781 366 792.5C364.466 788.289 364.133 783.956 365 779.5C366.2 773.404 367.7 767.404 369.5 761.5C379.632 767.734 390.298 773.234 401.5 778C408.624 780.781 415.958 782.614 423.5 783.5C423.398 791.964 422.398 800.297 420.5 808.5C418.132 807.631 416.632 805.965 416 803.5C415.39 800.173 414.89 796.839 414.5 793.5C413.167 793.5 411.833 793.5 410.5 793.5C410.816 797.525 410.983 801.525 411 805.5C408.872 808.63 406.372 811.463 403.5 814C400.241 815.728 396.908 815.894 393.5 814.5C393.167 813.833 392.833 813.167 392.5 812.5C391.581 806.206 391.247 799.873 391.5 793.5C390.209 793.263 389.209 793.596 388.5 794.5Z" fill="#FAD3C2"/>
<path fill-rule="evenodd" clip-rule="evenodd" d="M726.5 760.5C729.536 767.114 731.702 774.114 733 781.5C733.908 785.489 733.241 789.155 731 792.5C730.74 788.75 730.073 785.084 729 781.5C728.282 780.549 727.449 780.383 726.5 781C726.503 787.381 726.336 793.881 726 800.5C724.649 802.019 723.149 803.352 721.5 804.5C720.671 799.533 720.171 794.533 720 789.5C719.282 788.549 718.449 788.383 717.5 789C716.69 794.751 716.19 800.584 716 806.5C714.648 808.432 712.815 809.766 710.5 810.5C709.505 804.872 709.171 799.206 709.5 793.5C708.167 793.5 706.833 793.5 705.5 793.5C705.666 799.509 705.499 805.509 705 811.5C704.703 814.864 702.869 816.197 699.5 815.5C696.771 815.705 694.438 814.872 692.5 813C690.333 810.167 688.167 807.333 686 804.5C686.11 800.871 686.276 797.204 686.5 793.5C685.167 793.5 683.833 793.5 682.5 793.5C682.766 797.605 682.266 801.605 681 805.5C679.758 806.872 678.258 807.872 676.5 808.5C675.08 800.216 674.08 791.882 673.5 783.5C690.656 780.425 706.656 774.259 721.5 765C723.618 763.951 725.284 762.451 726.5 760.5Z" fill="#F9D3C2"/>
<path fill-rule="evenodd" clip-rule="evenodd" d="M388.5 794.5C388.5 799.833 388.5 805.167 388.5 810.5C387.209 810.737 386.209 810.404 385.5 809.5C387.141 804.749 388.141 799.749 388.5 794.5Z" fill="#97796D"/>
<path fill-rule="evenodd" clip-rule="evenodd" d="M559.5 825.5C556.833 825.5 554.167 825.5 551.5 825.5C551.5 828.833 551.5 832.167 551.5 835.5C550.518 832.038 550.185 828.371 550.5 824.5C553.713 824.19 556.713 824.523 559.5 825.5Z" fill="#ACA4A1"/>
<path fill-rule="evenodd" clip-rule="evenodd" d="M439.5 950.5C448.485 954.168 457.819 956.668 467.5 958C486.198 959.431 504.865 959.931 523.5 959.5C522.268 964.248 519.601 968.082 515.5 971C509.669 974.081 504.002 977.415 498.5 981C494.15 985.419 489.816 989.752 485.5 994C481.342 995.651 477.175 995.817 473 994.5C471.578 991.97 471.245 989.303 472 986.5C473.3 983.705 474.8 981.039 476.5 978.5C476.167 977.5 475.5 976.833 474.5 976.5C467.619 981.736 465.953 988.236 469.5 996C464.564 998.415 460.064 997.915 456 994.5C455.294 988.731 456.794 983.565 460.5 979C460.387 977.72 459.72 976.887 458.5 976.5C452.827 981.51 450.494 987.843 451.5 995.5C443.679 997.167 440.179 994.167 441 986.5C442.635 983.368 444.468 980.368 446.5 977.5C446.113 976.28 445.28 975.613 444 975.5C439.381 979.405 436.881 984.405 436.5 990.5C432.176 990.842 430.176 988.842 430.5 984.5C431.583 979.365 433.416 974.698 436 970.5C435.282 969.549 434.449 969.383 433.5 970C431.3 972.234 429.467 974.734 428 977.5C427.113 972.928 427.78 968.595 430 964.5C432.929 959.631 436.096 954.965 439.5 950.5Z" fill="#FBD4C3"/>
<path fill-rule="evenodd" clip-rule="evenodd" d="M655.5 950.5C658.044 951.468 660.211 953.135 662 955.5C664.936 960.373 667.603 965.373 670 970.5C670.667 973.167 670.667 975.833 670 978.5C668.333 975.833 666.667 973.167 665 970.5C663.989 969.663 662.822 969.33 661.5 969.5C661.343 970.873 661.51 972.207 662 973.5C664.898 976.63 666.732 980.297 667.5 984.5C666.984 988.022 664.984 990.355 661.5 991.5C660.511 986.518 658.677 981.852 656 977.5C654.89 975.963 653.39 975.297 651.5 975.5C651.343 976.873 651.51 978.207 652 979.5C655.932 983.032 657.265 987.365 656 992.5C653.087 995.373 649.587 996.706 645.5 996.5C647.017 988.587 644.85 981.92 639 976.5C638.056 977.263 637.556 978.263 637.5 979.5C638.649 981.797 639.815 984.13 641 986.5C642.507 996.322 638.507 999.656 629 996.5C630.186 993.348 630.519 990.015 630 986.5C628.587 983.339 626.92 980.339 625 977.5C623.989 976.663 622.822 976.33 621.5 976.5C622.401 980.316 623.901 983.983 626 987.5C625.523 995.667 621.356 998.167 613.5 995C607.865 990.367 602.532 985.367 597.5 980C590.238 976.121 583.405 971.621 577 966.5C576.069 964.541 575.236 962.541 574.5 960.5C592.844 959.814 611.177 958.98 629.5 958C638.67 956.825 647.337 954.325 655.5 950.5Z" fill="#F9D3C2"/>
</svg>
