<svg width="140" height="140" viewBox="0 0 1080 1080" fill="none" xmlns="http://www.w3.org/2000/svg">
<path fill-rule="evenodd" clip-rule="evenodd" d="M665.5 765.5C666.061 758.499 666.228 751.499 666 744.5C665.58 748.955 664.747 753.288 663.5 757.5C654.644 764.002 649.144 761.668 647 750.5C646.439 742.78 646.439 735.114 647 727.5C638.882 731.155 630.382 733.488 621.5 734.5C621.167 737 620.833 739.5 620.5 742C622.212 814.823 623.046 887.657 623 960.5C621.215 961.24 619.382 961.907 617.5 962.5C616.13 966.917 616.297 971.25 618 975.5C621 979.167 624 982.833 627 986.5C631.59 995.347 635.923 1004.35 640 1013.5C642.775 1021.44 643.108 1029.44 641 1037.5C638.766 1039.7 636.266 1041.53 633.5 1043C611.776 1046.33 590.109 1046 568.5 1042C565.05 1040.97 561.717 1039.64 558.5 1038C556.513 1036.68 555.346 1034.85 555 1032.5C554.042 1010.09 554.876 987.761 557.5 965.5C554.044 965.404 550.877 964.404 548 962.5C548.148 927.501 548.648 892.501 549.5 857.5C549.3 827.48 548.466 797.48 547 767.5C544 765.5 541 763.5 538 761.5C535.898 794.819 534.064 828.152 532.5 861.5C533.914 895.824 534.414 930.157 534 964.5C531.507 966.336 528.674 967.336 525.5 967.5C528.16 989.091 528.994 1010.76 528 1032.5C524.618 1037.78 519.784 1040.95 513.5 1042C491.88 1045.99 470.213 1046.32 448.5 1043C440.39 1038.94 437.557 1032.44 440 1023.5C445.042 1004.74 453.709 988.076 466 973.5C466.667 970.5 466.667 967.5 466 964.5C464.027 963.36 462.193 962.027 460.5 960.5C459.5 884.836 459.167 809.17 459.5 733.5C451.147 732.576 443.147 730.742 435.5 728C438.317 737.225 438.151 746.392 435 755.5C430.814 762.538 425.814 763.205 420 757.5C418.956 755.285 418.29 752.952 418 750.5C418.3 756.147 418.3 761.814 418 767.5C416.036 774.284 411.536 776.784 404.5 775C401.076 771.741 397.076 769.408 392.5 768C387.95 763.4 385.116 757.9 384 751.5C382.358 738.459 383.691 725.793 388 713.5C388.667 712.833 389.333 712.167 390 711.5C391.779 671.2 396.946 631.367 405.5 592C405.167 591.167 404.833 590.333 404.5 589.5C400.542 588.537 397.876 586.204 396.5 582.5C404.88 552.568 418.88 525.735 438.5 502C461.484 491.302 485.484 483.802 510.5 479.5C510.5 475.833 510.5 472.167 510.5 468.5C484.65 462.075 459.983 452.575 436.5 440C418.999 429.831 406.499 415.331 399 396.5C394.743 385.802 391.576 374.802 389.5 363.5C366.985 370.117 351.818 362.45 344 340.5C340.514 325.292 342.514 310.958 350 297.5C356.392 289.887 364.559 285.887 374.5 285.5C363.727 264.685 356.894 242.685 354 219.5C354.058 186.092 359.058 153.426 369 121.5C372.198 112.77 376.198 104.437 381 96.5C388.676 86.528 398.843 82.1947 411.5 83.5C421.205 64.6278 435.205 49.7944 453.5 39C464.82 34.148 476.654 32.3147 489 33.5C533.265 33.487 576.432 40.3204 618.5 54C675.475 75.6402 706.642 116.807 712 177.5C712.847 196.551 712.18 215.551 710 234.5C707.074 251.965 703.574 269.299 699.5 286.5C720.832 285.33 732.998 295.33 736 316.5C738.341 330.836 735.341 343.836 727 355.5C715.793 366.029 702.959 368.362 688.5 362.5C685.087 388.823 674.087 411.323 655.5 430C645.122 438.193 633.788 444.859 621.5 450C605.456 456.459 589.122 462.126 572.5 467C570.955 468.822 570.288 470.989 570.5 473.5C570.613 475.641 571.28 477.475 572.5 479C598.343 483.622 623.009 491.622 646.5 503C665.148 526.96 678.815 553.626 687.5 583C684.644 586.353 681.311 589.186 677.5 591.5C681.702 609.677 685.202 628.01 688 646.5C690.12 668.488 692.12 690.488 694 712.5C699.71 722.726 701.71 733.726 700 745.5C699.692 752.696 697.692 759.363 694 765.5C692.59 766.787 691.09 767.954 689.5 769C685.029 770.157 681.029 772.157 677.5 775C670.161 776.169 666.161 773.002 665.5 765.5Z" fill="#3B261F"/>
<path fill-rule="evenodd" clip-rule="evenodd" d="M474.5 37.5C512.934 37.0434 550.934 40.8768 588.5 49C674.437 69.6269 714.271 124.127 708 212.5C705.599 240.638 700.599 268.305 693 295.5C687.142 280.733 684.142 265.4 684 249.5C675.786 235.739 669.786 221.073 666 205.5C650.291 192.799 637.124 177.965 626.5 161C624.287 160.544 623.287 161.544 623.5 164C624.392 174.196 626.726 184.029 630.5 193.5C617.108 191.018 605.941 184.351 597 173.5C592.941 168.283 589.107 162.949 585.5 157.5C584.914 157.709 584.414 158.043 584 158.5C583.023 169.253 583.523 179.92 585.5 190.5C585.167 191.167 584.833 191.833 584.5 192.5C567.442 184.442 555.109 171.775 547.5 154.5C546.914 154.709 546.414 155.043 546 155.5C545.833 157.667 545.667 159.833 545.5 162C546.477 169.159 546.977 176.326 547 183.5C537.913 176.249 530.079 167.916 523.5 158.5C521.931 159.714 521.098 161.381 521 163.5C520.833 166.5 520.667 169.5 520.5 172.5C520.931 180.933 521.764 189.267 523 197.5C501.69 187.623 482.856 174.623 466.5 158.5C468.186 171.898 471.52 184.898 476.5 197.5C476 197.833 475.5 198.167 475 198.5C456.745 191.81 442.245 180.477 431.5 164.5C430.914 164.709 430.414 165.043 430 165.5C430.308 179.845 433.141 193.678 438.5 207C428.906 204.772 420.739 199.939 414 192.5C410.133 187.932 406.633 183.099 403.5 178C402.365 177.251 401.365 177.417 400.5 178.5C396.806 199.087 391.972 219.421 386 239.5C385.667 252.167 385.333 264.833 385 277.5C384.852 283.249 384.186 288.915 383 294.5C373.1 275.366 365.434 255.366 360 234.5C356.483 194.114 361.483 154.781 375 116.5C378.355 108.287 382.855 100.787 388.5 94C395.927 88.7244 404.26 86.3911 413.5 87C421.95 71.2163 433.284 57.883 447.5 47C455.929 41.8214 464.929 38.6548 474.5 37.5Z" fill="#4B413E"/>
<path fill-rule="evenodd" clip-rule="evenodd" d="M524.5 167.5C530.675 174.84 537.675 181.34 545.5 187C547.345 188.128 549.345 188.628 551.5 188.5C551.355 182.138 551.189 175.805 551 169.5C560.837 183.816 574.004 193.316 590.5 198C591.022 197.439 591.355 196.772 591.5 196C587.873 186.823 586.706 177.323 588 167.5C598.247 182.709 612.081 193.209 629.5 199C632.482 199.498 635.482 199.665 638.5 199.5C638.649 198.448 638.483 197.448 638 196.5C633.276 190.68 630.276 184.014 629 176.5C628.333 174.833 628.333 173.167 629 171.5C638.214 185.051 649.214 197.051 662 207.5C666.632 222.428 672.632 236.761 680 250.5C680.647 267.4 683.98 283.733 690 299.5C691.514 332.908 686.514 365.241 675 396.5C667.805 412.365 656.972 425.198 642.5 435C609.686 452.716 574.853 464.216 538 469.5C501.742 464.192 467.575 452.692 435.5 435C416.853 422.347 404.353 405.18 398 383.5C391.191 359.006 387.691 334.006 387.5 308.5C388.866 285.855 389.699 263.188 390 240.5C395.286 222.356 399.786 204.022 403.5 185.5C411.8 198.308 423.133 207.141 437.5 212C439.473 212.495 441.473 212.662 443.5 212.5C441.455 205.192 439.288 197.858 437 190.5C435.948 185.805 435.282 181.138 435 176.5C447.543 190.025 462.71 199.358 480.5 204.5C482 204.547 483 203.881 483.5 202.5C479.793 195.883 476.959 188.883 475 181.5C473.991 177.487 473.324 173.487 473 169.5C489.424 184.304 507.924 195.971 528.5 204.5C529.72 204.113 530.387 203.28 530.5 202C525.141 191.134 523.141 179.634 524.5 167.5Z" fill="#FED7C6"/>
<path fill-rule="evenodd" clip-rule="evenodd" d="M431.5 235.5C455.036 233.52 477.37 237.686 498.5 248C499.337 249.011 499.67 250.178 499.5 251.5C484.824 249.533 470.158 247.366 455.5 245C442.88 243.313 430.213 242.146 417.5 241.5C417.5 240.167 417.5 238.833 417.5 237.5C422.37 237.31 427.036 236.644 431.5 235.5Z" fill="#39221B"/>
<path fill-rule="evenodd" clip-rule="evenodd" d="M616.5 235.5C629.892 235.236 643.225 235.902 656.5 237.5C656.5 238.833 656.5 240.167 656.5 241.5C628.993 243.403 601.66 246.737 574.5 251.5C574.33 250.178 574.663 249.011 575.5 248C588.462 241.249 602.129 237.082 616.5 235.5Z" fill="#372119"/>
<path fill-rule="evenodd" clip-rule="evenodd" d="M383.5 320.5C383.5 322.5 383.5 324.5 383.5 326.5C375.505 326.065 367.505 325.731 359.5 325.5C359.33 326.822 359.663 327.989 360.5 329C368.493 329.5 376.493 329.666 384.5 329.5C385.833 339.497 387.166 349.497 388.5 359.5C366.492 365.662 352.659 357.662 347 335.5C344.746 321.428 347.579 308.595 355.5 297C358.502 294.497 361.835 292.497 365.5 291C369.423 290.207 373.256 290.374 377 291.5C382.983 300.267 385.15 309.934 383.5 320.5Z" fill="#FCD5C4"/>
<path fill-rule="evenodd" clip-rule="evenodd" d="M496.5 304.5C490.404 301.413 484.07 299.246 477.5 298C479.041 299.579 480.208 301.413 481 303.5C482.379 310.55 481.212 317.05 477.5 323C468.128 328.578 458.128 329.911 447.5 327C436.288 320.588 433.454 311.422 439 299.5C443.698 295.779 442.864 294.613 436.5 296C431.148 297.504 425.815 299.004 420.5 300.5C419.119 298.726 419.452 297.226 421.5 296C447.948 287.226 473.614 289.06 498.5 301.5C499.386 302.325 499.719 303.325 499.5 304.5C498.5 304.5 497.5 304.5 496.5 304.5Z" fill="#37211A"/>
<path fill-rule="evenodd" clip-rule="evenodd" d="M653.5 300.5C647.849 299.068 642.182 297.568 636.5 296C630.432 294.812 629.932 295.978 635 299.5C641.364 318.138 634.697 327.804 615 328.5C595.196 327.891 588.529 318.224 595 299.5C596.255 298.789 597.421 297.956 598.5 297C591.177 298.387 584.177 300.887 577.5 304.5C576.5 304.5 575.5 304.5 574.5 304.5C574.281 303.325 574.614 302.325 575.5 301.5C600.751 288.523 626.751 287.023 653.5 297C654.791 298.292 654.791 299.458 653.5 300.5Z" fill="#372119"/>
<path fill-rule="evenodd" clip-rule="evenodd" d="M693.5 330.5C701.827 329.981 710.16 329.481 718.5 329C719.337 327.989 719.67 326.822 719.5 325.5C711.156 325.612 702.822 325.945 694.5 326.5C694.5 324.5 694.5 322.5 694.5 320.5C693.817 310.596 694.984 300.929 698 291.5C717.865 288.672 729.198 297.339 732 317.5C733.822 328.428 732.155 338.762 727 348.5C717.677 361.16 705.677 364.493 691 358.5C691.171 349.127 692.004 339.794 693.5 330.5Z" fill="#FCD5C4"/>
<path fill-rule="evenodd" clip-rule="evenodd" d="M496.5 304.5C497.596 318.249 491.596 327.416 478.5 332C462.486 336.451 447.153 334.784 432.5 327C423.777 320.338 419.777 311.505 420.5 300.5C425.815 299.004 431.148 297.504 436.5 296C442.864 294.613 443.698 295.779 439 299.5C433.454 311.422 436.288 320.588 447.5 327C458.128 329.911 468.128 328.578 477.5 323C481.212 317.05 482.379 310.55 481 303.5C480.208 301.413 479.041 299.579 477.5 298C484.07 299.246 490.404 301.413 496.5 304.5Z" fill="#FAF9F9"/>
<path fill-rule="evenodd" clip-rule="evenodd" d="M653.5 300.5C653.768 316.739 646.101 327.239 630.5 332C618.435 335.091 606.435 335.091 594.5 332C582.057 326.936 576.39 317.769 577.5 304.5C584.177 300.887 591.177 298.387 598.5 297C597.421 297.956 596.255 298.789 595 299.5C588.529 318.224 595.196 327.891 615 328.5C634.697 327.804 641.364 318.138 635 299.5C629.932 295.978 630.432 294.812 636.5 296C642.182 297.568 647.849 299.068 653.5 300.5Z" fill="#FAF9F9"/>
<path fill-rule="evenodd" clip-rule="evenodd" d="M599.5 298.5C605.861 297.697 608.694 300.364 608 306.5C602.605 311.218 599.105 310.051 597.5 303C597.519 301.167 598.185 299.667 599.5 298.5Z" fill="#EFEEED"/>
<path fill-rule="evenodd" clip-rule="evenodd" d="M442.5 299.5C451.865 298.936 453.865 302.436 448.5 310C443.842 311.187 441.175 309.353 440.5 304.5C440.902 302.7 441.569 301.033 442.5 299.5Z" fill="#EFEDED"/>
<path fill-rule="evenodd" clip-rule="evenodd" d="M383.5 320.5C384.477 323.287 384.81 326.287 384.5 329.5C376.493 329.666 368.493 329.5 360.5 329C359.663 327.989 359.33 326.822 359.5 325.5C367.505 325.731 375.505 326.065 383.5 326.5C383.5 324.5 383.5 322.5 383.5 320.5Z" fill="#D49887"/>
<path fill-rule="evenodd" clip-rule="evenodd" d="M694.5 320.5C694.5 322.5 694.5 324.5 694.5 326.5C702.822 325.945 711.156 325.612 719.5 325.5C719.67 326.822 719.337 327.989 718.5 329C710.16 329.481 701.827 329.981 693.5 330.5C693.187 326.958 693.521 323.625 694.5 320.5Z" fill="#D69A89"/>
<path fill-rule="evenodd" clip-rule="evenodd" d="M441.5 357.5C454.744 356.038 464.578 361.038 471 372.5C472.752 385.826 467.252 394.659 454.5 399C439.546 402.812 428.713 397.979 422 384.5C419.768 374.466 422.935 366.633 431.5 361C434.776 359.308 438.109 358.141 441.5 357.5Z" fill="#FAC4B1"/>
<path fill-rule="evenodd" clip-rule="evenodd" d="M622.5 357.5C630.173 356.736 637.507 357.903 644.5 361C654.994 367.807 657.827 376.973 653 388.5C643.897 399.517 632.397 402.684 618.5 398C606.777 391.717 602.944 382.217 607 369.5C611.208 364.109 616.375 360.109 622.5 357.5Z" fill="#FAC4B1"/>
<path fill-rule="evenodd" clip-rule="evenodd" d="M522.5 362.5C523.822 362.33 524.989 362.663 526 363.5C526.839 367.671 529.172 370.671 533 372.5C533.483 373.448 533.649 374.448 533.5 375.5C525.935 374.594 522.269 370.261 522.5 362.5Z" fill="#3D261E"/>
<path fill-rule="evenodd" clip-rule="evenodd" d="M520.5 411.5C534.171 411.333 547.837 411.5 561.5 412C564.901 411.734 566.567 413.234 566.5 416.5C547.832 415.184 529.165 415.184 510.5 416.5C510.33 415.178 510.663 414.011 511.5 413C514.695 412.819 517.695 412.319 520.5 411.5Z" fill="#402821"/>
<path fill-rule="evenodd" clip-rule="evenodd" d="M524.5 429.5C533.393 431.797 542.393 432.13 551.5 430.5C551.67 431.822 551.337 432.989 550.5 434C542.477 435.919 534.477 435.919 526.5 434C524.893 432.951 524.227 431.451 524.5 429.5Z" fill="#3B241C"/>
<path fill-rule="evenodd" clip-rule="evenodd" d="M564.5 468.5C568.707 477.168 566.04 483.001 556.5 486C541.736 491.484 528.07 489.484 515.5 480C514.544 476.606 514.211 473.106 514.5 469.5C522.225 471.388 530.058 472.722 538 473.5C547.096 472.515 555.929 470.848 564.5 468.5Z" fill="#F8D2C1"/>
<path fill-rule="evenodd" clip-rule="evenodd" d="M505.5 483.5C507.5 483.5 509.5 483.5 511.5 483.5C510.25 500.17 508.916 516.837 507.5 533.5C499.014 529.757 490.681 525.757 482.5 521.5C485.897 510.142 489.397 498.808 493 487.5C497.341 486.441 501.507 485.108 505.5 483.5Z" fill="#E4EAF2"/>
<path fill-rule="evenodd" clip-rule="evenodd" d="M573.5 483.5C579.988 484.053 586.155 485.719 592 488.5C595.065 499.196 598.232 509.863 601.5 520.5C601.167 521.167 600.833 521.833 600.5 522.5C592.5 526.167 584.5 529.833 576.5 533.5C574.968 516.867 573.968 500.201 573.5 483.5Z" fill="#E4EAF2"/>
<path fill-rule="evenodd" clip-rule="evenodd" d="M567.5 483.5C568.777 484.694 569.444 486.36 569.5 488.5C569.167 490.167 568.833 491.833 568.5 493.5C556.779 501.681 543.779 504.514 529.5 502C524.646 501.063 519.98 499.563 515.5 497.5C514.167 493.167 514.167 488.833 515.5 484.5C530.912 495.34 546.912 496.173 563.5 487C565.093 486.051 566.426 484.885 567.5 483.5Z" fill="#515C77"/>
<path fill-rule="evenodd" clip-rule="evenodd" d="M485.5 488.5C486.675 488.281 487.675 488.614 488.5 489.5C484.182 500.939 481.015 512.606 479 524.5C488.091 528.962 497.257 533.295 506.5 537.5C506.833 539.833 507.167 542.167 507.5 544.5C503.796 606.911 499.129 669.244 493.5 731.5C473.415 733.514 454.082 730.681 435.5 723C439.558 676.554 444.392 630.054 450 583.5C450.667 575.167 450.667 566.833 450 558.5C448.002 539.857 446.668 521.19 446 502.5C459.021 497.106 472.188 492.439 485.5 488.5Z" fill="#E6EDF5"/>
<path fill-rule="evenodd" clip-rule="evenodd" d="M595.5 489.5C595.735 488.903 596.235 488.57 597 488.5C611.274 492.869 625.441 497.536 639.5 502.5C637.547 524.175 635.547 545.842 633.5 567.5C619.484 567.349 605.484 567.682 591.5 568.5C591.334 578.172 591.5 587.839 592 597.5C592.761 603.106 594.261 608.439 596.5 613.5C610.61 616.98 624.11 615.313 637 608.5C642.239 646.643 646.073 684.81 648.5 723C629.889 730.588 610.556 733.421 590.5 731.5C585.222 668.552 580.555 605.552 576.5 542.5C576.833 540.833 577.167 539.167 577.5 537.5C586.743 533.295 595.909 528.962 605 524.5C605.667 522.5 605.667 520.5 605 518.5C602.274 508.559 599.107 498.893 595.5 489.5Z" fill="#E6EDF4"/>
<path fill-rule="evenodd" clip-rule="evenodd" d="M568.5 497.5C569.821 500.598 570.488 504.098 570.5 508C574.577 578.572 579.577 649.072 585.5 719.5C556.527 721.672 527.527 722.006 498.5 720.5C504.638 647.569 509.971 574.569 514.5 501.5C528.566 506.925 542.899 507.759 557.5 504C561.56 502.311 565.227 500.144 568.5 497.5Z" fill="#525E7B"/>
<path fill-rule="evenodd" clip-rule="evenodd" d="M440.5 504.5C444.357 530.925 446.024 557.592 445.5 584.5C432.329 581.498 419.662 576.998 407.5 571C406.426 570.261 405.759 569.261 405.5 568C413.703 544.747 425.369 523.581 440.5 504.5Z" fill="#E4EBF3"/>
<path fill-rule="evenodd" clip-rule="evenodd" d="M643.5 506.5C658.726 524.929 670.392 545.596 678.5 568.5C666.12 576.017 652.787 581.35 638.5 584.5C638.477 558.41 640.144 532.41 643.5 506.5Z" fill="#E5EBF3"/>
<path fill-rule="evenodd" clip-rule="evenodd" d="M600.5 571.5C610.833 571.5 621.167 571.5 631.5 571.5C631.5 574.167 631.5 576.833 631.5 579.5C619.155 579.487 606.822 579.821 594.5 580.5C594.5 577.833 594.5 575.167 594.5 572.5C596.735 572.795 598.735 572.461 600.5 571.5Z" fill="#80B6CD"/>
<path fill-rule="evenodd" clip-rule="evenodd" d="M403.5 573.5C416.247 580.196 429.58 585.529 443.5 589.5C444.484 592.428 444.817 595.428 444.5 598.5C428.368 596.588 413.702 591.088 400.5 582C401.41 579.101 402.41 576.267 403.5 573.5Z" fill="#7FB3CA"/>
<path fill-rule="evenodd" clip-rule="evenodd" d="M678.5 573.5C680.751 575.511 682.085 578.178 682.5 581.5C681.99 583.088 680.99 584.255 679.5 585C666.926 591.802 653.592 596.302 639.5 598.5C639.5 595.167 639.5 591.833 639.5 588.5C648.048 586.779 656.382 584.279 664.5 581C669.674 579.249 674.341 576.749 678.5 573.5Z" fill="#7FB4CB"/>
<path fill-rule="evenodd" clip-rule="evenodd" d="M614.5 583.5C620.5 583.5 626.5 583.5 632.5 583.5C632.5 591.5 632.5 599.5 632.5 607.5C621.692 610.894 610.692 611.894 599.5 610.5C596.009 602.279 594.676 593.612 595.5 584.5C602.022 584.823 608.355 584.49 614.5 583.5Z" fill="#E5EBF3"/>
<path fill-rule="evenodd" clip-rule="evenodd" d="M409.5 592.5C418.848 596.505 428.515 599.505 438.5 601.5C436.743 616.042 433.91 630.375 430 644.5C426.674 667.059 425.341 689.726 426 712.5C432.789 724.326 435.122 736.993 433 750.5C432.141 756.733 428.974 758.566 423.5 756C422.132 751.567 420.965 747.067 420 742.5C418.534 740.675 416.701 740.175 414.5 741C414.52 750.482 414.02 759.982 413 769.5C410.847 771.444 408.347 771.944 405.5 771C403.348 768.531 401.848 765.698 401 762.5C399.666 756.321 398.499 750.154 397.5 744C396.551 743.383 395.718 743.549 395 744.5C394.481 751.183 395.314 757.683 397.5 764C396.127 765.479 394.627 765.312 393 763.5C388.684 755.886 386.85 747.719 387.5 739C386.63 729.329 388.797 720.496 394 712.5C395.306 671.946 400.473 631.946 409.5 592.5Z" fill="#FBD5C4"/>
<path fill-rule="evenodd" clip-rule="evenodd" d="M671.5 592.5C672.5 592.5 673.5 592.5 674.5 592.5C682.636 632.396 687.803 672.729 690 713.5C690.667 714.167 691.333 714.833 692 715.5C698.239 731.374 697.905 747.041 691 762.5C689.467 764.846 687.634 765.846 685.5 765.5C688.174 758.441 689.174 751.108 688.5 743.5C687.178 743.33 686.011 743.663 685 744.5C685.354 753.251 683.687 761.585 680 769.5C676.219 772.473 672.886 772.139 670 768.5C669.761 759.244 669.594 750.078 669.5 741C667.559 740.257 665.726 740.424 664 741.5C662.341 746.307 660.841 751.14 659.5 756C656.49 758.222 653.99 757.722 652 754.5C648.74 740.119 650.407 726.452 657 713.5C657.862 691.088 656.862 668.755 654 646.5C650.189 631.63 647.022 616.63 644.5 601.5C653.932 599.467 662.932 596.467 671.5 592.5Z" fill="#FBD5C4"/>
<path fill-rule="evenodd" clip-rule="evenodd" d="M442.5 602.5C443.156 603.622 443.489 604.955 443.5 606.5C439.368 642.192 435.201 677.859 431 713.5C429.886 708.609 429.386 703.609 429.5 698.5C430.145 681.797 431.312 665.131 433 648.5C436.919 633.319 440.086 617.986 442.5 602.5Z" fill="#EFEDED"/>
<path fill-rule="evenodd" clip-rule="evenodd" d="M643.5 616.5C642.662 616.842 642.328 617.508 642.5 618.5C641.172 613.363 640.672 608.03 641 602.5C641.772 607.191 642.605 611.858 643.5 616.5Z" fill="#A19794"/>
<path fill-rule="evenodd" clip-rule="evenodd" d="M643.5 616.5C651.413 647.647 654.913 679.313 654 711.5C653.667 711.833 653.333 712.167 653 712.5C649.244 681.2 645.744 649.866 642.5 618.5C642.328 617.508 642.662 616.842 643.5 616.5Z" fill="#EBE9E8"/>
<path fill-rule="evenodd" clip-rule="evenodd" d="M580.5 723.5C582.5 723.5 584.5 723.5 586.5 723.5C586.845 727.422 587.512 731.255 588.5 735C597.827 735.5 607.161 735.666 616.5 735.5C617.708 809.826 618.375 884.16 618.5 958.5C596.327 965.459 573.993 966.126 551.5 960.5C552.202 922.002 552.869 883.502 553.5 845C553.439 818.476 552.606 791.976 551 765.5C542.472 758.989 533.305 753.656 523.5 749.5C523.297 751.39 523.963 752.89 525.5 754C527.917 755.626 530.417 757.126 533 758.5C533.167 761 533.333 763.5 533.5 766C531.403 797.312 529.737 828.646 528.5 860C529.123 889.168 529.79 918.335 530.5 947.5C530.167 952.5 529.833 957.5 529.5 962.5C512.774 968.038 495.774 968.871 478.5 965C473.356 963.511 468.522 961.344 464 958.5C463.5 884.167 463.333 809.834 463.5 735.5C474.172 735.667 484.839 735.5 495.5 735C496 734.5 496.5 734 497 733.5C497.218 730.574 497.718 727.74 498.5 725C509.987 725.01 521.487 725.177 533 725.5C549.019 725.478 564.852 724.812 580.5 723.5Z" fill="#81B8D0"/>
<path fill-rule="evenodd" clip-rule="evenodd" d="M665.5 765.5C664.833 762.833 664.167 760.167 663.5 757.5C664.747 753.288 665.58 748.955 666 744.5C666.228 751.499 666.061 758.499 665.5 765.5Z" fill="#BAB1AF"/>
<path fill-rule="evenodd" clip-rule="evenodd" d="M609.5 964.5C610.5 964.5 611.5 964.5 612.5 964.5C612.5 966.5 612.5 968.5 612.5 970.5C607.101 970.309 601.767 970.809 596.5 972C590.83 974.446 584.996 976.279 579 977.5C573.163 976.791 567.33 976.124 561.5 975.5C561.5 972.5 561.5 969.5 561.5 966.5C577.755 969.42 593.755 968.753 609.5 964.5Z" fill="#FAF9F9"/>
<path fill-rule="evenodd" clip-rule="evenodd" d="M469.5 966.5C486.639 971.065 503.972 971.731 521.5 968.5C521.5 970.833 521.5 973.167 521.5 975.5C515.133 975.79 508.8 976.457 502.5 977.5C496.839 975.78 491.173 973.947 485.5 972C480.233 970.809 474.899 970.309 469.5 970.5C469.5 969.167 469.5 967.833 469.5 966.5Z" fill="#F0EEEE"/>
<path fill-rule="evenodd" clip-rule="evenodd" d="M469.5 974.5C479.5 974.664 488.833 977.164 497.5 982C497.002 983.158 496.169 983.991 495 984.5C486.454 979.763 477.287 977.263 467.5 977C468.381 976.292 469.047 975.458 469.5 974.5Z" fill="#EBE9E8"/>
<path fill-rule="evenodd" clip-rule="evenodd" d="M604.5 974.5C608.315 973.918 611.649 974.752 614.5 977C605.02 977.41 596.187 979.91 588 984.5C585.61 983.828 585.11 982.495 586.5 980.5C592.415 977.864 598.415 975.864 604.5 974.5Z" fill="#EDEBEA"/>
<path fill-rule="evenodd" clip-rule="evenodd" d="M517.5 979.5C519.167 979.5 520.833 979.5 522.5 979.5C524.464 994.463 524.798 1009.46 523.5 1024.5C516.03 1026.44 508.53 1028.1 501 1029.5C498.967 1023.76 496.633 1018.09 494 1012.5C492.207 1009.7 490.04 1007.2 487.5 1005C488.622 1002.88 490.122 1001.04 492 999.5C493.264 1001.61 495.097 1002.61 497.5 1002.5C497.429 999.861 496.429 997.694 494.5 996C494.946 994.274 495.779 992.774 497 991.5C498.816 993.441 500.816 994.108 503 993.5C502.41 991.186 501.243 989.019 499.5 987C500.317 985.51 501.15 984.01 502 982.5C507.283 981.617 512.45 980.617 517.5 979.5Z" fill="#F6F5F4"/>
<path fill-rule="evenodd" clip-rule="evenodd" d="M560.5 979.5C567.236 980.194 573.902 981.36 580.5 983C581.376 984.586 582.376 986.086 583.5 987.5C580.75 988.716 579.583 990.716 580 993.5C582.091 994.5 583.757 993.833 585 991.5C589.28 994.361 589.28 997.028 585 999.5C584.399 1000.97 584.899 1001.97 586.5 1002.5C588.258 1001.87 589.758 1000.87 591 999.5C591.972 1001.3 593.139 1002.97 594.5 1004.5C588.094 1011.65 584.094 1019.98 582.5 1029.5C574.539 1027.95 566.539 1026.62 558.5 1025.5C558.191 1010.11 558.857 994.778 560.5 979.5Z" fill="#F8F8F7"/>
<path fill-rule="evenodd" clip-rule="evenodd" d="M464.5 981.5C475.219 980.469 484.886 982.969 493.5 989C492.696 990.771 491.529 992.271 490 993.5C481.624 988.277 472.457 985.277 462.5 984.5C463.193 983.482 463.859 982.482 464.5 981.5Z" fill="#EFEEED"/>
<path fill-rule="evenodd" clip-rule="evenodd" d="M604.5 981.5C608.846 981.334 613.179 981.501 617.5 982C618.5 983 619.5 984 620.5 985C610.132 985.131 600.632 987.964 592 993.5C589.936 991.757 589.436 989.757 590.5 987.5C595.034 984.892 599.701 982.892 604.5 981.5Z" fill="#EFEDEC"/>
<path fill-rule="evenodd" clip-rule="evenodd" d="M458.5 989.5C469.521 988.135 479.521 990.635 488.5 997C487.215 999.423 485.382 1001.26 483 1002.5C474.361 998.336 465.194 996.002 455.5 995.5C457.038 993.757 458.038 991.757 458.5 989.5Z" fill="#F5F4F4"/>
<path fill-rule="evenodd" clip-rule="evenodd" d="M609.5 989.5C614.179 989.334 618.845 989.501 623.5 990C624.627 991.753 625.627 993.587 626.5 995.5C616.964 995.801 607.964 998.134 599.5 1002.5C596.901 1001.1 595.401 999.101 595 996.5C599.462 993.184 604.295 990.851 609.5 989.5Z" fill="#F7F6F6"/>
<path fill-rule="evenodd" clip-rule="evenodd" d="M504.5 998.5C507.09 999.128 509.423 1000.3 511.5 1002C514.817 1002.5 518.15 1002.67 521.5 1002.5C521.736 1005.23 520.903 1007.56 519 1009.5C518.501 1013.15 518.335 1016.82 518.5 1020.5C515.072 1020.45 512.072 1019.29 509.5 1017C506.518 1016.5 503.518 1016.34 500.5 1016.5C502.747 1010.76 504.081 1004.76 504.5 998.5Z" fill="#39221B"/>
<path fill-rule="evenodd" clip-rule="evenodd" d="M575.5 998.5C576.5 998.5 577.5 998.5 578.5 998.5C578.335 1001.85 578.502 1005.18 579 1008.5C580.993 1010.82 582.159 1013.48 582.5 1016.5C579.15 1016.33 575.817 1016.5 572.5 1017C570.182 1018.99 567.516 1020.16 564.5 1020.5C564.665 1017.15 564.498 1013.82 564 1010.5C562.007 1008.18 560.841 1005.52 560.5 1002.5C566.277 1003.45 571.277 1002.11 575.5 998.5Z" fill="#382019"/>
<path fill-rule="evenodd" clip-rule="evenodd" d="M452.5 1000.5C464.625 999.613 475.625 1002.61 485.5 1009.5C476.375 1015.49 466.375 1018.32 455.5 1018C451.921 1017.39 449.254 1015.55 447.5 1012.5C449.176 1008.48 450.843 1004.48 452.5 1000.5Z" fill="#FBFAFA"/>
<path fill-rule="evenodd" clip-rule="evenodd" d="M615.5 1000.5C620.179 1000.33 624.845 1000.5 629.5 1001C631.771 1004.88 633.771 1008.88 635.5 1013C629.005 1018.6 621.672 1019.93 613.5 1017C607.743 1015.29 602.41 1012.79 597.5 1009.5C597.709 1008.91 598.043 1008.41 598.5 1008C604.001 1004.91 609.668 1002.41 615.5 1000.5Z" fill="#FAFAFA"/>
<path fill-rule="evenodd" clip-rule="evenodd" d="M507.5 1004.5C510.151 1005.49 512.817 1006.49 515.5 1007.5C514.94 1009.85 514.273 1012.19 513.5 1014.5C511.227 1013.35 508.894 1012.35 506.5 1011.5C507.374 1009.25 507.708 1006.92 507.5 1004.5Z" fill="#893030"/>
<path fill-rule="evenodd" clip-rule="evenodd" d="M572.5 1004.5C574.084 1006.53 575.417 1008.86 576.5 1011.5C573.97 1012.13 571.637 1013.13 569.5 1014.5C568.868 1011.97 567.868 1009.64 566.5 1007.5C568.884 1006.99 570.884 1005.99 572.5 1004.5Z" fill="#8A3130"/>
<path fill-rule="evenodd" clip-rule="evenodd" d="M488.5 1012.5C491.995 1017.97 494.328 1023.97 495.5 1030.5C478.174 1032.86 461.174 1031.52 444.5 1026.5C444.337 1024.14 444.503 1021.81 445 1019.5C445.414 1019.04 445.914 1018.71 446.5 1018.5C456.327 1023.43 466.327 1023.59 476.5 1019C480.959 1017.48 484.959 1015.31 488.5 1012.5Z" fill="#8C3131"/>
<path fill-rule="evenodd" clip-rule="evenodd" d="M592.5 1013.5C599.95 1016.82 607.616 1019.65 615.5 1022C622.957 1023.39 629.957 1022.22 636.5 1018.5C640.028 1023.68 638.694 1026.85 632.5 1028C617.258 1031.83 601.924 1032.33 586.5 1029.5C588.31 1024.07 590.31 1018.73 592.5 1013.5Z" fill="#8C3131"/>
<path fill-rule="evenodd" clip-rule="evenodd" d="M519.5 1029.5C521.167 1029.5 522.833 1029.5 524.5 1029.5C524.703 1031.39 524.037 1032.89 522.5 1034C519.326 1035.72 515.993 1037.06 512.5 1038C492.241 1041.57 471.908 1042.23 451.5 1040C446.466 1038.69 443.799 1035.52 443.5 1030.5C468.997 1037.32 494.331 1036.98 519.5 1029.5Z" fill="#8A3131"/>
<path fill-rule="evenodd" clip-rule="evenodd" d="M558.5 1029.5C577.849 1034.67 597.516 1036.5 617.5 1035C624.317 1034.13 630.984 1032.63 637.5 1030.5C638.712 1032.84 638.378 1035.01 636.5 1037C633.007 1038.79 629.341 1040.12 625.5 1041C604.981 1042.35 584.648 1041.02 564.5 1037C561.143 1035.49 559.143 1032.99 558.5 1029.5Z" fill="#8B3131"/>
</svg>
