<svg width="150" height="150" viewBox="0 0 1080 1080" fill="none" xmlns="http://www.w3.org/2000/svg">
<path fill-rule="evenodd" clip-rule="evenodd" d="M472.5 273.5C518.994 272.382 564.994 276.548 610.5 286C656.454 294.552 695.288 315.719 727 349.5C749.756 378.086 762.09 410.752 764 447.5C764.926 469.549 764.259 491.549 762 513.5C758.588 535.393 754.088 557.06 748.5 578.5C770.108 577.026 784.274 586.359 791 606.5C796.095 625.522 793.762 643.522 784 660.5C774.709 671.558 762.876 676.058 748.5 674C744.166 673.1 739.832 672.266 735.5 671.5C729.736 719.601 705.069 753.768 661.5 774C637.115 784.462 612.115 793.128 586.5 800C570.323 803.985 553.989 804.985 537.5 803C498.231 795.246 461.231 781.58 426.5 762C404.467 746.626 389.3 726.126 381 700.5C378.026 690.938 375.526 681.271 373.5 671.5C342.134 679.668 323.634 667.668 318 635.5C316.248 621.093 318.581 607.426 325 594.5C332.875 584.146 343.375 578.979 356.5 579C344.735 555.705 336.568 531.205 332 505.5C330.217 460.979 336.551 417.646 351 375.5C354.777 364.61 360.11 354.61 367 345.5C376.238 336.536 387.404 332.536 400.5 333.5C412.541 310.959 429.541 293.125 451.5 280C458.385 277.036 465.385 274.869 472.5 273.5Z" fill="#3A241D"/>
<path fill-rule="evenodd" clip-rule="evenodd" d="M472.5 277.5C527.824 276.147 582.157 282.647 635.5 297C680.427 310.015 715.261 336.182 740 375.5C751.32 397.482 757.987 420.815 760 445.5C761.934 495.233 755.6 543.9 741 591.5C734.25 573.085 730.584 554.085 730 534.5C720.188 517.874 712.854 500.207 708 481.5C689.002 465.94 673.168 447.773 660.5 427C659.551 426.383 658.718 426.549 658 427.5C657.548 442.026 660.715 455.693 667.5 468.5C650.84 464.425 636.673 455.758 625 442.5C620.488 436.129 615.988 429.796 611.5 423.5C610.522 423.977 609.689 424.643 609 425.5C607.576 439.092 608.742 452.425 612.5 465.5C590.567 458.245 575.234 443.578 566.5 421.5C565.311 420.571 563.978 420.238 562.5 420.5C563.557 431.848 564.39 443.181 565 454.5C553.065 447.233 543.899 437.399 537.5 425C536.004 424.493 534.837 424.993 534 426.5C533.333 436.833 533.333 447.167 534 457.5C534.541 462.329 535.707 466.996 537.5 471.5C537.167 471.833 536.833 472.167 536.5 472.5C518.002 463.759 500.669 453.259 484.5 441C479.088 436.259 474.421 430.926 470.5 425C469.207 424.51 467.873 424.343 466.5 424.5C469.94 441.57 474.44 458.237 480 474.5C462.539 468.109 447.206 458.442 434 445.5C430.995 441.003 427.828 436.669 424.5 432.5C423.009 433.348 422.342 434.681 422.5 436.5C424.319 452.618 427.985 468.284 433.5 483.5C433.167 483.833 432.833 484.167 432.5 484.5C414.094 477.722 400.261 465.722 391 448.5C389.817 447.269 388.651 447.269 387.5 448.5C383.057 473.484 377.224 498.151 370 522.5C370.079 545.557 369.079 568.557 367 591.5C351.903 564.208 341.569 535.208 336 504.5C334.56 459.577 341.227 415.91 356 373.5C360.367 361.925 366.867 351.758 375.5 343C377.5 342 379.5 341 381.5 340C388.467 339.002 395.467 338.336 402.5 338C413.604 316.898 428.937 299.565 448.5 286C456.191 281.923 464.191 279.089 472.5 277.5Z" fill="#4B413E"/>
<path fill-rule="evenodd" clip-rule="evenodd" d="M612.5 432.5C626.544 454.184 646.211 468.184 671.5 474.5C673.266 474.566 674.266 473.732 674.5 472C667.395 461.957 663.562 450.791 663 438.5C674.191 455.195 687.691 469.862 703.5 482.5C709.353 500.872 716.853 518.538 726 535.5C726.544 556.986 730.877 577.653 739 597.5C738.843 626.45 735.843 655.116 730 683.5C724.151 710.717 710.984 733.55 690.5 752C678.278 760.614 665.278 767.947 651.5 774C629.101 783.353 606.101 791.019 582.5 797C565.548 800.956 548.548 801.29 531.5 798C496.029 790.097 462.363 777.43 430.5 760C403.579 741.367 386.745 715.867 380 683.5C375.76 662.337 372.76 641.004 371 619.5C372.194 587.528 373.194 555.528 374 523.5C380.461 501.07 385.961 478.403 390.5 455.5C399.23 469.065 410.897 479.232 425.5 486C429.963 487.975 434.629 488.808 439.5 488.5C433.623 473.992 429.79 458.992 428 443.5C443.01 461.315 461.844 473.315 484.5 479.5C486 479.547 487 478.881 487.5 477.5C484.483 473.631 482.316 469.298 481 464.5C478.016 455.229 475.682 445.896 474 436.5C494.559 454.21 517.392 468.543 542.5 479.5C543.72 479.113 544.387 478.28 544.5 477C542.286 473.034 540.453 468.867 539 464.5C537.608 454.199 537.274 443.866 538 433.5C544.833 443 553 451.167 562.5 458C564.65 459.411 566.984 460.245 569.5 460.5C569.265 452.483 569.098 444.483 569 436.5C581.004 454.191 597.171 466.024 617.5 472C618.022 471.439 618.355 470.772 618.5 470C613.238 458.095 611.238 445.595 612.5 432.5Z" fill="#FED7C6"/>
<path fill-rule="evenodd" clip-rule="evenodd" d="M423.5 517.5C452.312 515.039 479.646 520.205 505.5 533C506.337 534.011 506.67 535.178 506.5 536.5C474.053 530.704 441.387 526.537 408.5 524C407.273 522.413 407.606 521.079 409.5 520C414.389 519.646 419.056 518.813 423.5 517.5Z" fill="#38221A"/>
<path fill-rule="evenodd" clip-rule="evenodd" d="M649.5 517.5C665.319 516.877 680.986 518.044 696.5 521C697.833 522 697.833 523 696.5 524C663.642 526.785 630.975 530.952 598.5 536.5C598.297 534.61 598.963 533.11 600.5 532C616.187 524.573 632.52 519.74 649.5 517.5Z" fill="#38211A"/>
<path fill-rule="evenodd" clip-rule="evenodd" d="M367.5 623.5C367.5 624.833 367.5 626.167 367.5 627.5C359.647 627.629 351.814 627.295 344 626.5C342.167 626.667 340.333 626.833 338.5 627C337.167 628 337.167 629 338.5 630C348.482 630.916 358.482 631.416 368.5 631.5C369.035 642.757 370.369 653.924 372.5 665C372.167 665.833 371.833 666.667 371.5 667.5C355.15 673.953 341.316 670.62 330 657.5C320.527 640.331 318.86 622.331 325 603.5C331.368 588.107 342.702 581.773 359 584.5C360.894 589.392 363.228 594.059 366 598.5C366.295 606.859 366.795 615.192 367.5 623.5Z" fill="#FDD6C5"/>
<path fill-rule="evenodd" clip-rule="evenodd" d="M741.5 631.5C751.853 631.45 762.186 630.95 772.5 630C773.833 629 773.833 628 772.5 627C770.667 626.833 768.833 626.667 767 626.5C758.852 627.306 750.686 627.639 742.5 627.5C742.5 625.167 742.5 622.833 742.5 620.5C741.875 608.161 743.542 596.161 747.5 584.5C772.384 581.532 786.217 592.532 789 617.5C792.134 636.707 786.634 652.874 772.5 666C761.388 671.329 750.055 671.829 738.5 667.5C738.167 666.167 737.833 664.833 737.5 663.5C739.49 652.9 740.823 642.233 741.5 631.5Z" fill="#FDD6C5"/>
<path fill-rule="evenodd" clip-rule="evenodd" d="M504.5 601.5C495.961 596.821 486.961 593.655 477.5 592C481.867 594.555 484.367 598.388 485 603.5C486.876 615.221 482.376 623.388 471.5 628C462.88 629.464 454.213 629.798 445.5 629C433.388 623.271 428.888 613.771 432 600.5C433.372 596.138 435.872 592.638 439.5 590C429.962 590.608 420.628 592.441 411.5 595.5C410.316 594.312 410.316 593.145 411.5 592C443.172 580.917 474.172 582.584 504.5 597C507.106 598.65 507.106 600.15 504.5 601.5Z" fill="#362019"/>
<path fill-rule="evenodd" clip-rule="evenodd" d="M693.5 595.5C684.319 592.713 674.986 590.88 665.5 590C673.073 596.452 675.573 604.619 673 614.5C670.928 621.573 666.428 626.406 659.5 629C650.78 629.839 642.113 629.505 633.5 628C619.083 620.853 615.583 610.019 623 595.5C624.41 594.213 625.91 593.046 627.5 592C617.866 593.267 608.866 596.434 600.5 601.5C598.915 600.998 598.415 599.998 599 598.5C601.921 596.288 605.088 594.455 608.5 593C636.691 582.092 665.024 581.758 693.5 592C694.684 593.145 694.684 594.312 693.5 595.5Z" fill="#362019"/>
<path fill-rule="evenodd" clip-rule="evenodd" d="M504.5 601.5C504.193 620.309 494.859 631.809 476.5 636C457.935 639.589 440.602 636.589 424.5 627C415.004 618.688 410.67 608.188 411.5 595.5C420.628 592.441 429.962 590.608 439.5 590C435.872 592.638 433.372 596.138 432 600.5C428.888 613.771 433.388 623.271 445.5 629C454.213 629.798 462.88 629.464 471.5 628C482.376 623.388 486.876 615.221 485 603.5C484.367 598.388 481.867 594.555 477.5 592C486.961 593.655 495.961 596.821 504.5 601.5Z" fill="#FBFAFA"/>
<path fill-rule="evenodd" clip-rule="evenodd" d="M693.5 595.5C693.863 616.978 683.53 630.145 662.5 635C648.701 638.599 635.035 638.266 621.5 634C607.459 627.78 600.459 616.946 600.5 601.5C608.866 596.434 617.866 593.267 627.5 592C625.91 593.046 624.41 594.213 623 595.5C615.583 610.019 619.083 620.853 633.5 628C642.113 629.505 650.78 629.839 659.5 629C666.428 626.406 670.928 621.573 673 614.5C675.573 604.619 673.073 596.452 665.5 590C674.986 590.88 684.319 592.713 693.5 595.5Z" fill="#FBFAFA"/>
<path fill-rule="evenodd" clip-rule="evenodd" d="M628.5 593.5C632.306 593.02 635.639 594.02 638.5 596.5C640.221 602.47 637.888 605.803 631.5 606.5C624.782 603.587 623.782 599.254 628.5 593.5Z" fill="#F2F0F0"/>
<path fill-rule="evenodd" clip-rule="evenodd" d="M439.5 594.5C446.444 593.845 449.611 596.845 449 603.5C444.62 608.749 440.287 608.749 436 603.5C435.333 601.833 435.333 600.167 436 598.5C437.376 597.295 438.542 595.962 439.5 594.5Z" fill="#F3F1F1"/>
<path fill-rule="evenodd" clip-rule="evenodd" d="M367.5 623.5C368.473 625.948 368.806 628.615 368.5 631.5C358.482 631.416 348.482 630.916 338.5 630C337.167 629 337.167 628 338.5 627C340.333 626.833 342.167 626.667 344 626.5C351.814 627.295 359.647 627.629 367.5 627.5C367.5 626.167 367.5 624.833 367.5 623.5Z" fill="#D39786"/>
<path fill-rule="evenodd" clip-rule="evenodd" d="M742.5 620.5C742.5 622.833 742.5 625.167 742.5 627.5C750.686 627.639 758.852 627.306 767 626.5C768.833 626.667 770.667 626.833 772.5 627C773.833 628 773.833 629 772.5 630C762.186 630.95 751.853 631.45 741.5 631.5C741.185 627.629 741.518 623.962 742.5 620.5Z" fill="#D39887"/>
<path fill-rule="evenodd" clip-rule="evenodd" d="M435.5 665.5C446.315 663.682 455.982 666.015 464.5 672.5C476.629 685.227 476.296 697.727 463.5 710C448.334 719.326 433.667 718.66 419.5 708C409.72 695.37 410.387 683.37 421.5 672C425.892 668.967 430.559 666.8 435.5 665.5Z" fill="#FAC4B1"/>
<path fill-rule="evenodd" clip-rule="evenodd" d="M658.5 665.5C673.483 663.196 685.316 668.196 694 680.5C698.443 698.775 691.61 710.608 673.5 716C657.19 719.256 645.023 713.756 637 699.5C632.957 681.048 640.124 669.715 658.5 665.5Z" fill="#FAC4B1"/>
<path fill-rule="evenodd" clip-rule="evenodd" d="M535.5 671.5C536.822 671.33 537.989 671.663 539 672.5C540.269 678.103 543.436 682.27 548.5 685C548.355 685.772 548.022 686.439 547.5 687C539.301 685.281 535.301 680.115 535.5 671.5Z" fill="#432C24"/>
<path fill-rule="evenodd" clip-rule="evenodd" d="M538.5 730.5C550.838 730.333 563.171 730.5 575.5 731C579.558 731.34 583.558 732.007 587.5 733C588.851 735.125 588.185 736.292 585.5 736.5C565.669 733.842 545.835 733.842 526 736.5C524.5 736.333 523 736.167 521.5 736C520.167 735 520.167 734 521.5 733C527.317 732.191 532.983 731.358 538.5 730.5Z" fill="#3D261E"/>
<path fill-rule="evenodd" clip-rule="evenodd" d="M537.5 752.5C548.016 756.156 558.682 756.489 569.5 753.5C569.67 754.822 569.337 755.989 568.5 757C558.431 760.456 548.431 760.29 538.5 756.5C537.571 755.311 537.238 753.978 537.5 752.5Z" fill="#3D261E"/>
</svg>
