<svg width="150" height="150" viewBox="0 0 1080 1080" fill="none" xmlns="http://www.w3.org/2000/svg">
<path fill-rule="evenodd" clip-rule="evenodd" d="M733.5 596.5C732.596 597.209 732.263 598.209 732.5 599.5C736.833 599.5 741.167 599.5 745.5 599.5C759.964 601.497 769.464 609.497 774 623.5C781.975 646.687 778.141 667.52 762.5 686C749.542 695.3 735.709 696.8 721 690.5C718.343 700.43 715.676 710.43 713 720.5C704.645 745.244 689.978 765.244 669 780.5C668.075 786.384 666.408 792.051 664 797.5C660.548 801.046 656.382 802.213 651.5 801C648.596 799.018 646.262 796.518 644.5 793.5C620.234 804.422 595.234 813.255 569.5 820C559.279 822.239 548.946 823.739 538.5 824.5C501.454 819.393 465.954 809.06 432 793.5C430.189 796.645 427.689 799.145 424.5 801C416.874 802.937 412.041 800.104 410 792.5C409.212 788.142 408.378 783.809 407.5 779.5C386.991 764.512 372.824 744.845 365 720.5C362.461 711.217 360.128 701.884 358 692.5C357.439 691.978 356.772 691.645 356 691.5C334.145 699.063 317.812 692.73 307 672.5C298.959 652.398 299.959 632.732 310 613.5C315.466 604.869 323.299 600.203 333.5 599.5C335.924 599.808 338.257 599.474 340.5 598.5C340.376 597.893 340.043 597.56 339.5 597.5C327.958 574.04 320.125 549.373 316 523.5C313.899 491.507 317.399 460.174 326.5 429.5C327.043 429.44 327.376 429.107 327.5 428.5C324.572 427.516 321.572 427.183 318.5 427.5C315.053 427.186 311.72 426.352 308.5 425C307.483 423.951 307.316 422.784 308 421.5C318.401 414.267 326.901 405.267 333.5 394.5C328.241 391.409 323.408 387.743 319 383.5C318.075 380.866 318.909 379.699 321.5 380C325.272 384.717 329.939 388.217 335.5 390.5C339.917 384.002 344.084 377.335 348 370.5C356.579 357.297 368.746 351.797 384.5 354C397.555 328.612 416.888 309.612 442.5 297C448.73 295.205 455.063 293.872 461.5 293C477.68 285.821 485.013 273.321 483.5 255.5C484.5 255.5 485.5 255.5 486.5 255.5C488.412 272.171 482.412 285.004 468.5 294C508.355 300.936 544.688 292.602 577.5 269C578.5 268.333 579.5 268.333 580.5 269C583.926 280.355 582.593 291.188 576.5 301.5C597.412 306.786 618.079 312.953 638.5 320C678.018 334.854 708.351 360.52 729.5 397C751.672 398.343 764.005 387.843 766.5 365.5C767.5 365.5 768.5 365.5 769.5 365.5C767.982 389.352 755.315 401.686 731.5 402.5C734.291 408.042 736.791 413.709 739 419.5C748.735 423.075 756.568 429.075 762.5 437.5C761.652 439.283 760.319 439.783 758.5 439C754.207 432.539 748.54 427.705 741.5 424.5C741.167 425 740.833 425.5 740.5 426C747.443 451.037 749.943 476.537 748 502.5C746.099 534.31 741.265 565.643 733.5 596.5Z" fill="#3A241D"/>
<path fill-rule="evenodd" clip-rule="evenodd" d="M576.5 274.5C577.651 279.65 577.817 284.984 577 290.5C574.605 295.29 572.772 300.29 571.5 305.5C594.193 310.257 616.526 316.424 638.5 324C675.504 338.151 704.17 362.151 724.5 396C723.833 396.167 723.167 396.333 722.5 396.5C716.251 394.687 709.917 393.354 703.5 392.5C703.33 393.822 703.663 394.989 704.5 396C711.688 398.297 719.022 399.964 726.5 401C729.719 406.494 732.053 412.327 733.5 418.5C730.167 418.5 726.833 418.5 723.5 418.5C723.33 419.822 723.663 420.989 724.5 422C728.152 422.499 731.818 422.665 735.5 422.5C743.563 449.573 746.397 477.24 744 505.5C741.334 541.496 735.001 576.829 725 611.5C718.252 593.092 714.585 574.092 714 554.5C704.063 537.525 696.563 519.525 691.5 500.5C672.684 485.32 657.017 467.486 644.5 447C643.551 446.383 642.718 446.549 642 447.5C641.95 455.928 642.95 464.262 645 472.5C646.841 478.364 648.841 484.031 651 489.5C627.558 481.719 609.892 467.053 598 445.5C596.604 443.473 594.938 443.14 593 444.5C591.56 458.424 592.726 472.09 596.5 485.5C596.167 485.833 595.833 486.167 595.5 486.5C574.416 477.482 559.416 462.482 550.5 441.5C549.311 440.571 547.978 440.238 546.5 440.5C548.027 451.796 548.86 463.129 549 474.5C537.8 466.631 528.633 456.797 521.5 445C520.551 444.383 519.718 444.549 519 445.5C516.588 461.399 517.255 477.066 521 492.5C501.511 483.316 483.345 472.149 466.5 459C461.646 454.114 457.146 448.947 453 443.5C451.842 443.998 451.009 444.831 450.5 446C454.235 461.941 458.902 477.607 464.5 493C441.423 486.285 423.089 472.952 409.5 453C408.552 452.517 407.552 452.351 406.5 452.5C407.812 469.717 411.479 486.383 417.5 502.5C416.833 502.833 416.167 503.167 415.5 503.5C397.696 496.535 384.029 484.701 374.5 468C372.892 467.342 371.725 467.842 371 469.5C367.366 494.303 361.699 518.636 354 542.5C354.06 565.556 353.06 588.556 351 611.5C336.081 583.742 325.748 554.408 320 523.5C318.352 498.587 320.019 473.92 325 449.5C327.64 441.273 329.807 432.939 331.5 424.5C325.398 424.174 319.398 423.341 313.5 422C323.409 414.925 331.743 406.425 338.5 396.5C350.931 400.494 363.265 400.16 375.5 395.5C376.386 394.675 376.719 393.675 376.5 392.5C369.529 393.659 362.529 394.659 355.5 395.5C349.885 395.596 344.552 394.43 339.5 392C344.292 383.58 349.458 375.413 355 367.5C363.853 359.347 374.353 356.18 386.5 358C397.98 336.189 413.98 318.523 434.5 305C439.624 302.438 444.957 300.438 450.5 299C466.04 298.361 481.54 298.861 497 300.5C525.957 299.125 552.457 290.459 576.5 274.5Z" fill="#4B413E"/>
<path fill-rule="evenodd" clip-rule="evenodd" d="M318.5 427.5C321.572 427.183 324.572 427.516 327.5 428.5C327.376 429.107 327.043 429.44 326.5 429.5C323.833 428.833 321.167 428.167 318.5 427.5Z" fill="#A59B98"/>
<path fill-rule="evenodd" clip-rule="evenodd" d="M667.5 731.5C680.731 721.7 683.064 709.7 674.5 695.5C671.375 692.035 667.708 689.368 663.5 687.5C661.429 675.477 659.095 663.477 656.5 651.5C671.186 644.145 678.186 632.145 677.5 615.5C678.684 614.312 678.684 613.145 677.5 612C645.436 600.657 614.102 602.323 583.5 617C582.663 618.011 582.33 619.178 582.5 620.5C583.5 620.5 584.5 620.5 585.5 620.5C584.305 639.833 593.305 651.667 612.5 656C621.16 656.5 629.827 656.666 638.5 656.5C638.263 655.209 638.596 654.209 639.5 653.5C641.158 664.102 642.158 674.768 642.5 685.5C625.358 689.465 617.858 700.131 620 717.5C624.525 727.862 632.358 733.862 643.5 735.5C643.527 753.875 643.527 772.042 643.5 790C617.585 801.294 590.919 810.294 563.5 817C548.538 820.777 533.538 821.11 518.5 818C489.158 811.664 460.824 802.33 433.5 790C432.508 771.91 432.174 753.743 432.5 735.5C450.093 732.73 458.26 722.397 457 704.5C453.002 694 445.502 687.667 434.5 685.5C434.5 684.167 434.5 682.833 434.5 681.5C434.646 673.039 435.646 664.705 437.5 656.5C451.951 658.484 465.284 655.651 477.5 648C485.554 640.42 488.887 631.253 487.5 620.5C488.5 620.5 489.5 620.5 490.5 620.5C490.719 619.325 490.386 618.325 489.5 617.5C467.798 606.66 444.798 602.493 420.5 605C412.325 606.377 404.325 608.377 396.5 611C394.452 612.226 394.119 613.726 395.5 615.5C394.688 633.666 402.688 645.999 419.5 652.5C417.083 664.089 415.083 675.755 413.5 687.5C398.973 693.555 393.807 704.222 398 719.5C400.261 723.929 403.428 727.596 407.5 730.5C408.466 732.396 408.799 734.396 408.5 736.5C408.115 748.846 407.448 761.179 406.5 773.5C392.867 763.034 382.367 750.034 375 734.5C366.208 713.331 360.541 691.331 358 668.5C356.573 652.352 355.406 636.186 354.5 620C356.784 594.556 357.951 569.056 358 543.5C364.462 521.062 369.962 498.395 374.5 475.5C383.832 490.002 396.499 500.502 412.5 507C416.086 508.108 419.753 508.608 423.5 508.5C417.308 494.064 413.475 479.064 412 463.5C427.256 480.891 446.089 492.891 468.5 499.5C470 499.547 471 498.881 471.5 497.5C464.682 484.545 460.182 470.878 458 456.5C477.551 473.706 499.385 487.539 523.5 498C525.134 498.494 526.801 498.66 528.5 498.5C522.009 484.26 519.842 469.26 522 453.5C529.968 465.648 540.468 474.648 553.5 480.5C553.101 472.492 552.935 464.492 553 456.5C565.031 474.227 581.197 486.06 601.5 492C602.022 491.439 602.355 490.772 602.5 490C597.356 478.023 595.523 465.523 597 452.5C608.242 470.402 623.742 483.236 643.5 491C648.295 493.033 653.295 493.866 658.5 493.5C654.638 487.764 651.805 481.431 650 474.5C648.185 468.922 647.185 463.255 647 457.5C652.901 466.737 659.568 475.404 667 483.5C673.402 490.573 680.402 496.906 688 502.5C693.185 521.052 700.518 538.719 710 555.5C710.543 576.97 714.876 597.637 723 617.5C723.123 651.095 718.789 684.095 710 716.5C702.527 740.612 688.86 760.279 669 775.5C668.662 760.823 668.162 746.156 667.5 731.5Z" fill="#FDD7C6"/>
<path fill-rule="evenodd" clip-rule="evenodd" d="M565.5 534.5C566.5 534.5 567.5 534.5 568.5 534.5C567.95 538.769 566.95 542.936 565.5 547C566.54 551.175 568.207 555.008 570.5 558.5C563.058 556.296 560.224 551.296 562 543.5C563.18 540.479 564.346 537.479 565.5 534.5Z" fill="#402921"/>
<path fill-rule="evenodd" clip-rule="evenodd" d="M490.5 540.5C491.833 540.5 493.167 540.5 494.5 540.5C493.909 543.614 492.242 546.114 489.5 548C462.256 566.977 432.256 573.644 399.5 568C398.167 566.667 398.167 565.333 399.5 564C431.657 562.808 461.99 554.974 490.5 540.5Z" fill="#3B241C"/>
<path fill-rule="evenodd" clip-rule="evenodd" d="M578.5 547.5C610.305 553.074 642.305 557.24 674.5 560C675.973 560.71 676.64 561.876 676.5 563.5C649.133 568.666 622.133 567.166 595.5 559C589.682 556.59 584.015 553.923 578.5 551C577.316 549.855 577.316 548.688 578.5 547.5Z" fill="#37211A"/>
<path fill-rule="evenodd" clip-rule="evenodd" d="M339.5 597.5C340.043 597.56 340.376 597.893 340.5 598.5C338.257 599.474 335.924 599.808 333.5 599.5C335.5 598.833 337.5 598.167 339.5 597.5Z" fill="#7A6B67"/>
<path fill-rule="evenodd" clip-rule="evenodd" d="M733.5 596.5C737.232 598.131 741.232 599.131 745.5 599.5C741.167 599.5 736.833 599.5 732.5 599.5C732.263 598.209 732.596 597.209 733.5 596.5Z" fill="#80736E"/>
<path fill-rule="evenodd" clip-rule="evenodd" d="M544.5 602.5C545.5 602.5 546.5 602.5 547.5 602.5C547.607 604.903 546.607 606.736 544.5 608C532.217 616.615 520.217 625.615 508.5 635C506.783 636.559 504.783 637.392 502.5 637.5C502.286 635.856 502.62 634.356 503.5 633C517.591 623.3 531.258 613.133 544.5 602.5Z" fill="#EA9C93"/>
<path fill-rule="evenodd" clip-rule="evenodd" d="M351.5 641.5C351.5 643.5 351.5 645.5 351.5 647.5C341.847 646.588 332.18 646.421 322.5 647C321.167 648 321.167 649 322.5 650C332.501 650.553 342.501 651.053 352.5 651.5C353.774 663.512 355.107 675.512 356.5 687.5C329.202 695.401 312.368 685.401 306 657.5C304.549 645.163 305.882 633.163 310 621.5C316.623 607.774 327.456 601.774 342.5 603.5C350.104 615.037 353.104 627.703 351.5 641.5Z" fill="#FCD5C4"/>
<path fill-rule="evenodd" clip-rule="evenodd" d="M725.5 651.5C735.835 651.208 746.168 650.875 756.5 650.5C756.5 649.167 756.5 647.833 756.5 646.5C746.5 646.833 736.5 647.167 726.5 647.5C726.5 645.5 726.5 643.5 726.5 641.5C726.189 628.547 727.856 615.881 731.5 603.5C756.445 600.925 770.278 612.258 773 637.5C775.359 651.056 773.025 663.723 766 675.5C759.52 685.325 750.353 690.325 738.5 690.5C732.742 689.977 727.075 688.977 721.5 687.5C722.893 675.512 724.226 663.512 725.5 651.5Z" fill="#FCD5C4"/>
<path fill-rule="evenodd" clip-rule="evenodd" d="M419.5 652.5C402.688 645.999 394.688 633.666 395.5 615.5C405.597 612.114 415.93 609.947 426.5 609C420.808 611.206 417.641 615.373 417 621.5C414.501 631.676 417.335 639.843 425.5 646C422.926 647.737 420.926 649.904 419.5 652.5Z" fill="#FBFAFA"/>
<path fill-rule="evenodd" clip-rule="evenodd" d="M677.5 615.5C678.186 632.145 671.186 644.145 656.5 651.5C654.813 648.323 652.146 646.49 648.5 646C652.039 644.093 654.539 641.26 656 637.5C658.49 629.2 657.823 621.2 654 613.5C652.269 611.383 650.102 609.883 647.5 609C657.678 610.21 667.678 612.377 677.5 615.5Z" fill="#FBFBFA"/>
<path fill-rule="evenodd" clip-rule="evenodd" d="M606.5 612.5C607.492 612.328 608.158 612.662 608.5 613.5C602.495 622.089 601.995 631.089 607 640.5C613.403 647.589 621.403 650.589 631 649.5C634.576 649.25 638.076 649.083 641.5 649C639.963 650.11 639.297 651.61 639.5 653.5C638.596 654.209 638.263 655.209 638.5 656.5C629.827 656.666 621.16 656.5 612.5 656C593.305 651.667 584.305 639.833 585.5 620.5C592.039 616.653 599.039 613.987 606.5 612.5Z" fill="#FCFBFB"/>
<path fill-rule="evenodd" clip-rule="evenodd" d="M608.5 613.5C608.158 612.662 607.492 612.328 606.5 612.5C608.608 611.225 610.942 610.725 613.5 611C611.807 611.847 610.14 612.68 608.5 613.5Z" fill="#ABA19E"/>
<path fill-rule="evenodd" clip-rule="evenodd" d="M453.5 613.5C457.516 612.9 461.016 613.9 464 616.5C464.833 623.667 461.667 626.833 454.5 626C449.603 622.138 449.27 617.972 453.5 613.5Z" fill="#EEEDEC"/>
<path fill-rule="evenodd" clip-rule="evenodd" d="M487.5 620.5C488.887 631.253 485.554 640.42 477.5 648C465.284 655.651 451.951 658.484 437.5 656.5C437.682 654.409 437.348 652.409 436.5 650.5C445.567 650.404 454.234 648.571 462.5 645C471.29 636.343 472.79 626.509 467 615.5C465.833 614.333 464.667 613.167 463.5 612C471.851 613.729 479.851 616.562 487.5 620.5Z" fill="#FCFBFB"/>
<path fill-rule="evenodd" clip-rule="evenodd" d="M566.5 613.5C567.5 613.5 568.5 613.5 569.5 613.5C569.703 615.39 569.037 616.89 567.5 618C542.571 634.623 517.237 650.457 491.5 665.5C491.286 663.856 491.62 662.356 492.5 661C517.61 645.698 542.276 629.865 566.5 613.5Z" fill="#EA9C94"/>
<path fill-rule="evenodd" clip-rule="evenodd" d="M612.5 613.5C622.488 612.334 625.154 616.168 620.5 625C616.22 627.477 612.72 626.644 610 622.5C608.927 618.9 609.76 615.9 612.5 613.5Z" fill="#F4F3F3"/>
<path fill-rule="evenodd" clip-rule="evenodd" d="M429.5 619.5C442.74 619.495 446.407 625.328 440.5 637C433.415 641.292 427.915 639.792 424 632.5C423.333 630.5 423.333 628.5 424 626.5C425.666 624.004 427.5 621.671 429.5 619.5Z" fill="#F8F7F7"/>
<path fill-rule="evenodd" clip-rule="evenodd" d="M636.5 619.5C645.344 618.852 649.844 622.852 650 631.5C647.734 638.049 643.234 640.549 636.5 639C630.891 635.723 629.058 630.89 631 624.5C632.73 622.598 634.563 620.931 636.5 619.5Z" fill="#F7F6F6"/>
<path fill-rule="evenodd" clip-rule="evenodd" d="M448.5 631.5C453.715 630.702 458.215 632.036 462 635.5C462.682 639.18 461.182 641.68 457.5 643C451.315 645.039 446.982 643.205 444.5 637.5C445.432 635.235 446.765 633.235 448.5 631.5Z" fill="#F3F2F1"/>
<path fill-rule="evenodd" clip-rule="evenodd" d="M615.5 631.5C620.715 630.702 625.215 632.036 629 635.5C629.682 639.18 628.182 641.68 624.5 643C618.421 644.896 614.088 643.063 611.5 637.5C612.432 635.235 613.765 633.235 615.5 631.5Z" fill="#F4F2F2"/>
<path fill-rule="evenodd" clip-rule="evenodd" d="M561.5 639.5C565.652 639.631 566.318 641.131 563.5 644C550.833 651.333 538.167 658.667 525.5 666C523.35 667.411 521.016 668.245 518.5 668.5C518.238 667.022 518.571 665.689 519.5 664.5C533.894 656.644 547.894 648.311 561.5 639.5Z" fill="#EA9C94"/>
<path fill-rule="evenodd" clip-rule="evenodd" d="M351.5 641.5C352.479 644.625 352.813 647.958 352.5 651.5C342.501 651.053 332.501 650.553 322.5 650C321.167 649 321.167 648 322.5 647C332.18 646.421 341.847 646.588 351.5 647.5C351.5 645.5 351.5 643.5 351.5 641.5Z" fill="#D59A89"/>
<path fill-rule="evenodd" clip-rule="evenodd" d="M726.5 641.5C726.5 643.5 726.5 645.5 726.5 647.5C736.5 647.167 746.5 646.833 756.5 646.5C756.5 647.833 756.5 649.167 756.5 650.5C746.168 650.875 735.835 651.208 725.5 651.5C725.187 647.958 725.521 644.625 726.5 641.5Z" fill="#D59988"/>
<path fill-rule="evenodd" clip-rule="evenodd" d="M426.5 649.5C430.451 649.285 432.784 651.118 433.5 655C431.403 666.751 429.903 678.584 429 690.5C428.667 723.833 428.333 757.167 428 790.5C426.651 797.242 422.818 799.242 416.5 796.5C415.238 793.885 414.072 791.218 413 788.5C411.496 774.867 411.163 761.2 412 747.5C413.33 716.86 416.996 686.527 423 656.5C423.133 653.596 424.3 651.262 426.5 649.5Z" fill="#B0D3FA"/>
<path fill-rule="evenodd" clip-rule="evenodd" d="M645.5 649.5C647.936 649.317 650.103 649.984 652 651.5C662.063 694.918 666.063 738.918 664 783.5C663.674 788.146 662.34 792.479 660 796.5C656.76 798.036 653.76 797.703 651 795.5C649.054 792.861 648.054 789.861 648 786.5C647.667 753.5 647.333 720.5 647 687.5C646.246 676.618 645.079 665.785 643.5 655C643.395 652.822 644.061 650.988 645.5 649.5Z" fill="#AFD1F7"/>
<path fill-rule="evenodd" clip-rule="evenodd" d="M434.5 681.5C434.5 682.833 434.5 684.167 434.5 685.5C445.502 687.667 453.002 694 457 704.5C458.26 722.397 450.093 732.73 432.5 735.5C432.333 720.496 432.5 705.496 433 690.5C433.181 687.305 433.681 684.305 434.5 681.5Z" fill="#F7C2AF"/>
<path fill-rule="evenodd" clip-rule="evenodd" d="M642.5 685.5C643.471 702.119 643.805 718.786 643.5 735.5C632.358 733.862 624.525 727.862 620 717.5C617.858 700.131 625.358 689.465 642.5 685.5Z" fill="#F9C3B0"/>
<path fill-rule="evenodd" clip-rule="evenodd" d="M413.5 687.5C411.108 703.895 409.442 720.229 408.5 736.5C408.799 734.396 408.466 732.396 407.5 730.5C403.428 727.596 400.261 723.929 398 719.5C393.807 704.222 398.973 693.555 413.5 687.5Z" fill="#F6C1AE"/>
<path fill-rule="evenodd" clip-rule="evenodd" d="M663.5 687.5C667.708 689.368 671.375 692.035 674.5 695.5C683.064 709.7 680.731 721.7 667.5 731.5C666.24 716.828 664.907 702.162 663.5 687.5Z" fill="#F7C2AF"/>
<path fill-rule="evenodd" clip-rule="evenodd" d="M519.5 691.5C520.822 691.33 521.989 691.663 523 692.5C523.893 697.983 526.893 701.649 532 703.5C532.483 704.448 532.649 705.448 532.5 706.5C523.792 705.472 519.459 700.472 519.5 691.5Z" fill="#3F2820"/>
<path fill-rule="evenodd" clip-rule="evenodd" d="M565.5 714.5C577.845 714.927 587.011 720.594 593 731.5C601.171 749.725 601.505 768.058 594 786.5C588.57 794.453 581.07 797.287 571.5 795C563.739 790.786 555.739 787.119 547.5 784C540.101 783.152 532.767 783.485 525.5 785C516.404 790.221 506.737 793.721 496.5 795.5C481.767 792.939 472.6 784.272 469 769.5C466.215 754.774 468.215 740.774 475 727.5C483.111 718.258 493.277 714.758 505.5 717C525.884 722.262 545.884 721.429 565.5 714.5Z" fill="#3B221B"/>
<path fill-rule="evenodd" clip-rule="evenodd" d="M564.5 718.5C570.948 717.56 576.615 719.227 581.5 723.5C588.891 730.614 593.391 739.281 595 749.5C595.846 758.553 595.513 767.553 594 776.5C591.195 788.641 583.695 793.474 571.5 791C567.673 789.254 564.007 787.254 560.5 785C563.407 771.386 559.073 760.719 547.5 753C533.563 748.37 522.396 752.204 514 764.5C510.847 771.219 510.681 778.052 513.5 785C500.2 794.882 488.367 793.382 478 780.5C470.366 766.072 469.366 751.072 475 735.5C479.608 725.383 487.442 720.383 498.5 720.5C505.276 721.027 511.943 722.194 518.5 724C534.456 725.976 549.789 724.143 564.5 718.5Z" fill="#B55050"/>
<path fill-rule="evenodd" clip-rule="evenodd" d="M533.5 754.5C547.009 754.845 554.676 761.679 556.5 775C556.589 777.723 555.923 780.223 554.5 782.5C542.496 778.197 530.663 778.531 519 783.5C515.052 778.112 514.719 772.445 518 766.5C522.184 761.14 527.351 757.14 533.5 754.5Z" fill="#8A3434"/>
<path fill-rule="evenodd" clip-rule="evenodd" d="M535.5 796.5C540.913 796.229 546.246 796.729 551.5 798C554.726 799.106 557.393 800.939 559.5 803.5C559.167 804.5 558.5 805.167 557.5 805.5C545.437 798.365 533.77 799.032 522.5 807.5C519.921 806.112 519.921 804.612 522.5 803C526.771 800.533 531.104 798.366 535.5 796.5Z" fill="#3B241D"/>
</svg>
