<svg width="150" height="150" viewBox="0 0 1080 1080" fill="none" xmlns="http://www.w3.org/2000/svg">
<path fill-rule="evenodd" clip-rule="evenodd" d="M547.5 239.5C584.533 236.671 615.7 248.671 641 275.5C654.863 294.855 658.863 316.189 653 339.5C649.418 350.966 645.085 361.966 640 372.5C649.675 367.965 659.842 366.465 670.5 368C671.337 369.011 671.67 370.178 671.5 371.5C664.825 371.334 658.158 371.5 651.5 372C646.777 373.196 642.443 375.196 638.5 378C660.352 386.254 680.352 397.587 698.5 412C718.428 429.012 731.928 450.178 739 475.5C750.139 513.467 751.472 551.801 743 590.5C741.474 595.937 739.641 601.27 737.5 606.5C755.116 607.046 767.283 615.379 774 631.5C780.649 651.984 778.316 671.317 767 689.5C754.913 702.091 740.413 705.757 723.5 700.5C713.541 740.613 691.874 772.78 658.5 797C622.846 822.276 583.179 836.776 539.5 840.5C476.062 835.367 423.896 808.7 383 760.5C369.918 741.67 360.084 721.337 353.5 699.5C331.419 706.532 315.586 699.532 306 678.5C300.356 662.968 300.023 647.301 305 631.5C310.105 618.192 319.605 609.858 333.5 606.5C324.913 585.354 321.746 563.354 324 540.5C324.93 507.78 332.597 476.78 347 447.5C358.167 425.667 374.667 409.167 396.5 398C402.246 395.45 408.246 393.784 414.5 393C430.835 377.33 450.169 367.164 472.5 362.5C456.932 334.404 458.098 307.071 476 280.5C493.58 255.797 517.413 242.131 547.5 239.5Z" fill="#3B251E"/>
<path fill-rule="evenodd" clip-rule="evenodd" d="M616.5 371.5C627.798 358.988 632.298 344.322 630 327.5C619.777 278.627 589.943 258.127 540.5 266C502.159 274.535 483.992 298.369 486 337.5C487.043 344.928 488.543 352.261 490.5 359.5C485.65 360.842 480.817 361.175 476 360.5C461.12 334.152 462.12 308.486 479 283.5C493.203 262.632 512.703 249.799 537.5 245C565.359 241.217 591.693 245.884 616.5 259C648.17 280.452 658.337 309.619 647 346.5C643.459 357.257 638.125 366.924 631 375.5C626.056 374.462 621.223 373.128 616.5 371.5Z" fill="#654F47"/>
<path fill-rule="evenodd" clip-rule="evenodd" d="M616.5 371.5C614.302 371.125 612.302 370.458 610.5 369.5C611.552 369.649 612.552 369.483 613.5 369C628.084 350.555 630.584 330.388 621 308.5C608.073 279.278 585.573 265.778 553.5 268C499.383 275.629 479.716 305.796 494.5 358.5C496.167 358.5 497.833 358.5 499.5 358.5C496.713 359.477 493.713 359.81 490.5 359.5C488.543 352.261 487.043 344.928 486 337.5C483.992 298.369 502.159 274.535 540.5 266C589.943 258.127 619.777 278.627 630 327.5C632.298 344.322 627.798 358.988 616.5 371.5Z" fill="#4D3831"/>
<path fill-rule="evenodd" clip-rule="evenodd" d="M610.5 369.5C604.506 368.168 598.506 366.835 592.5 365.5C600.216 354.521 604.883 342.354 606.5 329C605.123 314.613 597.457 305.28 583.5 301C570.06 296.563 556.393 295.563 542.5 298C521.333 305.225 512.5 320.058 516 342.5C516.62 347.556 517.454 352.556 518.5 357.5C512.355 358.49 506.022 358.823 499.5 358.5C497.833 358.5 496.167 358.5 494.5 358.5C479.716 305.796 499.383 275.629 553.5 268C585.573 265.778 608.073 279.278 621 308.5C630.584 330.388 628.084 350.555 613.5 369C612.552 369.483 611.552 369.649 610.5 369.5Z" fill="#654F47"/>
<path fill-rule="evenodd" clip-rule="evenodd" d="M592.5 365.5C589.72 364.922 587.053 364.255 584.5 363.5C587.325 363.919 589.491 362.919 591 360.5C612.983 326.645 604.15 306.812 564.5 301C552.809 299.341 541.809 301.341 531.5 307C521.589 316.006 517.756 327.173 520 340.5C520.434 346.241 521.267 351.908 522.5 357.5C521.167 357.5 519.833 357.5 518.5 357.5C517.454 352.556 516.62 347.556 516 342.5C512.5 320.058 521.333 305.225 542.5 298C556.393 295.563 570.06 296.563 583.5 301C597.457 305.28 605.123 314.613 606.5 329C604.883 342.354 600.216 354.521 592.5 365.5Z" fill="#4D3831"/>
<path fill-rule="evenodd" clip-rule="evenodd" d="M584.5 363.5C563.746 360.814 543.079 358.814 522.5 357.5C521.267 351.908 520.434 346.241 520 340.5C517.756 327.173 521.589 316.006 531.5 307C541.809 301.341 552.809 299.341 564.5 301C604.15 306.812 612.983 326.645 591 360.5C589.491 362.919 587.325 363.919 584.5 363.5Z" fill="#654F47"/>
<path fill-rule="evenodd" clip-rule="evenodd" d="M501.5 362.5C550.68 360.638 598.347 368.138 644.5 385C675.842 397.027 701.342 416.527 721 443.5C746.722 493.331 751.722 545.331 736 599.5C734.364 604.742 732.53 609.909 730.5 615C730.15 616.257 729.483 616.591 728.5 616C726.951 614.786 725.785 613.286 725 611.5C723.083 596.155 715.916 583.988 703.5 575C687.958 570.107 674.458 561.94 663 550.5C660.787 547.905 658.953 545.072 657.5 542C662.358 537.478 667.524 533.312 673 529.5C673.906 531.612 675.406 532.445 677.5 532C679.417 529.502 681.084 526.835 682.5 524C685.877 523.548 689.211 522.882 692.5 522C693.772 519.956 693.439 518.122 691.5 516.5C693.884 514.115 696.55 512.115 699.5 510.5C700.591 512.015 701.924 512.848 703.5 513C705.545 510.414 707.211 507.58 708.5 504.5C712.424 503.729 716.257 502.729 720 501.5C718.935 498.394 716.935 495.727 714 493.5C714.077 489.195 714.244 484.862 714.5 480.5C711.105 481.941 707.605 483.274 704 484.5C700.427 482.466 696.594 481.132 692.5 480.5C693.004 484.507 693.17 488.507 693 492.5C690.128 495.037 687.628 497.87 685.5 501C682.61 502.029 679.776 503.195 677 504.5C673.649 502.407 670.149 500.74 666.5 499.5C666.666 503.846 666.499 508.179 666 512.5C659.105 520.394 651.272 527.227 642.5 533C595.5 536.166 550.167 529.166 506.5 512C483.861 501.365 464.028 486.865 447 468.5C441.155 460.795 435.322 453.128 429.5 445.5C424.014 477.818 411.848 507.485 393 534.5C383.667 545.167 373.667 555.167 363 564.5C359.612 568.609 357.279 573.275 356 578.5C356.415 590.935 354.415 602.935 350 614.5C348.663 615.765 347.163 616.265 345.5 616C341.472 612.113 338.306 607.613 336 602.5C327.713 577.775 325.379 552.442 329 526.5C331.89 494.259 341.557 464.259 358 436.5C369.994 419.595 385.494 407.095 404.5 399C408.5 398.333 412.5 397.667 416.5 397C427.656 384.577 441.322 375.91 457.5 371C471.977 366.535 486.643 363.702 501.5 362.5Z" fill="#654F47"/>
<path fill-rule="evenodd" clip-rule="evenodd" d="M449.5 399.5C458.173 399.334 466.84 399.5 475.5 400C476.833 401 476.833 402 475.5 403C467.167 403.333 458.833 403.667 450.5 404C447.107 404.798 443.774 405.798 440.5 407C436.229 409.474 431.896 411.641 427.5 413.5C427.393 411.097 428.393 409.264 430.5 408C436.657 404.585 442.99 401.751 449.5 399.5Z" fill="#4D3831"/>
<path fill-rule="evenodd" clip-rule="evenodd" d="M411.5 423.5C412.873 423.343 414.207 423.51 415.5 424C416.833 425 416.833 426 415.5 427C404.653 429.846 395.986 435.846 389.5 445C386.169 444.811 385.669 443.311 388 440.5C394.055 432.265 401.888 426.598 411.5 423.5Z" fill="#4D3831"/>
<path fill-rule="evenodd" clip-rule="evenodd" d="M428.5 425.5C435.008 429.144 441.675 432.644 448.5 436C451.49 436.897 454.49 437.731 457.5 438.5C458.89 440.495 458.39 441.828 456 442.5C445.232 439.701 435.732 434.701 427.5 427.5C427.863 426.817 428.196 426.15 428.5 425.5Z" fill="#4E3831"/>
<path fill-rule="evenodd" clip-rule="evenodd" d="M430.5 458.5C449.109 507.99 484.776 535.657 537.5 541.5C539.915 541.281 540.915 539.948 540.5 537.5C489.421 533.573 454.587 507.906 436 460.5C461.052 493.131 493.552 514.964 533.5 526C568.504 535.549 604.17 539.716 640.5 538.5C642.306 541.472 644.306 544.305 646.5 547C648.977 547.24 651.144 546.406 653 544.5C659.403 552.516 666.57 559.683 674.5 566C684.014 570.923 693.68 575.59 703.5 580C708.964 584.081 713.131 589.248 716 595.5C717.807 602.755 720.307 609.755 723.5 616.5C727.308 618.223 728.975 621.223 728.5 625.5C727.468 648.622 725.301 671.622 722 694.5C711.782 736.361 689.282 769.861 654.5 795C619.713 819.431 581.047 833.264 538.5 836.5C477.496 831.083 426.996 805.416 387 759.5C369.34 734.527 358.34 706.861 354 676.5C352.334 657.184 351.334 637.85 351 618.5C354.942 613.942 357.276 608.608 358 602.5C359.109 594.543 359.776 586.543 360 578.5C361.139 574.888 362.806 571.554 365 568.5C399.909 539.692 421.742 503.026 430.5 458.5Z" fill="#FED7C6"/>
<path fill-rule="evenodd" clip-rule="evenodd" d="M697.5 486.5C699.473 487.487 701.473 488.487 703.5 489.5C705.5 488.5 707.5 487.5 709.5 486.5C709.833 486.833 710.167 487.167 710.5 487.5C708.678 492.064 709.678 495.897 713.5 499C711.1 499.186 708.766 499.686 706.5 500.5C705.081 502.336 703.914 504.336 703 506.5C701.961 504.254 700.794 502.087 699.5 500C697.1 499.814 694.766 499.314 692.5 498.5C697.026 495.797 698.692 491.797 697.5 486.5Z" fill="#C6C4C4"/>
<path fill-rule="evenodd" clip-rule="evenodd" d="M690.5 502.5C693.753 502.471 696.419 503.637 698.5 506C695.308 508.692 691.975 511.192 688.5 513.5C687.119 513 686.453 512 686.5 510.5C686.658 507.068 687.992 504.401 690.5 502.5Z" fill="#828181"/>
<path fill-rule="evenodd" clip-rule="evenodd" d="M670.5 506.5C672.747 506.915 674.914 507.582 677 508.5C678.984 508.259 680.817 507.592 682.5 506.5C682.621 509.002 682.788 511.668 683 514.5C684.5 516 686 517.5 687.5 519C684.774 519.182 682.107 519.682 679.5 520.5C677.5 527.167 675.5 527.167 673.5 520.5C671.343 519.21 669.01 518.376 666.5 518C671.267 515.309 672.6 511.476 670.5 506.5Z" fill="#C7C6C6"/>
<path fill-rule="evenodd" clip-rule="evenodd" d="M662.5 522.5C665.187 522.336 667.854 522.503 670.5 523C671.517 524.049 671.684 525.216 671 526.5C663.639 532.027 656.139 537.361 648.5 542.5C646.549 540.771 645.382 538.771 645 536.5C651.021 531.969 656.854 527.303 662.5 522.5Z" fill="#838383"/>
<path fill-rule="evenodd" clip-rule="evenodd" d="M440.5 559.5C456.789 558.192 472.456 560.692 487.5 567C488.337 568.011 488.67 569.178 488.5 570.5C480.214 568.24 471.881 566.073 463.5 564C453.347 562.875 443.347 563.542 433.5 566C428.255 568.791 422.921 571.291 417.5 573.5C417.799 570.358 419.466 568.191 422.5 567C428.485 564.166 434.485 561.666 440.5 559.5Z" fill="#3D261E"/>
<path fill-rule="evenodd" clip-rule="evenodd" d="M614.5 563.5C630.342 562.194 645.009 565.694 658.5 574C659.38 575.356 659.714 576.856 659.5 578.5C653.929 575.714 648.262 572.881 642.5 570C624.443 565.265 607.109 567.098 590.5 575.5C588.51 574.537 588.177 573.204 589.5 571.5C597.65 567.881 605.983 565.214 614.5 563.5Z" fill="#412921"/>
<path fill-rule="evenodd" clip-rule="evenodd" d="M485.5 642.5C478.785 621.281 464.119 612.448 441.5 616C426.013 619.487 416.513 628.987 413 644.5C412.248 653.208 412.581 661.875 414 670.5C415.847 675.522 417.681 680.522 419.5 685.5C418.022 685.762 416.689 685.429 415.5 684.5C414.074 682.063 412.741 679.563 411.5 677C407.879 677.405 404.213 677.405 400.5 677C397.574 676.313 396.241 674.48 396.5 671.5C398.91 672.389 401.41 673.055 404 673.5C406.187 673.212 408.354 672.878 410.5 672.5C407.727 660.421 407.894 648.421 411 636.5C416.97 623.204 427.137 615.038 441.5 612C459.216 608.678 473.383 614.178 484 628.5C485.968 631.737 487.135 635.237 487.5 639C487.392 640.681 486.725 641.848 485.5 642.5Z" fill="#3F2821"/>
<path fill-rule="evenodd" clip-rule="evenodd" d="M657.5 684.5C660.6 677.88 662.766 670.88 664 663.5C668.205 638.712 658.371 622.879 634.5 616C612.012 612.22 597.678 621.054 591.5 642.5C590.351 642.209 589.684 641.376 589.5 640C592.488 626.007 600.821 616.673 614.5 612C655.665 609.836 672.999 629.17 666.5 670C667.215 672.781 669.048 673.948 672 673.5C674.379 673.518 676.546 672.851 678.5 671.5C681.079 672.888 681.079 674.388 678.5 676C673.798 676.172 669.132 676.672 664.5 677.5C662.924 679.979 661.924 682.646 661.5 685.5C659.901 685.768 658.568 685.434 657.5 684.5Z" fill="#3C251E"/>
<path fill-rule="evenodd" clip-rule="evenodd" d="M348.5 655.5C340.464 655.771 332.464 655.438 324.5 654.5C321.815 654.708 321.149 655.875 322.5 658C331.151 658.832 339.817 659.332 348.5 659.5C349.309 671.803 350.976 684.137 353.5 696.5C336.672 701.928 323.172 697.595 313 683.5C304.481 666.819 303.148 649.486 309 631.5C314.348 619.469 323.514 612.969 336.5 612C339 615.833 342.167 619 346 621.5C347.248 632.804 348.082 644.138 348.5 655.5Z" fill="#FBD4C4"/>
<path fill-rule="evenodd" clip-rule="evenodd" d="M730.5 659.5C739.203 659.645 747.87 659.145 756.5 658C757.833 657 757.833 656 756.5 655C755 654.833 753.5 654.667 752 654.5C744.856 655.322 737.69 655.656 730.5 655.5C731.001 643.48 731.835 631.48 733 619.5C734.136 616.904 734.969 614.237 735.5 611.5C758.098 610.928 770.598 621.928 773 644.5C776.524 663.58 771.357 679.747 757.5 693C747.333 698.717 736.666 699.883 725.5 696.5C728.024 684.137 729.691 671.803 730.5 659.5Z" fill="#FCD5C4"/>
<path fill-rule="evenodd" clip-rule="evenodd" d="M485.5 642.5C486.762 653.876 484.595 664.543 479 674.5C469.984 685.12 458.484 689.787 444.5 688.5C435.987 688.853 427.654 687.853 419.5 685.5C417.681 680.522 415.847 675.522 414 670.5C412.581 661.875 412.248 653.208 413 644.5C416.513 628.987 426.013 619.487 441.5 616C464.119 612.448 478.785 621.281 485.5 642.5Z" fill="#FAFAF9"/>
<path fill-rule="evenodd" clip-rule="evenodd" d="M657.5 684.5C645.134 688.268 632.467 689.435 619.5 688C600.162 683.221 590.495 670.721 590.5 650.5C590.551 647.747 590.884 645.08 591.5 642.5C597.678 621.054 612.012 612.22 634.5 616C658.371 622.879 668.205 638.712 664 663.5C662.766 670.88 660.6 677.88 657.5 684.5Z" fill="#F9F9F8"/>
<path fill-rule="evenodd" clip-rule="evenodd" d="M440.5 625.5C466.937 623.773 478.437 636.107 475 662.5C468.392 681.486 455.558 687.652 436.5 681C427.592 674.31 423.258 665.31 423.5 654C422.973 640.52 428.639 631.02 440.5 625.5Z" fill="#351F18"/>
<path fill-rule="evenodd" clip-rule="evenodd" d="M619.5 625.5C635.672 622.328 646.506 628.328 652 643.5C655.538 657.85 652.038 670.017 641.5 680C620.969 688.152 607.469 681.652 601 660.5C598.318 643.853 604.484 632.186 619.5 625.5Z" fill="#351F18"/>
<path fill-rule="evenodd" clip-rule="evenodd" d="M437.5 633.5C445.033 633.529 448.533 637.196 448 644.5C444.938 648.943 440.771 650.443 435.5 649C429.706 642.94 430.372 637.774 437.5 633.5Z" fill="#F0EFEE"/>
<path fill-rule="evenodd" clip-rule="evenodd" d="M614.5 633.5C624.927 634.376 627.594 639.209 622.5 648C612.61 651.447 608.443 647.947 610 637.5C611.397 635.93 612.897 634.596 614.5 633.5Z" fill="#F4F3F2"/>
<path fill-rule="evenodd" clip-rule="evenodd" d="M348.5 655.5C348.5 656.833 348.5 658.167 348.5 659.5C339.817 659.332 331.151 658.832 322.5 658C321.149 655.875 321.815 654.708 324.5 654.5C332.464 655.438 340.464 655.771 348.5 655.5Z" fill="#D69988"/>
<path fill-rule="evenodd" clip-rule="evenodd" d="M730.5 659.5C730.5 658.167 730.5 656.833 730.5 655.5C737.69 655.656 744.856 655.322 752 654.5C753.5 654.667 755 654.833 756.5 655C757.833 656 757.833 657 756.5 658C747.87 659.145 739.203 659.645 730.5 659.5Z" fill="#D89B8A"/>
<path fill-rule="evenodd" clip-rule="evenodd" d="M526.5 703.5C527.833 703.5 529.167 703.5 530.5 703.5C530.359 707.555 532.026 710.555 535.5 712.5C535.113 713.72 534.28 714.387 533 714.5C528.77 712.039 526.604 708.372 526.5 703.5Z" fill="#402821"/>
<path fill-rule="evenodd" clip-rule="evenodd" d="M418.5 708.5C431.859 706.609 443.359 710.276 453 719.5C460.08 731.766 458.58 742.933 448.5 753C435.794 760.671 422.794 761.338 409.5 755C393.522 741.094 393.522 727.094 409.5 713C412.686 711.643 415.686 710.143 418.5 708.5Z" fill="#FAC4B1"/>
<path fill-rule="evenodd" clip-rule="evenodd" d="M639.5 708.5C650.32 706.965 660.32 709.132 669.5 715C679.778 724.9 681.278 736.067 674 748.5C662.696 759.594 649.529 762.427 634.5 757C619.561 748.846 615.394 737.012 622 721.5C624.263 718.114 627.097 715.281 630.5 713C633.686 711.643 636.686 710.143 639.5 708.5Z" fill="#FAC4B1"/>
<path fill-rule="evenodd" clip-rule="evenodd" d="M502.5 750.5C503.552 750.351 504.552 750.517 505.5 751C509.479 756.332 514.812 759.665 521.5 761C532.833 763 544.167 763 555.5 761C561.421 759.55 566.087 756.383 569.5 751.5C570.325 750.614 571.325 750.281 572.5 750.5C572.66 752.199 572.494 753.866 572 755.5C563.506 763.484 553.34 767.15 541.5 766.5C531.579 766.443 521.912 764.943 512.5 762C509.397 760.561 506.564 758.727 504 756.5C502.872 754.655 502.372 752.655 502.5 750.5Z" fill="#3F2720"/>
<path fill-rule="evenodd" clip-rule="evenodd" d="M519.5 774.5C520.552 774.351 521.552 774.517 522.5 775C524.557 778.723 527.557 781.39 531.5 783C536.167 783.333 540.833 783.667 545.5 784C546.833 785 546.833 786 545.5 787C536.012 789.343 527.846 787.177 521 780.5C519.872 778.655 519.372 776.655 519.5 774.5Z" fill="#402821"/>
</svg>
