<svg width="150" height="150" viewBox="0 0 1080 1080" fill="none" xmlns="http://www.w3.org/2000/svg">
<path fill-rule="evenodd" clip-rule="evenodd" d="M547.5 240.5C577.006 238.35 603.672 245.85 627.5 263C657.375 290.419 663.542 322.586 646 359.5C643.88 364.242 641.38 368.742 638.5 373C642.357 371.714 646.357 370.381 650.5 369C657.167 368.333 663.833 368.333 670.5 369C671.833 370 671.833 371 670.5 372C663.5 372.333 656.5 372.667 649.5 373C645.554 374.306 641.888 376.139 638.5 378.5C660.199 387.179 680.199 398.679 698.5 413C719.308 431.097 733.141 453.597 740 480.5C751.88 523.121 751.047 565.455 737.5 607.5C757.635 607.467 770.135 617.133 775 636.5C779.25 655.015 776.584 672.348 767 688.5C755.341 701.436 741.174 705.102 724.5 699.5C716.673 726.152 703.84 750.152 686 771.5C680.968 776.867 675.635 781.867 670 786.5C669.859 796.216 669.193 805.883 668 815.5C663.46 828.016 654.96 831.849 642.5 827C637.568 823.29 634.568 818.456 633.5 812.5C612.574 823.199 590.574 831.032 567.5 836C543.879 841.406 520.546 840.406 497.5 833C477.613 827.985 458.947 820.152 441.5 809.5C439.705 816.26 436.038 821.76 430.5 826C418.905 832.357 410.405 829.524 405 817.5C403.775 805.548 403.109 793.548 403 781.5C379.443 759.056 363.61 732.056 355.5 700.5C327.41 706.607 309.91 695.607 303 667.5C301.776 654.618 302.776 641.951 306 629.5C311.346 616.754 320.846 609.754 334.5 608.5C330.554 598.826 327.72 588.826 326 578.5C322.093 538.322 327.093 499.322 341 461.5C350.564 437.859 365.73 418.692 386.5 404C395.126 398.68 404.46 395.347 414.5 394C423.843 383.996 434.843 376.329 447.5 371C455.844 368.102 464.177 365.269 472.5 362.5C458.899 339.237 458.066 315.57 470 291.5C486.909 260.804 512.743 243.804 547.5 240.5Z" fill="#3B251E"/>
<path fill-rule="evenodd" clip-rule="evenodd" d="M617.5 372.5C620.731 366.081 624.231 359.747 628 353.5C633.685 323.556 625.185 298.389 602.5 278C578.492 262.682 553.159 260.349 526.5 271C495.364 283.756 482.197 306.923 487 340.5C488.277 347.163 489.444 353.83 490.5 360.5C486.245 360.584 482.078 361.251 478 362.5C463.521 340.882 461.854 318.215 473 294.5C494.243 257.292 526.409 240.792 569.5 245C597.089 247.377 619.922 258.877 638 279.5C648.561 293.359 652.894 309.025 651 326.5C648.609 344.682 642.109 361.182 631.5 376C626.88 375.038 622.213 373.871 617.5 372.5Z" fill="#654F47"/>
<path fill-rule="evenodd" clip-rule="evenodd" d="M617.5 372.5C615.694 371.976 614.028 371.309 612.5 370.5C627.785 352.086 630.618 331.753 621 309.5C607.534 279.674 584.367 266.174 551.5 269C498.584 277.47 479.584 307.637 494.5 359.5C493.041 359.433 491.708 359.766 490.5 360.5C489.444 353.83 488.277 347.163 487 340.5C482.197 306.923 495.364 283.756 526.5 271C553.159 260.349 578.492 262.682 602.5 278C625.185 298.389 633.685 323.556 628 353.5C624.231 359.747 620.731 366.081 617.5 372.5Z" fill="#4D3831"/>
<path fill-rule="evenodd" clip-rule="evenodd" d="M612.5 370.5C605.833 369.167 599.167 367.833 592.5 366.5C600.202 355.569 604.869 343.402 606.5 330C604.711 314.866 596.378 305.2 581.5 301C568.304 297.409 554.971 296.742 541.5 299C526.587 303.249 518.087 313.082 516 328.5C515.446 338.629 516.28 348.629 518.5 358.5C510.486 358.568 502.486 358.901 494.5 359.5C479.584 307.637 498.584 277.47 551.5 269C584.367 266.174 607.534 279.674 621 309.5C630.618 331.753 627.785 352.086 612.5 370.5Z" fill="#654F47"/>
<path fill-rule="evenodd" clip-rule="evenodd" d="M592.5 366.5C589.72 365.922 587.053 365.255 584.5 364.5C586.144 364.714 587.644 364.38 589 363.5C598.887 351.093 602.887 337.093 601 321.5C596.607 313.435 590.107 307.935 581.5 305C567.239 300.909 552.905 300.576 538.5 304C523.376 312.307 517.209 325.14 520 342.5C520.838 347.846 521.671 353.179 522.5 358.5C521.167 358.5 519.833 358.5 518.5 358.5C516.28 348.629 515.446 338.629 516 328.5C518.087 313.082 526.587 303.249 541.5 299C554.971 296.742 568.304 297.409 581.5 301C596.378 305.2 604.711 314.866 606.5 330C604.869 343.402 600.202 355.569 592.5 366.5Z" fill="#4D3831"/>
<path fill-rule="evenodd" clip-rule="evenodd" d="M584.5 364.5C563.982 361.068 543.316 359.068 522.5 358.5C521.671 353.179 520.838 347.846 520 342.5C517.209 325.14 523.376 312.307 538.5 304C552.905 300.576 567.239 300.909 581.5 305C590.107 307.935 596.607 313.435 601 321.5C602.887 337.093 598.887 351.093 589 363.5C587.644 364.38 586.144 364.714 584.5 364.5Z" fill="#654F47"/>
<path fill-rule="evenodd" clip-rule="evenodd" d="M504.5 362.5C547.164 361.571 588.831 367.405 629.5 380C660.09 389.7 686.59 405.867 709 428.5C726.605 451.958 737.605 478.291 742 507.5C745.688 533.302 745.022 558.969 740 584.5C736.985 594.899 733.818 605.232 730.5 615.5C728.097 615.607 726.264 614.607 725 612.5C722.746 603.892 719.746 595.559 716 587.5C713.872 584.37 711.372 581.537 708.5 579C697.535 573.34 686.535 567.673 675.5 562C668.126 556.294 661.793 549.627 656.5 542C661.694 537.973 667.027 534.14 672.5 530.5C673.869 532.124 675.536 532.624 677.5 532C678.961 529.579 680.294 527.079 681.5 524.5C685.061 523.239 688.728 522.406 692.5 522C693.5 519.909 692.833 518.243 690.5 517C693.333 514.833 696.167 512.667 699 510.5C700.019 511.687 701.186 512.687 702.5 513.5C704.735 510.709 706.735 507.709 708.5 504.5C712.041 503.8 715.541 503.133 719 502.5C719.667 501.5 719.667 500.5 719 499.5C716.233 497.242 714.066 494.575 712.5 491.5C713.795 488.284 714.462 484.951 714.5 481.5C710.556 481.968 706.889 483.301 703.5 485.5C700.01 483.317 696.343 481.65 692.5 480.5C692.566 484.559 692.733 488.559 693 492.5C689.79 495.009 686.957 497.842 684.5 501C682.06 502.303 679.56 503.47 677 504.5C673.385 502.438 669.552 501.105 665.5 500.5C668.394 507.899 666.561 513.566 660 517.5C659.654 519.848 658.487 521.681 656.5 523C651.833 526.333 647.167 529.667 642.5 533C596.219 536.579 551.553 529.913 508.5 513C476.094 499.216 450.594 477.383 432 447.5C430.951 446.483 429.784 446.316 428.5 447C423.786 480.496 411.286 510.663 391 537.5C382.333 547.5 373 556.833 363 565.5C358.908 570.769 356.575 576.769 356 583.5C356.471 593.886 354.804 603.886 351 613.5C349.887 615.329 348.387 616.163 346.5 616C338.938 608.713 334.104 599.879 332 589.5C325.228 546.78 329.228 505.113 344 464.5C354.631 437.054 372.798 416.22 398.5 402C404.569 399.376 410.902 397.71 417.5 397C425.841 387.013 436.174 379.68 448.5 375C466.665 368.069 485.332 363.903 504.5 362.5Z" fill="#654F47"/>
<path fill-rule="evenodd" clip-rule="evenodd" d="M453.5 399.5C460.508 399.334 467.508 399.5 474.5 400C476.592 400.953 476.925 402.286 475.5 404C462.36 402.113 449.693 403.779 437.5 409C434.659 410.586 431.993 412.42 429.5 414.5C427.899 413.965 427.399 412.965 428 411.5C435.54 405.274 444.04 401.274 453.5 399.5Z" fill="#4D3831"/>
<path fill-rule="evenodd" clip-rule="evenodd" d="M413.5 423.5C415.912 423.694 416.912 425.027 416.5 427.5C405.604 429.876 396.937 435.709 390.5 445C389.552 445.483 388.552 445.649 387.5 445.5C388.642 441.068 390.975 437.235 394.5 434C400.327 429.423 406.66 425.923 413.5 423.5Z" fill="#4D3831"/>
<path fill-rule="evenodd" clip-rule="evenodd" d="M428.5 426.5C435.048 429.107 441.381 432.274 447.5 436C450.774 437.202 454.107 438.202 457.5 439C458.337 440.011 458.67 441.178 458.5 442.5C447.678 440.508 437.845 436.174 429 429.5C428.517 428.552 428.351 427.552 428.5 426.5Z" fill="#4D3831"/>
<path fill-rule="evenodd" clip-rule="evenodd" d="M439.5 467.5C439.5 466.833 439.833 466.5 440.5 466.5C461.764 492.567 488.431 511.067 520.5 522C559.2 533.976 598.867 539.309 639.5 538C641.833 541 644.167 544 646.5 547C648.977 547.24 651.144 546.406 653 544.5C661.031 556.533 671.531 565.7 684.5 572C696.447 574.547 705.947 580.714 713 590.5C716.334 599.184 719.667 607.851 723 616.5C724.264 618.607 726.097 619.607 728.5 619.5C727.532 646.379 724.699 673.046 720 699.5C711.391 732.396 694.391 760.063 669 782.5C668.482 772.83 667.982 763.163 667.5 753.5C679.819 743.491 681.653 731.824 673 718.5C670.044 715.278 666.544 712.944 662.5 711.5C662.369 707.048 661.702 702.714 660.5 698.5C660.5 698.167 660.5 697.833 660.5 697.5C671.276 689.888 681.276 681.388 690.5 672C689.851 669.023 688.517 668.689 686.5 671C677.641 678.365 668.974 685.865 660.5 693.5C660.167 693.5 659.833 693.5 659.5 693.5C658.579 687.072 657.245 680.739 655.5 674.5C657.144 672.519 658.81 670.519 660.5 668.5C660.167 667.5 659.5 666.833 658.5 666.5C657.186 667.313 656.019 668.313 655 669.5C654.617 668.944 654.117 668.611 653.5 668.5C652.398 664.292 650.731 660.292 648.5 656.5C653.78 655.97 659.113 655.97 664.5 656.5C664.5 655.5 664.5 654.5 664.5 653.5C654.447 651.473 644.28 650.473 634 650.5C620.365 650.831 606.865 651.997 593.5 654C613.891 642.286 635.891 636.452 659.5 636.5C659.291 635.914 658.957 635.414 658.5 635C641.193 632.795 624.526 635.128 608.5 642C599.893 645.302 591.893 649.635 584.5 655C582.963 656.11 582.297 657.61 582.5 659.5C595.806 657.736 609.139 656.569 622.5 656C625.703 661.372 627.37 667.205 627.5 673.5C618.65 681.845 609.317 689.678 599.5 697C597.845 698.444 597.178 700.278 597.5 702.5C598.552 702.649 599.552 702.483 600.5 702C609.706 693.956 619.04 686.122 628.5 678.5C628.263 679.791 628.596 680.791 629.5 681.5C629.5 682.833 629.5 684.167 629.5 685.5C629.5 687.5 629.5 689.5 629.5 691.5C624.195 696.634 618.695 701.634 613 706.5C612.51 707.793 612.343 709.127 612.5 710.5C613.552 710.649 614.552 710.483 615.5 710C620.072 704.922 625.072 700.422 630.5 696.5C630.198 699.059 630.532 701.393 631.5 703.5C631.5 705.5 631.5 707.5 631.5 709.5C628.986 713.53 625.819 717.196 622 720.5C614.747 735.907 618.58 747.574 633.5 755.5C633.461 773.524 632.461 791.358 630.5 809C603.518 823.328 574.851 831.995 544.5 835C518.865 834.949 494.198 829.949 470.5 820C461.198 815.349 451.864 810.682 442.5 806C441.076 793.584 440.076 781.084 439.5 768.5C439.176 764.445 439.509 760.445 440.5 756.5C451.191 752.304 457.191 744.47 458.5 733C457.136 722.812 451.802 715.645 442.5 711.5C441.534 709.604 441.201 707.604 441.5 705.5C441.5 704.167 441.5 702.833 441.5 701.5C441.5 701.167 441.5 700.833 441.5 700.5C454.676 690.831 468.009 681.331 481.5 672C482.337 670.989 482.67 669.822 482.5 668.5C481.127 668.343 479.793 668.51 478.5 669C466.617 677.765 454.617 686.265 442.5 694.5C442.833 689.833 443.167 685.167 443.5 680.5C448.022 678.437 452.688 676.77 457.5 675.5C457.778 673.654 457.111 672.32 455.5 671.5C451.81 672.84 448.143 674.174 444.5 675.5C445.281 668.929 446.947 662.595 449.5 656.5C451.667 656.167 453.833 655.833 456 655.5C468.184 656.781 480.35 658.115 492.5 659.5C492.762 658.022 492.429 656.689 491.5 655.5C469.365 640.731 445.032 633.565 418.5 634C417.027 634.71 416.36 635.876 416.5 637.5C439.979 637.036 461.979 642.536 482.5 654C467.751 652.357 452.917 651.19 438 650.5C429.408 650.394 420.908 651.227 412.5 653C411.027 653.71 410.36 654.876 410.5 656.5C415.172 655.997 419.839 655.831 424.5 656C419.013 667.264 415.347 679.098 413.5 691.5C412.596 692.209 412.263 693.209 412.5 694.5C405.89 699.441 399.89 705.108 394.5 711.5C395.035 713.101 396.035 713.601 397.5 713C401.74 708.255 406.407 704.088 411.5 700.5C410.898 704.87 410.231 709.203 409.5 713.5C399.674 719.499 396.174 728.166 399 739.5C400.172 743.858 402.339 747.525 405.5 750.5C405.645 759.203 405.145 767.87 404 776.5C376.523 749.547 360.19 716.88 355 678.5C353.324 659.511 351.824 640.511 350.5 621.5C354.07 616.354 356.57 610.688 358 604.5C359.109 596.543 359.776 588.543 360 580.5C361.196 575.777 363.196 571.443 366 567.5C400.678 539.177 422.345 502.844 431 458.5C449.041 508.203 484.374 535.87 537 541.5C539.756 541.576 540.923 540.243 540.5 537.5C492.8 534.169 459.133 510.836 439.5 467.5Z" fill="#FDD6C5"/>
<path fill-rule="evenodd" clip-rule="evenodd" d="M440.5 466.5C439.833 466.5 439.5 466.833 439.5 467.5C435.545 460.399 435.878 460.066 440.5 466.5Z" fill="#A18275"/>
<path fill-rule="evenodd" clip-rule="evenodd" d="M696.5 486.5C698.554 487.609 700.721 488.609 703 489.5C705.047 488.391 707.213 487.724 709.5 487.5C709.149 489.869 708.982 492.203 709 494.5C710.5 496 712 497.5 713.5 499C710.81 499.771 708.144 500.604 705.5 501.5C704.974 503.23 703.974 504.564 702.5 505.5C701.289 503.578 699.956 501.745 698.5 500C691.02 499.862 690.52 498.028 697 494.5C697.43 491.808 697.263 489.141 696.5 486.5Z" fill="#C4C3C2"/>
<path fill-rule="evenodd" clip-rule="evenodd" d="M689.5 502.5C691.854 502.838 694.187 503.338 696.5 504C697.022 504.561 697.355 505.228 697.5 506C694.734 509.22 691.401 511.72 687.5 513.5C686.411 509.522 687.077 505.855 689.5 502.5Z" fill="#838383"/>
<path fill-rule="evenodd" clip-rule="evenodd" d="M670.5 506.5C672.466 507.441 674.466 508.441 676.5 509.5C678.5 508.5 680.5 507.5 682.5 506.5C682.833 506.833 683.167 507.167 683.5 507.5C681.631 511.954 682.631 515.62 686.5 518.5C684.234 519.314 681.9 519.814 679.5 520C678.206 522.087 677.039 524.254 676 526.5C674.961 524.254 673.794 522.087 672.5 520C670.048 519.71 667.715 519.044 665.5 518C670.063 515.575 671.729 511.742 670.5 506.5Z" fill="#C5C3C3"/>
<path fill-rule="evenodd" clip-rule="evenodd" d="M662.5 522.5C665.271 522.421 667.937 522.921 670.5 524C671.451 524.718 671.617 525.551 671 526.5C664.218 530.948 657.718 535.781 651.5 541C650.241 541.982 648.908 542.315 647.5 542C646.167 540.333 644.833 538.667 643.5 537C650.303 532.687 656.636 527.853 662.5 522.5Z" fill="#848483"/>
<path fill-rule="evenodd" clip-rule="evenodd" d="M493.5 555.5C496.292 555.452 498.125 556.785 499 559.5C502.454 566.002 502.121 572.335 498 578.5C496.989 579.337 495.822 579.67 494.5 579.5C495.479 575.526 496.479 571.526 497.5 567.5C496.128 563.444 494.795 559.444 493.5 555.5Z" fill="#3F2820"/>
<path fill-rule="evenodd" clip-rule="evenodd" d="M577.5 558.5C578.5 558.5 579.5 558.5 580.5 558.5C579.32 563.032 577.987 567.532 576.5 572C576.796 575.387 577.796 578.554 579.5 581.5C577.009 583.968 575.176 583.302 574 579.5C573.094 577.256 572.594 574.923 572.5 572.5C573.383 567.515 575.05 562.849 577.5 558.5Z" fill="#3E271F"/>
<path fill-rule="evenodd" clip-rule="evenodd" d="M485.5 566.5C486.995 566.415 487.995 567.081 488.5 568.5C484.087 573.547 478.754 577.38 472.5 580C455.334 588.461 437.334 591.127 418.5 588C417.663 586.989 417.33 585.822 417.5 584.5C442.948 588.473 465.615 582.473 485.5 566.5Z" fill="#3E271F"/>
<path fill-rule="evenodd" clip-rule="evenodd" d="M589.5 571.5C609.704 582.107 631.204 586.107 654 583.5C657.448 582.939 658.615 584.106 657.5 587C633.57 590.175 610.904 586.175 589.5 575C588.316 573.855 588.316 572.688 589.5 571.5Z" fill="#3E271F"/>
<path fill-rule="evenodd" clip-rule="evenodd" d="M348.5 650.5C348.5 652.167 348.5 653.833 348.5 655.5C339.848 654.854 331.182 654.521 322.5 654.5C322.5 655.833 322.5 657.167 322.5 658.5C331.518 658.448 340.518 658.782 349.5 659.5C350.314 671.897 351.647 684.231 353.5 696.5C345.848 697.374 338.182 697.541 330.5 697C317.566 691.332 309.733 681.498 307 667.5C305.587 654.91 306.587 642.576 310 630.5C315.683 618.766 324.85 612.766 337.5 612.5C340.187 616.021 343.353 619.021 347 621.5C347.708 631.159 348.208 640.826 348.5 650.5Z" fill="#FCD5C4"/>
<path fill-rule="evenodd" clip-rule="evenodd" d="M729.5 659.5C738.089 658.695 746.756 658.195 755.5 658C756.337 656.989 756.67 655.822 756.5 654.5C747.818 654.521 739.152 654.854 730.5 655.5C730.5 653.833 730.5 652.167 730.5 650.5C730.792 640.826 731.292 631.159 732 621.5C733 618.5 734 615.5 735 612.5C755.532 610.671 767.866 620.005 772 640.5C774.279 655.203 772.279 669.203 766 682.5C756.126 697.169 742.626 701.835 725.5 696.5C727.353 684.231 728.686 671.897 729.5 659.5Z" fill="#FCD5C4"/>
<path fill-rule="evenodd" clip-rule="evenodd" d="M467.5 628.5C478.894 628.687 488.394 633.02 496 641.5C496.49 642.793 496.657 644.127 496.5 645.5C495.448 645.649 494.448 645.483 493.5 645C486.507 636.504 477.507 632.337 466.5 632.5C466.433 631.041 466.766 629.708 467.5 628.5Z" fill="#D89C8B"/>
<path fill-rule="evenodd" clip-rule="evenodd" d="M599.5 628.5C602.5 628.5 605.5 628.5 608.5 628.5C608.5 629.833 608.5 631.167 608.5 632.5C604.418 632.344 600.418 632.844 596.5 634C590.637 637.098 585.304 640.931 580.5 645.5C577.877 643.125 578.211 640.959 581.5 639C586.808 634.184 592.808 630.684 599.5 628.5Z" fill="#D89C8B"/>
<path fill-rule="evenodd" clip-rule="evenodd" d="M444.5 675.5C443.167 676.167 441.833 676.833 440.5 677.5C441.589 670.428 442.756 663.428 444 656.5C438.886 655.196 433.719 655.196 428.5 656.5C423.105 667.286 419.439 678.619 417.5 690.5C417.5 690.833 417.5 691.167 417.5 691.5C415.983 691.511 414.816 692.177 414 693.5C413.536 692.906 413.369 692.239 413.5 691.5C415.347 679.098 419.013 667.264 424.5 656C419.839 655.831 415.172 655.997 410.5 656.5C410.36 654.876 411.027 653.71 412.5 653C420.908 651.227 429.408 650.394 438 650.5C452.917 651.19 467.751 652.357 482.5 654C461.979 642.536 439.979 637.036 416.5 637.5C416.36 635.876 417.027 634.71 418.5 634C445.032 633.565 469.365 640.731 491.5 655.5C492.429 656.689 492.762 658.022 492.5 659.5C480.35 658.115 468.184 656.781 456 655.5C453.833 655.833 451.667 656.167 449.5 656.5C446.947 662.595 445.281 668.929 444.5 675.5Z" fill="#3F2820"/>
<path fill-rule="evenodd" clip-rule="evenodd" d="M653.5 668.5C653.262 670.404 652.262 671.738 650.5 672.5C649.141 666.613 646.808 661.113 643.5 656C637.833 655.333 632.167 655.333 626.5 656C629.098 660.452 630.765 665.286 631.5 670.5C631.5 670.833 631.5 671.167 631.5 671.5C629.973 671.427 628.973 672.094 628.5 673.5C628.167 673.5 627.833 673.5 627.5 673.5C627.37 667.205 625.703 661.372 622.5 656C609.139 656.569 595.806 657.736 582.5 659.5C582.297 657.61 582.963 656.11 584.5 655C591.893 649.635 599.893 645.302 608.5 642C624.526 635.128 641.193 632.795 658.5 635C658.957 635.414 659.291 635.914 659.5 636.5C635.891 636.452 613.891 642.286 593.5 654C606.865 651.997 620.365 650.831 634 650.5C644.28 650.473 654.447 651.473 664.5 653.5C664.5 654.5 664.5 655.5 664.5 656.5C659.113 655.97 653.78 655.97 648.5 656.5C650.731 660.292 652.398 664.292 653.5 668.5Z" fill="#3F2821"/>
<path fill-rule="evenodd" clip-rule="evenodd" d="M348.5 650.5C349.477 653.287 349.81 656.287 349.5 659.5C340.518 658.782 331.518 658.448 322.5 658.5C322.5 657.167 322.5 655.833 322.5 654.5C331.182 654.521 339.848 654.854 348.5 655.5C348.5 653.833 348.5 652.167 348.5 650.5Z" fill="#D19686"/>
<path fill-rule="evenodd" clip-rule="evenodd" d="M730.5 650.5C730.5 652.167 730.5 653.833 730.5 655.5C739.152 654.854 747.818 654.521 756.5 654.5C756.67 655.822 756.337 656.989 755.5 658C746.756 658.195 738.089 658.695 729.5 659.5C729.19 656.287 729.523 653.287 730.5 650.5Z" fill="#D09484"/>
<path fill-rule="evenodd" clip-rule="evenodd" d="M440.5 677.5C439.833 677.5 439.5 677.833 439.5 678.5C431.874 681.98 424.54 685.98 417.5 690.5C419.439 678.619 423.105 667.286 428.5 656.5C433.719 655.196 438.886 655.196 444 656.5C442.756 663.428 441.589 670.428 440.5 677.5Z" fill="#AED4EC"/>
<path fill-rule="evenodd" clip-rule="evenodd" d="M650.5 672.5C650.5 672.833 650.5 673.167 650.5 673.5C644.833 678.167 639.167 682.833 633.5 687.5C632.979 683.519 632.646 679.519 632.5 675.5C633.81 673.852 635.143 672.186 636.5 670.5C634.963 668.07 633.296 668.07 631.5 670.5C630.765 665.286 629.098 660.452 626.5 656C632.167 655.333 637.833 655.333 643.5 656C646.808 661.113 649.141 666.613 650.5 672.5Z" fill="#AED4EB"/>
<path fill-rule="evenodd" clip-rule="evenodd" d="M555.5 664.5C556.995 664.415 557.995 665.081 558.5 666.5C557.352 668.149 556.019 669.649 554.5 671C538.544 683.288 522.877 695.954 507.5 709C505.783 710.559 503.783 711.392 501.5 711.5C502.091 708.386 503.758 705.886 506.5 704C523.021 690.969 539.355 677.803 555.5 664.5Z" fill="#FFA489"/>
<path fill-rule="evenodd" clip-rule="evenodd" d="M578.5 666.5C582.541 666.502 583.208 667.835 580.5 670.5C567.357 680.476 554.357 690.643 541.5 701C540.207 701.49 538.873 701.657 537.5 701.5C537.297 699.61 537.963 698.11 539.5 697C552.932 687.296 565.932 677.13 578.5 666.5Z" fill="#FFA489"/>
<path fill-rule="evenodd" clip-rule="evenodd" d="M441.5 700.5C441.5 699.167 441.5 697.833 441.5 696.5C441.833 695.833 442.167 695.167 442.5 694.5C454.617 686.265 466.617 677.765 478.5 669C479.793 668.51 481.127 668.343 482.5 668.5C482.67 669.822 482.337 670.989 481.5 672C468.009 681.331 454.676 690.831 441.5 700.5Z" fill="#FEA489"/>
<path fill-rule="evenodd" clip-rule="evenodd" d="M529.5 668.5C530.995 668.415 531.995 669.081 532.5 670.5C531.352 672.149 530.019 673.649 528.5 675C515.919 685.202 503.086 695.035 490 704.5C488.941 704.37 488.108 703.87 487.5 703C501.386 691.242 515.386 679.742 529.5 668.5Z" fill="#FFA489"/>
<path fill-rule="evenodd" clip-rule="evenodd" d="M632.5 675.5C632.167 675.5 631.833 675.5 631.5 675.5C631.5 674.167 631.5 672.833 631.5 671.5C631.5 671.167 631.5 670.833 631.5 670.5C633.296 668.07 634.963 668.07 636.5 670.5C635.143 672.186 633.81 673.852 632.5 675.5Z" fill="#E4A092"/>
<path fill-rule="evenodd" clip-rule="evenodd" d="M660.5 697.5C660.5 696.167 660.5 694.833 660.5 693.5C668.974 685.865 677.641 678.365 686.5 671C688.517 668.689 689.851 669.023 690.5 672C681.276 681.388 671.276 689.888 660.5 697.5Z" fill="#FFA489"/>
<path fill-rule="evenodd" clip-rule="evenodd" d="M631.5 671.5C631.5 672.833 631.5 674.167 631.5 675.5C629.919 677.142 629.253 679.142 629.5 681.5C628.596 680.791 628.263 679.791 628.5 678.5C628.5 676.833 628.5 675.167 628.5 673.5C628.973 672.094 629.973 671.427 631.5 671.5Z" fill="#B26751"/>
<path fill-rule="evenodd" clip-rule="evenodd" d="M655.5 674.5C654.167 675.167 653.167 676.167 652.5 677.5C652.167 677.5 651.833 677.5 651.5 677.5C651.567 676.041 651.234 674.708 650.5 673.5C650.5 673.167 650.5 672.833 650.5 672.5C652.262 671.738 653.262 670.404 653.5 668.5C654.117 668.611 654.617 668.944 655 669.5C656.019 668.313 657.186 667.313 658.5 666.5C659.5 666.833 660.167 667.5 660.5 668.5C658.81 670.519 657.144 672.519 655.5 674.5Z" fill="#D27E67"/>
<path fill-rule="evenodd" clip-rule="evenodd" d="M443.5 680.5C443.629 678.784 443.962 677.117 444.5 675.5C448.143 674.174 451.81 672.84 455.5 671.5C457.111 672.32 457.778 673.654 457.5 675.5C452.688 676.77 448.022 678.437 443.5 680.5Z" fill="#FDA389"/>
<path fill-rule="evenodd" clip-rule="evenodd" d="M604.5 673.5C606.167 673.5 607.833 673.5 609.5 673.5C609.67 674.822 609.337 675.989 608.5 677C591.782 684.114 577.949 694.947 567 709.5C565.054 709.237 564.388 708.237 565 706.5C575.627 692.365 588.794 681.365 604.5 673.5Z" fill="#FFA489"/>
<path fill-rule="evenodd" clip-rule="evenodd" d="M500.5 673.5C501.5 673.5 502.5 673.5 503.5 673.5C503.714 675.144 503.38 676.644 502.5 678C488.306 685.539 474.64 693.873 461.5 703C459.655 704.128 457.655 704.628 455.5 704.5C455.33 703.178 455.663 702.011 456.5 701C471.063 691.558 485.729 682.391 500.5 673.5Z" fill="#FFA48A"/>
<path fill-rule="evenodd" clip-rule="evenodd" d="M650.5 673.5C651.234 674.708 651.567 676.041 651.5 677.5C646.021 682.735 640.354 687.735 634.5 692.5C634.768 690.901 634.434 689.568 633.5 688.5C633.5 688.167 633.5 687.833 633.5 687.5C639.167 682.833 644.833 678.167 650.5 673.5Z" fill="#E5A396"/>
<path fill-rule="evenodd" clip-rule="evenodd" d="M627.5 673.5C627.833 673.5 628.167 673.5 628.5 673.5C628.5 675.167 628.5 676.833 628.5 678.5C619.04 686.122 609.706 693.956 600.5 702C599.552 702.483 598.552 702.649 597.5 702.5C597.178 700.278 597.845 698.444 599.5 697C609.317 689.678 618.65 681.845 627.5 673.5Z" fill="#FEA388"/>
<path fill-rule="evenodd" clip-rule="evenodd" d="M655.5 674.5C657.245 680.739 658.579 687.072 659.5 693.5C658.71 694.401 657.71 695.068 656.5 695.5C654.954 689.558 653.62 683.558 652.5 677.5C653.167 676.167 654.167 675.167 655.5 674.5Z" fill="#3C251E"/>
<path fill-rule="evenodd" clip-rule="evenodd" d="M444.5 675.5C443.962 677.117 443.629 678.784 443.5 680.5C442.292 681.234 440.959 681.567 439.5 681.5C439.5 680.5 439.5 679.5 439.5 678.5C439.5 677.833 439.833 677.5 440.5 677.5C441.833 676.833 443.167 676.167 444.5 675.5Z" fill="#BD6952"/>
<path fill-rule="evenodd" clip-rule="evenodd" d="M631.5 675.5C631.833 675.5 632.167 675.5 632.5 675.5C632.646 679.519 632.979 683.519 633.5 687.5C633.5 687.833 633.5 688.167 633.5 688.5C632.542 688.953 631.708 689.619 631 690.5C630.802 688.618 630.302 686.952 629.5 685.5C629.5 684.167 629.5 682.833 629.5 681.5C629.253 679.142 629.919 677.142 631.5 675.5Z" fill="#36201A"/>
<path fill-rule="evenodd" clip-rule="evenodd" d="M439.5 678.5C439.5 679.5 439.5 680.5 439.5 681.5C439.5 681.833 439.5 682.167 439.5 682.5C431.324 686.346 423.657 691.012 416.5 696.5C416.629 694.784 416.962 693.117 417.5 691.5C417.5 691.167 417.5 690.833 417.5 690.5C424.54 685.98 431.874 681.98 439.5 678.5Z" fill="#E5A497"/>
<path fill-rule="evenodd" clip-rule="evenodd" d="M651.5 677.5C651.833 677.5 652.167 677.5 652.5 677.5C653.62 683.558 654.954 689.558 656.5 695.5C656.5 695.833 656.5 696.167 656.5 696.5C652.202 699.463 648.202 702.797 644.5 706.5C645.348 708.283 646.681 708.783 648.5 708C651.397 705.59 654.397 703.423 657.5 701.5C662.914 738.305 665.414 775.305 665 812.5C659.008 827.611 650.341 829.278 639 817.5C637.063 813.354 635.729 809.021 635 804.5C636.454 785.563 637.287 766.563 637.5 747.5C637.494 729.435 636.494 711.435 634.5 693.5C634.5 693.167 634.5 692.833 634.5 692.5C640.354 687.735 646.021 682.735 651.5 677.5Z" fill="#AFD6EE"/>
<path fill-rule="evenodd" clip-rule="evenodd" d="M443.5 680.5C443.167 685.167 442.833 689.833 442.5 694.5C442.167 695.167 441.833 695.833 441.5 696.5C440.167 697.167 438.833 697.833 437.5 698.5C437.805 693.079 438.472 687.745 439.5 682.5C439.5 682.167 439.5 681.833 439.5 681.5C440.959 681.567 442.292 681.234 443.5 680.5Z" fill="#442F28"/>
<path fill-rule="evenodd" clip-rule="evenodd" d="M439.5 682.5C438.472 687.745 437.805 693.079 437.5 698.5C437.5 698.833 437.5 699.167 437.5 699.5C435.405 700.412 433.405 701.579 431.5 703C429.485 704.555 429.152 706.389 430.5 708.5C432.79 707.533 434.79 706.2 436.5 704.5C436.072 719.662 435.739 734.829 435.5 750C435.978 769.847 436.478 789.68 437 809.5C434.473 820.057 427.973 825.224 417.5 825C413.725 823.558 410.892 821.058 409 817.5C407.236 777.319 409.403 737.319 415.5 697.5C415.5 696.833 415.833 696.5 416.5 696.5C423.657 691.012 431.324 686.346 439.5 682.5Z" fill="#AFD6EE"/>
<path fill-rule="evenodd" clip-rule="evenodd" d="M629.5 685.5C630.302 686.952 630.802 688.618 631 690.5C631.708 689.619 632.542 688.953 633.5 688.5C634.434 689.568 634.768 690.901 634.5 692.5C634.5 692.833 634.5 693.167 634.5 693.5C633.85 693.804 633.183 694.137 632.5 694.5C631.516 697.428 631.183 700.428 631.5 703.5C630.532 701.393 630.198 699.059 630.5 696.5C630.784 694.585 630.451 692.919 629.5 691.5C629.5 689.5 629.5 687.5 629.5 685.5Z" fill="#B4715D"/>
<path fill-rule="evenodd" clip-rule="evenodd" d="M413.5 691.5C413.369 692.239 413.536 692.906 414 693.5C414.816 692.177 415.983 691.511 417.5 691.5C416.962 693.117 416.629 694.784 416.5 696.5C415.833 696.5 415.5 696.833 415.5 697.5C414.5 698.167 413.5 698.833 412.5 699.5C412.5 697.833 412.5 696.167 412.5 694.5C412.263 693.209 412.596 692.209 413.5 691.5Z" fill="#B76953"/>
<path fill-rule="evenodd" clip-rule="evenodd" d="M629.5 691.5C630.451 692.919 630.784 694.585 630.5 696.5C625.072 700.422 620.072 704.922 615.5 710C614.552 710.483 613.552 710.649 612.5 710.5C612.343 709.127 612.51 707.793 613 706.5C618.695 701.634 624.195 696.634 629.5 691.5Z" fill="#FEA48A"/>
<path fill-rule="evenodd" clip-rule="evenodd" d="M659.5 693.5C659.833 693.5 660.167 693.5 660.5 693.5C660.5 694.833 660.5 696.167 660.5 697.5C660.5 697.833 660.5 698.167 660.5 698.5C659.5 699.167 658.5 699.833 657.5 700.5C656.566 699.432 656.232 698.099 656.5 696.5C656.5 696.167 656.5 695.833 656.5 695.5C657.71 695.068 658.71 694.401 659.5 693.5Z" fill="#C06B54"/>
<path fill-rule="evenodd" clip-rule="evenodd" d="M412.5 694.5C412.5 696.167 412.5 697.833 412.5 699.5C411.833 699.5 411.5 699.833 411.5 700.5C406.407 704.088 401.74 708.255 397.5 713C396.035 713.601 395.035 713.101 394.5 711.5C399.89 705.108 405.89 699.441 412.5 694.5Z" fill="#FEA287"/>
<path fill-rule="evenodd" clip-rule="evenodd" d="M441.5 696.5C441.5 697.833 441.5 699.167 441.5 700.5C441.5 700.833 441.5 701.167 441.5 701.5C439.938 701.733 438.605 702.4 437.5 703.5C437.5 702.167 437.5 700.833 437.5 699.5C437.5 699.167 437.5 698.833 437.5 698.5C438.833 697.833 440.167 697.167 441.5 696.5Z" fill="#BE6851"/>
<path fill-rule="evenodd" clip-rule="evenodd" d="M656.5 696.5C656.232 698.099 656.566 699.432 657.5 700.5C657.5 700.833 657.5 701.167 657.5 701.5C654.397 703.423 651.397 705.59 648.5 708C646.681 708.783 645.348 708.283 644.5 706.5C648.202 702.797 652.202 699.463 656.5 696.5Z" fill="#E4A497"/>
<path fill-rule="evenodd" clip-rule="evenodd" d="M437.5 699.5C437.5 700.833 437.5 702.167 437.5 703.5C437.5 704.167 437.167 704.5 436.5 704.5C434.79 706.2 432.79 707.533 430.5 708.5C429.152 706.389 429.485 704.555 431.5 703C433.405 701.579 435.405 700.412 437.5 699.5Z" fill="#E3A397"/>
<path fill-rule="evenodd" clip-rule="evenodd" d="M527.5 702.5C528.496 702.414 529.329 702.748 530 703.5C530.406 706.915 532.072 709.582 535 711.5C535.617 712.449 535.451 713.282 534.5 714C528.505 712.523 526.171 708.69 527.5 702.5Z" fill="#442C24"/>
<path fill-rule="evenodd" clip-rule="evenodd" d="M546.5 706.5C550.192 705.971 553.358 706.971 556 709.5C558.584 713.833 560.251 718.5 561 723.5C572.968 718.987 583.301 721.32 592 730.5C595.116 736.612 597.783 742.946 600 749.5C616.981 768.996 616.481 788.163 598.5 807C590.443 810.81 582.11 811.477 573.5 809C564.6 804.233 555.1 801.733 545 801.5C528.827 803.867 512.661 806.367 496.5 809C479.533 810.429 467.7 803.262 461 787.5C459.582 782.572 459.249 777.572 460 772.5C464.658 755.852 471.991 740.519 482 726.5C485.947 721.28 491.114 718.28 497.5 717.5C505.628 719.153 513.628 721.32 521.5 724C527.455 725.072 533.455 725.572 539.5 725.5C539.671 720.804 540.171 716.137 541 711.5C542.73 709.598 544.563 707.931 546.5 706.5Z" fill="#3B231D"/>
<path fill-rule="evenodd" clip-rule="evenodd" d="M547.5 710.5C552.358 710.854 555.192 713.521 556 718.5C557.121 725.441 556.288 732.108 553.5 738.5C549.475 740.299 546.308 739.299 544 735.5C543.238 727.785 543.571 720.119 545 712.5C545.995 711.934 546.828 711.267 547.5 710.5Z" fill="#ABD0E8"/>
<path fill-rule="evenodd" clip-rule="evenodd" d="M441.5 705.5C441.201 707.604 441.534 709.604 442.5 711.5C451.802 715.645 457.136 722.812 458.5 733C457.191 744.47 451.191 752.304 440.5 756.5C439.509 760.445 439.176 764.445 439.5 768.5C438.834 764.514 438.501 760.347 438.5 756C438.8 738.967 439.8 722.134 441.5 705.5Z" fill="#F4BFAD"/>
<path fill-rule="evenodd" clip-rule="evenodd" d="M662.5 711.5C666.544 712.944 670.044 715.278 673 718.5C681.653 731.824 679.819 743.491 667.5 753.5C665.964 739.469 664.297 725.469 662.5 711.5Z" fill="#F7C2AF"/>
<path fill-rule="evenodd" clip-rule="evenodd" d="M631.5 709.5C633.104 724.637 633.771 739.97 633.5 755.5C618.58 747.574 614.747 735.907 622 720.5C625.819 717.196 628.986 713.53 631.5 709.5Z" fill="#F7C1AF"/>
<path fill-rule="evenodd" clip-rule="evenodd" d="M409.5 713.5C408.166 725.838 406.833 738.172 405.5 750.5C402.339 747.525 400.172 743.858 399 739.5C396.174 728.166 399.674 719.499 409.5 713.5Z" fill="#F5C0AD"/>
<path fill-rule="evenodd" clip-rule="evenodd" d="M493.5 721.5C497.897 721.425 502.23 721.925 506.5 723C517.032 727.533 528.032 729.7 539.5 729.5C539.306 739.807 544.306 744.307 554.5 743C555.333 742.167 556.167 741.333 557 740.5C558.563 735.923 560.063 731.423 561.5 727C569.342 724.68 577.009 725.013 584.5 728C586.709 729.873 588.542 732.04 590 734.5C592.561 744.289 597.228 752.956 604 760.5C610.707 774.136 609.54 787.136 600.5 799.5C592.005 807.267 582.505 808.601 572 803.5C573.222 776.387 560.389 763.887 533.5 766C521.108 768.059 513.608 775.226 511 787.5C510.324 792.871 510.491 798.204 511.5 803.5C504.336 804.125 497.169 804.791 490 805.5C471.848 802.671 463.182 792.004 464 773.5C468.559 757.381 475.559 742.381 485 728.5C487.628 725.79 490.461 723.456 493.5 721.5Z" fill="#CC6280"/>
<path fill-rule="evenodd" clip-rule="evenodd" d="M532.5 770.5C537.833 770.5 543.167 770.5 548.5 770.5C548.665 774.182 548.499 777.848 548 781.5C546.607 784.366 544.274 785.699 541 785.5C536.69 785.68 534.024 783.68 533 779.5C532.502 776.518 532.335 773.518 532.5 770.5Z" fill="#ECA6C0"/>
<path fill-rule="evenodd" clip-rule="evenodd" d="M526.5 772.5C527.521 776.878 529.021 781.212 531 785.5C535.091 789.305 539.924 790.472 545.5 789C547.305 788.028 548.972 786.861 550.5 785.5C552.563 781.395 553.897 777.062 554.5 772.5C559.59 775.091 563.09 779.091 565 784.5C567.016 789.988 567.849 795.655 567.5 801.5C550.439 796.127 533.439 796.46 516.5 802.5C515.227 796.322 515.227 790.155 516.5 784C518.281 778.725 521.615 774.891 526.5 772.5Z" fill="#9C3758"/>
<path fill-rule="evenodd" clip-rule="evenodd" d="M537.5 812.5C544.771 811.409 551.271 813.076 557 817.5C557.483 818.448 557.649 819.448 557.5 820.5C553.235 818.194 548.568 816.861 543.5 816.5C538.473 816.59 533.806 817.923 529.5 820.5C527.717 819.652 527.217 818.319 528 816.5C531.193 814.98 534.36 813.646 537.5 812.5Z" fill="#3E271F"/>
</svg>
