<svg width="150" height="150" viewBox="0 0 1080 1080" fill="none" xmlns="http://www.w3.org/2000/svg">
<path fill-rule="evenodd" clip-rule="evenodd" d="M535.5 269.5C558.421 267.987 580.088 272.487 600.5 283C614.14 290.971 623.807 302.305 629.5 317C706.081 342.262 751.247 394.762 765 474.5C770.269 512.837 769.103 551.004 761.5 589C763.871 608.822 759.038 626.656 747 642.5C741.581 648.59 735.081 653.09 727.5 656C724.202 660.3 720.535 664.3 716.5 668C729.193 686.38 740.693 705.547 751 725.5C762.491 749.133 760.491 771.466 745 792.5C742.318 795.35 739.484 798.016 736.5 800.5C734.875 798.079 733.542 795.413 732.5 792.5C727.716 806.111 719.383 816.944 707.5 825C706.207 825.49 704.873 825.657 703.5 825.5C703.737 821.727 703.237 818.06 702 814.5C696.977 805.805 690.81 797.972 683.5 791C668.167 780.667 652.833 770.333 637.5 760C629.5 753.333 621.5 746.667 613.5 740C597.323 742.787 580.989 744.787 564.5 746C529.518 748.188 495.518 743.522 462.5 732C439.319 722.423 420.319 707.589 405.5 687.5C392.168 678.677 380.168 668.177 369.5 656C350.685 646.565 339.519 631.398 336 610.5C335.261 603.64 335.428 596.807 336.5 590C327.916 547.233 327.416 504.4 335 461.5C352.36 387.642 397.193 339.308 469.5 316.5C471.965 307.411 476.632 299.578 483.5 293C498.563 279.965 515.897 272.132 535.5 269.5Z" fill="#3A231C"/>
<path fill-rule="evenodd" clip-rule="evenodd" d="M543.5 273.5C570.505 272.443 594.005 280.776 614 298.5C618.26 303.243 621.427 308.576 623.5 314.5C608.93 311.553 594.263 309.053 579.5 307C544.056 304.281 509.056 306.781 474.5 314.5C475.596 309.642 477.762 305.309 481 301.5C498.016 283.574 518.849 274.241 543.5 273.5Z" fill="#824C3D"/>
<path fill-rule="evenodd" clip-rule="evenodd" d="M520.5 310.5C565.661 306.769 609.328 312.935 651.5 329C718.261 361.151 755.427 414.318 763 488.5C765.926 519.787 764.259 550.787 758 581.5C754.38 576.211 750.38 571.211 746 566.5C751.464 530.215 748.798 494.548 738 459.5C722.412 414.578 692.912 382.412 649.5 363C637.776 357.926 625.776 353.759 613.5 350.5C613.286 352.144 613.62 353.644 614.5 355C683.978 373.144 726.145 417.31 741 487.5C745.644 513.836 745.644 540.169 741 566.5C730.833 581.834 722.499 598.167 716 615.5C715.667 604.167 715.333 592.833 715 581.5C714.708 569.003 711.042 557.669 704 547.5C696.229 541.235 687.396 537.068 677.5 535C640.418 525.861 602.752 521.361 564.5 521.5C561.86 498.468 557.36 475.802 551 453.5C550.047 451.408 548.714 451.075 547 452.5C540.616 475.157 535.783 498.157 532.5 521.5C493.933 521.712 455.933 526.212 418.5 535C401.034 537.806 389.867 547.639 385 564.5C383.485 570.075 382.485 575.742 382 581.5C381.667 592.167 381.333 602.833 381 613.5C374.227 596.619 365.894 580.619 356 565.5C349.871 527.27 353.205 489.937 366 453.5C381.817 414.015 408.984 385.182 447.5 367C459.471 361.732 471.805 357.565 484.5 354.5C484.853 352.365 484.02 351.032 482 350.5C394.51 376.674 350.343 435.507 349.5 527C349.575 540.547 350.075 554.047 351 567.5C345.891 571.61 341.891 576.61 339 582.5C332.218 543.549 331.885 504.549 338 465.5C354.528 389.639 400.028 340.806 474.5 319C489.799 315.171 505.132 312.338 520.5 310.5Z" fill="#834C3D"/>
<path fill-rule="evenodd" clip-rule="evenodd" d="M548.5 461.5C554.319 482.087 558.819 503.087 562 524.5C579.132 525.295 596.298 526.462 613.5 528C607.662 529.542 601.995 531.542 596.5 534C595.663 535.011 595.33 536.178 595.5 537.5C603.673 534.873 612.006 532.706 620.5 531C638.779 530.92 656.779 533.254 674.5 538C682.979 540.241 690.979 543.574 698.5 548C705.946 555.985 710.113 565.485 711 576.5C712.071 595.577 711.405 614.577 709 633.5C704.777 649.832 698.777 665.499 691 680.5C677.701 702.126 659.201 717.626 635.5 727C599.724 740.458 562.724 745.458 524.5 742C426.731 732.712 380.565 678.878 386 580.5C386.879 568.858 390.712 558.358 397.5 549C405.1 543.795 413.434 540.128 422.5 538C434.481 535.537 446.481 533.204 458.5 531C463.5 530.333 468.5 530.333 473.5 531C483.005 532.543 492.338 534.71 501.5 537.5C501.67 536.178 501.337 535.011 500.5 534C494.898 531.799 489.231 529.799 483.5 528C501.048 526.443 518.548 524.943 536 523.5C538.825 502.54 542.992 481.874 548.5 461.5Z" fill="#FDD7C6"/>
<path fill-rule="evenodd" clip-rule="evenodd" d="M459.5 548.5C472.4 547.652 484.734 549.819 496.5 555C497.337 556.011 497.67 557.178 497.5 558.5C484.919 554.015 471.919 552.015 458.5 552.5C458.433 551.041 458.766 549.708 459.5 548.5Z" fill="#3D261E"/>
<path fill-rule="evenodd" clip-rule="evenodd" d="M622.5 548.5C627.511 548.334 632.511 548.501 637.5 549C638.337 550.011 638.67 551.178 638.5 552.5C630.459 552.336 622.459 552.836 614.5 554C609.653 556.095 604.653 557.595 599.5 558.5C599.281 557.325 599.614 556.325 600.5 555.5C607.459 551.512 614.792 549.178 622.5 548.5Z" fill="#3D261E"/>
<path fill-rule="evenodd" clip-rule="evenodd" d="M503.5 588.5C489.391 574.235 472.725 570.402 453.5 577C443.089 581.582 435.089 588.749 429.5 598.5C426.392 597.227 424.059 595.061 422.5 592C440.042 569.376 462.375 562.709 489.5 572C496.404 575.442 502.07 580.275 506.5 586.5C505.995 587.919 504.995 588.585 503.5 588.5Z" fill="#3B251D"/>
<path fill-rule="evenodd" clip-rule="evenodd" d="M668.5 598.5C652.313 574.619 630.98 568.453 604.5 580C600.957 583.049 597.291 585.882 593.5 588.5C591.656 587.796 591.156 586.463 592 584.5C609.015 566.745 628.848 562.911 651.5 573C660.998 577.505 668.998 583.838 675.5 592C673.271 594.4 670.938 596.566 668.5 598.5Z" fill="#3B251D"/>
<path fill-rule="evenodd" clip-rule="evenodd" d="M353.5 569.5C360.756 579.669 366.756 590.669 371.5 602.5C367.555 603.491 363.555 603.824 359.5 603.5C359.5 604.833 359.5 606.167 359.5 607.5C364.43 607.197 369.263 607.531 374 608.5C381.785 623.395 387.285 639.061 390.5 655.5C368.968 655.798 353.801 646.131 345 626.5C338.213 611.586 337.88 596.586 344 581.5C346.619 577.05 349.786 573.05 353.5 569.5Z" fill="#FCD5C4"/>
<path fill-rule="evenodd" clip-rule="evenodd" d="M742.5 569.5C755.219 579.813 760.386 593.146 758 609.5C753.982 633.181 740.482 648.348 717.5 655C713.789 655.825 710.122 655.659 706.5 654.5C710.774 638.744 716.274 623.41 723 608.5C728.072 607.529 733.238 607.195 738.5 607.5C738.67 606.178 738.337 605.011 737.5 604C733.5 603.667 729.5 603.333 725.5 603C730.794 591.578 736.461 580.411 742.5 569.5Z" fill="#FBD5C4"/>
<path fill-rule="evenodd" clip-rule="evenodd" d="M503.5 588.5C504.097 601.157 501.597 613.157 496 624.5C491.316 629.621 485.483 632.455 478.5 633C466.925 634.339 455.592 633.339 444.5 630C438.92 627.019 435.087 622.519 433 616.5C430.997 610.654 429.831 604.654 429.5 598.5C435.089 588.749 443.089 581.582 453.5 577C472.725 570.402 489.391 574.235 503.5 588.5Z" fill="#FBFAFA"/>
<path fill-rule="evenodd" clip-rule="evenodd" d="M668.5 598.5C667.935 609.788 663.935 619.622 656.5 628C644.344 633.163 631.678 634.829 618.5 633C610.433 632.72 604.266 629.22 600 622.5C595.603 611.582 593.437 600.249 593.5 588.5C597.291 585.882 600.957 583.049 604.5 580C630.98 568.453 652.313 574.619 668.5 598.5Z" fill="#FAF9F8"/>
<path fill-rule="evenodd" clip-rule="evenodd" d="M466.5 577.5C489.971 576.702 499.804 588.035 496 611.5C494.989 621.513 489.489 627.346 479.5 629C458.883 632.375 448.883 623.709 449.5 603C449.151 590.229 454.817 581.729 466.5 577.5Z" fill="#3B241E"/>
<path fill-rule="evenodd" clip-rule="evenodd" d="M619.5 577.5C633.084 575.534 642.25 580.867 647 593.5C647.822 601.555 647.488 609.555 646 617.5C644.217 623.157 640.384 626.657 634.5 628C625.066 630.66 616.066 629.66 607.5 625C602.787 618.681 600.787 611.514 601.5 603.5C600.164 589.536 606.164 580.869 619.5 577.5Z" fill="#3A231C"/>
<path fill-rule="evenodd" clip-rule="evenodd" d="M468.5 581.5C475.018 580.123 480.185 582.123 484 587.5C484.575 593.604 481.742 597.104 475.5 598C465.945 599.766 461.445 595.933 462 586.5C463.965 584.45 466.132 582.783 468.5 581.5Z" fill="#F7F7F6"/>
<path fill-rule="evenodd" clip-rule="evenodd" d="M620.5 581.5C628.38 579.935 633.713 582.769 636.5 590C634.692 595.464 630.859 598.297 625 598.5C616.711 598.55 613.044 594.55 614 586.5C615.965 584.45 618.132 582.783 620.5 581.5Z" fill="#F7F6F6"/>
<path fill-rule="evenodd" clip-rule="evenodd" d="M456.5 588.5C457.694 597.684 463.027 602.351 472.5 602.5C481.365 602.471 486.865 598.138 489 589.5C490.751 591.49 491.751 593.823 492 596.5C492.942 603.987 492.275 611.32 490 618.5C485.4 623.621 479.567 625.621 472.5 624.5C464.072 626.105 458.238 623.105 455 615.5C452.604 606.281 453.104 597.281 456.5 588.5Z" fill="#583028"/>
<path fill-rule="evenodd" clip-rule="evenodd" d="M608.5 587.5C609.409 596.991 614.742 601.991 624.5 602.5C633.365 602.471 638.865 598.138 641 589.5C641.667 590.833 642.333 592.167 643 593.5C643.667 600.5 643.667 607.5 643 614.5C641.689 620.147 638.189 623.313 632.5 624C613.893 629.542 604.893 622.875 605.5 604C605.032 598.17 606.032 592.67 608.5 587.5Z" fill="#583028"/>
<path fill-rule="evenodd" clip-rule="evenodd" d="M546.5 628.5C547.833 628.5 549.167 628.5 550.5 628.5C550.292 630.92 550.626 633.253 551.5 635.5C549.585 638.151 548.085 637.817 547 634.5C546.505 632.527 546.338 630.527 546.5 628.5Z" fill="#D58583"/>
<path fill-rule="evenodd" clip-rule="evenodd" d="M433.5 639.5C446.658 638.913 458.991 641.746 470.5 648C481.028 661.645 477.694 670.311 460.5 674C450.995 675.145 441.662 674.478 432.5 672C425.773 667.542 422.773 661.209 423.5 653C423.606 646.066 426.94 641.566 433.5 639.5Z" fill="#FCACA7"/>
<path fill-rule="evenodd" clip-rule="evenodd" d="M652.5 639.5C672.666 638.839 678.833 647.839 671 666.5C666.621 671.3 661.121 673.8 654.5 674C647.833 674.667 641.167 674.667 634.5 674C620.892 670.478 617.392 662.645 624 650.5C632.412 643.756 641.912 640.089 652.5 639.5Z" fill="#FCACA7"/>
<path fill-rule="evenodd" clip-rule="evenodd" d="M377.5 659.5C377.735 658.903 378.235 658.57 379 658.5C383.461 659.247 387.961 659.747 392.5 660C395.295 665.758 397.962 671.592 400.5 677.5C399.998 678.521 399.332 678.688 398.5 678C391.035 672.369 384.035 666.202 377.5 659.5Z" fill="#7E4A3B"/>
<path fill-rule="evenodd" clip-rule="evenodd" d="M716.5 658.5C717.552 658.351 718.552 658.517 719.5 659C712.599 666.572 705.099 673.405 697 679.5C698.878 673.053 701.378 666.72 704.5 660.5C708.647 659.833 712.647 659.166 716.5 658.5Z" fill="#804B3C"/>
<path fill-rule="evenodd" clip-rule="evenodd" d="M712.5 671.5C727.155 689.728 739.322 709.728 749 731.5C758.583 754.579 754.916 775.246 738 793.5C736.472 790.583 735.139 787.583 734 784.5C732.817 783.269 731.651 783.269 730.5 784.5C726.947 798.108 719.947 809.608 709.5 819C708.552 819.483 707.552 819.649 706.5 819.5C706.498 815.489 705.332 811.822 703 808.5C696.893 799.393 689.726 791.227 681.5 784C658.755 770.628 637.422 755.295 617.5 738C648.493 729.651 673.493 712.651 692.5 687C699.638 682.352 706.305 677.185 712.5 671.5Z" fill="#834C3D"/>
<path fill-rule="evenodd" clip-rule="evenodd" d="M533.5 672.5C543.506 672.334 553.506 672.5 563.5 673C564.337 674.011 564.67 675.178 564.5 676.5C553.833 676.5 543.167 676.5 532.5 676.5C532.433 675.041 532.766 673.708 533.5 672.5Z" fill="#3D261E"/>
</svg>
