<svg width="150" height="150" viewBox="0 0 1080 1080" fill="none" xmlns="http://www.w3.org/2000/svg">
<path fill-rule="evenodd" clip-rule="evenodd" d="M674.5 732.5C673.326 731.486 672.66 730.153 672.5 728.5C677.942 725.395 681.942 721.062 684.5 715.5C689.929 713.738 693.262 710.071 694.5 704.5C732.183 698.642 749.683 676.642 747 638.5C744.483 624.483 736.316 615.817 722.5 612.5C718.226 616.436 713.893 620.436 709.5 624.5C708.542 626.302 707.875 628.302 707.5 630.5C705.952 638.457 704.618 646.457 703.5 654.5C702.549 655.919 702.216 657.585 702.5 659.5C700.343 667.281 698.676 675.281 697.5 683.5C696.549 684.919 696.216 686.585 696.5 688.5C695.488 691.252 694.488 693.919 693.5 696.5C691.738 695.738 690.738 694.404 690.5 692.5C696.105 672.145 700.438 651.479 703.5 630.5C700.771 627.247 698.604 623.58 697 619.5C696.167 613.5 695.333 607.5 694.5 601.5C661.873 581.7 639.373 553.7 627 517.5C627.978 541.73 634.978 564.063 648 584.5C648.854 586.607 648.188 587.941 646 588.5C611.278 581.067 581.944 564.4 558 538.5C555.029 561.002 558.862 582.336 569.5 602.5C569.291 603.086 568.957 603.586 568.5 604C561.007 603.969 553.674 602.636 546.5 600C537.841 595.088 529.008 590.588 520 586.5C490.549 599.306 460.049 608.806 428.5 615C425.774 616.631 423.607 618.798 422 621.5C421.228 621.355 420.561 621.022 420 620.5C416.605 604.583 412.438 588.916 407.5 573.5C407.174 570.689 406.341 568.022 405 565.5C404.98 569.981 405.48 574.315 406.5 578.5C406.138 595.557 405.305 612.557 404 629.5C407.8 651.668 412.3 673.668 417.5 695.5C416.885 699.991 417.885 703.991 420.5 707.5C422.033 712.261 423.866 716.928 426 721.5C427.926 723.539 430.093 725.206 432.5 726.5C432.567 727.959 432.234 729.292 431.5 730.5C419.791 724.628 409.458 716.794 400.5 707C365.672 695.188 350.839 671.021 356 634.5C348.382 640.787 339.548 643.787 329.5 643.5C329.351 642.448 329.517 641.448 330 640.5C341.597 631.635 346.263 619.969 344 605.5C334.384 583.651 327.384 560.984 323 537.5C321.46 524.876 321.126 512.209 322 499.5C328.009 476.318 337.176 454.485 349.5 434C338.685 433.692 328.351 431.359 318.5 427C317.62 425.644 317.286 424.144 317.5 422.5C327.446 420.684 336.779 417.184 345.5 412C360.363 402.402 374.697 392.068 388.5 381C401.575 370.797 416.241 363.797 432.5 360C440.521 359.832 448.521 359.332 456.5 358.5C513.461 294.199 577.794 286.032 649.5 334C682.394 342.946 712.061 357.946 738.5 379C755.769 395.59 770.769 413.924 783.5 434C783.002 435.158 782.169 435.991 781 436.5C772.147 428.322 761.647 424.822 749.5 426C762.274 445.376 773.107 465.876 782 487.5C783.961 492.677 785.294 498.01 786 503.5C788.223 534.171 793.889 564.171 803 593.5C805.352 598.871 808.685 603.538 813 607.5C813.49 608.793 813.657 610.127 813.5 611.5C800.41 611.122 789.41 606.122 780.5 596.5C772.683 618.454 762.85 639.454 751 659.5C745.142 684.359 729.975 700.526 705.5 708C700.004 711.916 694.337 715.582 688.5 719C684.598 724.404 679.931 728.904 674.5 732.5Z" fill="#39231B"/>
<path fill-rule="evenodd" clip-rule="evenodd" d="M638.5 332.5C618.486 331 598.486 331.167 578.5 333C567.14 334.51 556.14 337.344 545.5 341.5C544.571 342.689 544.238 344.022 544.5 345.5C570.099 336.852 596.432 333.686 623.5 336C631.589 336.171 639.589 337.005 647.5 338.5C680.482 346.991 710.148 361.824 736.5 383C749.563 395.993 761.563 409.826 772.5 424.5C772.333 424.833 772.167 425.167 772 425.5C768.709 423.8 765.209 422.633 761.5 422C755.509 421.501 749.509 421.334 743.5 421.5C743.755 424.016 744.589 426.35 746 428.5C760.583 450.667 772.25 474.334 781 499.5C783.142 531.169 788.809 562.169 798 592.5C800.12 597.242 802.62 601.742 805.5 606C801.727 605.295 798.06 603.961 794.5 602C789.037 598.369 784.037 594.202 779.5 589.5C778.353 589.818 777.519 590.484 777 591.5C770.419 611.574 762.085 630.907 752 649.5C752.195 641.467 750.695 633.8 747.5 626.5C752.58 613.762 756.746 600.762 760 587.5C763.093 574.352 764.26 561.019 763.5 547.5C762.178 547.33 761.011 547.663 760 548.5C760.154 570.939 756.154 592.605 748 613.5C746.974 616.239 745.474 618.572 743.5 620.5C738.461 614.642 732.127 610.809 724.5 609C724.146 607.374 724.146 605.541 724.5 603.5C723.178 603.33 722.011 603.663 721 604.5C718.112 609.776 714.612 614.609 710.5 619C708.547 620.633 706.38 621.799 704 622.5C701.24 621.568 699.907 619.568 700 616.5C699.333 612.167 699.333 607.833 700 603.5C704.414 605.019 708.914 606.352 713.5 607.5C714.442 607.392 715.275 607.059 716 606.5C713.967 576.59 720.801 548.923 736.5 523.5C736.167 522.5 735.5 521.833 734.5 521.5C721.199 539.888 713.699 560.555 712 583.5C711.5 589.825 711.334 596.158 711.5 602.5C702.379 600.849 694.046 597.349 686.5 592C662.066 573.992 644.233 550.825 633 522.5C630.945 516.058 628.612 509.725 626 503.5C624.989 502.663 623.822 502.33 622.5 502.5C621.416 531.33 628.083 558.163 642.5 583C626.405 580.462 611.405 574.795 597.5 566C582.527 556.536 568.86 545.369 556.5 532.5C554.17 534.575 553.003 537.242 553 540.5C551.627 561.064 555.127 580.731 563.5 599.5C560.861 600.356 558.194 600.19 555.5 599C522.234 586.635 495.734 565.802 476 536.5C469.396 524.292 463.063 511.959 457 499.5C452.793 488.183 451.46 476.516 453 464.5C453.92 461.062 455.587 458.062 458 455.5C458.49 454.207 458.657 452.873 458.5 451.5C456.61 451.297 455.11 451.963 454 453.5C451.754 457.234 450.087 461.234 449 465.5C447.807 479.262 449.64 492.595 454.5 505.5C450.977 533.894 444.477 561.561 435 588.5C431.571 597.127 427.571 605.46 423 613.5C416.072 588.049 408.739 562.716 401 537.5C400.343 533.995 398.843 530.995 396.5 528.5C395.119 529 394.453 530 394.5 531.5C401.974 559.799 403.807 588.466 400 617.5C394.851 605.518 386.685 596.185 375.5 589.5C374.068 589.733 373.568 590.4 374 591.5C379.687 595.687 384.521 600.687 388.5 606.5C381.443 608.462 374.776 611.295 368.5 615C363.961 621.083 358.961 626.75 353.5 632C348.966 635.395 343.966 637.395 338.5 638C348.527 627.159 351.36 614.659 347 600.5C330.821 567.606 324.154 532.939 327 496.5C334.174 473.641 343.674 451.808 355.5 431C355.355 430.228 355.022 429.561 354.5 429C344.921 429.154 335.587 427.821 326.5 425C334.739 421.881 342.739 418.214 350.5 414C365.521 403.823 380.188 393.156 394.5 382C413.139 367.675 434.139 361.675 457.5 364C483.321 330.17 517.487 311.337 560 307.5C588.754 308.142 614.921 316.475 638.5 332.5Z" fill="#67503D"/>
<path fill-rule="evenodd" clip-rule="evenodd" d="M638.5 332.5C642.049 333.723 645.049 335.723 647.5 338.5C639.589 337.005 631.589 336.171 623.5 336C596.432 333.686 570.099 336.852 544.5 345.5C544.238 344.022 544.571 342.689 545.5 341.5C556.14 337.344 567.14 334.51 578.5 333C598.486 331.167 618.486 331 638.5 332.5Z" fill="#4E392E"/>
<path fill-rule="evenodd" clip-rule="evenodd" d="M608.5 423.5C617.104 438.644 628.104 451.977 641.5 463.5C642.01 449.795 645.177 436.795 651 424.5C653.738 443.593 656.904 462.593 660.5 481.5C644.141 479.901 629.974 473.567 618 462.5C613.667 468.833 609.333 475.167 605 481.5C603.642 461.996 604.808 442.663 608.5 423.5Z" fill="#94755D"/>
<path fill-rule="evenodd" clip-rule="evenodd" d="M522.5 428.5C523.124 428.917 523.457 429.584 523.5 430.5C518.559 452.983 520.226 474.983 528.5 496.5C522.097 494.836 516.597 491.169 512 485.5C507.169 479.174 502.835 472.508 499 465.5C496.518 485.631 500.018 504.631 509.5 522.5C509.167 522.833 508.833 523.167 508.5 523.5C480.608 506.001 471.108 481.334 480 449.5C482.815 442.366 486.815 436.032 492 430.5C494.11 445.732 501.11 458.066 513 467.5C513.446 460.811 514.113 454.144 515 447.5C516.953 440.931 519.453 434.598 522.5 428.5Z" fill="#94755D"/>
<path fill-rule="evenodd" clip-rule="evenodd" d="M538.5 439.5C544.292 459.751 553.792 478.085 567 494.5C567.667 495.167 567.667 495.833 567 496.5C552.798 488.951 543.798 477.285 540 461.5C538.753 454.221 538.253 446.888 538.5 439.5Z" fill="#93745C"/>
<path fill-rule="evenodd" clip-rule="evenodd" d="M426.5 441.5C427.374 460.081 430.207 478.414 435 496.5C430.088 491.685 426.421 486.018 424 479.5C418.191 496.683 414.858 514.349 414 532.5C411.229 528.196 409.229 523.529 408 518.5C405.28 503.561 406.28 488.895 411 474.5C415.634 463.232 420.801 452.232 426.5 441.5Z" fill="#94745C"/>
<path fill-rule="evenodd" clip-rule="evenodd" d="M787.5 464.5C790.325 464.081 792.491 465.081 794 467.5C794.333 470.833 794.667 474.167 795 477.5C796.667 479.833 798.333 482.167 800 484.5C799.968 493.676 801.135 502.676 803.5 511.5C803.558 514.089 802.892 516.423 801.5 518.5C802.767 520.944 804.267 523.277 806 525.5C806.167 526.833 806.333 528.167 806.5 529.5C805.367 537.162 804.367 544.829 803.5 552.5C802.167 552.5 800.833 552.5 799.5 552.5C800.13 544.626 801.13 536.793 802.5 529C800.46 525.751 798.794 522.251 797.5 518.5C798.373 515.882 799.039 513.216 799.5 510.5C797.155 502.703 795.988 494.703 796 486.5C794.76 483.588 793.094 480.921 791 478.5C790.502 475.183 790.335 471.85 790.5 468.5C787.046 468.733 786.046 467.4 787.5 464.5Z" fill="#8BA9B6"/>
<path fill-rule="evenodd" clip-rule="evenodd" d="M308.5 470.5C309.978 470.238 311.311 470.571 312.5 471.5C311.577 473.924 310.077 475.924 308 477.5C306.898 481.416 306.231 485.416 306 489.5C302.106 494.743 301.606 500.243 304.5 506C303.545 509.471 303.378 512.971 304 516.5C306.35 525.601 308.516 534.768 310.5 544C308.684 549.867 310.184 554.701 315 558.5C313.482 564.872 314.648 570.706 318.5 576C318.387 577.28 317.72 578.113 316.5 578.5C313.744 576.909 311.911 574.576 311 571.5C310.667 567.5 310.333 563.5 310 559.5C308.171 557.844 306.837 555.844 306 553.5C304.567 543.225 303.234 532.891 302 522.5C298.161 517.463 297.661 512.13 300.5 506.5C297.562 499.883 298.062 493.55 302 487.5C301.404 480.706 303.57 475.039 308.5 470.5Z" fill="#8FA6B2"/>
<path fill-rule="evenodd" clip-rule="evenodd" d="M288.5 497.5C290.252 497.418 291.252 498.251 291.5 500C290.375 508.798 290.208 517.631 291 526.5C292.029 529.39 293.195 532.224 294.5 535C294.333 536.5 293.5 537.333 292 537.5C289.592 534.971 287.925 531.971 287 528.5C286.333 519.167 286.333 509.833 287 500.5C287.513 499.473 288.013 498.473 288.5 497.5Z" fill="#8BA5B1"/>
<path fill-rule="evenodd" clip-rule="evenodd" d="M812.5 503.5C819.598 507.599 821.931 513.766 819.5 522C819.721 525.271 820.388 528.437 821.5 531.5C820.455 535.26 819.122 538.926 817.5 542.5C817.722 544.055 818.389 545.389 819.5 546.5C819.167 547.5 818.5 548.167 817.5 548.5C815.174 547.187 813.841 545.187 813.5 542.5C814.555 538.725 815.888 535.058 817.5 531.5C816.946 529.39 816.112 527.39 815 525.5C815.219 520.515 815.219 515.515 815 510.5C813.097 508.559 812.264 506.226 812.5 503.5Z" fill="#8FACB9"/>
<path fill-rule="evenodd" clip-rule="evenodd" d="M457.5 510.5C464.953 525.398 473.453 539.731 483 553.5C490.204 562.371 498.371 570.205 507.5 577C484.048 586.029 460.048 593.196 435.5 598.5C446.272 570.078 453.605 540.745 457.5 510.5Z" fill="#F9D9D1"/>
<path fill-rule="evenodd" clip-rule="evenodd" d="M690.5 692.5C684.102 689.654 677.436 687.654 670.5 686.5C676.319 677.365 676.819 668.031 672 658.5C669.617 655.727 666.783 653.561 663.5 652C653.91 637.044 640.243 631.044 622.5 634C612.58 637.411 606.913 644.245 605.5 654.5C596.737 656.81 592.737 662.643 593.5 672C593.514 683.683 599.18 691.016 610.5 694C615.5 694.333 620.5 694.667 625.5 695C632.532 700.924 640.532 702.758 649.5 700.5C650.409 706.579 653.743 710.746 659.5 713C667.635 716.213 675.968 717.047 684.5 715.5C681.942 721.062 677.942 725.395 672.5 728.5C665.552 721.413 658.052 720.746 650 726.5C646.079 731.364 645.579 736.53 648.5 742C647.944 742.383 647.611 742.883 647.5 743.5C645.287 744.773 642.954 745.773 640.5 746.5C629.719 742.223 622.386 745.557 618.5 756.5C602.015 762.939 585.015 767.439 567.5 770C553.038 771.139 538.705 770.305 524.5 767.5C500.509 761.333 477.509 752.666 455.5 741.5C461.826 732.616 459.826 726.116 449.5 722C442.924 720.38 437.257 721.88 432.5 726.5C430.093 725.206 427.926 723.539 426 721.5C423.866 716.928 422.033 712.261 420.5 707.5C423.863 710.572 427.863 712.406 432.5 713C440.663 714.05 448.663 713.383 456.5 711C463.072 707.474 465.739 701.974 464.5 694.5C469.296 692.602 473.962 690.435 478.5 688C487.905 687.658 497.238 686.658 506.5 685C516.488 678.696 519.988 669.863 517 658.5C513.908 654.072 509.741 651.239 504.5 650C499.407 633.941 488.407 627.275 471.5 630C454.952 634.201 446.118 644.701 445 661.5C438.665 666.667 436.165 673.334 437.5 681.5C437.631 682.376 437.298 683.043 436.5 683.5C429.254 686.277 422.921 690.277 417.5 695.5C412.3 673.668 407.8 651.668 404 629.5C405.305 612.557 406.138 595.557 406.5 578.5C406.216 576.585 406.549 574.919 407.5 573.5C412.438 588.916 416.605 604.583 420 620.5C420.561 621.022 421.228 621.355 422 621.5C423.607 618.798 425.774 616.631 428.5 615C460.049 608.806 490.549 599.306 520 586.5C529.008 590.588 537.841 595.088 546.5 600C553.674 602.636 561.007 603.969 568.5 604C568.957 603.586 569.291 603.086 569.5 602.5C558.862 582.336 555.029 561.002 558 538.5C581.944 564.4 611.278 581.067 646 588.5C648.188 587.941 648.854 586.607 648 584.5C634.978 564.063 627.978 541.73 627 517.5C639.373 553.7 661.873 581.7 694.5 601.5C695.333 607.5 696.167 613.5 697 619.5C698.604 623.58 700.771 627.247 703.5 630.5C700.438 651.479 696.105 672.145 690.5 692.5Z" fill="#FADAD2"/>
<path fill-rule="evenodd" clip-rule="evenodd" d="M294.5 546.5C295.117 546.611 295.617 546.944 296 547.5C296.333 550.5 296.667 553.5 297 556.5C299.045 560.868 300.045 565.534 300 570.5C303.421 575.412 306.088 580.746 308 586.5C309.333 587.833 310.667 589.167 312 590.5C312.301 593.091 311.134 593.925 308.5 593C307 591.5 305.5 590 304 588.5C302.136 582.44 299.47 576.774 296 571.5C295.797 565.373 294.63 559.54 292.5 554C292.303 551.176 292.969 548.676 294.5 546.5Z" fill="#8CA5B1"/>
<path fill-rule="evenodd" clip-rule="evenodd" d="M747.5 626.5C746.18 624.537 744.846 622.537 743.5 620.5C745.474 618.572 746.974 616.239 748 613.5C756.154 592.605 760.154 570.939 760 548.5C761.011 547.663 762.178 547.33 763.5 547.5C764.26 561.019 763.093 574.352 760 587.5C756.746 600.762 752.58 613.762 747.5 626.5Z" fill="#4E392E"/>
<path fill-rule="evenodd" clip-rule="evenodd" d="M805.5 561.5C807.624 562.031 809.124 563.365 810 565.5C811.174 570.75 811.841 576.084 812 581.5C814.35 584.527 815.85 587.86 816.5 591.5C815.178 591.67 814.011 591.337 813 590.5C808.228 584.34 806.228 577.34 807 569.5C806.546 567.464 805.713 565.63 804.5 564C804.743 563.098 805.077 562.265 805.5 561.5Z" fill="#8AA8B5"/>
<path fill-rule="evenodd" clip-rule="evenodd" d="M407.5 573.5C406.549 574.919 406.216 576.585 406.5 578.5C405.48 574.315 404.98 569.981 405 565.5C406.341 568.022 407.174 570.689 407.5 573.5Z" fill="#B89C94"/>
<path fill-rule="evenodd" clip-rule="evenodd" d="M570.5 574.5C572.124 574.36 573.29 575.027 574 576.5C574.452 579.877 575.118 583.211 576 586.5C578.146 590.441 579.979 594.441 581.5 598.5C579.61 598.703 578.11 598.037 577 596.5C572.307 589.921 570.141 582.587 570.5 574.5Z" fill="#D5897D"/>
<path fill-rule="evenodd" clip-rule="evenodd" d="M591.5 575.5C622.154 585.826 653.154 594.993 684.5 603C686.91 603.758 687.91 605.425 687.5 608C687.369 610.253 686.869 612.419 686 614.5C682.256 615.626 678.423 615.793 674.5 615C648.159 609.133 622.492 601.133 597.5 591C592.353 589.262 587.686 586.762 583.5 583.5C585.882 580.452 588.548 577.785 591.5 575.5Z" fill="#361F18"/>
<path fill-rule="evenodd" clip-rule="evenodd" d="M398.5 626.5C387.706 624.481 379.872 628.481 375 638.5C374.075 641.134 374.909 642.301 377.5 642C380.167 636.667 384.167 632.667 389.5 630C393.475 629.013 397.141 629.513 400.5 631.5C401.933 638.096 402.933 644.763 403.5 651.5C403.5 652.833 403.5 654.167 403.5 655.5C390.376 657.391 386.21 664.725 391 677.5C396.392 683.947 403.226 687.947 411.5 689.5C413.198 694.628 414.531 699.961 415.5 705.5C381.312 702.312 362.312 683.646 358.5 649.5C358.173 627.667 368.673 614.667 390 610.5C395.158 614.477 397.991 619.81 398.5 626.5Z" fill="#E7B5AA"/>
<path fill-rule="evenodd" clip-rule="evenodd" d="M694.5 704.5C694.599 701.763 694.265 699.096 693.5 696.5C694.488 693.919 695.488 691.252 696.5 688.5C703.735 687.133 709.901 683.799 715 678.5C720.477 665.791 716.644 657.791 703.5 654.5C704.618 646.457 705.952 638.457 707.5 630.5C717.282 628.56 724.282 632.226 728.5 641.5C729.325 642.386 730.325 642.719 731.5 642.5C730.018 634.502 725.352 629.002 717.5 626C714.635 625.817 711.969 625.317 709.5 624.5C713.893 620.436 718.226 616.436 722.5 612.5C736.316 615.817 744.483 624.483 747 638.5C749.683 676.642 732.183 698.642 694.5 704.5Z" fill="#E8B6AB"/>
<path fill-rule="evenodd" clip-rule="evenodd" d="M398.5 626.5C399.931 627.78 400.598 629.447 400.5 631.5C397.141 629.513 393.475 629.013 389.5 630C384.167 632.667 380.167 636.667 377.5 642C374.909 642.301 374.075 641.134 375 638.5C379.872 628.481 387.706 624.481 398.5 626.5Z" fill="#D08382"/>
<path fill-rule="evenodd" clip-rule="evenodd" d="M709.5 624.5C711.969 625.317 714.635 625.817 717.5 626C725.352 629.002 730.018 634.502 731.5 642.5C730.325 642.719 729.325 642.386 728.5 641.5C724.282 632.226 717.282 628.56 707.5 630.5C707.875 628.302 708.542 626.302 709.5 624.5Z" fill="#D18484"/>
<path fill-rule="evenodd" clip-rule="evenodd" d="M464.5 694.5C463.227 692.287 462.227 689.954 461.5 687.5C466.722 684.991 467.888 680.991 465 675.5C460.124 670.156 454.291 668.656 447.5 671C445.243 674.643 444.909 678.476 446.5 682.5C443.391 682.736 440.391 682.403 437.5 681.5C436.165 673.334 438.665 666.667 445 661.5C446.118 644.701 454.952 634.201 471.5 630C488.407 627.275 499.407 633.941 504.5 650C509.741 651.239 513.908 654.072 517 658.5C519.988 669.863 516.488 678.696 506.5 685C497.238 686.658 487.905 687.658 478.5 688C473.962 690.435 469.296 692.602 464.5 694.5Z" fill="#37211A"/>
<path fill-rule="evenodd" clip-rule="evenodd" d="M670.5 686.5C667.67 686.037 665.003 685.371 662.5 684.5C666.701 680.8 667.367 676.633 664.5 672C654.104 669.092 644.937 671.259 637 678.5C634.247 682.333 633.914 686.333 636 690.5C637.739 691.894 639.739 692.561 642 692.5C645.555 692.022 649.055 691.355 652.5 690.5C650.92 693.659 649.92 696.993 649.5 700.5C640.532 702.758 632.532 700.924 625.5 695C620.5 694.667 615.5 694.333 610.5 694C599.18 691.016 593.514 683.683 593.5 672C592.737 662.643 596.737 656.81 605.5 654.5C606.913 644.245 612.58 637.411 622.5 634C640.243 631.044 653.91 637.044 663.5 652C666.783 653.561 669.617 655.727 672 658.5C676.819 668.031 676.319 677.365 670.5 686.5Z" fill="#37211A"/>
<path fill-rule="evenodd" clip-rule="evenodd" d="M473.5 638.5C488.705 637.263 494.205 643.929 490 658.5C485.409 663.03 479.909 665.863 473.5 667C467.719 667.903 462.053 667.57 456.5 666C450.516 658.245 451.183 651.245 458.5 645C463.381 642.218 468.381 640.051 473.5 638.5Z" fill="#FBFBFA"/>
<path fill-rule="evenodd" clip-rule="evenodd" d="M624.5 639.5C636.288 638.927 646.454 642.594 655 650.5C655.888 658.97 652.054 664.137 643.5 666C635.796 667.564 628.13 667.564 620.5 666C611.982 659.004 611.315 651.337 618.5 643C620.727 642.059 622.727 640.892 624.5 639.5Z" fill="#FBFBFB"/>
<path fill-rule="evenodd" clip-rule="evenodd" d="M539.5 653.5C548.506 653.334 557.506 653.5 566.5 654C569.447 654.112 570.78 655.612 570.5 658.5C558.833 657.167 547.167 657.167 535.5 658.5C535.408 655.6 536.741 653.933 539.5 653.5Z" fill="#EA8F8F"/>
<path fill-rule="evenodd" clip-rule="evenodd" d="M403.5 651.5C404.255 654.053 404.922 656.72 405.5 659.5C395.459 659.71 391.625 664.71 394 674.5C397.996 680.251 403.496 683.584 410.5 684.5C411.038 686.117 411.371 687.784 411.5 689.5C403.226 687.947 396.392 683.947 391 677.5C386.21 664.725 390.376 657.391 403.5 655.5C403.5 654.167 403.5 652.833 403.5 651.5Z" fill="#D18484"/>
<path fill-rule="evenodd" clip-rule="evenodd" d="M703.5 654.5C716.644 657.791 720.477 665.791 715 678.5C709.901 683.799 703.735 687.133 696.5 688.5C696.216 686.585 696.549 684.919 697.5 683.5C704.035 682.946 709.202 679.613 713 673.5C714.566 664.947 711.066 660.28 702.5 659.5C702.216 657.585 702.549 655.919 703.5 654.5Z" fill="#D08383"/>
<path fill-rule="evenodd" clip-rule="evenodd" d="M405.5 659.5C407.006 667.858 408.672 676.191 410.5 684.5C403.496 683.584 397.996 680.251 394 674.5C391.625 664.71 395.459 659.71 405.5 659.5Z" fill="#E6B4A9"/>
<path fill-rule="evenodd" clip-rule="evenodd" d="M702.5 659.5C711.066 660.28 714.566 664.947 713 673.5C709.202 679.613 704.035 682.946 697.5 683.5C698.676 675.281 700.343 667.281 702.5 659.5Z" fill="#E5B3A8"/>
<path fill-rule="evenodd" clip-rule="evenodd" d="M501.5 661.5C508.38 660.876 511.214 663.876 510 670.5C509.27 674.896 506.77 677.73 502.5 679C498.376 679.856 494.21 680.356 490 680.5C482.322 681.865 479.322 678.865 481 671.5C481.833 670.667 482.667 669.833 483.5 669C489.479 666.182 495.479 663.682 501.5 661.5Z" fill="#F9F8F8"/>
<path fill-rule="evenodd" clip-rule="evenodd" d="M539.5 667.5C550.97 666.876 562.304 667.709 573.5 670C574.337 671.011 574.67 672.178 574.5 673.5C560.168 670.861 545.834 670.861 531.5 673.5C531.33 672.178 531.663 671.011 532.5 670C535.004 669.302 537.337 668.469 539.5 667.5Z" fill="#EB9190"/>
<path fill-rule="evenodd" clip-rule="evenodd" d="M604.5 666.5C613.855 666.172 620.188 670.338 623.5 679C622.008 685.418 618.008 687.751 611.5 686C602.13 683.422 598.963 677.588 602 668.5C602.995 667.934 603.828 667.267 604.5 666.5Z" fill="#F8F7F7"/>
<path fill-rule="evenodd" clip-rule="evenodd" d="M461.5 687.5C457.184 683.845 452.184 682.178 446.5 682.5C444.909 678.476 445.243 674.643 447.5 671C454.291 668.656 460.124 670.156 465 675.5C467.888 680.991 466.722 684.991 461.5 687.5Z" fill="#F9F9F9"/>
<path fill-rule="evenodd" clip-rule="evenodd" d="M662.5 684.5C659.131 686.515 655.798 688.515 652.5 690.5C649.055 691.355 645.555 692.022 642 692.5C639.739 692.561 637.739 691.894 636 690.5C633.914 686.333 634.247 682.333 637 678.5C644.937 671.259 654.104 669.092 664.5 672C667.367 676.633 666.701 680.8 662.5 684.5Z" fill="#FBFAFA"/>
<path fill-rule="evenodd" clip-rule="evenodd" d="M764.5 673.5C766.484 673.484 767.484 674.484 767.5 676.5C766.678 679.829 764.845 682.495 762 684.5C761.951 692.334 758.117 696.334 750.5 696.5C750.281 695.325 750.614 694.325 751.5 693.5C756.288 691.877 758.455 688.544 758 683.5C758.667 681.5 760 680.167 762 679.5C762.573 677.359 763.406 675.359 764.5 673.5Z" fill="#8BA9B6"/>
<path fill-rule="evenodd" clip-rule="evenodd" d="M437.5 681.5C440.391 682.403 443.391 682.736 446.5 682.5C452.184 682.178 457.184 683.845 461.5 687.5C462.227 689.954 463.227 692.287 464.5 694.5C465.739 701.974 463.072 707.474 456.5 711C448.663 713.383 440.663 714.05 432.5 713C427.863 712.406 423.863 710.572 420.5 707.5C417.885 703.991 416.885 699.991 417.5 695.5C422.921 690.277 429.254 686.277 436.5 683.5C437.298 683.043 437.631 682.376 437.5 681.5Z" fill="#87A2D2"/>
<path fill-rule="evenodd" clip-rule="evenodd" d="M531.5 682.5C545.837 682.333 560.171 682.5 574.5 683C577.901 682.734 579.567 684.234 579.5 687.5C561.831 686.182 544.164 686.182 526.5 687.5C526.351 686.448 526.517 685.448 527 684.5C528.622 683.901 530.122 683.234 531.5 682.5Z" fill="#EB9090"/>
<path fill-rule="evenodd" clip-rule="evenodd" d="M442.5 685.5C454.666 684.172 460.499 689.505 460 701.5C457.688 705.58 454.188 708.08 449.5 709C444.167 709.667 438.833 709.667 433.5 709C429.286 708.226 425.619 706.393 422.5 703.5C420.757 699.779 421.424 696.612 424.5 694C430.48 690.84 436.48 688.007 442.5 685.5Z" fill="#B4DEFE"/>
<path fill-rule="evenodd" clip-rule="evenodd" d="M662.5 684.5C665.003 685.371 667.67 686.037 670.5 686.5C677.436 687.654 684.102 689.654 690.5 692.5C690.738 694.404 691.738 695.738 693.5 696.5C694.265 699.096 694.599 701.763 694.5 704.5C693.262 710.071 689.929 713.738 684.5 715.5C675.968 717.047 667.635 716.213 659.5 713C653.743 710.746 650.409 706.579 649.5 700.5C649.92 696.993 650.92 693.659 652.5 690.5C655.798 688.515 659.131 686.515 662.5 684.5Z" fill="#86A0CF"/>
<path fill-rule="evenodd" clip-rule="evenodd" d="M661.5 689.5C670.092 690.127 678.425 691.961 686.5 695C692.408 701.885 691.408 707.552 683.5 712C674.217 712.174 665.217 710.507 656.5 707C651.887 699.389 653.553 693.556 661.5 689.5Z" fill="#B4DEFE"/>
<path fill-rule="evenodd" clip-rule="evenodd" d="M739.5 703.5C740.5 703.5 741.5 703.5 742.5 703.5C742.607 705.903 741.607 707.736 739.5 709C732.516 710.315 728.683 714.482 728 721.5C725.592 723.956 722.759 725.789 719.5 727C716.784 732.389 712.451 735.389 706.5 736C702.102 741.465 696.435 743.798 689.5 743C687.606 741.921 687.273 740.587 688.5 739C694.842 740.671 699.842 738.671 703.5 733C706.44 731.848 709.44 730.848 712.5 730C715.083 725.584 718.75 722.417 723.5 720.5C724.647 716.726 726.314 713.226 728.5 710C732.23 707.807 735.897 705.64 739.5 703.5Z" fill="#8BA9B6"/>
<path fill-rule="evenodd" clip-rule="evenodd" d="M551.5 707.5C556.328 707.385 557.661 709.552 555.5 714C549.738 714.418 548.404 712.251 551.5 707.5Z" fill="#E998A1"/>
<path fill-rule="evenodd" clip-rule="evenodd" d="M409.5 710.5C415.377 708.145 418.71 710.145 419.5 716.5C418.998 717.521 418.332 717.688 417.5 717C414.986 714.585 412.319 712.419 409.5 710.5Z" fill="#634C3A"/>
<path fill-rule="evenodd" clip-rule="evenodd" d="M743.5 719.5C745.346 719.222 746.68 719.889 747.5 721.5C746.167 724.833 743.833 727.167 740.5 728.5C739.579 736.419 735.246 741.085 727.5 742.5C725.085 742.281 724.085 740.948 724.5 738.5C733.542 738.759 737.209 734.426 735.5 725.5C739.627 725.365 742.294 723.365 743.5 719.5Z" fill="#8AA8B6"/>
<path fill-rule="evenodd" clip-rule="evenodd" d="M455.5 741.5C453.973 741.427 452.973 742.094 452.5 743.5C446.749 744.891 441.082 744.724 435.5 743C431.961 739.613 430.628 735.447 431.5 730.5C432.234 729.292 432.567 727.959 432.5 726.5C437.257 721.88 442.924 720.38 449.5 722C459.826 726.116 461.826 732.616 455.5 741.5Z" fill="#89A4D4"/>
<path fill-rule="evenodd" clip-rule="evenodd" d="M672.5 728.5C672.66 730.153 673.326 731.486 674.5 732.5C674.657 742.178 669.824 747.178 660 747.5C657.079 747.136 654.246 746.469 651.5 745.5C650.713 743.896 649.38 743.229 647.5 743.5C647.611 742.883 647.944 742.383 648.5 742C645.579 736.53 646.079 731.364 650 726.5C658.052 720.746 665.552 721.413 672.5 728.5Z" fill="#88A3D2"/>
<path fill-rule="evenodd" clip-rule="evenodd" d="M440.5 725.5C448.025 723.759 453.025 726.425 455.5 733.5C454.888 737.444 452.555 739.61 448.5 740C438.687 742.842 434.521 739.342 436 729.5C437.397 727.93 438.897 726.596 440.5 725.5Z" fill="#B5DEFE"/>
<path fill-rule="evenodd" clip-rule="evenodd" d="M656.5 726.5C664.021 725.921 668.688 729.254 670.5 736.5C670.61 738.374 669.944 739.874 668.5 741C662.78 744.417 657.28 744.25 652 740.5C649.214 734.414 650.714 729.747 656.5 726.5Z" fill="#B4DEFD"/>
<path fill-rule="evenodd" clip-rule="evenodd" d="M523.5 731.5C525.5 731.5 527.5 731.5 529.5 731.5C529.649 732.552 529.483 733.552 529 734.5C521.867 737.561 521.7 741.061 528.5 745C531.5 745.333 534.5 745.667 537.5 746C537.906 749.415 539.572 752.082 542.5 754C546.688 754.639 550.688 754.306 554.5 753C555.833 754.333 555.833 755.667 554.5 757C545.73 760.718 539.063 758.551 534.5 750.5C529.191 750.261 524.691 748.261 521 744.5C518.606 739.527 519.44 735.194 523.5 731.5Z" fill="#BE6867"/>
<path fill-rule="evenodd" clip-rule="evenodd" d="M455.5 741.5C477.509 752.666 500.509 761.333 524.5 767.5C538.705 770.305 553.038 771.139 567.5 770C585.015 767.439 602.015 762.939 618.5 756.5C618.5 757.833 618.5 759.167 618.5 760.5C576.745 778.524 534.745 779.024 492.5 762C478.716 756.605 465.383 750.439 452.5 743.5C452.973 742.094 453.973 741.427 455.5 741.5Z" fill="#3F2922"/>
<path fill-rule="evenodd" clip-rule="evenodd" d="M647.5 743.5C649.38 743.229 650.713 743.896 651.5 745.5C649.112 747.361 646.446 748.694 643.5 749.5C641.5 749.5 640.5 748.5 640.5 746.5C642.954 745.773 645.287 744.773 647.5 743.5Z" fill="#3C2721"/>
<path fill-rule="evenodd" clip-rule="evenodd" d="M640.5 746.5C640.5 748.5 641.5 749.5 643.5 749.5C640.231 760.219 632.898 764.719 621.5 763C620.627 761.955 619.627 761.122 618.5 760.5C618.5 759.167 618.5 757.833 618.5 756.5C622.386 745.557 629.719 742.223 640.5 746.5Z" fill="#8AA4D3"/>
<path fill-rule="evenodd" clip-rule="evenodd" d="M629.5 748.5C634.993 747.178 637.493 749.178 637 754.5C633.228 758.123 628.728 759.623 623.5 759C622.483 757.951 622.316 756.784 623 755.5C624.694 752.642 626.861 750.309 629.5 748.5Z" fill="#B4DDFD"/>
</svg>
