<svg width="150" height="150" viewBox="0 0 1080 1080" fill="none" xmlns="http://www.w3.org/2000/svg">
<path fill-rule="evenodd" clip-rule="evenodd" d="M523.5 238.5C551.232 235.341 576.565 241.508 599.5 257C608.889 264.466 615.556 273.799 619.5 285C699.286 311.666 744.786 366.833 756 450.5C758.322 468.099 758.989 485.766 758 503.5C756.557 520.933 754.39 538.267 751.5 555.5C754.583 580.144 746.916 600.644 728.5 617C719.558 620.771 712.225 626.605 706.5 634.5C719.728 653.587 731.561 673.587 742 694.5C753.926 722.413 748.759 746.413 726.5 766.5C724.316 764.336 722.983 761.669 722.5 758.5C718.432 771.061 711.099 781.228 700.5 789C698.559 790.903 696.226 791.736 693.5 791.5C694.034 786.099 692.867 781.099 690 776.5C685.428 769.871 680.262 763.704 674.5 758C660.18 747.506 645.513 737.506 630.5 728C621.21 721.045 612.21 713.712 603.5 706C590.885 707.987 578.218 709.987 565.5 712C526.741 715.781 489.074 711.114 452.5 698C429.379 688.211 410.379 673.211 395.5 653C382.98 644.488 371.646 634.488 361.5 623C346.149 615.639 335.649 603.806 330 587.5C328.455 580.73 327.288 573.897 326.5 567C326.721 563.729 327.388 560.563 328.5 557.5C317.045 508.928 317.879 460.595 331 412.5C351.578 347.588 394.412 305.088 459.5 285C468.026 264.81 482.692 251.143 503.5 244C510.208 241.826 516.875 239.993 523.5 238.5Z" fill="#3A231C"/>
<path fill-rule="evenodd" clip-rule="evenodd" d="M523.5 242.5C546.822 240.108 568.822 244.274 589.5 255C598.271 260.138 605.438 266.972 611 275.5C612.411 277.65 613.245 279.984 613.5 282.5C564.155 271.877 514.822 271.877 465.5 282.5C466.691 279.111 468.191 275.778 470 272.5C484.132 255.862 501.965 245.862 523.5 242.5Z" fill="#834C3D"/>
<path fill-rule="evenodd" clip-rule="evenodd" d="M515.5 278.5C566.198 274.013 614.198 283.179 659.5 306C715.879 340.53 747.046 391.03 753 457.5C755.736 488.401 754.07 519.067 748 549.5C744.769 543.601 740.769 538.268 736 533.5C742.537 491.534 737.87 450.867 722 411.5C697.385 361.763 657.885 331.097 603.5 319.5C603.33 320.822 603.663 321.989 604.5 323C674.679 340.511 716.846 384.677 731 455.5C735.552 481.509 735.552 507.509 731 533.5C720.833 548.834 712.499 565.167 706 582.5C705.667 570.167 705.333 557.833 705 545.5C704.162 533.308 699.995 522.475 692.5 513C683.88 507.456 674.547 503.456 664.5 501C628.584 493.287 592.251 489.12 555.5 488.5C552.365 465.157 547.698 442.157 541.5 419.5C540.167 419.5 538.833 419.5 537.5 419.5C531.597 442.22 526.93 465.22 523.5 488.5C485.333 488.944 447.666 493.444 410.5 502C387.189 506.989 375.022 521.489 374 545.5C373.667 557.833 373.333 570.167 373 582.5C366.501 565.167 358.167 548.834 348 533.5C340.033 486.265 346.7 441.265 368 398.5C393.37 358.669 429.203 333.336 475.5 322.5C475.5 321.5 475.5 320.5 475.5 319.5C421.151 331.086 381.651 361.753 357 411.5C341.404 450.045 336.904 489.878 343.5 531C342.52 534.001 340.687 536.501 338 538.5C335.417 541.997 333.084 545.664 331 549.5C320.277 499.052 322.944 449.386 339 400.5C362.03 343.139 403.196 305.639 462.5 288C480.005 283.084 497.671 279.918 515.5 278.5Z" fill="#834C3D"/>
<path fill-rule="evenodd" clip-rule="evenodd" d="M622.5 612.5C612.919 615.997 609.419 622.663 612 632.5C616.028 637.43 621.195 640.097 627.5 640.5C630.241 657.417 631.241 674.417 630.5 691.5C592.929 706.721 553.929 712.221 513.5 708C490.842 706.278 469.175 700.778 448.5 691.5C447.336 685.193 447.169 678.859 448 672.5C449.026 661.8 450.192 651.133 451.5 640.5C462.403 639.768 467.903 634.101 468 623.5C465.594 618.259 461.761 614.592 456.5 612.5C458.846 600.447 461.513 588.447 464.5 576.5C473.736 577.579 482.736 579.579 491.5 582.5C491.822 580.278 491.155 578.444 489.5 577C469.087 566.247 447.253 561.081 424 561.5C420.115 561.533 416.281 561.867 412.5 562.5C411.417 563.365 411.251 564.365 412 565.5C414.104 568.71 415.937 572.043 417.5 575.5C407.736 598.889 401.569 623.223 399 648.5C378.405 612.596 372.072 574.263 380 533.5C383.065 520.102 391.232 511.602 404.5 508C419.297 503.774 434.297 500.441 449.5 498C475.086 494.887 500.753 492.72 526.5 491.5C529.305 471.139 533.638 451.139 539.5 431.5C545.354 451.099 549.688 471.099 552.5 491.5C588.55 492.397 624.216 496.564 659.5 504C668.397 506.389 677.064 509.389 685.5 513C692.606 518.026 697.106 524.859 699 533.5C706.995 574.268 700.662 612.601 680 648.5C677.433 623.23 671.266 598.897 661.5 575.5C663.788 571.259 665.788 566.926 667.5 562.5C641.171 559.172 616.171 563.339 592.5 575C591.271 576.529 589.771 577.696 588 578.5C587.517 579.448 587.351 580.448 587.5 581.5C596.412 579.348 605.412 577.848 614.5 577C618.121 588.604 620.788 600.438 622.5 612.5Z" fill="#FDD6C5"/>
<path fill-rule="evenodd" clip-rule="evenodd" d="M492.5 495.5C493.5 495.5 494.5 495.5 495.5 495.5C495.657 496.873 495.49 498.207 495 499.5C482.394 511.051 467.561 518.218 450.5 521C444.215 522.244 437.882 523.077 431.5 523.5C431.33 522.178 431.663 521.011 432.5 520C450.734 518.477 467.734 513.144 483.5 504C487 501.666 490 498.832 492.5 495.5Z" fill="#3C251D"/>
<path fill-rule="evenodd" clip-rule="evenodd" d="M583.5 495.5C584.552 495.351 585.552 495.517 586.5 496C598.059 506.947 611.726 513.947 627.5 517C633.782 518.325 640.115 519.325 646.5 520C647.337 521.011 647.67 522.178 647.5 523.5C623.699 522.848 602.699 515.015 584.5 500C583.62 498.644 583.286 497.144 583.5 495.5Z" fill="#3D251E"/>
<path fill-rule="evenodd" clip-rule="evenodd" d="M381.5 620.5C378.375 621.479 375.042 621.813 371.5 621.5C356.63 618.147 345.464 609.813 338 596.5C332.47 585.059 330.137 573.059 331 560.5C333.336 551.656 337.836 544.156 344.5 538C345.167 537.333 345.833 537.333 346.5 538C352.945 548.223 358.612 558.889 363.5 570C359.5 570.333 355.5 570.667 351.5 571C350.663 572.011 350.33 573.178 350.5 574.5C355.762 574.195 360.928 574.529 366 575.5C372.857 589.935 378.024 604.935 381.5 620.5Z" fill="#FBD5C4"/>
<path fill-rule="evenodd" clip-rule="evenodd" d="M707.5 621.5C703.958 621.813 700.625 621.479 697.5 620.5C700.971 604.921 706.137 589.921 713 575.5C718.072 574.529 723.238 574.195 728.5 574.5C728.67 573.178 728.337 572.011 727.5 571C723.5 570.667 719.5 570.333 715.5 570C720.388 558.889 726.055 548.223 732.5 538C733.167 537.333 733.833 537.333 734.5 538C748.167 551.013 752.001 566.513 746 584.5C740.132 604.203 727.299 616.537 707.5 621.5Z" fill="#FBD5C4"/>
<path fill-rule="evenodd" clip-rule="evenodd" d="M459.5 546.5C471.733 545.247 482.4 548.58 491.5 556.5C491.113 557.72 490.28 558.387 489 558.5C480.573 552.248 471.073 549.415 460.5 550C459.663 548.989 459.33 547.822 459.5 546.5Z" fill="#3D261E"/>
<path fill-rule="evenodd" clip-rule="evenodd" d="M604.5 546.5C609.5 546.5 614.5 546.5 619.5 546.5C619.67 547.822 619.337 548.989 618.5 550C607.852 549.201 598.352 552.034 590 558.5C586.88 557.407 586.713 555.907 589.5 554C594.35 551.007 599.35 548.507 604.5 546.5Z" fill="#3F2820"/>
<path fill-rule="evenodd" clip-rule="evenodd" d="M422.5 574.5C435.238 574.074 447.904 574.74 460.5 576.5C450.958 613.243 444.958 650.576 442.5 688.5C426.774 680.611 413.608 669.611 403 655.5C404.626 627.328 411.126 600.328 422.5 574.5Z" fill="#B2E1F6"/>
<path fill-rule="evenodd" clip-rule="evenodd" d="M625.5 574.5C636.082 574.18 646.582 574.513 657 575.5C668.364 600.956 674.697 627.623 676 655.5C669.837 662.662 663.337 669.496 656.5 676C649.418 680.625 642.251 685.125 635 689.5C634.273 651.124 628.773 613.457 618.5 576.5C620.969 575.832 623.302 575.165 625.5 574.5Z" fill="#B2E1F6"/>
<path fill-rule="evenodd" clip-rule="evenodd" d="M537.5 589.5C538.822 589.33 539.989 589.663 541 590.5C541.667 593.167 541.667 595.833 541 598.5C540.586 598.957 540.086 599.291 539.5 599.5C537.817 596.398 537.151 593.064 537.5 589.5Z" fill="#D68785"/>
<path fill-rule="evenodd" clip-rule="evenodd" d="M456.5 612.5C461.761 614.592 465.594 618.259 468 623.5C467.903 634.101 462.403 639.768 451.5 640.5C452.539 630.924 454.206 621.59 456.5 612.5Z" fill="#F6A9A3"/>
<path fill-rule="evenodd" clip-rule="evenodd" d="M622.5 612.5C624.794 621.59 626.461 630.924 627.5 640.5C621.195 640.097 616.028 637.43 612 632.5C609.419 622.663 612.919 615.997 622.5 612.5Z" fill="#F7A9A3"/>
<path fill-rule="evenodd" clip-rule="evenodd" d="M510.5 613.5C520.103 613.461 529.603 614.461 539 616.5C548.726 614.22 558.56 613.386 568.5 614C581.616 619.027 589.45 628.527 592 642.5C592.667 649.833 592.667 657.167 592 664.5C586.701 684.4 574.201 690.9 554.5 684C549.669 681.668 544.669 679.835 539.5 678.5C534.081 680.041 528.748 681.874 523.5 684C506.314 690.617 494.481 685.45 488 668.5C483.279 649.582 487.446 633.082 500.5 619C503.767 616.87 507.1 615.037 510.5 613.5Z" fill="#3B231C"/>
<path fill-rule="evenodd" clip-rule="evenodd" d="M511.5 617.5C520.258 617.718 528.925 618.718 537.5 620.5C547.479 619 557.479 618.166 567.5 618C572.901 619.701 577.234 622.868 580.5 627.5C574.705 629.626 568.705 630.792 562.5 631C543.81 631.818 525.144 631.484 506.5 630C503.549 629.904 500.882 629.071 498.5 627.5C501.735 622.581 506.069 619.248 511.5 617.5Z" fill="#F9F9F9"/>
<path fill-rule="evenodd" clip-rule="evenodd" d="M381.5 620.5C382.043 620.56 382.376 620.893 382.5 621.5C378.685 622.808 375.019 622.808 371.5 621.5C375.042 621.813 378.375 621.479 381.5 620.5Z" fill="#9C7D71"/>
<path fill-rule="evenodd" clip-rule="evenodd" d="M697.5 620.5C700.625 621.479 703.958 621.813 707.5 621.5C703.981 622.808 700.315 622.808 696.5 621.5C696.624 620.893 696.957 620.56 697.5 620.5Z" fill="#8F7266"/>
<path fill-rule="evenodd" clip-rule="evenodd" d="M369.5 626.5C369.735 625.903 370.235 625.57 371 625.5C375.501 626.084 380.001 626.751 384.5 627.5C387.038 633.408 389.705 639.242 392.5 645C390.369 644.602 388.369 643.602 386.5 642C380.664 636.996 374.997 631.829 369.5 626.5Z" fill="#7F4A3B"/>
<path fill-rule="evenodd" clip-rule="evenodd" d="M706.5 625.5C707.552 625.351 708.552 625.517 709.5 626C702.599 633.572 695.099 640.405 687 646.5C689.432 640.277 691.932 633.944 694.5 627.5C698.647 626.833 702.647 626.166 706.5 625.5Z" fill="#804B3C"/>
<path fill-rule="evenodd" clip-rule="evenodd" d="M494.5 632.5C509.418 634.628 524.418 635.961 539.5 636.5C554.559 635.662 569.559 634.329 584.5 632.5C585.942 636.674 587.109 641.008 588 645.5C588.963 652.961 588.463 660.295 586.5 667.5C555.301 650.18 524.135 650.18 493 667.5C489.467 655.692 489.967 644.025 494.5 632.5Z" fill="#3E2721"/>
<path fill-rule="evenodd" clip-rule="evenodd" d="M701.5 638.5C702.822 638.33 703.989 638.663 705 639.5C715.085 653.996 724.418 668.996 733 684.5C742.098 699.654 745.431 715.988 743 733.5C740.567 743.705 735.567 752.372 728 759.5C726.673 756.869 725.34 754.202 724 751.5C722.951 750.483 721.784 750.316 720.5 751C717.339 765.155 710.005 776.655 698.5 785.5C692.521 771.379 683.521 759.545 671.5 750C648.755 736.628 627.422 721.295 607.5 704C639.092 696.033 664.425 679.033 683.5 653C690.267 649.061 696.267 644.228 701.5 638.5Z" fill="#834C3D"/>
<path fill-rule="evenodd" clip-rule="evenodd" d="M531.5 658.5C548.385 657.639 564.385 660.806 579.5 668C585.707 671.233 585.707 674.9 579.5 679C574.601 682.225 569.268 683.225 563.5 682C555.444 679.592 547.444 677.092 539.5 674.5C532.562 675.801 525.895 677.968 519.5 681C508.403 685.083 500.07 682.083 494.5 672C499.853 666.98 506.186 663.647 513.5 662C519.672 660.998 525.672 659.832 531.5 658.5Z" fill="#E86972"/>
</svg>
